<svg xmlns="http://www.w3.org/2000/svg" width="62mm" height="15mm" viewBox="0 0 62 15"><defs><clipPath id="s"><path d="M107.326 4740.939h-.244c-.429-.061-.857-.061-1.286-.184h-.061c-.429-.061-.857-.184-1.286-.245h-.061l-1.286-.367-.061-.061c-2.327-1.225-.612-9.123 3.857-17.694.551-1.041 1.102-2.082 1.714-3.061.551.979 1.164 2.02 1.715 3.061 4.469 8.571 6.183 16.469 3.857 17.694l-.062.061-1.285.367h-.062c-.428.123-.857.184-1.285.245h-.061l-1.286.184h-.245c-.429.061-.857.061-1.286.061-.428 0-.857 0-1.286-.061"/></clipPath><clipPath id="t"><path d="M90 4699h174v42H90z"/></clipPath><clipPath id="q"><path d="M97.898 4733.531c-.735-.49-1.347-1.041-1.96-1.592-.305-.245-.55-.551-.856-.857l-.062-.062c-.55-.551-1.04-1.224-1.53-1.836l-.123-.123c-.245-.306-.428-.612-.612-.918v-.061c-.184-.306-.428-.674-.612-1.041l-.061-.123a6.176 6.176 0 0 1-.429-.918c-.061-.061-.061-.122-.122-.184a15.465 15.465 0 0 1-.735-2.204c0-.122-.061-.183-.061-.306-.062-.306-.184-.612-.245-.918 0-.061-.061-.123-.061-.245a48.492 48.492 0 0 1-.184-1.163c0-.062 0-.184-.061-.245-.062-.306-.062-.613-.123-.919v-.306c-.061-.367-.061-.796-.061-1.163s0-.735.061-1.041V4717c0-.245.061-.49.061-.735 0-.122.062-.245.062-.367 0-.245.06-.429.122-.674 0-.122.061-.244.061-.367.062-.245.062-.428.123-.673 0-.123.061-.245.061-.306.061-.245.122-.49.184-.796 0-.062.06-.123.06-.184.123-.306.185-.674.307-.98l.122-.122c.123-.245.184-.551.307-.796.06-.061.06-.184.122-.245.123-.245.184-.428.306-.673a.468.468 0 0 0 .123-.245c.122-.184.245-.429.367-.613a.462.462 0 0 0 .122-.244c.123-.245.307-.429.429-.674l.122-.184c.368-.551.796-1.102 1.225-1.653l.061-.061c.184-.245.429-.49.612-.673l.123-.123c.184-.183.367-.367.55-.612l.123-.122c.184-.184.429-.368.613-.551l.122-.123c.245-.245.49-.428.796-.612l.061-.061c1.837-.98 5.572 2.326 9.306 7.836-.918 1.47-1.836 3-2.694 4.653-4.653 9.062-6.49 17.511-4.04 18.796a14.696 14.696 0 0 1-2.082-1.285"/></clipPath><clipPath id="r"><path d="M90 4699h174v42H90z"/></clipPath><clipPath id="o"><path d="M113.143 4715.959c-4.776-9.061-10.653-15.367-13.163-14.143 2.571-1.347 5.51-2.081 8.571-2.081 10.286 0 18.612 8.326 18.612 18.612 0 7.163-4.04 13.347-9.98 16.469 2.51-1.347.674-9.734-4.04-18.857"/></clipPath><clipPath id="p"><path d="M90 4699h174v42H90z"/></clipPath><clipPath id="m"><path d="M262.776 4704.204c0-.673-.245-1.531-1.286-2.51-1.102-1.041-3.245-2.388-6-2.388-.49 0-.98.061-1.47.123a6.92 6.92 0 0 0-1.53.367c-.919.306-1.776.796-2.633 1.469-.857.674-1.592 1.592-2.143 2.817a5.805 5.805 0 0 0-.55 1.285c-.184.429-.307.919-.43 1.347-.122.613-.244 1.225-.305 1.898-.062.612-.062 1.225-.062 1.776 0 1.469.123 2.755.429 3.796a11.26 11.26 0 0 0 1.04 2.755c.123.183.307.49.552.918.245.429.612.857 1.102 1.286.612.612 1.408 1.163 2.388 1.653s2.204.735 3.673.735c1.96 0 3.49-.429 4.592-1.225a8.906 8.906 0 0 0 2.449-2.633c.367-.673.673-1.346.796-1.959.122-.612.183-1.102.183-1.469 0-.429-.06-.735-.245-.918-.183-.184-.367-.245-.55-.307a.619.619 0 0 1-.184-.061h-.184l-12.857-1.837c.184-2.816.918-4.959 2.204-6.306 1.286-1.347 2.755-2.02 4.347-2.02 1.286 0 4.163.735 5.816 2.755.49.612.919.306.919-.061-.123-.245-.061-.49-.061-1.286zm-3.245 10.225c-.123 1.285-.613 2.387-1.409 3.244-.857.858-1.836 1.286-3.06 1.286-1.715 0-3-.551-3.858-1.714-.857-1.163-1.408-2.572-1.653-4.347z"/></clipPath><clipPath id="n"><path d="M90 4699h174v42H90z"/></clipPath><clipPath id="k"><path d="M240.796 4719.02v-13.653c0-.551.061-.979.061-1.285 0-.306.123-.551.184-.796 0-.062.061-.184.061-.245s.061-.123.122-.245c.245-.429.552-.796.98-1.041.429-.245.918-.367 1.53-.367h.246c.122 0 .183 0 .306.061h.551c.245 0 .428-.061.55-.122.123-.123.184-.184.246-.307v-.367c0-.306-.184-.551-.551-.735-.368-.183-.796-.306-1.286-.428-.306 0-.551-.061-.796-.061s-.49-.062-.612-.062c-.98 0-1.898.184-2.633.49-.735.367-1.347.796-1.775 1.347a3.96 3.96 0 0 0-.551.98 6.015 6.015 0 0 0-.307.979c-.06.306-.06.674-.122.98v14.877h-2.204c-.306 0-.429.062-.551.123-.061.061-.123.245-.123.49 0 .551 0 .857.062.979.06.123.245.184.55.184h2.205v2.449c0 .245 0 .428.061.551 0 .122.061.245.184.428.06.062.122.123.183.245l.245.245 1.96 1.653c.244.184.367.306.49.368a.461.461 0 0 0 .244.061c.184 0 .306-.123.368-.306.06-.184.06-.368.06-.612v-5.082h3.674c.245 0 .429 0 .551-.061.123-.062.123-.245.123-.49 0-.551 0-.857-.062-1.041-.06-.122-.244-.184-.55-.184z"/></clipPath><clipPath id="l"><path d="M90 4699h174v42H90z"/></clipPath><clipPath id="i"><path d="M228.429 4717.429c-.245.551-.98.918-2.878.918-2.204 0-4.04-.857-4.898-1.286-1.408-.734-2.082-.612-2.082.245v1.102c0 .919.062.735.858 1.225.734.428 1.775.857 3 1.224 2.081.551 4.285.49 6.06.061 1.225-.306 1.899-.673 2.633-1.224.429-.306.796-.796.919-1.163.122-.307.183-.796.183-1.531v-12.918c0-.919-.122-1.653-.367-2.204-.184-.551-.673-1.041-1.47-1.47-.428-.245-.979-.367-1.53-.551-.55-.122-1.163-.245-1.714-.367-.49-.061-.919-.123-1.408-.123-.429 0-.857-.061-1.286-.061-.245 0-.735 0-1.408.061a14.35 14.35 0 0 0-2.143.368c-.98.306-1.837.857-2.571 1.653-.796.734-1.164 1.898-1.164 3.428 0 2.021.796 3.49 2.388 4.47 1.592.979 3.674 1.836 6.245 2.632.429.123.918.245 1.408.429.49.122.98.245 1.408.429v3.061c0 .857.062 1.102-.183 1.592zm.183-6.674c-.428-.122-.796-.245-1.224-.367-.368-.123-.796-.245-1.164-.368-1.591-.551-2.877-1.163-3.795-1.836-.98-.674-1.409-1.653-1.409-2.939 0-.061 0-.306.062-.674a3.68 3.68 0 0 1 .428-1.224c.245-.49.674-.918 1.286-1.347.612-.429 1.47-.612 2.571-.612 1.164 0 1.96.183 2.388.612.429.367.735.796.857 1.286 0 .183.062.367.062.551v6.918z"/></clipPath><clipPath id="j"><path d="M90 4699h174v42H90z"/></clipPath><clipPath id="g"><path d="M215.571 4699.673l-4.346.062-9.062 13.959c-.061.122-.122.184-.245.306a1.342 1.342 0 0 1-.245.306c-.244.306-.367.49-.673.735-.367.245-.857.245-1.53.245-1.286 0-1.348-.429-1.348-.551v-15.062h-4.347v33.062c0 .551.062.857.123 1.041.122.183.306.367.673.489.368.123 1.041.245 1.96.368.918.122 1.347.183 2.387.245.551.061 1.041.061 1.531.061h1.408c2.572 0 4.592-.245 6.796-1.102a6.975 6.975 0 0 0 2.327-1.408c.367-.307 1.04-.919 1.469-1.592a9.938 9.938 0 0 0 1.102-2.143c.306-.857.49-1.898.49-3.123 0-2.326-.796-4.347-2.327-6-1.592-1.653-3.673-3-6.49-3.673 0 0 10.47-15 10.898-15.796.429-.49-.55-.429-.55-.429zm-17.449 18.123c1.286-.061 2.143-.061 2.633-.061.49 0 .857 0 1.163.061h.306c2.205.184 4.041.918 5.45 2.143 1.408 1.224 2.142 2.939 2.142 5.143 0 2.204-.49 3.734-1.408 4.775-.98.98-2.02 1.653-3.183 1.959a6.854 6.854 0 0 1-2.143.368c-.674.061-1.225.061-1.715.061-.55 0-1.04 0-1.408-.061-.367-.062-.734-.062-1.102-.123-.122 0-.612-.061-.796-.122v-14.143z"/></clipPath><clipPath id="h"><path d="M90 4699h174v42H90z"/></clipPath><clipPath id="e"><path d="M137.694 4699.735v33.428c0 .061 0 .613.245.796.306.245.918.429 2.143.612 1.592.245 3.306.368 4.714.429h1.224c.735 0 1.654 0 2.694-.122.919-.062 2.694-.429 4.102-1.041 1.47-.613 3-1.715 3.796-2.633.551-.612 1.041-1.469 1.47-2.449.428-.979.673-2.265.673-3.735 0-.551-.061-1.285-.245-2.204-.122-.979-.55-1.959-1.224-3-.184-.245-.368-.551-.612-.857-.123-.122-1.898-2.081-4.592-3.183-2.572-1.041-6.062-1.286-7.286-1.286h-1.898c-.061.183-.245.183-.367.183-.184 0-.306 0-.49.062v-15zm4.347 17.877h.612c.245-.061.551-.122.857-.122h1.041c.551 0 1.102 0 1.776.061.612.061 1.285.122 1.959.245a9.23 9.23 0 0 1 4.102 2.02c1.224 1.041 1.898 2.817 1.898 5.266 0 2.081-.49 3.673-1.53 4.653a8.017 8.017 0 0 1-3.368 2.02c-.857.245-1.653.429-2.45.49-.795.061-1.346.061-1.836.061-.612 0-1.102 0-1.53-.061-.43-.061-.98-.123-1.531-.245z"/></clipPath><clipPath id="f"><path d="M90 4699h174v42H90z"/></clipPath><clipPath id="c"><path d="M190.837 4710.082v-.368c-.123-2.571-.98-4.959-2.633-7.163-1.653-2.143-3.918-3.245-6.918-3.245-3.123 0-5.51 1.102-7.164 3.306-1.591 2.204-2.448 4.653-2.51 7.347v.245c0 2.816.857 5.388 2.51 7.653 1.654 2.265 4.041 3.367 7.103 3.367 2.632 0 4.714-.857 6.244-2.51 1.47-1.653 2.51-3.551 2.94-5.571.122-.49.183-.919.244-1.408.061-.49.123-.919.123-1.408v-.245zm-5.939 6.857c-1.163 1.347-2.51 2.081-3.857 2.081-1.653 0-3-.734-3.98-2.265-.98-1.531-1.47-3.49-1.47-5.939 0-2.816.613-5.081 1.838-6.673 1.224-1.592 2.571-2.388 4.102-2.388 1.53 0 2.816.735 3.857 2.204 1.04 1.47 1.592 3.49 1.53 6.061v.735c-.183 2.755-.796 4.837-2.02 6.184z"/></clipPath><clipPath id="d"><path d="M90 4699h174v42H90z"/></clipPath><clipPath id="a"><path d="M159.245 4699.735v17.694c0 .673.061 1.163.184 1.53.122.306.367.612.795.857l.123.062c.612.367 1.592.734 2.816.979 1.225.306 2.878.367 3.735.306 1.347-.061 2.51-.367 3.306-.612 1.225-.367 1.163-.49 1.163-1.469v-1.102c0-.796-.673-.613-2.081-.245-.919.245-2.204.612-3.735.489-1.837-.122-2.388-.428-2.449-.918 0-.184-.061-.735-.061-.918v-16.715h-3.796z"/></clipPath><clipPath id="b"><path d="M90 4699h174v42H90z"/></clipPath></defs><g clip-path="url(#a)" transform="matrix(.35278 0 0 -.35278 -31.75 1672.81)"><g clip-path="url(#b)"><path d="M154.245 4726.185h22.123v-31.512h-22.123z" fill="#fff"/></g></g><g clip-path="url(#c)" transform="matrix(.35278 0 0 -.35278 -31.75 1672.81)"><g clip-path="url(#d)"><path d="M166.612 4726.224h29.225v-31.918h-29.225z" fill="#fff"/></g></g><g clip-path="url(#e)" transform="matrix(.35278 0 0 -.35278 -31.75 1672.81)"><g clip-path="url(#f)"><path d="M132.694 4740h31.061v-45.265h-31.061z" fill="#fff"/></g></g><g clip-path="url(#g)" transform="matrix(.35278 0 0 -.35278 -31.75 1672.81)"><g clip-path="url(#h)"><path d="M188.775 4739.939h32.456v-45.268h-32.456z" fill="#fff"/></g></g><g clip-path="url(#i)" transform="matrix(.35278 0 0 -.35278 -31.75 1672.81)"><g clip-path="url(#j)"><path d="M212.163 4726.255h25.061v-31.949h-25.06z" fill="#fff"/></g></g><g clip-path="url(#k)" transform="matrix(.35278 0 0 -.35278 -31.75 1672.81)"><g clip-path="url(#l)"><path d="M229.122 4731.796h21.51v-37.429h-21.51z" fill="#fff"/></g></g><g clip-path="url(#m)" transform="matrix(.35278 0 0 -.35278 -31.75 1672.81)"><g clip-path="url(#n)"><path d="M241.367 4726.531h27.204v-32.225h-27.204z" fill="#fff"/></g></g><g clip-path="url(#o)" transform="matrix(.35278 0 0 -.35278 -31.75 1672.81)"><g clip-path="url(#p)"><path d="M94.98 4739.816h37.183v-45.081H94.98z" fill="#fff"/></g></g><g clip-path="url(#q)" transform="matrix(.35278 0 0 -.35278 -31.75 1672.81)"><g clip-path="url(#r)"><path d="M85 4739.816h26.714v-41.457H85z" fill="#fff"/></g></g><g clip-path="url(#s)" transform="matrix(.35278 0 0 -.35278 -31.75 1672.81)"><g clip-path="url(#t)"><path d="M97.003 4746h23.218v-31.673H97.003z" fill="#fff"/></g></g></svg>