<svg xmlns="http://www.w3.org/2000/svg" width="62mm" height="15mm" viewBox="0 0 62 15"><link xmlns="" type="text/css" rel="stylesheet" id="dark-mode-custom-link"/><link xmlns="" type="text/css" rel="stylesheet" id="dark-mode-general-link"/><style xmlns="" lang="en" type="text/css" id="dark-mode-custom-style"/><style xmlns="" lang="en" type="text/css" id="dark-mode-native-style"/><style xmlns="" lang="en" type="text/css" id="dark-mode-native-sheet"/><defs><clipPath id="u"><path d="M107.339 3774.939h-.245c-.43-.061-.858-.061-1.287-.184h-.061c-.43-.061-.858-.184-1.287-.245h-.061l-1.287-.367-.061-.061c-2.328-1.225-.613-9.123 3.86-17.694.551-1.041 1.103-2.082 1.715-3.061.552.979 1.164 2.02 1.716 3.061 4.472 8.571 6.188 16.469 3.86 17.694l-.062.061-1.286.367h-.061c-.43.123-.858.184-1.287.245h-.061l-1.287.184h-.245c-.429.061-.858.061-1.287.061-.429 0-.857 0-1.286-.061"/></clipPath><linearGradient x2="0" y2="1024" gradientUnits="userSpaceOnUse" gradientTransform="matrix(1 0 0 -1 102.012 3775)" id="v"><stop offset="0" stop-color="#f5c57a"/><stop offset="1" stop-color="#f49f1a"/></linearGradient><linearGradient x1="6.596" y1=".394" x2="6.596" y2="20.608" gradientUnits="userSpaceOnUse" gradientTransform="matrix(1 0 0 -1 102.012 3775)" id="w"><stop offset="0" stop-color="#f5c57a"/><stop offset="1" stop-color="#f49f1a"/></linearGradient><clipPath id="r"><path d="M97.904 3767.531c-.736-.49-1.348-1.041-1.961-1.592-.306-.245-.551-.551-.858-.857l-.061-.062c-.551-.551-1.042-1.224-1.532-1.836l-.122-.123a7.883 7.883 0 0 1-.613-.918v-.061c-.184-.306-.429-.674-.613-1.041l-.06-.123a6.173 6.173 0 0 1-.43-.918c-.061-.061-.061-.122-.122-.184a15.457 15.457 0 0 1-.736-2.204c0-.122-.06-.183-.06-.306-.062-.306-.185-.612-.246-.918 0-.061-.061-.123-.061-.245a48.511 48.511 0 0 1-.184-1.163c0-.062 0-.184-.061-.245-.061-.306-.061-.613-.123-.919v-.306c-.061-.367-.061-.796-.061-1.163s0-.735.061-1.041V3751c0-.245.062-.49.062-.735 0-.122.06-.245.06-.367 0-.245.062-.429.123-.674 0-.122.062-.244.062-.367.06-.245.06-.428.122-.673 0-.123.061-.245.061-.306.062-.245.123-.49.184-.796 0-.062.061-.123.061-.184.123-.306.184-.674.307-.98l.122-.122c.123-.245.184-.551.307-.796.061-.061.061-.184.122-.245.123-.245.184-.428.307-.673a.468.468 0 0 0 .122-.245c.123-.184.245-.429.368-.613a.462.462 0 0 0 .122-.244c.123-.245.307-.429.43-.674l.122-.184c.367-.551.796-1.102 1.225-1.653l.061-.061c.184-.245.43-.49.613-.673l.122-.123a5.45 5.45 0 0 0 .552-.612l.122-.122c.184-.184.43-.368.613-.551l.123-.123a3.94 3.94 0 0 1 .796-.612l.061-.061c1.838-.98 5.576 2.326 9.313 7.836-.919 1.47-1.838 3-2.696 4.653-4.656 9.062-6.494 17.511-4.043 18.796a14.708 14.708 0 0 1-2.083-1.285"/></clipPath><linearGradient x2="0" y2="1024" gradientUnits="userSpaceOnUse" gradientTransform="matrix(1 0 0 -1 90 3768.816)" id="s"><stop offset="0" stop-color="#b6d9ef"/><stop offset="1" stop-color="#6da6d2"/></linearGradient><linearGradient x1="8.397" y1="1.247" x2="8.397" y2="30.941" gradientUnits="userSpaceOnUse" gradientTransform="matrix(1 0 0 -1 90 3768.816)" id="t"><stop offset="0" stop-color="#b6d9ef"/><stop offset="1" stop-color="#6da6d2"/></linearGradient><clipPath id="o"><path d="M113.16 3749.959c-4.78-9.061-10.661-15.367-13.173-14.143 2.573-1.347 5.514-2.081 8.577-2.081 10.293 0 18.625 8.326 18.625 18.612 0 7.163-4.043 13.347-9.986 16.469 2.512-1.347.674-9.734-4.044-18.857"/></clipPath><linearGradient x2="0" y2="1024" gradientUnits="userSpaceOnUse" gradientTransform="matrix(1 0 0 -1 99.987 3768.816)" id="p"><stop offset="0" stop-color="#4a89ba"/><stop offset="1" stop-color="#033878"/></linearGradient><linearGradient x1="13.629" y1="5.231" x2="13.629" y2="36.188" gradientUnits="userSpaceOnUse" gradientTransform="matrix(1 0 0 -1 99.987 3768.816)" id="q"><stop offset="0" stop-color="#4a89ba"/><stop offset="1" stop-color="#033878"/></linearGradient><clipPath id="m"><path d="M262.897 3738.204c0-.673-.245-1.531-1.286-2.51-1.103-1.041-3.248-2.388-6.005-2.388-.49 0-.98.061-1.47.123a6.936 6.936 0 0 0-1.532.367c-.919.306-1.777.796-2.634 1.469-.858.674-1.593 1.592-2.145 2.817a5.807 5.807 0 0 0-.551 1.285c-.184.429-.306.919-.429 1.347-.123.613-.245 1.225-.306 1.898-.062.612-.062 1.225-.062 1.776 0 1.469.123 2.755.43 3.796a11.22 11.22 0 0 0 1.04 2.755c.123.183.307.49.552.918.245.429.613.857 1.103 1.286.613.612 1.41 1.163 2.39 1.653.98.49 2.205.735 3.676.735 1.96 0 3.492-.429 4.595-1.225a8.909 8.909 0 0 0 2.45-2.633c.368-.673.674-1.346.797-1.959.122-.612.184-1.102.184-1.469 0-.429-.062-.735-.245-.918-.184-.184-.368-.245-.552-.307-.061 0-.184-.061-.184-.061h-.183l-12.867-1.837c.184-2.816.92-4.959 2.206-6.306 1.287-1.347 2.757-2.02 4.35-2.02 1.287 0 4.166.735 5.82 2.755.49.612.92.306.92-.061-.123-.245-.062-.49-.062-1.286zm-3.247 10.225c-.122 1.285-.613 2.387-1.41 3.244-.857.858-1.837 1.286-3.063 1.286-1.715 0-3.002-.551-3.86-1.714-.857-1.163-1.409-2.572-1.654-4.347z"/></clipPath><clipPath id="n"><path d="M90 3733h174v42H90z"/></clipPath><clipPath id="k"><path d="M240.902 3753.02v-13.653c0-.551.061-.979.061-1.285 0-.306.123-.551.184-.796 0-.062.061-.184.061-.245s.062-.123.123-.245c.245-.429.551-.796.98-1.041.43-.245.92-.367 1.532-.367h.245c.123 0 .184 0 .306.061h.552c.245 0 .429-.061.551-.122.123-.123.184-.184.245-.307v-.367c0-.306-.184-.551-.551-.735-.368-.183-.797-.306-1.287-.428-.306 0-.551-.061-.796-.061s-.49-.062-.613-.062c-.98 0-1.9.184-2.634.49-.736.367-1.348.796-1.777 1.347a3.958 3.958 0 0 0-.552.98 6.005 6.005 0 0 0-.306.979c-.061.306-.061.674-.123.98v14.877h-2.205c-.307 0-.429.062-.552.123-.06.061-.122.245-.122.49 0 .551 0 .857.061.979.061.123.245.184.552.184h2.205v2.449c0 .245 0 .428.061.551 0 .122.062.245.184.428a.845.845 0 0 1 .184.245l.245.245 1.96 1.653c.246.184.368.306.49.368a.469.469 0 0 0 .246.061c.184 0 .306-.123.368-.306.06-.184.06-.368.06-.612v-5.082h3.677c.245 0 .429 0 .551-.061.123-.062.123-.245.123-.49 0-.551 0-.857-.061-1.041-.062-.122-.246-.184-.552-.184z"/></clipPath><clipPath id="l"><path d="M90 3733h174v42H90z"/></clipPath><clipPath id="i"><path d="M228.526 3751.429c-.245.551-.98.918-2.88.918-2.205 0-4.043-.857-4.9-1.286-1.41-.734-2.084-.612-2.084.245v1.102c0 .919.061.735.858 1.225.735.428 1.776.857 3.002 1.224 2.083.551 4.289.49 6.065.061 1.226-.306 1.9-.673 2.635-1.224.429-.306.796-.796.919-1.163.122-.307.184-.796.184-1.531v-12.918c0-.919-.123-1.653-.368-2.204-.184-.551-.674-1.041-1.47-1.47-.43-.245-.98-.367-1.532-.551-.552-.122-1.164-.245-1.716-.367-.49-.061-.919-.123-1.409-.123-.429 0-.857-.061-1.286-.061-.245 0-.735 0-1.41.061-.673.062-1.409.184-2.144.368-.98.306-1.838.857-2.573 1.653-.797.734-1.164 1.898-1.164 3.428 0 2.021.796 3.49 2.39 4.47 1.592.979 3.675 1.836 6.249 2.632.428.123.919.245 1.409.429.49.122.98.245 1.409.429v3.061c0 .857.061 1.102-.184 1.592zm.184-6.674c-.429-.122-.797-.245-1.226-.367-.367-.123-.796-.245-1.164-.368-1.592-.551-2.88-1.163-3.798-1.836-.98-.674-1.41-1.653-1.41-2.939 0-.061 0-.306.062-.674.061-.367.184-.795.429-1.224.245-.49.674-.918 1.286-1.347.613-.429 1.47-.612 2.574-.612 1.164 0 1.96.183 2.39.612.428.367.734.796.857 1.286 0 .183.061.367.061.551v6.918z"/></clipPath><clipPath id="j"><path d="M90 3733h174v42H90z"/></clipPath><clipPath id="g"><path d="M215.66 3733.673l-4.35.062-9.068 13.959c-.061.122-.122.184-.245.306a1.34 1.34 0 0 1-.245.306c-.245.306-.368.49-.674.735-.367.245-.858.245-1.532.245-1.286 0-1.347-.429-1.347-.551v-15.062h-4.35v33.062c0 .551.06.857.122 1.041.123.183.306.367.674.489.368.123 1.042.245 1.96.368.92.122 1.348.183 2.39.245.551.061 1.042.061 1.532.061h1.409c2.573 0 4.595-.245 6.8-1.102a6.98 6.98 0 0 0 2.329-1.408c.367-.307 1.041-.919 1.47-1.592a9.933 9.933 0 0 0 1.103-2.143c.306-.857.49-1.898.49-3.123 0-2.326-.796-4.347-2.328-6-1.593-1.653-3.676-3-6.494-3.673 0 0 10.476-15 10.905-15.796.43-.49-.551-.429-.551-.429zm-17.461 18.123c1.286-.061 2.144-.061 2.634-.061.49 0 .858 0 1.164.061h.306c2.206.184 4.044.918 5.453 2.143 1.41 1.224 2.145 2.939 2.145 5.143 0 2.204-.49 3.734-1.41 4.775-.98.98-2.021 1.653-3.185 1.959a6.862 6.862 0 0 1-2.145.368c-.674.061-1.225.061-1.715.061-.552 0-1.042 0-1.41-.061-.367-.062-.735-.062-1.102-.123-.123 0-.613-.061-.797-.122v-14.143z"/></clipPath><clipPath id="h"><path d="M90 3733h174v42H90z"/></clipPath><clipPath id="e"><path d="M137.727 3733.735v33.428c0 .061 0 .613.245.796.307.245.92.429 2.145.612 1.593.245 3.308.368 4.717.429h1.226c.735 0 1.654 0 2.696-.122.919-.062 2.695-.429 4.105-1.041 1.47-.613 3.002-1.715 3.798-2.633.552-.612 1.042-1.469 1.47-2.449.43-.979.674-2.265.674-3.735 0-.551-.06-1.285-.245-2.204-.122-.979-.551-1.959-1.225-3-.184-.245-.368-.551-.613-.857-.122-.122-1.899-2.081-4.595-3.183-2.573-1.041-6.065-1.286-7.29-1.286h-1.9c-.061.183-.245.183-.367.183-.184 0-.307 0-.49.062v-15zm4.35 17.877h.613c.245-.061.551-.122.858-.122h1.041c.552 0 1.103 0 1.777.061.613.061 1.287.122 1.96.245a9.24 9.24 0 0 1 4.106 2.02c1.225 1.041 1.899 2.817 1.899 5.266 0 2.081-.49 3.673-1.532 4.653a8.024 8.024 0 0 1-3.37 2.02c-.857.245-1.654.429-2.45.49-.797.061-1.348.061-1.838.061-.613 0-1.103 0-1.532-.061-.429-.061-.98-.123-1.532-.245z"/></clipPath><clipPath id="f"><path d="M90 3733h174v42H90z"/></clipPath><clipPath id="c"><path d="M190.908 3744.082v-.368c-.123-2.571-.98-4.959-2.635-7.163-1.654-2.143-3.92-3.245-6.923-3.245-3.125 0-5.514 1.102-7.168 3.306-1.593 2.204-2.451 4.653-2.512 7.347v.245c0 2.816.858 5.388 2.512 7.653 1.654 2.265 4.043 3.367 7.107 3.367 2.634 0 4.717-.857 6.249-2.51 1.47-1.653 2.512-3.551 2.94-5.571.123-.49.185-.919.246-1.408.061-.49.123-.919.123-1.408v-.245zm-5.943 6.857c-1.164 1.347-2.512 2.081-3.86 2.081-1.654 0-3.002-.734-3.983-2.265-.98-1.531-1.47-3.49-1.47-5.939 0-2.816.613-5.081 1.838-6.673 1.225-1.592 2.573-2.388 4.105-2.388 1.532 0 2.818.735 3.86 2.204 1.041 1.47 1.593 3.49 1.532 6.061v.735c-.184 2.755-.797 4.837-2.022 6.184z"/></clipPath><clipPath id="d"><path d="M90 3733h174v42H90z"/></clipPath><clipPath id="a"><path d="M159.294 3733.735v17.694c0 .673.06 1.163.183 1.53.123.306.368.612.797.857l.122.062c.613.367 1.593.734 2.819.979 1.225.306 2.88.367 3.737.306 1.348-.061 2.512-.367 3.309-.612 1.225-.367 1.164-.49 1.164-1.469v-1.102c0-.796-.674-.613-2.084-.245-.919.245-2.205.612-3.737.489-1.838-.122-2.39-.428-2.45-.918 0-.184-.062-.735-.062-.918v-16.715h-3.798z"/></clipPath><clipPath id="b"><path d="M90 3733h174v42H90z"/></clipPath></defs><g clip-path="url(#a)" transform="matrix(.35278 0 0 -.35278 -31.75 1332.027)"><g clip-path="url(#b)"><path d="M154.294 3760.185h22.131v-31.512h-22.131z" fill="#033878"/></g></g><g clip-path="url(#c)" transform="matrix(.35278 0 0 -.35278 -31.75 1332.027)"><g clip-path="url(#d)"><path d="M166.67 3760.224h29.238v-31.918H166.67z" fill="#033878"/></g></g><g clip-path="url(#e)" transform="matrix(.35278 0 0 -.35278 -31.75 1332.027)"><g clip-path="url(#f)"><path d="M132.727 3774h31.076v-45.265h-31.076z" fill="#033878"/></g></g><g clip-path="url(#g)" transform="matrix(.35278 0 0 -.35278 -31.75 1332.027)"><g clip-path="url(#h)"><path d="M188.849 3773.939h32.47v-45.268h-32.47z" fill="#033878"/></g></g><g clip-path="url(#i)" transform="matrix(.35278 0 0 -.35278 -31.75 1332.027)"><g clip-path="url(#j)"><path d="M212.253 3760.255h25.072v-31.949h-25.072z" fill="#033878"/></g></g><g clip-path="url(#k)" transform="matrix(.35278 0 0 -.35278 -31.75 1332.027)"><g clip-path="url(#l)"><path d="M229.224 3765.796h21.518v-37.429h-21.518z" fill="#033878"/></g></g><g clip-path="url(#m)" transform="matrix(.35278 0 0 -.35278 -31.75 1332.027)"><g clip-path="url(#n)"><path d="M241.477 3760.531h27.217v-32.225h-27.217z" fill="#033878"/></g></g><g clip-path="url(#o)" transform="matrix(.35278 0 0 -.35278 -31.75 1332.027)"><path d="M90 3733h174v42H90z" fill="url(#p)"/><path d="M90 3733h174v42H90z" fill="url(#q)"/></g><g clip-path="url(#r)" transform="matrix(.35278 0 0 -.35278 -31.75 1332.027)"><path d="M90 3733h174v42H90z" fill="url(#s)"/><path d="M90 3733h174v42H90z" fill="url(#t)"/></g><g clip-path="url(#u)" transform="matrix(.35278 0 0 -.35278 -31.75 1332.027)"><path d="M90 3733h174v42H90z" fill="url(#v)"/><path d="M90 3733h174v42H90z" fill="url(#w)"/></g><script xmlns=""/></svg>