<?xml version="1.0" encoding="UTF-8" standalone="no"?>
<svg
   version="1.1"
   width="425.197pt"
   height="425.197pt"
   viewBox="0 0 425.197 425.197"
   id="svg32"
   sodipodi:docname="TNT_.svg"
   inkscape:version="1.3 (0e150ed6c4, 2023-07-21)"
   xmlns:inkscape="http://www.inkscape.org/namespaces/inkscape"
   xmlns:sodipodi="http://sodipodi.sourceforge.net/DTD/sodipodi-0.dtd"
   xmlns="http://www.w3.org/2000/svg"
   xmlns:svg="http://www.w3.org/2000/svg">
  <sodipodi:namedview
     id="namedview32"
     pagecolor="#505050"
     bordercolor="#ffffff"
     borderopacity="1"
     inkscape:showpageshadow="0"
     inkscape:pageopacity="0"
     inkscape:pagecheckerboard="1"
     inkscape:deskcolor="#505050"
     inkscape:document-units="pt"
     inkscape:zoom="2.2076456"
     inkscape:cx="248.22825"
     inkscape:cy="217.19972"
     inkscape:window-width="1981"
     inkscape:window-height="1691"
     inkscape:window-x="1090"
     inkscape:window-y="0"
     inkscape:window-maximized="0"
     inkscape:current-layer="svg32" />
  <defs
     id="defs2">
    <clipPath
       id="clip_0">
      <path
         transform="matrix(1,0,0,-1,0,425.197)"
         d="M0 425.197H425.197V0H0Z"
         id="path1" />
    </clipPath>
    <clipPath
       id="clip_1">
      <path
         transform="matrix(1,0,0,-1,0,425.197)"
         d="M0 425.197H425.197V0H0Z"
         id="path2" />
    </clipPath>
  </defs>
  <path
     transform="matrix(1 0 0 -1 117.913 233.968)"
     d="M0 0C.491-17.069-1.85-21.738-13.401-24.272-7.669-26.916-3.745-24.491-1.064-20.826 3.69-14.324 4.054-7.136 0 0M-28.152 8.752C-20.703 17.012-21.444 23.053-30.181 28.324-35.842 19.393-35.439 14.396-28.152 8.752M-26.54 36.453C-27.738 36.251-29.108 36.358-30.106 35.8-39.313 30.657-41.024 11.027-32.795 4.497-28.607 1.174-24.521 1.445-20.696 5.468-15.556 10.872-15.634 17.149-16.962 24.867-18.343 19.443-18.914 14.873-20.755 10.89-21.769 8.695-25.004 6.063-27.078 6.193-29.62 6.352-32.969 8.649-34.265 10.972-38.947 19.364-35.148 29.793-26.54 36.453M-13.999 56.476C-14.714 56.492-15.428 56.508-16.143 56.523-17.059 50.944-18.706 45.349-18.577 39.794-18.515 37.113-15.267 34.363-13.059 32.024-12.72 31.665-9.288 33.026-8.869 34.17-7.668 37.451-5.994 41.409-6.878 44.4-8.164 48.747-11.524 52.481-13.999 56.476M3.595-17.929C8.549-17.929 12.573-17.689 16.557-17.988 21.827-18.384 30.727-9.681 30.011-4.342 29.86-3.216 28.728-1.26 28.158-1.299 21.348-1.759 14.377-1.859 7.881-3.636 6.061-4.133 5.593-9.783 4.623-13.104 4.111-14.855 3.854-16.682 3.595-17.929M.067 57.925C1.807 52.849 3.359 48.325 5.308 42.64 8.305 43.862 11.14 45.018 14.197 46.264 18.218 40.628 23.337 41.271 28.819 45.968 25.027 57.888 10.375 64.012 .067 57.925M117.842 58.294C119.638 53.908 120.509 48.594 123.563 45.315 126.094 42.597 131.349 40.916 135.12 41.326 138.154 41.656 142.88 45.555 143.201 48.298 144.387 58.452 133.384 65.154 123.958 60.762 122.152 59.921 120.26 59.263 117.842 58.294M12.833 35.055C18.986 26.164 19.153 16.155 14.815 5.759 15.63 5.192 16.446 4.625 17.261 4.058 20.308 6.755 23.355 9.451 25.766 11.584 26.322 10.763 27.391 9.185 28.461 7.607 30.606 9.197 34.231 10.498 34.609 12.433 35.617 17.602 35.993 23.181 35.074 28.32 34.617 30.878 31.06 34.187 28.391 34.76 23.533 35.801 18.292 35.055 12.833 35.055M96.46 39.104C96.944 49.241 92.988 58.864 87.894 58.79 77.055 58.633 66.218 57.477 55.418 56.363 54.062 56.223 52.236 54.045 51.837 52.498 50.788 48.443 57.822 39.267 62.141 39.18 73.387 38.955 84.642 39.104 96.46 39.104M158.186 30.825C151.751 36.506 136.07 37.743 129.087 32.846 127.855 31.982 126.873 29.847 126.877 28.302 126.892 22.713 127.377 17.127 127.725 10.792 133.638 9.994 139.705 8.229 145.604 8.674 150.479 9.042 156.918 10.69 159.529 14.142 163.925 19.954 164.479 27.604 158.935 34.916 158.616 33.174 158.402 32 158.186 30.825M96.729-17.861C98.017-18.699 99.306-19.538 100.595-20.376 103.039-17.312 105.482-14.248 107.668-11.506 107.877-13.245 108.185-15.813 108.493-18.381 109.279-18.469 110.065-18.557 110.851-18.644 123.515-3.487 126.035 14.788 123.652 33.699 122.329 44.197 118.05 54.338 110.906 62.36 110.29 62.022 109.674 61.685 109.058 61.347 109.867 58.37 110.675 55.393 111.89 50.919 108.766 54.922 106.778 57.468 104.791 60.014 104.306 59.745 103.821 59.475 103.336 59.206 104.382 55.518 105.428 51.83 106.524 47.967 102.679 52.895 99.052 57.543 95.426 62.19 94.673 61.676 93.92 61.162 93.167 60.647 99.152 48.404 106.408 36.746 106.846 22.445 107.288 8.056 105.041-5.478 96.729-17.861M56.303-5.237C56.594-12.959 59.635-15.388 67.3-14.542 72.24-13.997 77.347-13.16 82.183-13.841 94.05-15.512 99.117-12.197 100.993 .712 85.441 2.177 69.816 6.913 56.114-5.458 56.595 .722 57.328 6.895 57.508 13.084 57.934 27.717 53.565 41.093 46.306 56.028 46.024 52.161 45.924 50.777 45.847 49.721 43.018 54.041 40.283 58.218 37.548 62.394 36.936 61.988 36.325 61.582 35.713 61.175 39.223 51.345 42.733 41.514 46.243 31.683 45.476 31.431 44.708 31.179 43.941 30.927 37.439 41.734 39.739 58.652 20.842 63.174 44.584 35.503 42.867 8.002 24.689-20.497 30.4-17.679 34.94-15.439 40.709-12.592 40.163-16.313 39.928-17.915 39.693-19.517 40.605-19.86 41.516-20.203 42.428-20.546 45.174-13.826 47.919-7.106 50.626-.483 50.299-5.215 49.964-10.083 49.628-14.951 50.187-15.117 50.745-15.283 51.304-15.449 52.968-12.048 54.632-8.647 56.303-5.237M-18.177-1.808C-15.576 1.466-12.975 4.74-10.633 7.688-20.741 6.909-26.345-5.787-21.759-14.785-20.777-11.357-19.378-6.474-17.98-1.59-17.994-5.821-18.829-10.286-17.713-14.194-17.045-16.536-13.531-18.469-10.879-19.639-9.857-20.089-6.35-18.04-6.244-16.915-5.581-9.924-5.242-2.765-12.371 2.311-14.409 .866-16.289-.467-18.177-1.808M-.12 4.36-.333 4.554C4.914 .429 8.576 3.163 11.637 7.507 16.976 15.083 16.122 27.44 10.054 34.559 5.982 39.337 1.561 39.602-3.383 36.056-14.523 28.068-12.693 10.24-.12 4.36M144.103-14.692C143.103-20.149 140.17-23.279 134.282-23.062 123.482-22.665 112.667-22.546 101.881-21.922 91.953-21.348 82.017-19.268 72.154-19.65 59.405-20.144 46.734-22.506 34.013-23.913 21.105-25.341 8.146-24.001-4.853-27.468-17.697-30.893-27.662-19.471-25.501-6.21-25.248-4.66-25.063-3.098-24.852-1.581-34.923 1.152-40.292 6.335-40.728 15.345-41.181 24.711-39.505 33.511-30.22 39.032-28.343 40.148-27.446 43.487-26.794 45.984-24.773 53.72-24.014 62.144-14.455 64.911-25.102 53.032-27.016 43.605-22.043 35.279-21.318 40.453-20.846 47.485-19.137 54.202-18.448 56.91-15.432 59.906-12.762 60.951-10.64 61.782-7.435 59.844-4.71 59.135-4.531 59.533-4.351 59.931-4.172 60.329-7.665 61.808-11.158 63.286-14.652 64.764-12.497 65.819-10.318 67.826-8.192 67.773 4.149 67.462 16.481 66.739 28.808 66.016 44.276 65.109 59.727 63.801 75.206 63.219 81.289 62.99 87.423 64.324 93.544 64.828 106.261 65.873 118.978 67.309 131.712 67.509 134.895 67.559 139.291 64.223 141.112 61.22 144.524 55.595 146.46 49.076 149.277 42.287 156.287 42.517 162.809 40.266 164.713 31.682 177.291 34.09 178.291 35.756 175.841 47.646 175.392 49.824 175.624 52.563 176.581 54.539 181.952 65.628 198.966 73.673 210.944 71.097 216.596 69.882 218.692 65.076 215.983 59.227 214.769 56.606 213.266 54.119 211.817 51.43 219.976 49.404 227.505 52.686 231.413 61.578 234.566 68.749 235.625 76.84 237.462 83.941 240.078 75.052 241.435 64.773 234.566 56.926 229.457 51.091 221.899 46.497 214.534 43.823 208.493 41.629 204.551 48.209 207.123 54.701 208.195 57.409 209.448 60.045 211.031 63.652 202.497 66.922 195.937 63.436 189.957 59.241 185.235 55.929 180.539 52.314 182.937 44.749 186.05 34.934 182.978 29.27 172.742 25.776 167.998 24.157 165.058 22.275 164.001 17.013 162.44 9.242 157.148 4.434 151.225 2.851 148.449-3.88 146.177-9.385 143.904-14.892 144.974-10.355 146.045-5.816 147.189-.969 140.986 .454 134.32 4.229 130.241 2.359 124.96-.062 121.742-6.984 117.636-11.968 118.271-13.118 118.906-14.269 119.542-15.42 127.729-15.177 135.916-14.934 144.103-14.692"
     fill="#231f20"
     id="path3"
     clip-path="none" />
  <path
     transform="matrix(1 0 0 -1 386.345 149.191)"
     d="M0 0C-21.53-2.474-20.104-2.327-16.566-13.083-19.881-12.085-23.339-11.043-27.328-9.841-28.062-5.209-19.673-4.342-21.874 3.439-23.665 9.771-25.197 12.208-31.705 12.629-39.248 13.117-43.159 8.184-45.372 3.238-48.247-3.189-38.514-5.532-35.812-11.289-37.496-12.493-39.177-13.693-41.18-15.125-40.177-1.472-49.95-7.771-58.096-6.875-53.612-4.256-50.927-2.688-46.702-.221-54.662 3.851-61.505 7.351-68.348 10.851-68.238 11.105-68.129 11.36-68.019 11.615-62.843 10.518-57.699 9.208-52.476 8.419-50.014 8.046-47.401 8.673-44.856 8.847-45.086 11.338-46.412 12.821-47.029 15.212-47.593 17.402-49.383 23.2-50.644 25.887-46.15 22.493-40.49 16.925-36.711 14.071-34.069 17.847-31.051 33.397-28.838 36.561-28.221 34.309-28.621 18.023-26.378 15.827-24.443 13.933-12.32 23.013-9.151 22.615-11.115 17.802-21.299 8.654-19.777 6.881-18.014 4.826-11.271 2.086 0 0"
     fill="#231f20"
     id="path4"
     clip-path="none" />
  <path
     transform="matrix(1 0 0 -1 174.209 239.215)"
     d="M0 0C-1.664-3.401-3.328-6.802-4.992-10.202-5.551-10.036-6.11-9.87-6.668-9.704-6.333-4.836-5.997 .032-5.671 4.764-8.377-1.859-11.123-8.579-13.869-15.299-14.78-14.956-15.692-14.613-16.603-14.27-16.368-12.668-16.133-11.066-15.587-7.346-21.356-10.192-25.897-12.433-31.607-15.251-13.429 13.249-11.712 40.75-35.454 68.421-16.557 63.899-18.857 46.98-12.356 36.174-11.588 36.426-10.821 36.678-10.053 36.929-13.563 46.76-17.073 56.591-20.583 66.422-19.972 66.828-19.36 67.235-18.749 67.641-16.014 63.464-13.279 59.288-10.45 54.968-10.373 56.024-10.272 57.408-9.991 61.274-2.731 46.34 1.637 32.964 1.211 18.33 1.031 12.141 .299 5.969-.183-.211L0 0C0 0 0 0 0 0"
     fill="#ffffff"
     id="path5"
     clip-path="none" />
  <path
     transform="matrix(1 0 0 -1 214.642 251.829)"
     d="M0 0C8.312 12.383 10.559 25.916 10.118 40.305 9.679 54.607 2.423 66.265-3.561 78.508-2.808 79.022-2.056 79.536-1.303 80.051 2.324 75.403 5.95 70.755 9.796 65.827 8.7 69.691 7.654 73.379 6.608 77.067 7.092 77.336 7.577 77.605 8.062 77.875 10.05 75.328 12.037 72.782 15.162 68.779 13.947 73.253 13.138 76.231 12.329 79.208 12.945 79.545 13.562 79.883 14.178 80.22 21.321 72.199 25.6 62.057 26.923 51.56 29.307 32.648 26.786 14.374 14.122-.784 13.336-.696 12.55-.608 11.765-.52 11.456 2.048 11.148 4.616 10.939 6.354 8.753 3.613 6.31 .548 3.867-2.516 2.578-1.677 1.289-.839 0 0"
     fill="#ffffff"
     id="path6"
     clip-path="none" />
  <path
     transform="matrix(1 0 0 -1 276.1 203.141)"
     d="M0 0C.215 1.174 .43 2.347 .748 4.089 6.292-3.223 5.738-10.873 1.342-16.684-1.269-20.137-7.707-21.785-12.583-22.153-18.482-22.598-24.548-20.833-30.462-20.035-30.81-13.7-31.295-8.113-31.31-2.525-31.314-.98-30.332 1.155-29.1 2.019-22.117 6.916-6.435 5.679 0 0"
     fill="#ffffff"
     id="path7"
     clip-path="none" />
  <path
     transform="matrix(1 0 0 -1 214.372 194.864)"
     d="M0 0C-11.818 0-23.072-.149-34.319 .076-38.637 .162-45.672 9.338-44.623 13.394-44.223 14.94-42.398 17.118-41.041 17.258-30.242 18.373-19.405 19.528-8.565 19.685-3.472 19.759 .485 10.137 0 0"
     fill="#ffffff"
     id="path8"
     clip-path="none" />
  <path
     transform="matrix(1 0 0 -1 174.026 239.426)"
     d="M0 0C13.702 12.371 29.327 7.635 44.879 6.17 43.003-6.739 37.936-10.054 26.07-8.383 21.233-7.702 16.126-8.539 11.186-9.084 3.522-9.93 .481-7.501 .186 .216 .183 .211 0 0 0 0"
     fill="#ffffff"
     id="path9"
     clip-path="none" />
  <path
     transform="matrix(1 0 0 -1 130.745 198.913)"
     d="M0 0C5.459 0 10.7 .746 15.558-.296 18.227-.868 21.784-4.177 22.241-6.735 23.161-11.875 22.784-17.453 21.776-22.623 21.399-24.557 17.773-25.859 15.629-27.449 14.559-25.87 13.489-24.292 12.933-23.472 10.523-25.605 7.476-28.301 4.429-30.997 3.613-30.43 2.798-29.863 1.982-29.296 6.321-18.901 6.154-8.891 0 0"
     fill="#ffffff"
     id="path10"
     clip-path="none" />
  <path
     transform="matrix(1 0 0 -1 262.016 248.66)"
     d="M0 0C-8.187-.243-16.374-.485-24.561-.728-25.197 .423-25.832 1.573-26.467 2.724-22.361 7.708-19.143 14.63-13.862 17.051-9.783 18.92-3.117 15.146 3.086 13.723 1.942 8.876 .871 4.337-.199-.201-.197-.2 0 0 0 0"
     fill="#ffffff"
     id="path11"
     clip-path="none" />
  <path
     transform="matrix(1 0 0 -1 235.755 175.674)"
     d="M0 0C2.418 .969 4.31 1.627 6.116 2.468 15.542 6.859 26.545 .158 25.359-9.996 25.038-12.739 20.312-16.638 17.277-16.968 13.507-17.378 8.252-15.697 5.721-12.979 2.667-9.7 1.796-4.386 0 0"
     fill="#ffffff"
     id="path12"
     clip-path="none" />
  <path
     transform="matrix(1 0 0 -1 117.98 176.043)"
     d="M0 0C10.308 6.087 24.961-.037 28.752-11.958 23.271-16.654 18.151-17.298 14.13-11.661 11.073-12.907 8.239-14.063 5.242-15.285 3.292-9.6 1.741-5.076 0 0"
     fill="#ffffff"
     id="path13"
     clip-path="none" />
  <path
     transform="matrix(1 0 0 -1 121.508 251.897)"
     d="M0 0C.259 1.247 .516 3.073 1.028 4.825 1.998 8.146 2.465 13.795 4.286 14.293 10.782 16.07 17.753 16.17 24.562 16.63 25.133 16.668 26.265 14.713 26.416 13.587 27.132 8.248 18.232-.455 12.962-.059 8.978 .24 4.954 0 0 0"
     fill="#ffffff"
     id="path14"
     clip-path="none" />
  <path
     transform="matrix(1 0 0 -1 103.913 177.492)"
     d="M0 0C2.475-3.995 5.836-7.729 7.121-12.077 8.005-15.067 6.331-19.026 5.13-22.306 4.711-23.451 1.28-24.811 .941-24.452-1.267-22.113-4.516-19.364-4.578-16.682-4.707-11.128-3.06-5.532-2.143 .047-1.429 .031-.714 .016 0 0"
     fill="#ffffff"
     id="path15"
     clip-path="none" />
  <path
     transform="matrix(1 0 0 -1 99.7432 235.767)"
     d="M0 0C1.88 1.333 3.761 2.665 5.799 4.11 12.928-.965 12.589-8.125 11.926-15.116 11.819-16.241 8.312-18.29 7.291-17.839 4.638-16.67 1.125-14.737 .456-12.395-.659-8.487 .176-4.022 .19 .209Z"
     fill="#ffffff"
     id="path16"
     clip-path="none" />
  <path
     transform="matrix(1 0 0 -1 117.793 229.608)"
     d="M0 0C-12.573 5.88-14.402 23.708-3.263 31.696 1.681 35.242 6.102 34.977 10.174 30.199 16.242 23.08 17.096 10.722 11.757 3.147 8.696-1.197 5.035-3.931-.217 .197 8.484-1.052 11.05 4.774 12.504 11.519 14.111 18.976 10.569 29.438 5.354 30.51 2.475 31.102-2.171 29.442-4.097 27.168-10.765 19.297-9.006 9.883 0 0"
     fill="#ffffff"
     id="path17"
     clip-path="none" />
  <path
     transform="matrix(1 0 0 -1 91.3729 197.515)"
     d="M0 0C-8.608-6.66-12.407-17.089-7.725-25.481-6.429-27.804-3.08-30.101-.538-30.26 1.536-30.39 4.771-27.758 5.785-25.563 7.626-21.58 8.197-17.01 9.578-11.586 10.905-19.304 10.984-25.581 5.844-30.985 2.019-35.008-2.067-35.28-6.255-31.956-14.484-25.426-12.773-5.796-3.567-.653-2.568-.095-1.198-.202 0 0"
     fill="#ffffff"
     id="path18"
     clip-path="none" />
  <path
     transform="matrix(1 0 0 -1 89.7613 225.216)"
     d="M0 0C-7.287 5.644-7.69 10.641-2.029 19.572 6.707 14.302 7.449 8.26 0 0"
     fill="#ffffff"
     id="path19"
     clip-path="none" />
  <path
     transform="matrix(1 0 0 -1 103.261 169.204)"
     d="M0 0C3.493-1.478 6.986-2.957 10.48-4.435 10.3-4.833 10.121-5.231 9.942-5.63 7.217-4.921 4.011-2.982 1.889-3.813-.78-4.858-3.796-7.854-4.485-10.562-6.194-17.279-6.666-24.311-7.392-29.485-12.364-21.159-10.451-11.732 .196 .147 .204 .151 0 0 0 0"
     fill="#ffffff"
     id="path20"
     clip-path="none" />
  <path
     transform="matrix(1 0 0 -1 117.913 233.968)"
     d="M0 0C4.054-7.136 3.69-14.324-1.064-20.826-3.745-24.491-7.669-26.916-13.401-24.272-1.85-21.738 .491-17.069 0 0"
     fill="#ffffff"
     id="path21"
     clip-path="none" />
  <path
     transform="matrix(1 0 0 -1 99.933 235.558)"
     d="M0 0C-1.398-4.883-2.797-9.766-3.779-13.194-8.365-4.196-2.761 8.5 7.347 9.278 5.005 6.33 2.404 3.057-.193-.213-.19-.209 0 0 0 0"
     fill="#ffffff"
     id="path22"
     clip-path="none" />
  <path
     transform="matrix(1 0 0 -1 116.732 203.888)"
     d="M0 0C-4.727-6.375-5.136-14.731-1.235-19.469 1.825-23.186 6.234-23.106 7.852-19.306 10.106-14.012 6.188-3.933 0 0M1.061-25.719C-7.945-15.837-9.704-6.422-3.036 1.448-1.11 3.722 3.537 5.382 6.415 4.791 11.631 3.719 15.172-6.743 13.565-14.201 12.111-20.945 9.545-26.772 .845-25.522 .849-25.525 1.061-25.719 1.061-25.719"
     fill="#231f20"
     id="path23"
     clip-path="none" />
  <path
     transform="matrix(1 0 0 -1 116.732 203.888)"
     d="M0 0C6.188-3.933 10.106-14.012 7.852-19.306 6.234-23.106 1.825-23.186-1.235-19.469-5.136-14.731-4.727-6.375 0 0"
     fill="#ffffff"
     id="path24"
     clip-path="none" />
  <text
     fill="#ffffff"
     xml:space="preserve"
     transform="translate(0, 425.197)"
     font-size="12"
     font-family="ModernLove"
     id="text24"
     clip-path="none"><tspan
       y="-213.4785"
       x="189.6299 197.4299"
       id="tspan24">OH</tspan></text>
  <text
     fill="#231f20"
     xml:space="preserve"
     transform="translate(0, 425.197)"
     font-size="12"
     font-family="MyriadPro"
     id="text25"
     clip-path="none"><tspan
       y="-213.4785"
       x="205.63791"
       id="tspan25"> </tspan></text>
  <text
     fill="#ffffff"
     xml:space="preserve"
     transform="translate(0, 425.197)"
     font-size="12"
     font-family="ModernLove"
     id="text26"
     clip-path="none"><tspan
       y="-198.9225"
       x="183.80989 190.39789 198.1619 204.7499"
       id="tspan26">2023</tspan></text>
  <path
     transform="matrix(1 0 0 -1 157.546 141.322)"
     d="M0 0C-.106 .396 .17 1.107 .138 1.225 .138 1.225 .035 1.452-.322 1.357-.242 1.378-.646 1.143-.54 .747-.466 .47-.093 .187-.04-.011 .003-.169-.213-.312-.203-.351-.171-.47 .21-.623 .58-.736 .307-.512 .074-.277 0 0M-6.3-15.908C-6.268-16.027-6.629-16.421-6.866-16.485-7.184-16.57-7.905-16.254-7.937-16.135-7.979-15.977-7.863-15.776-7.549-15.522-7.549-15.522-6.459-15.314-6.3-15.908M9.147-1.662C9.678-3.642 8.953-4.261 7.983-5.71 7.799-5.971 7.51-7.11 7.035-7.237 6.876-7.28 6.615-7.096 6.535-7.117 6.456-7.138 6.384-8.134 5.553-8.356 4.998-8.505 4.33-8.387 4.172-8.43 4.013-8.472 3.955-8.573 3.955-8.573 4.056-8.631 4.257-8.747 4.249-8.876 4.249-8.876 4.17-8.897 4.069-8.839 3.62-8.747 3.285-8.922 3.253-8.804 3.168-8.487 3.666-7.335 4.328-7.115 4.724-7.008 5.102-6.992 5.299-6.939 5.418-6.907 5.487-6.846 5.444-6.688L5.37-6.411C5.2-5.777 5.87-5.428 5.87-5.428L5.392-3.646C5.222-3.013 4.268-2.462 4.173-2.106 4.151-2.027 4.17-1.937 4.148-1.858 4.053-1.501 2.867-1.353 2.82-1.493 2.328-1.243 2.896-1.302 1.879-1.151 1.391-1.07 .474-.976-1.121-.725-2.975-.458-4.219-.41-4.177-.568-4.155-.648-3.915-.753-3.915-.753L-4.649-.865C-4.533-.664-4.962-1.119-6.304-1.182-5.952-1.385-5.683-1.44-5.485-1.387L-5.129-1.291C-4.337-1.079-3.756-2.451-3.677-2.43-3.559-2.398-3.485-2.038-3.406-2.017-3.366-2.007-3.305-2.075-3.242-2.313-3.029-3.104-3.055-3.324-3.11-3.593-3.129-3.683-2.437-6.893-2.653-7.036-2.859-7.218-3.374-7.356-3.342-7.475-3.332-7.515-2.934-8.045-2.877-7.944-2.913-8.124-2.801-8.858-2.684-9.293-2.568-9.729-2.432-10.075-2.432-10.075-2.345-9.924-2.567-10.365-2.163-11.87L-.395-11.183C.595-10.918 1.962-8.895 2.873-8.651 2.952-8.63 3.002-8.659 3.013-8.698 3.034-8.777 2.998-8.957 2.91-9.108 3.162-9.253 3.701-9.363 3.764-9.601 3.86-9.957 4.301-10.178 4.365-10.415 4.418-10.613 4.202-10.756 4.083-10.788 3.964-10.82 3.874-10.802 3.874-10.802L3.345-10.095C3.345-10.095 2.756-9.956 2.405-9.753 1.925-10.179 1.056-9.945 1.268-10.737 1.3-10.856 1.39-10.874 1.469-10.853 1.627-10.81 1.775-10.728 1.933-10.686 2.092-10.643 2.203-10.741 2.224-10.82 2.256-10.939 .692-11.91 .288-12.146 .072-12.289-.244-13.01-1.907-13.456L-1.912-13.755C-1.943-14.272-1.241-17.521-1.301-18.089-1.353-18.528-1.329-18.776-1.275-18.974-1.19-19.291-.987-19.576-.933-19.774-1.018-19.457-.766-20.874-1.301-21.57-1.553-21.892-2.073-22.329-2.14-23.026-2.237-23.774-2.693-24.447-2.693-24.447-2.693-24.447-2.766-24.807-2.885-24.838-2.885-24.838-3.438-23.884-3.492-23.686-3.757-22.696-3.08-21.58-3.261-20.907-3.335-20.63-4.006-20.344-4.07-20.106-4.176-19.71-4.201-18.825-4.467-17.836-4.52-17.638-4.613-17.45-4.655-17.292-4.73-17.015-4.754-16.767-4.617-16.645L-4.245-16.291C-4.205-16.28-4.723-16.249-4.978-15.299-5.096-15.331-6.095-15.089-6.148-14.891-6.265-14.456-5.371-13.834-4.917-13.627-5.107-13.551-5.481-12.633-5.587-12.237-5.704-11.801-5.287-11.774-5.446-11.18-5.743-10.072-5.992-10.096-6.119-9.621-6.183-9.383-6.199-9.005-5.962-8.942-5.843-8.91-5.703-8.957-5.703-8.957L-5.661-8.479C-5.661-8.479-5.76-7.954-5.562-7.901-5.166-7.795-4.983-8.637-4.547-8.52-3.676-8.286-4.044-7.706-4.076-7.587-4.129-7.389-4.193-7.151-4.311-7.183-4.47-7.226-4.609-7.815-4.807-7.868-4.926-7.9-5.026-7.842-5.129-7.615-5.836-6.404-6.194-7.603-6.566-6.218-6.618-6.02-6.497-6.157-6.561-5.919-6.624-5.682-6.781-5.257-6.824-5.099-6.834-5.059-6.756-4.401-6.896-3.718L-7.006-3.153C-7.006-3.153-7.067-3.084-7.099-2.966-7.162-2.728-7.029-1.801-7.009-1.244-7.178-1.247-7.397-1.22-7.674-1.295-7.793-1.327-7.941-1.409-8.06-1.441-8.751-1.711-10.497-3.113-11.724-3.442-12.476-3.644-16.26-3.938-16.302-3.78-16.408-3.384-13.542-2.36-13.787-1.449-13.798-1.41-13.887-1.391-14.045-1.434L-14.243-1.487C-14.758-1.625-16.767-2.206-16.767-2.206-17.411-2.337-14.715-.68-12.696-.138-12.537-.095-12.458-.074-12.437-.154-12.394-.312-13.18-.862-13.159-.941-13.149-.981-13.059-1-12.94-.968-11.752-.649-8.557 .887-6.458 1.451-5.468 1.716-4.357 1.844-3.356 1.434-3.416 1.503-3.538 1.64-3.57 1.759-3.602 1.877-3.544 1.978-3.346 2.031-2.594 2.233-1.833 1.927-1.883 1.956-1.933 1.986-2.034 2.044-2.055 2.123-2.066 2.162-2.036 2.213-1.918 2.245-1.799 2.276-1.68 2.308-1.421 2.293-.038 2.197 5.085 2.086 5.276 1.373 5.308 1.255 5.121 1.162 5.153 1.043 5.174 .964 5.325 .877 5.483 .919 5.602 .951 5.836 1.184 6.074 1.248 6.193 1.28 7.485 .735 7.924 .047 8.231-.465 9.019-1.187 9.147-1.662M-13.789-4.76C-13.789-4.76-14.23-5.176-14.694-5.343-15.317-5.553-16.775-6.92-17.369-7.079-17.527-7.122-18.304-7.076-18.432-6.6-18.559-6.125-16.407-5.76-15.719-5.321-15.719-5.321-14.972-4.781-14.706-4.667-14.468-4.603-13.8-4.721-13.789-4.76"
     fill="#231f20"
     id="path26"
     clip-path="none" />
  <path
     transform="matrix(1 0 0 -1 184.434 143.916)"
     d="M0 0C-.062 .322-.381 .678-.547 1.105-.681 1.581-.568 1.644-.622 1.926-.669 2.168-1.03 2.307-1.03 2.307-1.03 2.307-1.173 2.613-1.091 2.838-.716 3.495-1.633 3.485-2.019 3.536-2.573 3.596-2.466 3.909-3.012 4.138-3.517 4.374-3.597 4.359-3.782 4.448-4.006 4.53-4.61 4.414-5.076 4.449-5.462 4.5-5.858 4.173-6.582 4.033-7.106 3.932-7.687 3.695-7.687 3.695-7.687 3.695-8.408 2.887-8.633 2.76-8.867 2.673-8.852 2.593-9.087 2.297-9.274 1.968-9.486 1.552-9.632 1.44-9.825 1.361-10.918 .315-11.12 .067-11.371-.148-11.26-.294-11.391-.695-11.482-1.089-11.383-.736-11.484-1.298-11.486-1.716-11.577-2.109-11.636-2.454-11.566-2.817-11.567-3.026-11.643-3.5-11.743-4.062-11.516-3.726-11.382-4.201-11.216-4.628-11.418-4.667-11.492-4.932-11.599-5.245-11.273-5.85-11.234-6.052-11.203-6.213-11.142-6.744-11.122-7.283-11.101-7.822-11.444-7.345-11.444-7.345-11.444-7.345-12.077-7.091-12.456-7.29-12.836-7.488-12.634-7.449-12.467-7.668-12.251-7.918-11.86-8.219-11.86-8.219-11.86-8.219-11.408-7.964-11.005-7.886-10.602-7.809-10.773-8.009-10.552-8.718-10.372-9.435-10.209-10.28-9.945-10.563-9.682-10.846-9.778-10.782-9.05-11.309-8.362-11.845-8.522-11.667-7.921-11.968-7.36-12.277-6.792-11.541-6.228-11.433L-5.53-11.59-4.747-11.105C-4.747-11.105-4.313-11.188-4.04-11.303-3.776-11.377-3.508-11.033-3.314-10.953-3.129-10.834-2.771-10.306-2.771-10.306-2.771-10.306-2.706-10.21-2.641-10.114-2.833-9.984-3.058-9.902-2.928-9.71-2.798-9.518-2.458-9.118-2.458-9.118-1.627-8.665-1.962-9.524-.949-8.284-.681-7.94-.944-7.657-.944-7.657-.944-7.657-.868-7.183-.325-6.535 .218-5.888 .155-5.565 .23-5.3 .304-5.036 .025-4.672-.029-4.39-.076-4.149 .249-3.668 .338-3.484 .42-3.259 .237-2.96 .256-2.623 .234-2.293 .195-2.092 .195-2.092 .195-2.092 .062-.322 0 0M-11.712 6.592C-11.627 7.235-11.017 9.483-10.782 7.398-11.118 7.625-11.557 6.873-11.712 6.592M-12.946-1.078C-12.873-1.023-12.84-.975-12.76-.959-12.814-.678-12.834-.138-13.27-.264L-13.424-.545C-13.506-.769-13.178-.957-12.946-1.078M3.064 .132C3.064 .132 3.132-.648 3.089-1.074 3.038-1.46 2.902-2.488 2.915-2.987 2.96-3.437 2.886-3.702 2.483-3.78 2.081-3.858 1.455-3.644 1.452-4.062 1.49-4.473 1.475-5.478 1.522-5.719 1.568-5.961 1.104-6.802 .781-7.073 .668-7.137 .611-7.273 .576-7.53 .576-7.53 .809-7.652 .91-8.176 1.011-8.699 .707-8.424 .522-8.543 .409-8.607 .28-8.589 .119-8.621 .054-8.717-.167-9.303-.297-9.494-.46-9.734-1.26-10.349-1.26-10.349-1.26-10.349-1.86-11.133-1.942-11.357-2.024-11.582-1.654-11.552-2.445-11.997-3.243-12.402-4.322-13.737-5.716-14.089-7.109-14.442-9.315-14.91-10.326-14.437-11.376-13.971-10.791-13.107-10.791-13.107-10.791-13.107-10.578-12.481-10.875-12.455-11.124-12.461-11.589-12.217-11.446-12.523-11.304-12.83-10.958-12.888-11.144-13.008-11.337-13.087-11.278-13.827-11.455-13.778-11.664-13.776-11.698-14.033-12.008-13.509-12.286-12.936-12.836-12.248-13.017-11.741-13.159-11.225-13.704-10.996-13.771-10.216-13.838-9.435-15.006-8.575-15.006-8.575-15.328-8.637-15.375-8.396-15.389-8.106-15.355-7.849-15.41-7.567-15.255-7.287-15.148-6.974-15.379-6.643-15.079-6.251-14.739-5.851-14.471-5.507-14.5-5.137-14.498-4.719-14.463-4.253-14.285-4.093-14.114-3.893-13.936-3.734-13.719-3.775-13.551-3.784-13.133-3.787-13.339-3.368-13.26-3.561-14.835-1.026-13.975-1.152-13.975-1.152-13.317 1.063-13.297 1.609-13.278 2.156-12.207 4.617-11.944 4.334-11.681 4.051-11.869 2.428-11.869 2.428-11.869 2.428-11.448 2.843-11.026 3.259-10.565 3.682-10.109 4.563-9.907 4.811-9.664 5.067-9.806 5.373-8.944 5.665-8.041 5.964-8.115 5.7-7.84 6.004-7.572 6.347-7.416 6.837-6.49 7.015-5.604 7.187-4.783 7.47-4.816 7.213-4.802 6.924-4.371 6.422-3.975 6.749-3.587 7.116-4.172 7.338-3.288 7.299-2.991 7.273-2.716 7.368-2.403 7.262-1.954 7.097-1.295 7.141-1.377 6.917-1.499 6.685-1.516 6.556-1.694 6.396-1.872 6.236-2.178 6.094-2.059 5.908-1.988 5.755-1.572 5.334-1.572 5.334-1.572 5.334-1.049 5.435-.866 5.136-.643 4.845-.879 4.34-.879 4.34-1.252 3.892-.863 3.174-.25 3.459-.178 3.516 .066 3.771-.059 4.415-.137 4.818 .304 4.485-.199 5.14-.278 5.333-.219 5.679-.219 5.679-.219 5.679-.408 6.227 .184 5.757 .743 5.238 1.016 5.124 1.07 4.842 1.116 4.6 .963 4.529 1.131 4.311 1.217 4.077 1.706 3.712 1.706 3.712L2.264 2.984C2.264 2.984 2.598 2.548 2.532 2.243 2.458 1.978 3.064 .132 3.064 .132"
     fill="#231f20"
     id="path27"
     clip-path="none" />
  <path
     transform="matrix(1 0 0 -1 197.125 148.807)"
     d="M0 0C0 0-.037-1.159-.73-1.236-1.463-1.317-.539-.348 0 0M-3.85-3.975C-3.393-3.635-2.881-3.414-2.881-3.414-2.881-3.414-3.438-4.713-3.85-3.975M-5.949 6.024C-6.076 6.051-6.166 6.124-6.166 6.124-6.166 6.124-6.121 6.087-6.067 5.97-6.026 5.974-5.989 6.019-5.949 6.024M12.482 9.098C11.798 8.569 13.329 8.161 11.449 7.623 9.805 7.193 9.728 7.143 8.669 7.026 8.515 5.812 8.41 5.635 8.505 4.78 8.523 4.617 8.546 4.413 8.523 4.245 8.718 3.236 8.916 1.814 8.989 .419 9.006-.116 8.888-1.284 8.599-1.275 8.033-1.75 8.132-2.647 8.122-3.679 8.073-4.716 8.267-4.983 8.031-6.948 7.795-8.914 6.93-7.813 6.93-7.813 6.93-7.813 7.519-6.428 6.899-6.043 6.238-5.662 6.501-5.055 6.434-4.444 6.37-3.874 6.592-3.271 6.38-1.356L6.348-1.07 6.408 .999 6.752 2.729C6.576 2.833 6.408 2.856 6.195 2.914 5.729 3.028 5.951 3.63 6.051 4.218 6.146 4.848 6.304 6.021 6.304 6.021L7.256 6.745C7.256 6.745 7.125 6.813 6.989 6.922 5.956 6.931 5.159 7.049 4.439 6.845 3.434 6.61 2.487 5.474 2.487 5.474L2.03 5.877C2.03 5.877 1.885 7.181 1.233 6.367 .581 5.551 2.066 5.551 1.364 5.184L.662 4.818-.438 5.438C-.438 5.438-1.52 5.896-1.475 5.489-1.425 5.04-.356 4.705-.356 4.705-.356 4.705 .549 4.351-1.041 4.175L-2.671 3.995-4.374 3.352C-4.374 3.352-3.527 3.9-5.107 3.271-5.103 2.116-4.972 .934-5.04 .06-5.063-.85-4.442-1.235-4.095-3.259-4.018-3.581-3.95-3.821-3.85-3.975-4.158-4.174-4.421-4.41-4.521-4.627-4.738-5.27-3.719-5.157-3.719-5.157-3.719-5.157-2.8-4.147-2.016-3.029-1.273-1.915-1.844-3.464-2.179-4.532-2.474-5.596-4.245-7.113-5.296-8.426-6.306-9.734-6.967-9.354-7.456-10.15-7.946-10.947-7.936-9.915-7.936-9.915-7.936-9.915-8.003-7.818-8.039-6.378-8.039-4.893-7.591-4.843-7.355-4.363-6.889-3.363-7.654-2.787-8.383-3.281-9.221-3.539-8.731-1.257-8.332-.758-7.975-.265-8.64 .528-8.64 .528L-8.78 1.791C-10.795 .99-13.05 .121-14.346-.105-16.655-.485-16.433 .118-15.283 .534-14.173 .946-15.753 1.802-15.753 1.802-15.753 1.802-15.821 2.413-15.242 2.766-14.702 3.115-13.553 2.046-13.136 2.381-12.724 2.756-13.204 2.992-13.204 2.992L-12.85 3.897-8.548 5.282C-8.616 6.265-8.733 7.696-8.914 8.212-9.131 9.054-8.755 10.87-8.822 11.481-8.886 12.052-8.6 13.569-8.808 15.444L-7.105 16.086C-7.105 16.086-6.267 16.344-5.869 16.842-5.466 17.299-5.515 17.747-5.515 17.747-5.515 17.747-4.963 17.974-4.275 18.463-3.59 18.992-4.284 17.43-4.239 17.023-4.189 16.574-4.253 15.66-4.62 14.877-4.946 14.098-4.647 14.007-4.697 12.97-4.706 11.937-6.056 10.715-6.056 10.715L-5.024 10.706C-5.024 10.706-4.942 9.972-5.056 9.506-5.129 9.044-5.817 8.555-5.817 8.555-5.817 8.555-5.328 7.867-5.319 6.672-5.333 6.422-5.355 6.255-5.428 6.164-3.666 6.648-1.977 7.042-.958 7.155 .672 7.336 3.407 7.969 5.699 8.512 5.663 9.209 5.898 10.06 5.921 10.599 6.043 11.355 5.527 11.917 5.455 12.569 5.451 12.609 5.401 12.687 5.396 12.727 5.206 13.325 5.696 14.122 5.772 14.543 5.886 15.01 5.705 16.64 5.09 16.984 5.09 16.984 5.162 17.446 5.257 18.075 5.316 18.66 5.742 17.799 6.294 18.025 6.847 18.252 7.345 19.338 7.658 20.239 8.007 21.185 8.283 20.185 8.364 19.451 8.445 18.718 8.341 17.056 8.241 16.467 8.141 15.878 8.272 14.697 7.996 13.469 7.678 12.238 8.24 11.268 8.57 9.407 8.579 9.326 8.583 9.285 8.629 9.249 10.92 9.792 11.441 10.303 12.355 10.24 13.225 10.212 13.166 9.628 12.482 9.098"
     fill="#231f20"
     id="path28"
     clip-path="none" />
  <path
     transform="matrix(1 0 0 -1 240.495 159.036)"
     d="M0 0C.001-.123-.08-.411-.367-.412-.777-.414-1.395 .239-1.395 .239-1.519 .32-1.56 .361-1.56 .402-1.56 .484-1.438 .484-1.273 .485-.863 .487-.124 .368-.124 .368-.124 .368-.001 .205 0 0M-18.522 13.599C-18.276 13.6-18.152 13.478-18.152 13.314-18.151 13.15-18.394 12.616-18.681 12.614-18.968 12.613-19.257 12.98-19.258 13.226-19.26 13.349-19.219 13.431-19.096 13.473-18.891 13.556-18.687 13.598-18.522 13.599M-.913 2.127C-.912 1.922-3.494 1.704-3.862 1.579-4.395 1.453-4.558 1.247-4.926 1.245-5.337 1.243-7.348 1.766-7.348 1.684-7.348 1.684-7.799 1.641-8.291 1.638-9.152 1.592-10.137 1.833-11.124 2.443-11.906 2.931-17.129 5.856-18.114 6.097-18.895 6.38-20.165 6.292-20.414 6.659-20.911 7.6-21.487 8.007-22.389 8.002-22.675 8.001-22.674 7.796-22.757 7.795-22.839 7.795-22.962 7.876-23.251 8.203-24.034 8.978-24.732 9.261-25.102 9.259-26.004 9.255-26.623 10.031-28.758 10.634-28.754 9.814-29.735 9.153-29.732 8.702-29.729 8.169-29.194 7.803-29.191 7.106-29.188 6.614-29.719 6.16-29.717 5.75-29.715 5.504-29.346 5.506-29.344 5.055-29.342 4.604-30.406 4.188-30.446 4.065-30.528 3.983-30.931 2.709-31.219 2.831L-31.588 2.829-31.717 3.976-31.517 4.962-31.241 7.095-31.659 8.569-31.377 9.514C-31.294 9.514-31.708 10.127-31.711 10.66-31.714 11.234-31.265 11.606-31.02 11.853L-31.513 12.055C-32.54 12.46-32.539 12.214-33.114 12.539-33.69 12.823-35.123 12.405-35.127 13.103-35.13 13.799-33.902 14.175-33.861 14.175L-34.683 14.581C-34.518 14.5-32.144 15.127-31.202 15.46-31.244 15.583-31.285 15.665-31.285 15.665L-31.206 16.239-30.806 18.086C-30.847 18.086-31.06 19.684-31.061 19.807-31.063 20.217-31.123 23.784-29.564 23.792-29.359 23.794-29.195 23.753-29.195 23.753-29.195 23.753-28.827 23.919-27.641 24.417-27.272 24.542-27.027 24.626-26.863 24.627-26.576 24.628-26.534 24.464-26.533 24.382-26.533 24.382-26.526 23.029-26.684 21.716-26.92 19.993-28.025 19.413-28.021 18.675-28.02 18.511-27.978 18.347-27.977 18.183-27.975 17.691-28.258 17.074-28.298 16.705L-27.683 16.831C-27.397 16.956-26.455 17.248-26.088 17.537-25.638 17.867-25.026 18.403-24.328 18.407-24.001 18.409-23.755 18.328-23.426 18.33-23.344 18.33-22.491 19.893-21.466 19.898-20.933 19.901-19.139 21.714-19.14 22.084-19.142 22.37-19.35 22.82-19.596 22.819-19.759 22.818-19.964 22.735-20.169 22.734-20.948 22.73-21.078 24.082-21.734 24.079-22.226 24.077-23.828 24.56-23.828 24.56L-25.265 25.004C-24.692 25.171-27.73 25.729-28.959 25.723-29.452 25.72-29.655 25.473-30.065 25.471-30.229 25.47-30.434 25.51-30.64 25.509-31.213 25.506-31.904 24.231-31.902 23.78-31.901 23.698-31.693 22.961-31.774 22.961-32.266 22.958-32.806 24.267-33.136 24.594-33.177 24.594-33.217 24.307-33.215 23.897-33.211 23.322-33.084 22.462-32.628 21.562-32.38 21.113-32.338 20.949-32.338 20.908-32.666 20.906-34.199 23.974-34.207 25.449-34.21 26.065-34.049 26.681-33.437 27.217-32.743 27.835-30.699 28.994-30.207 28.996-30.125 28.997-30.083 28.956-30.083 28.915-30.083 28.833-30.328 28.627-30.327 28.504-30.327 28.422-30.244 28.381-30.039 28.382-29.26 28.387-28.236 28.597-27.457 28.601-26.227 28.607-22.695 27.641-22.41 27.971-22.41 27.971-22.288 28.054-22.082 28.054-21.549 28.058-20.559 26.832-19.78 26.836-19.206 26.839-19.455 27.33-19.373 27.331-19.25 27.331-18.916 26.308-18.874 26.226-18.753 26.309-18.589 26.351-18.384 26.352-18.219 26.353-18.096 26.312-17.891 26.231L-16.74 25.663-16.778 25.171-16.284 24.763-15.953 24.273C-15.993 24.027-15.662 23.29-15.658 22.634-15.646 20.216-17.781 20.86-18.226 19.792-18.551 19.052-19.489 18.145-20.104 18.142-20.883 18.138-22.766 17.472-22.764 17.144-22.763 17.021-22.722 16.939-22.722 16.857-22.722 16.857-24.439 15.864-24.93 15.698-25.216 15.532-25.832 15.693-26.282 15.404-27.671 14.412-27.469 15.152-28.777 14.16L-28.732 13.464C-27.909 12.976-27.045 12.283-26.757 12.285-26.635 12.285-26.512 12.327-26.306 12.328-25.979 12.371-25.568 12.209-24.867 11.598-23.467 10.334-22.276 9.889-22.275 9.766-22.274 9.684-22.315 9.643-22.315 9.602-22.313 9.274-17.14 7.947-17.099 7.948-16.194 7.501-13.479 5.834-12.411 5.43-11.672 5.147-8.344 3.893-7.359 3.816-6.375 3.739-3.587 3.836-2.353 3.145-1.531 2.698-.914 2.332-.913 2.127"
     fill="#231f20"
     id="path29"
     clip-path="none" />
  <path
     transform="matrix(1 0 0 -1 234.758 133.242)"
     d="M0 0C.291 .579 1.607 2.501 1.143 .455 .901 .78 .238 .214 0 0M-3.689-6.838C-3.602-6.809-3.555-6.775-3.474-6.786-3.433-6.502-3.275-5.987-3.727-5.962L-3.966-6.176C-4.116-6.362-3.868-6.646-3.689-6.838M8.891-10.078C8.939-9.754 8.753-9.312 8.738-8.854 8.768-8.361 8.896-8.338 8.937-8.055 8.972-7.811 8.677-7.561 8.677-7.561 8.677-7.561 8.643-7.225 8.795-7.04 9.364-6.542 8.496-6.25 8.148-6.075 7.644-5.836 7.848-5.576 7.408-5.18 7.008-4.79 6.928-4.779 6.784-4.633 6.598-4.482 5.989-4.393 5.561-4.207 5.213-4.032 4.732-4.211 4.002-4.104 3.474-4.028 2.847-4.061 2.847-4.061 2.847-4.061 1.901-4.586 1.645-4.632 1.396-4.637 1.385-4.718 1.066-4.92 .781-5.168 .443-5.492 .269-5.55 .061-5.561-1.315-6.189-1.589-6.357-1.896-6.478-1.839-6.652-2.094-6.987-2.31-7.329-2.1-7.028-2.38-7.526-2.52-7.92-2.736-8.261-2.905-8.568-2.958-8.933-3.028-9.13-3.255-9.553-3.535-10.051-3.21-9.808-3.24-10.301-3.224-10.759-3.427-10.73-3.584-10.955-3.787-11.216-3.679-11.894-3.709-12.097-3.732-12.26-3.85-12.781-4.007-13.297-4.165-13.812-4.332-13.249-4.332-13.249-4.332-13.249-4.847-12.802-5.271-12.864-5.694-12.927-5.491-12.956-5.405-13.217-5.284-13.525-5.012-13.937-5.012-13.937-5.012-13.937-4.502-13.846-4.096-13.905-3.69-13.964-3.917-14.097-3.942-14.839-4.008-15.575-4.132-16.428-3.976-16.782-3.821-17.136-3.89-17.043-3.376-17.781-2.902-18.513-2.995-18.292-2.526-18.774-2.099-19.251-1.32-18.743-.752-18.825L-.144-19.204 .755-19.003C.755-19.003 1.138-19.225 1.358-19.423 1.583-19.58 1.948-19.343 2.158-19.332 2.373-19.28 2.883-18.899 2.883-18.899 2.883-18.899 2.977-18.83 3.069-18.76 2.931-18.574 2.746-18.423 2.932-18.284 3.118-18.146 3.571-17.88 3.571-17.88 4.504-17.726 3.905-18.426 5.27-17.589 5.636-17.352 5.481-16.998 5.481-16.998 5.481-16.998 5.708-16.575 6.433-16.142 7.16-15.709 7.207-15.385 7.364-15.159 7.521-14.933 7.377-14.498 7.419-14.214 7.454-13.971 7.919-13.624 8.064-13.479 8.216-13.294 8.141-12.952 8.27-12.639 8.357-12.32 8.387-12.118 8.387-12.118 8.387-12.118 8.844-10.403 8.891-10.078M11.828-10.962C11.828-10.962 11.635-11.72 11.454-12.108 11.279-12.456 10.813-13.382 10.661-13.857 10.555-14.298 10.399-14.524 9.993-14.465 9.587-14.405 9.066-13.998 8.926-14.392 8.826-14.792 8.482-15.736 8.446-15.98 8.411-16.223 7.696-16.865 7.301-17.014 7.174-17.037 7.074-17.147 6.958-17.379 6.958-17.379 7.137-17.571 7.06-18.098 6.984-18.626 6.788-18.266 6.573-18.317 6.445-18.34 6.33-18.282 6.167-18.258 6.075-18.328 5.673-18.808 5.487-18.946 5.255-19.12 4.297-19.436 4.297-19.436 4.297-19.436 3.472-19.979 3.321-20.164 3.17-20.349 3.529-20.443 2.635-20.603 1.748-20.723 .29-21.629-1.141-21.504-2.573-21.378-4.811-21.094-5.609-20.314-6.448-19.53-5.611-18.906-5.611-18.906-5.611-18.906-5.204-18.385-5.476-18.262-5.713-18.186-6.073-17.802-6.038-18.139-6.004-18.475-5.697-18.644-5.912-18.696-6.121-18.707-6.308-19.425-6.459-19.321-6.656-19.25-6.772-19.482-6.892-18.884-6.966-18.252-7.26-17.422-7.264-16.883-7.228-16.35-7.668-15.954-7.474-15.195-7.28-14.436-8.101-13.24-8.101-13.24-8.426-13.192-8.39-12.949-8.309-12.671-8.192-12.439-8.15-12.155-7.912-11.941-7.709-11.681-7.818-11.292-7.405-11.021-6.952-10.755-6.586-10.518-6.493-10.159-6.352-9.765-6.165-9.336-5.945-9.244-5.719-9.111-5.498-9.019-5.307-9.13-5.15-9.194-4.757-9.335-4.814-8.87-4.802-9.079-5.456-6.166-4.686-6.569-4.686-6.569-3.335-4.694-3.137-4.184-2.938-3.674-1.119-1.702-.963-2.056-.807-2.41-1.518-3.881-1.518-3.881-1.518-3.881-.984-3.627-.45-3.373 .125-3.125 .846-2.443 1.118-2.276 1.432-2.114 1.398-1.778 2.308-1.786 3.259-1.8 3.102-2.026 3.462-1.83 3.829-1.593 4.137-1.182 5.069-1.318 5.962-1.448 6.832-1.45 6.716-1.682 6.634-1.96 6.876-2.575 7.357-2.397 7.845-2.178 7.365-1.776 8.187-2.103 8.46-2.226 8.749-2.227 9.01-2.43 9.38-2.733 10.018-2.908 9.866-3.094 9.674-3.273 9.616-3.389 9.395-3.481 9.175-3.573 8.839-3.607 8.89-3.821 8.907-3.99 9.161-4.524 9.161-4.524 9.161-4.524 9.688-4.6 9.763-4.943 9.878-5.291 9.488-5.69 9.488-5.69 8.989-5.99 9.12-6.797 9.793-6.729 9.88-6.7 10.193-6.538 10.288-5.889 10.347-5.484 10.653-5.943 10.394-5.159 10.383-4.95 10.552-4.644 10.552-4.644 10.552-4.644 10.554-4.064 10.958-4.702 11.316-5.376 11.536-5.574 11.494-5.858 11.458-6.101 11.291-6.118 11.377-6.38 11.382-6.629 11.723-7.134 11.723-7.134L12.01-8.005C12.01-8.005 12.183-8.527 12.019-8.793 11.863-9.019 11.828-10.962 11.828-10.962"
     fill="#231f20"
     id="path30"
     clip-path="none" />
  <path
     transform="matrix(1 0 0 -1 251.741 136.81)"
     d="M0 0-.559 .352C-.903 .876-1.076 1.183-.838 1.208-.545 1.252-.429 1.016-.17 .894 .127 .755 .708 1.027 .569 .73 .412 .396 0 0 0 0M-2.689-13.182C-3.024-13.026-3.301-12.941-3.291-13.308-3.317-13.748-2.957-13.464-2.689-13.182M-7.053-19.695C-6.792-19.137-7.162-19.734-7.609-20.204-7.39-20.125-7.193-19.991-7.053-19.695M24.84-11.048C24.389-11.335 23.495-11.505 23.113-11.643 22.731-11.781 22.701-12.039 22.27-12.38 21.893-12.701 22.097-12.751 21.922-13.122 21.748-13.494 21.285-14 21.123-14.151 20.962-14.302 20.873-14.396 20.862-14.708 20.89-15.038 20.653-15.154 20.255-15.329 19.674-15.601 19.174-16.09 18.861-16.758 18.617-17.278 18.278-16.938 17.949-16.965 17.637-16.955 17.448-17.455 17.448-17.455 17.448-17.455 17.561-17.599 17.444-18.042 17.31-18.522 16.849-18.442 16.849-18.442L16.124-18.057C16.124-18.057 16.105-18.773 16.206-19.137 16.288-19.447 14.651-21.396 14.276-21.809 13.921-22.277 13.633-22.504 13.529-22.727 13.408-22.987 13.1-23.16 13.1-23.16L12.166-23.22C12.166-23.22 12.43-23.525 12.787-23.828 13.106-24.113 13.33-23.539 13.245-23.816 13.198-24.111 12.706-24.967 12.772-25.406 12.819-25.79 13.166-25.726 13.6-26.246 14.016-26.713 13.289-26.236 12.957-26.171 12.679-26.086 12.286-25.766 12.185-25.402 12.104-25.093 11.729-25.506 11.729-25.506 11.729-25.506 11.837-26.145 12.361-26.572 12.941-26.979 17.262-27.418 13.257-27.172 9.199-26.946 9.438-25.564 9.107-24.821 8.832-24.057 10.253-22.279 10.534-21.776 10.834-21.328 11.174-20.99 11.843-20.624 12.475-20.241 11.968-20.456 12.128-20.305 12.29-20.154 12.862-19.608 12.938-18.964 12.976-18.302 13.881-17.142 14.058-16.863 14.289-16.563 15.159-16.156 15.149-15.789 15.14-15.423 15.785-14.819 15.785-14.819 15.785-14.819 16.052-14.538 16.266-14.276 16.479-14.013 16.359-13.594 16.359-13.594 16.359-13.594 16.948-13.689 17.186-13.665 17.461-13.658 17.778-13.173 17.533-12.922 17.326-12.689 16.223-13.304 15.802-13.333 15.381-13.362 14.657-13.748 14.657-13.748 14.657-13.748 13.817-13.898 13.255-14.132 12.638-14.387 13.135-14.484 13.122-14.704 13.109-14.925 12.833-14.84 12.661-14.624 12.528-14.426 12.242-13.975 12.242-13.975 12.242-13.975 11.836-13.875 11.749-14.06 11.661-14.246 12.055-14.566 11.634-14.596 11.213-14.625 9.56-15.253 9.215-15.409 8.926-15.545 8.269-15.69 7.926-15.937 7.565-16.13 6.723-16.188 6.636-16.374 6.549-16.559 5.868-16.467 5.665-16.417 5.407-16.387 5.586-16.199 5.47-15.963 5.299-15.748 5.095-16.376 5.095-16.376 5.095-16.376 5.321-16.573 5.62-16.803 5.936-16.997 4.874-17.042 4.874-17.042 4.874-17.042 4.305-17.002 3.859-16.793 3.376-16.567 3.721-16.412 3.721-16.412 3.721-16.412 3.365-15.43 3.17-14.976 2.975-14.523 2.592-13.891 2.494-13.618 2.396-13.346 1.913-12.441 1.863-11.874 1.757-11.326 1.506-10.122 1.069-9.51 1.066-9.418 1.009-9.346 .99-9.292 .835-9.717 .644-10.126 .357-10.353-.199-10.863-.961-11.909-1.138-12.189-1.351-12.451-1.689-13.56-2.095-13.461-2.108-13.681-2.175-13.921-2.265-14.015-2.443-14.203-2.989-15.079-2.989-15.079-2.989-15.079-2.93-15.243-3.123-15.559-3.337-15.821-3.921-16.68-3.921-16.68-3.921-16.68-4.037-17.123-4.199-17.274-4.36-17.425-4.719-17.709-4.955-17.825-5.153-17.959-6.037-19.265-6.466-19.698-6.877-20.094-7.553-20.955-7.974-20.984-8.394-21.013-8.528-20.814-9.309-21.128-10.127-21.424-11.446-22.888-10.687-21.75-9.891-20.629-9.38-20.506-9-20.276-8.928-20.219-8.708-20.232-8.47-20.208-8.495-19.97-8.375-19.618-8.375-19.618-8.375-19.618-8.675-19.387-9-19.597-9.379-19.827-9.787-19.636-9.39-19.369-9.031-19.085-8.327-18.645-8.223-18.422-8.101-18.162-8.619-18.01-8.619-18.01L-7.988-16.857C-7.439-16.073-6.145-15.049-6.145-15.049-6.145-15.049-5.463-15.142-5.636-14.835-5.809-14.527-5.958-14.458-5.945-14.237L-5.932-14.017C-5.932-14.017-5.772-13.866-5.598-13.495-5.423-13.124-5.747-12.655-5.028-12.086-4.289-11.572-3.843-11.102-3.843-11.102L-3.365-11.145C-3.365-11.145-3.403-11.807-2.93-11.666L-2.456-11.526-2.45-11.03C-2.562-10.978-2.673-10.926-2.879-10.785L-3.792-10.221C-3.792-10.221-4.044-9.695-3.793-9.45-3.506-9.223-3.84-9.067-3.482-8.691-3.18-8.334-2.697-7.882-2.697-7.882-2.697-7.882-2.618-7.33-2.336-6.919-2.053-6.509-1.115-5.182-1.028-4.996-.941-4.811-.634-4.638-.385-4.301-.137-3.965-.121-3.158 .041-3.007 .113-2.95 .367-2.888 .603-2.772 .493-2.042 .407-1.548 .407-1.548 .345-1.293-.077-.552-.077-.552L.581-.499C.581-.499 .83-.162 1.271-.188 1.732-.268 2.062-1.011 2.062-1.011 2.062-1.011 2.149-.826 2.784-1.304 3.38-1.674 3.45-2.204 3.625-2.603 3.714-2.509 3.878-2.45 4.004-2.374 4.477-2.233 5.21-2.214 5.21-2.214 5.21-2.214 5.007-2.843 4.885-3.103 4.763-3.363 4.398-3.464 4.398-3.464L4.581-4.138C4.581-4.138 4.697-4.373 4.407-4.509 4.226-4.606 4.137-4.7 4.01-4.776 4.208-5.321 3.949-5.97 3.862-6.155 3.758-6.378 3.983-6.574 4.143-7.102 4.303-7.63 3.893-7.347 3.893-7.347 3.893-7.347 3.83-7.77 3.966-8.06 4.064-8.333 4.218-8.586 4.218-8.586 4.218-8.586 4.363-9.242 4.073-9.378 3.766-9.551 3.95-10.316 4.446-10.322 4.941-10.328 4.93-10.64 4.93-10.64L4.826-10.863C4.826-10.863 4.618-11.308 5.059-12.104 5.502-12.9 5.495-12.625 6.135-13.287 6.813-13.966 5.488-13.799 5.401-13.984 5.314-14.17 5.465-14.331 5.725-14.453 5.762-14.47 5.781-14.525 5.819-14.542 6.195-14.899 6.397-14.179 6.59-13.862 6.803-13.6 7.846-13.5 8.176-13.473 8.488-13.483 8.671-13.479 8.948-13.564 9.243-13.611 9.53-13.384 9.53-13.384 9.53-13.384 10.364-12.959 10.732-13.041 11.101-13.124 10.19-13.33 10.729-13.628 11.214-13.946 11.206-12.901 11.661-12.797 12.318-12.652 13.761-11.698 14.54-12.063 14.726-12.15 14.91-12.146 15.031-11.886 15.135-11.663 16.087-11.566 16.087-11.566 16.087-11.566 15.712-11.979 16.225-11.947 16.756-11.879 17.215-11.188 17.923-10.932 18.595-10.658 19.043-10.279 19.043-10.279 19.564-9.844 25.231-9.828 23.86-10.725 23.86-10.725 25.346-10.742 24.84-11.048"
     fill="#231f20"
     id="path31"
     clip-path="none" />
  <path
     transform="matrix(1 0 0 -1 282.233 169.865)"
     d="M0 0 .248 .215C.836 .727 .916 1.883 1.999 2.825 2.34 3.121 2.707 3.386 3.017 3.655 3.666 4.22 4.078 6.371 4.41 6.551 4.22 6.332 4.853 7.48 4.53 7.851 4.61 7.758 2.992 8.307 2.28 7.688 1.755 7.231 1.581 7.243 1.419 7.429 1.15 7.738 .85 8.02 1.098 8.236 1.19 8.316 1.31 8.366 1.399 8.389L.089 8.771C.116 8.74-.872 7.501-.629 7.222-.549 7.13-.406 7.091-.317 7.114-.707 6.937-3.716 5.897-4.159 5.783-4.904 5.515-6.044 5.013-6.399 4.922L-6.33 4.656C-6.308 4.567-6.257 4.447-6.177 4.354-5.908 4.045-4.861 4.466-4.565 4.126-4.404 3.94-4.366 3.647-4.366 3.647L-4.06 3.044C-4.09 3.017-3.791 2.735-3.101 2.628-2.468 2.526-1.446 1.35-1.069 .918-.8 .608-.358 .286 0 0M1.488-2.836C1.383-3.09 1.221-3.34 1.12-3.536 .406-4.591 .907-4.917-.125-5.978-1.189-7.066 .084-6.72-1.339-7.957-1.401-8.011-1.459-8.007-1.485-7.976-1.566-7.883-1.563-6.575-1.778-6.328-1.805-6.297-1.862-6.293-1.894-6.32-1.897-6.378-2.622-7.17-2.272-7.572-1.518-8.439-1.589-10.294-2.147-11.214-2.279-11.437-2.131-12.232-2.203-12.838-2.27-13.385-2.766-14.251-2.976-14.76-3.528-16-3.205-16.371-3.824-16.909-4.009-17.071-4.303-17.109-4.656-16.765-5.275-16.053-5.651-15.184-5.691-14.513-3.83-11.591-3.88-11.471-3.968-11.058-3.995-11.027-3.99-10.969-3.987-10.911L-3.756-10.114C-3.81-10.052-3.29-10.088-2.856-9.711-2.702-9.577-3.301-8.576-3.362-8.63-3.61-8.845-3.794-9.82-4.32-10.277-4.691-10.601-4.603-11.828-4.886-12.563-5.065-13.045-5.584-13.387-5.7-13.814-5.656-13.178-6.015-12.078-6.384-11.529-6.833-10.887-5.763-8.055-5.26-7.509-4.726-6.936-3.83-5.342-2.979-4.384-2.127-3.426-1.926-3.033-1.502-1.958-1.331-1.593-1.134-1.258-.878-.927-.936-.923-.963-.892-.99-.861-1.952-.067-1.93-.592-2.468 .027-2.602 .182-2.653 .302-2.653 .302L-3.031 1.113C-3.031 1.113-3.416 1.43-3.602 1.269-4.128 .811-4.89 1.562-5.213 1.933-5.32 2.057-5.316 2.115-5.285 2.141-5.162 2.249-4.787 2.194-4.787 2.194-4.787 2.194-5.226 2.573-5.511 2.652-5.823 2.76-5.777 2.583-6.403 2.365-6.967 2.2-8.225 3.334-9.525 4.268-9.511 4.064-11.075 3.301-11.224 3.66-11.224 3.66-11.219 4.154-11.381 4.339-11.488 4.463-11.817 4.341-12.063 4.125-12.559 3.695-12.194 3.088-12.628 2.712-12.937 2.443-14.269 2.099-14.888 1.561-15.104 1.373-15.294 1.154-15.541 .939-16.036 .508-16.607 .228-16.957 .63-17.334 1.064-18.299 .985-18.891 1.666-19.079 1.882-19.121 2.118-18.873 2.333-17.109 3.867-14.707 2.479-13.16 3.824-12.634 4.281-13.394 4.218-12.404 5.079-12.187 5.268-11.82 5.532-11.484 5.771-13.866 7.448-14.51 7.813-14.913 8.277-15.048 8.431-14.846 8.824-14.567 9.066-14.134 9.443-12.139 9.711-11.816 9.34-11.682 9.185-11.64 8.949-11.533 8.826-11.317 8.578-9.824 8.736-9.151 7.962-8.909 7.684-8.729 7.351-8.514 7.104L-8.101 7.191C-8.101 7.191-7.488 7.236-7.271 7.424-7.178 7.505-7.201 7.594-7.108 7.674-6.891 7.862-6.282 7.849-6.282 7.849L-5.773 7.639C-5.773 7.639-5.33 7.754-5.051 7.996-4.865 8.157-4.969 8.339-4.784 8.5-4.35 8.877-.578 10.038 .682 9.776 1.742 9.556 1.975 9.976 2.657 9.754 2.8 9.715 3.827 9.034 3.951 9.141 3.92 9.114 4.289 9.815 3.939 10.217 3.454 10.774 3.32 10.929 3.939 11.467 4.063 11.575 4.187 11.682 4.333 11.701 5.803 11.947 5.218 12.308 6.816 11.47 7.714 11 8.767 11.101 9.439 10.328 9.601 10.142 9.681 9.613 9.463 9.425 9.309 9.29 8.981 9.168 8.424 8.684 7.496 7.877 8.027 7.578 7.44 7.067 7.037 6.717 7.201 6.153 6.737 5.75L6.335 5.4C5.778 4.915 5.83 4.418 5.528 3.829 5.326 3.436 4.971 3.344 5.051 2.816 5.134 2.345 4.808 1.845 4.808 1.845 4.808 1.845 4.128 1.688 3.944 1.527 3.665 1.285 2.754 2.395 2.661 2.314 2.039 1.718 3.807 1.246 2.843-.082 2.2-.967 3.187-.978 2.565-1.574L2.752-1.79C2.914-1.976 2.937-2.065 3.099-2.251 4.552-3.921 5.797-3.979 6.901-5.247 7.68-6.144 7.547-4.304 8.919-5.882 9.216-6.223 8.875-6.519 9.171-6.859L9.359-7.076C9.682-7.447 9.793-7.949 9.793-7.949 9.874-8.041 7.478-6.973 6.939-6.355 6.132-5.426 6.013-6.726 3.698-4.065L3.053-3.323C1.976-2.085 1.839-2.802 1.488-2.836"
     fill="#231f20"
     id="path32"
     clip-path="none" />
</svg>
