<?xml version="1.0" encoding="UTF-8" standalone="no"?>
<svg
   version="1.1"
   width="320pt"
   height="320pt"
   viewBox="0 0 320.00001 320.00001"
   id="svg32"
   sodipodi:docname="alltext.svg"
   inkscape:version="1.3 (0e150ed6c4, 2023-07-21)"
   xmlns:inkscape="http://www.inkscape.org/namespaces/inkscape"
   xmlns:sodipodi="http://sodipodi.sourceforge.net/DTD/sodipodi-0.dtd"
   xmlns="http://www.w3.org/2000/svg"
   xmlns:svg="http://www.w3.org/2000/svg">
  <sodipodi:namedview
     id="namedview32"
     pagecolor="#505050"
     bordercolor="#ffffff"
     borderopacity="1"
     inkscape:showpageshadow="0"
     inkscape:pageopacity="0"
     inkscape:pagecheckerboard="1"
     inkscape:deskcolor="#505050"
     inkscape:document-units="pt"
     inkscape:zoom="2.2076456"
     inkscape:cx="248.22825"
     inkscape:cy="217.4262"
     inkscape:window-width="1920"
     inkscape:window-height="1016"
     inkscape:window-x="0"
     inkscape:window-y="0"
     inkscape:window-maximized="1"
     inkscape:current-layer="svg32" />
  <defs
     id="defs2">
    <clipPath
       id="clip_0">
      <path
         transform="matrix(1,0,0,-1,0,425.197)"
         d="M 0,425.197 H 425.197 V 0 H 0 Z"
         id="path1" />
    </clipPath>
    <clipPath
       id="clip_1">
      <path
         transform="matrix(1,0,0,-1,0,425.197)"
         d="M 0,425.197 H 425.197 V 0 H 0 Z"
         id="path2" />
    </clipPath>
  </defs>
  <g
     id="g1"
     transform="translate(-71.731618,-27.340112)">
    <path
       transform="matrix(1,0,0,-1,117.913,233.968)"
       d="m 0,0 c 0.491,-17.069 -1.85,-21.738 -13.401,-24.272 5.732,-2.644 9.656,-0.219 12.337,3.446 C 3.69,-14.324 4.054,-7.136 0,0 m -28.152,8.752 c 7.449,8.26 6.708,14.301 -2.029,19.572 -5.661,-8.931 -5.258,-13.928 2.029,-19.572 m 1.612,27.701 c -1.198,-0.202 -2.568,-0.095 -3.566,-0.653 -9.207,-5.143 -10.918,-24.773 -2.689,-31.303 4.188,-3.323 8.274,-3.052 12.099,0.971 5.14,5.404 5.062,11.681 3.734,19.399 -1.381,-5.424 -1.952,-9.994 -3.793,-13.977 -1.014,-2.195 -4.249,-4.827 -6.323,-4.697 -2.542,0.159 -5.891,2.456 -7.187,4.779 -4.682,8.392 -0.883,18.821 7.725,25.481 m 12.541,20.023 c -0.715,0.016 -1.429,0.032 -2.144,0.047 -0.916,-5.579 -2.563,-11.174 -2.434,-16.729 0.062,-2.681 3.31,-5.431 5.518,-7.77 0.339,-0.359 3.771,1.002 4.19,2.146 1.201,3.281 2.875,7.239 1.991,10.23 -1.286,4.347 -4.646,8.081 -7.121,12.076 M 3.595,-17.929 c 4.954,0 8.978,0.24 12.962,-0.059 5.27,-0.396 14.17,8.307 13.454,13.646 -0.151,1.126 -1.283,3.082 -1.853,3.043 -6.81,-0.46 -13.781,-0.56 -20.277,-2.337 -1.82,-0.497 -2.288,-6.147 -3.258,-9.468 -0.512,-1.751 -0.769,-3.578 -1.028,-4.825 M 0.067,57.925 c 1.74,-5.076 3.292,-9.6 5.241,-15.285 2.997,1.222 5.832,2.378 8.889,3.624 4.021,-5.636 9.14,-4.993 14.622,-0.296 -3.792,11.92 -18.444,18.044 -28.752,11.957 m 117.775,0.369 c 1.796,-4.386 2.667,-9.7 5.721,-12.979 2.531,-2.718 7.786,-4.399 11.557,-3.989 3.034,0.33 7.76,4.229 8.081,6.972 1.186,10.154 -9.817,16.856 -19.243,12.464 -1.806,-0.841 -3.698,-1.499 -6.116,-2.468 M 12.833,35.055 c 6.153,-8.891 6.32,-18.9 1.982,-29.296 0.815,-0.567 1.631,-1.134 2.446,-1.701 3.047,2.697 6.094,5.393 8.505,7.526 0.556,-0.821 1.625,-2.399 2.695,-3.977 2.145,1.59 5.77,2.891 6.148,4.826 1.008,5.169 1.384,10.748 0.465,15.887 -0.457,2.558 -4.014,5.867 -6.683,6.44 -4.858,1.041 -10.099,0.295 -15.558,0.295 M 96.46,39.104 C 96.944,49.241 92.988,58.864 87.894,58.79 77.055,58.633 66.218,57.477 55.418,56.363 54.062,56.223 52.236,54.045 51.837,52.498 50.788,48.443 57.822,39.267 62.141,39.18 73.387,38.955 84.642,39.104 96.46,39.104 m 61.726,-8.279 c -6.435,5.681 -22.116,6.918 -29.099,2.021 -1.232,-0.864 -2.214,-2.999 -2.21,-4.544 0.015,-5.589 0.5,-11.175 0.848,-17.51 5.913,-0.798 11.98,-2.563 17.879,-2.118 4.875,0.368 11.314,2.016 13.925,5.468 4.396,5.812 4.95,13.462 -0.594,20.774 -0.319,-1.742 -0.533,-2.916 -0.749,-4.091 M 96.729,-17.861 c 1.288,-0.838 2.577,-1.677 3.866,-2.515 2.444,3.064 4.887,6.128 7.073,8.87 0.209,-1.739 0.517,-4.307 0.825,-6.875 0.786,-0.088 1.572,-0.176 2.358,-0.263 12.664,15.157 15.184,33.432 12.801,52.343 -1.323,10.498 -5.602,20.639 -12.746,28.661 -0.616,-0.338 -1.232,-0.675 -1.848,-1.013 0.809,-2.977 1.617,-5.954 2.832,-10.428 -3.124,4.003 -5.112,6.549 -7.099,9.095 -0.485,-0.269 -0.97,-0.539 -1.455,-0.808 1.046,-3.688 2.092,-7.376 3.188,-11.239 -3.845,4.928 -7.472,9.576 -11.098,14.223 C 94.673,61.676 93.92,61.162 93.167,60.647 99.152,48.404 106.408,36.746 106.846,22.445 107.288,8.056 105.041,-5.478 96.729,-17.861 M 56.303,-5.237 c 0.291,-7.722 3.332,-10.151 10.997,-9.305 4.94,0.545 10.047,1.382 14.883,0.701 11.867,-1.671 16.934,1.644 18.81,14.553 -15.552,1.465 -31.177,6.201 -44.879,-6.17 0.481,6.18 1.214,12.353 1.394,18.542 0.426,14.633 -3.943,28.009 -11.202,42.944 -0.282,-3.867 -0.382,-5.251 -0.459,-6.307 -2.829,4.32 -5.564,8.497 -8.299,12.673 -0.612,-0.406 -1.223,-0.812 -1.835,-1.219 3.51,-9.83 7.02,-19.661 10.53,-29.492 -0.767,-0.252 -1.535,-0.504 -2.302,-0.756 -6.502,10.807 -4.202,27.725 -23.099,32.247 23.742,-27.671 22.025,-55.172 3.847,-83.671 5.711,2.818 10.251,5.058 16.02,7.905 -0.546,-3.721 -0.781,-5.323 -1.016,-6.925 0.912,-0.343 1.823,-0.686 2.735,-1.029 2.746,6.72 5.491,13.44 8.198,20.063 -0.327,-4.732 -0.662,-9.6 -0.998,-14.468 0.559,-0.166 1.117,-0.332 1.676,-0.498 1.664,3.401 3.328,6.802 4.999,10.212 m -74.48,3.429 c 2.601,3.274 5.202,6.548 7.544,9.496 -10.108,-0.779 -15.712,-13.475 -11.126,-22.473 0.982,3.428 2.381,8.311 3.779,13.195 -0.014,-4.231 -0.849,-8.696 0.267,-12.604 0.668,-2.342 4.182,-4.275 6.834,-5.445 1.022,-0.45 4.529,1.599 4.635,2.724 0.663,6.991 1.002,14.15 -6.127,19.226 -2.038,-1.445 -3.918,-2.778 -5.806,-4.119 M -0.12,4.36 -0.333,4.554 C 4.914,0.429 8.576,3.163 11.637,7.507 16.976,15.083 16.122,27.44 10.054,34.559 5.982,39.337 1.561,39.602 -3.383,36.056 -14.523,28.068 -12.693,10.24 -0.12,4.36 m 144.223,-19.052 c -1,-5.457 -3.933,-8.587 -9.821,-8.37 -10.8,0.397 -21.615,0.516 -32.401,1.14 -9.928,0.574 -19.864,2.654 -29.727,2.272 -12.749,-0.494 -25.42,-2.856 -38.141,-4.263 -12.908,-1.428 -25.867,-0.088 -38.866,-3.555 -12.844,-3.425 -22.809,7.997 -20.648,21.258 0.253,1.55 0.438,3.112 0.649,4.629 -10.071,2.733 -15.44,7.916 -15.876,16.926 -0.453,9.366 1.223,18.166 10.508,23.687 1.877,1.116 2.774,4.455 3.426,6.952 2.021,7.736 2.78,16.16 12.339,18.927 -10.647,-11.879 -12.561,-21.306 -7.588,-29.632 0.725,5.174 1.197,12.206 2.906,18.923 0.689,2.708 3.705,5.704 6.375,6.749 2.122,0.831 5.327,-1.107 8.052,-1.816 0.179,0.398 0.359,0.796 0.538,1.194 -3.493,1.479 -6.986,2.957 -10.48,4.435 2.155,1.055 4.334,3.062 6.46,3.009 12.341,-0.311 24.673,-1.034 37,-1.757 15.468,-0.907 30.919,-2.215 46.398,-2.797 6.083,-0.229 12.217,1.105 18.338,1.609 12.717,1.045 25.434,2.481 38.168,2.681 3.183,0.05 7.579,-3.286 9.4,-6.289 3.412,-5.625 5.348,-12.144 8.165,-18.933 7.01,0.23 13.532,-2.021 15.436,-10.605 12.578,2.408 13.578,4.074 11.128,15.964 -0.449,2.178 -0.217,4.917 0.74,6.893 5.371,11.089 22.385,19.134 34.363,16.558 5.652,-1.215 7.748,-6.021 5.039,-11.87 -1.214,-2.621 -2.717,-5.108 -4.166,-7.797 8.159,-2.026 15.688,1.256 19.596,10.148 3.153,7.171 4.212,15.262 6.049,22.363 2.616,-8.889 3.973,-19.168 -2.896,-27.015 -5.109,-5.835 -12.667,-10.429 -20.032,-13.103 -6.041,-2.194 -9.983,4.386 -7.411,10.878 1.072,2.708 2.325,5.344 3.908,8.951 -8.534,3.27 -15.094,-0.216 -21.074,-4.411 -4.722,-3.312 -9.418,-6.927 -7.02,-14.492 3.113,-9.815 0.041,-15.479 -10.195,-18.973 -4.744,-1.619 -7.684,-3.501 -8.741,-8.763 -1.561,-7.771 -6.853,-12.579 -12.776,-14.162 -2.776,-6.731 -5.048,-12.236 -7.321,-17.743 1.07,4.537 2.141,9.076 3.285,13.923 -6.203,1.423 -12.869,5.198 -16.948,3.328 -5.281,-2.421 -8.499,-9.343 -12.605,-14.327 0.635,-1.15 1.27,-2.301 1.906,-3.452 8.187,0.243 16.374,0.486 24.561,0.728"
       fill="#231f20"
       id="path3"
       clip-path="none" />
    <path
       transform="matrix(1,0,0,-1,386.345,149.191)"
       d="m 0,0 c -21.53,-2.474 -20.104,-2.327 -16.566,-13.083 -3.315,0.998 -6.773,2.04 -10.762,3.242 -0.734,4.632 7.655,5.499 5.454,13.28 -1.791,6.332 -3.323,8.769 -9.831,9.19 -7.543,0.488 -11.454,-4.445 -13.667,-9.391 -2.875,-6.427 6.858,-8.77 9.56,-14.527 -1.684,-1.204 -3.365,-2.404 -5.368,-3.836 1.003,13.653 -8.77,7.354 -16.916,8.25 4.484,2.619 7.169,4.187 11.394,6.654 -7.96,4.072 -14.803,7.572 -21.646,11.072 0.11,0.254 0.219,0.509 0.329,0.764 5.176,-1.097 10.32,-2.407 15.543,-3.196 2.462,-0.373 5.075,0.254 7.62,0.428 -0.23,2.491 -1.556,3.974 -2.173,6.365 -0.564,2.19 -2.354,7.988 -3.615,10.675 4.494,-3.394 10.154,-8.962 13.933,-11.816 2.642,3.776 5.66,19.326 7.873,22.49 0.617,-2.252 0.217,-18.538 2.46,-20.734 1.935,-1.894 14.058,7.186 17.227,6.788 C -11.115,17.802 -21.299,8.654 -19.777,6.881 -18.014,4.826 -11.271,2.086 0,0"
       fill="#231f20"
       id="path4"
       clip-path="none" />
    <path
       transform="matrix(1,0,0,-1,174.209,239.215)"
       d="m 0,0 c -1.664,-3.401 -3.328,-6.802 -4.992,-10.202 -0.559,0.166 -1.118,0.332 -1.676,0.498 0.335,4.868 0.671,9.736 0.997,14.468 -2.706,-6.623 -5.452,-13.343 -8.198,-20.063 -0.911,0.343 -1.823,0.686 -2.734,1.029 0.235,1.602 0.47,3.204 1.016,6.924 -5.769,-2.846 -10.31,-5.087 -16.02,-7.905 18.178,28.5 19.895,56.001 -3.847,83.672 18.897,-4.522 16.597,-21.441 23.098,-32.247 0.768,0.252 1.535,0.504 2.303,0.755 -3.51,9.831 -7.02,19.662 -10.53,29.493 0.611,0.406 1.223,0.813 1.834,1.219 2.735,-4.177 5.47,-8.353 8.299,-12.673 0.077,1.056 0.178,2.44 0.459,6.306 C -2.731,46.34 1.637,32.964 1.211,18.33 1.031,12.141 0.299,5.969 -0.183,-0.211 L 0,0 c 0,0 0,0 0,0"
       fill="#ffffff"
       id="path5"
       clip-path="none" />
    <path
       transform="matrix(1,0,0,-1,214.642,251.829)"
       d="m 0,0 c 8.312,12.383 10.559,25.916 10.118,40.305 -0.439,14.302 -7.695,25.96 -13.679,38.203 0.753,0.514 1.505,1.028 2.258,1.543 C 2.324,75.403 5.95,70.755 9.796,65.827 8.7,69.691 7.654,73.379 6.608,77.067 c 0.484,0.269 0.969,0.538 1.454,0.808 1.988,-2.547 3.975,-5.093 7.1,-9.096 -1.215,4.474 -2.024,7.452 -2.833,10.429 0.616,0.337 1.233,0.675 1.849,1.012 C 21.321,72.199 25.6,62.057 26.923,51.56 29.307,32.648 26.786,14.374 14.122,-0.784 13.336,-0.696 12.55,-0.608 11.765,-0.52 11.456,2.048 11.148,4.616 10.939,6.354 8.753,3.613 6.31,0.548 3.867,-2.516 2.578,-1.677 1.289,-0.839 0,0"
       fill="#ffffff"
       id="path6"
       clip-path="none" />
    <path
       transform="matrix(1,0,0,-1,276.1,203.141)"
       d="m 0,0 c 0.215,1.174 0.43,2.347 0.748,4.089 5.544,-7.312 4.99,-14.962 0.594,-20.773 -2.611,-3.453 -9.049,-5.101 -13.925,-5.469 -5.899,-0.445 -11.965,1.32 -17.879,2.118 -0.348,6.335 -0.833,11.922 -0.848,17.51 -0.004,1.545 0.978,3.68 2.21,4.544 C -22.117,6.916 -6.435,5.679 0,0"
       fill="#ffffff"
       id="path7"
       clip-path="none" />
    <path
       transform="matrix(1,0,0,-1,214.372,194.864)"
       d="m 0,0 c -11.818,0 -23.072,-0.149 -34.319,0.076 -4.318,0.086 -11.353,9.262 -10.304,13.318 0.4,1.546 2.225,3.724 3.582,3.864 10.799,1.115 21.636,2.27 32.476,2.427 C -3.472,19.759 0.485,10.137 0,0"
       fill="#ffffff"
       id="path8"
       clip-path="none" />
    <path
       transform="matrix(1,0,0,-1,174.026,239.426)"
       d="M 0,0 C 13.702,12.371 29.327,7.635 44.879,6.17 43.003,-6.739 37.936,-10.054 26.07,-8.383 21.233,-7.702 16.126,-8.539 11.186,-9.084 3.522,-9.93 0.481,-7.501 0.186,0.216 0.183,0.211 0,0 0,0"
       fill="#ffffff"
       id="path9"
       clip-path="none" />
    <path
       transform="matrix(1,0,0,-1,130.745,198.913)"
       d="m 0,0 c 5.459,0 10.7,0.746 15.558,-0.296 2.669,-0.572 6.226,-3.881 6.683,-6.439 0.92,-5.14 0.543,-10.718 -0.465,-15.888 -0.377,-1.934 -4.003,-3.236 -6.147,-4.826 -1.07,1.579 -2.14,3.157 -2.696,3.977 -2.41,-2.133 -5.457,-4.829 -8.504,-7.525 -0.816,0.567 -1.631,1.134 -2.447,1.701 C 6.321,-18.901 6.154,-8.891 0,0"
       fill="#ffffff"
       id="path10"
       clip-path="none" />
    <path
       transform="matrix(1,0,0,-1,262.016,248.66)"
       d="m 0,0 c -8.187,-0.243 -16.374,-0.485 -24.561,-0.728 -0.636,1.151 -1.271,2.301 -1.906,3.452 4.106,4.984 7.324,11.906 12.605,14.327 C -9.783,18.92 -3.117,15.146 3.086,13.723 1.942,8.876 0.871,4.337 -0.199,-0.201 -0.197,-0.2 0,0 0,0"
       fill="#ffffff"
       id="path11"
       clip-path="none" />
    <path
       transform="matrix(1,0,0,-1,235.755,175.674)"
       d="m 0,0 c 2.418,0.969 4.31,1.627 6.116,2.468 9.426,4.391 20.429,-2.31 19.243,-12.464 -0.321,-2.743 -5.047,-6.642 -8.082,-6.972 -3.77,-0.41 -9.025,1.271 -11.556,3.989 C 2.667,-9.7 1.796,-4.386 0,0"
       fill="#ffffff"
       id="path12"
       clip-path="none" />
    <path
       transform="matrix(1,0,0,-1,117.98,176.043)"
       d="m 0,0 c 10.308,6.087 24.961,-0.037 28.752,-11.958 -5.481,-4.696 -10.601,-5.34 -14.622,0.297 -3.057,-1.246 -5.891,-2.402 -8.888,-3.624 C 3.292,-9.6 1.741,-5.076 0,0"
       fill="#ffffff"
       id="path13"
       clip-path="none" />
    <path
       transform="matrix(1,0,0,-1,121.508,251.897)"
       d="m 0,0 c 0.259,1.247 0.516,3.073 1.028,4.825 0.97,3.321 1.437,8.97 3.258,9.468 6.496,1.777 13.467,1.877 20.276,2.337 0.571,0.038 1.703,-1.917 1.854,-3.043 C 27.132,8.248 18.232,-0.455 12.962,-0.059 8.978,0.24 4.954,0 0,0"
       fill="#ffffff"
       id="path14"
       clip-path="none" />
    <path
       transform="matrix(1,0,0,-1,103.913,177.492)"
       d="m 0,0 c 2.475,-3.995 5.836,-7.729 7.121,-12.077 0.884,-2.99 -0.79,-6.949 -1.991,-10.229 -0.419,-1.145 -3.85,-2.505 -4.189,-2.146 -2.208,2.339 -5.457,5.088 -5.519,7.77 -0.129,5.554 1.518,11.15 2.435,16.729 C -1.429,0.031 -0.714,0.016 0,0"
       fill="#ffffff"
       id="path15"
       clip-path="none" />
    <path
       transform="matrix(1,0,0,-1,99.7432,235.767)"
       d="m 0,0 c 1.88,1.333 3.761,2.665 5.799,4.11 7.129,-5.075 6.79,-12.235 6.127,-19.226 -0.107,-1.125 -3.614,-3.174 -4.635,-2.723 -2.653,1.169 -6.166,3.102 -6.835,5.444 -1.115,3.908 -0.28,8.373 -0.266,12.604 z"
       fill="#ffffff"
       id="path16"
       clip-path="none" />
    <path
       transform="matrix(1,0,0,-1,117.793,229.608)"
       d="M 0,0 C -12.573,5.88 -14.402,23.708 -3.263,31.696 1.681,35.242 6.102,34.977 10.174,30.199 16.242,23.08 17.096,10.722 11.757,3.147 8.696,-1.197 5.035,-3.931 -0.217,0.197 8.484,-1.052 11.05,4.774 12.504,11.519 14.111,18.976 10.569,29.438 5.354,30.51 2.475,31.102 -2.171,29.442 -4.097,27.168 -10.765,19.297 -9.006,9.883 0,0"
       fill="#ffffff"
       id="path17"
       clip-path="none" />
    <path
       transform="matrix(1,0,0,-1,91.3729,197.515)"
       d="m 0,0 c -8.608,-6.66 -12.407,-17.089 -7.725,-25.481 1.296,-2.323 4.645,-4.62 7.187,-4.779 2.074,-0.13 5.309,2.502 6.323,4.697 1.841,3.983 2.412,8.553 3.793,13.977 1.327,-7.718 1.406,-13.995 -3.734,-19.399 -3.825,-4.023 -7.911,-4.295 -12.099,-0.971 -8.229,6.53 -6.518,26.16 2.688,31.303 C -2.568,-0.095 -1.198,-0.202 0,0"
       fill="#ffffff"
       id="path18"
       clip-path="none" />
    <path
       transform="matrix(1,0,0,-1,89.7613,225.216)"
       d="M 0,0 C -7.287,5.644 -7.69,10.641 -2.029,19.572 6.707,14.302 7.449,8.26 0,0"
       fill="#ffffff"
       id="path19"
       clip-path="none" />
    <path
       transform="matrix(1,0,0,-1,103.261,169.204)"
       d="M 0,0 C 3.493,-1.478 6.986,-2.957 10.48,-4.435 10.3,-4.833 10.121,-5.231 9.942,-5.63 c -2.725,0.709 -5.931,2.648 -8.053,1.817 -2.669,-1.045 -5.685,-4.041 -6.374,-6.749 -1.709,-6.717 -2.181,-13.749 -2.907,-18.923 -4.972,8.326 -3.059,17.753 7.588,29.632 C 0.204,0.151 0,0 0,0"
       fill="#ffffff"
       id="path20"
       clip-path="none" />
    <path
       transform="matrix(1,0,0,-1,117.913,233.968)"
       d="m 0,0 c 4.054,-7.136 3.69,-14.324 -1.064,-20.826 -2.681,-3.665 -6.605,-6.09 -12.337,-3.446 C -1.85,-21.738 0.491,-17.069 0,0"
       fill="#ffffff"
       id="path21"
       clip-path="none" />
    <path
       transform="matrix(1,0,0,-1,99.933,235.558)"
       d="M 0,0 C -1.398,-4.883 -2.797,-9.766 -3.779,-13.194 -8.365,-4.196 -2.761,8.5 7.347,9.278 5.005,6.33 2.404,3.057 -0.193,-0.213 -0.19,-0.209 0,0 0,0"
       fill="#ffffff"
       id="path22"
       clip-path="none" />
    <path
       transform="matrix(1,0,0,-1,116.732,203.888)"
       d="m 0,0 c -4.727,-6.375 -5.136,-14.731 -1.235,-19.469 3.06,-3.717 7.469,-3.637 9.087,0.163 C 10.106,-14.012 6.188,-3.933 0,0 m 1.061,-25.719 c -9.006,9.882 -10.765,19.297 -4.097,27.167 1.926,2.274 6.573,3.934 9.451,3.343 5.216,-1.072 8.757,-11.534 7.15,-18.992 -1.454,-6.744 -4.02,-12.571 -12.72,-11.321 0.004,-0.003 0.216,-0.197 0.216,-0.197"
       fill="#231f20"
       id="path23"
       clip-path="none" />
    <path
       transform="matrix(1,0,0,-1,116.732,203.888)"
       d="m 0,0 c 6.188,-3.933 10.106,-14.012 7.852,-19.306 -1.618,-3.8 -6.027,-3.88 -9.087,-0.163 C -5.136,-14.731 -4.727,-6.375 0,0"
       fill="#ffffff"
       id="path24"
       clip-path="none" />
    <text
       fill="#ffffff"
       xml:space="preserve"
       transform="translate(0,425.197)"
       font-size="12px"
       font-family="ModernLove"
       id="text24"
       clip-path="none"><tspan
         y="-213.4785"
         x="189.6299 197.4299"
         id="tspan24">OH</tspan></text>
    <text
       fill="#231f20"
       xml:space="preserve"
       transform="translate(0,425.197)"
       font-size="12px"
       font-family="MyriadPro"
       id="text25"
       clip-path="none"><tspan
         y="-213.4785"
         x="205.63791"
         id="tspan25"> </tspan></text>
    <text
       fill="#ffffff"
       xml:space="preserve"
       transform="translate(0,425.197)"
       font-size="12px"
       font-family="ModernLove"
       id="text26"
       clip-path="none"><tspan
         y="-198.9225"
         x="183.80989 190.39789 198.1619 204.74989"
         id="tspan26">2023</tspan></text>
    <path
       transform="matrix(1,0,0,-1,157.546,141.322)"
       d="m 0,0 c -0.106,0.396 0.17,1.107 0.138,1.225 0,0 -0.103,0.227 -0.46,0.132 0.08,0.021 -0.324,-0.214 -0.218,-0.61 0.074,-0.277 0.447,-0.56 0.5,-0.758 0.043,-0.158 -0.173,-0.301 -0.163,-0.34 C -0.171,-0.47 0.21,-0.623 0.58,-0.736 0.307,-0.512 0.074,-0.277 0,0 m -6.3,-15.908 c 0.032,-0.119 -0.329,-0.513 -0.566,-0.577 -0.318,-0.085 -1.039,0.231 -1.071,0.35 -0.042,0.158 0.074,0.359 0.388,0.613 0,0 1.09,0.208 1.249,-0.386 M 9.147,-1.662 C 9.678,-3.642 8.953,-4.261 7.983,-5.71 7.799,-5.971 7.51,-7.11 7.035,-7.237 6.876,-7.28 6.615,-7.096 6.535,-7.117 6.456,-7.138 6.384,-8.134 5.553,-8.356 4.998,-8.505 4.33,-8.387 4.172,-8.43 4.013,-8.472 3.955,-8.573 3.955,-8.573 c 0.101,-0.058 0.302,-0.174 0.294,-0.303 0,0 -0.079,-0.021 -0.18,0.037 -0.449,0.092 -0.784,-0.083 -0.816,0.035 -0.085,0.317 0.413,1.469 1.075,1.689 0.396,0.107 0.774,0.123 0.971,0.176 0.119,0.032 0.188,0.093 0.145,0.251 L 5.37,-6.411 c -0.17,0.634 0.5,0.983 0.5,0.983 l -0.478,1.782 c -0.17,0.633 -1.124,1.184 -1.219,1.54 -0.022,0.079 -0.003,0.169 -0.025,0.248 -0.095,0.357 -1.281,0.505 -1.328,0.365 -0.492,0.25 0.076,0.191 -0.941,0.342 -0.488,0.081 -1.405,0.175 -3,0.426 -1.854,0.267 -3.098,0.315 -3.056,0.157 0.022,-0.08 0.262,-0.185 0.262,-0.185 l -0.734,-0.112 c 0.116,0.201 -0.313,-0.254 -1.655,-0.317 0.352,-0.203 0.621,-0.258 0.819,-0.205 l 0.356,0.096 c 0.792,0.212 1.373,-1.16 1.452,-1.139 0.118,0.032 0.192,0.392 0.271,0.413 0.04,0.01 0.101,-0.058 0.164,-0.296 0.213,-0.791 0.187,-1.011 0.132,-1.28 -0.019,-0.09 0.673,-3.3 0.457,-3.443 -0.206,-0.182 -0.721,-0.32 -0.689,-0.439 0.01,-0.04 0.408,-0.57 0.465,-0.469 -0.036,-0.18 0.076,-0.914 0.193,-1.349 0.116,-0.436 0.252,-0.782 0.252,-0.782 0.087,0.151 -0.135,-0.29 0.269,-1.795 l 1.768,0.687 c 0.99,0.265 2.357,2.288 3.268,2.532 0.079,0.021 0.129,-0.008 0.14,-0.047 0.021,-0.079 -0.015,-0.259 -0.103,-0.41 0.252,-0.145 0.791,-0.255 0.854,-0.493 0.096,-0.356 0.537,-0.577 0.601,-0.814 0.053,-0.198 -0.163,-0.341 -0.282,-0.373 -0.119,-0.032 -0.209,-0.014 -0.209,-0.014 l -0.529,0.707 c 0,0 -0.589,0.139 -0.94,0.342 -0.48,-0.426 -1.349,-0.192 -1.137,-0.984 0.032,-0.119 0.122,-0.137 0.201,-0.116 0.158,0.043 0.306,0.125 0.464,0.167 0.159,0.043 0.27,-0.055 0.291,-0.134 0.032,-0.119 -1.532,-1.09 -1.936,-1.326 -0.216,-0.143 -0.532,-0.864 -2.195,-1.31 l -0.005,-0.299 c -0.031,-0.517 0.671,-3.766 0.611,-4.334 -0.052,-0.439 -0.028,-0.687 0.026,-0.885 0.085,-0.317 0.288,-0.602 0.342,-0.8 -0.085,0.317 0.167,-1.1 -0.368,-1.796 -0.252,-0.322 -0.772,-0.759 -0.839,-1.456 -0.097,-0.748 -0.553,-1.421 -0.553,-1.421 0,0 -0.073,-0.36 -0.192,-0.391 0,0 -0.553,0.954 -0.607,1.152 -0.265,0.99 0.412,2.106 0.231,2.779 -0.074,0.277 -0.745,0.563 -0.809,0.801 -0.106,0.396 -0.131,1.281 -0.397,2.27 -0.053,0.198 -0.146,0.386 -0.188,0.544 -0.075,0.277 -0.099,0.525 0.038,0.647 l 0.372,0.354 c 0.04,0.011 -0.478,0.042 -0.733,0.992 -0.118,-0.032 -1.117,0.21 -1.17,0.408 -0.117,0.435 0.777,1.057 1.231,1.264 -0.19,0.076 -0.564,0.994 -0.67,1.39 -0.117,0.436 0.3,0.463 0.141,1.057 -0.297,1.108 -0.546,1.084 -0.673,1.559 -0.064,0.238 -0.08,0.616 0.157,0.679 0.119,0.032 0.259,-0.015 0.259,-0.015 l 0.042,0.478 c 0,0 -0.099,0.525 0.099,0.578 0.396,0.106 0.579,-0.736 1.015,-0.619 0.871,0.234 0.503,0.814 0.471,0.933 -0.053,0.198 -0.117,0.436 -0.235,0.404 -0.159,-0.043 -0.298,-0.632 -0.496,-0.685 -0.119,-0.032 -0.219,0.026 -0.322,0.253 -0.707,1.211 -1.065,0.012 -1.437,1.397 -0.052,0.198 0.069,0.061 0.005,0.299 -0.063,0.237 -0.22,0.662 -0.263,0.82 -0.01,0.04 0.068,0.698 -0.072,1.381 l -0.11,0.565 c 0,0 -0.061,0.069 -0.093,0.187 -0.063,0.238 0.07,1.165 0.09,1.722 -0.169,-0.003 -0.388,0.024 -0.665,-0.051 -0.119,-0.032 -0.267,-0.114 -0.386,-0.146 -0.691,-0.27 -2.437,-1.672 -3.664,-2.001 -0.752,-0.202 -4.536,-0.496 -4.578,-0.338 -0.106,0.396 2.76,1.42 2.515,2.331 -0.011,0.039 -0.1,0.058 -0.258,0.015 l -0.198,-0.053 c -0.515,-0.138 -2.524,-0.719 -2.524,-0.719 -0.644,-0.131 2.052,1.526 4.071,2.068 0.159,0.043 0.238,0.064 0.259,-0.016 0.043,-0.158 -0.743,-0.708 -0.722,-0.787 0.01,-0.04 0.1,-0.059 0.219,-0.027 1.188,0.319 4.383,1.855 6.482,2.419 0.99,0.265 2.101,0.393 3.102,-0.017 -0.06,0.069 -0.182,0.206 -0.214,0.325 -0.032,0.118 0.026,0.219 0.224,0.272 0.752,0.202 1.513,-0.104 1.463,-0.075 -0.05,0.03 -0.151,0.088 -0.172,0.167 -0.011,0.039 0.019,0.09 0.137,0.122 0.119,0.031 0.238,0.063 0.497,0.048 C -0.038,2.197 5.085,2.086 5.276,1.373 5.308,1.255 5.121,1.162 5.153,1.043 5.174,0.964 5.325,0.877 5.483,0.919 5.602,0.951 5.836,1.184 6.074,1.248 6.193,1.28 7.485,0.735 7.924,0.047 8.231,-0.465 9.019,-1.187 9.147,-1.662 M -13.789,-4.76 c 0,0 -0.441,-0.416 -0.905,-0.583 -0.623,-0.21 -2.081,-1.577 -2.675,-1.736 -0.158,-0.043 -0.935,0.003 -1.063,0.479 -0.127,0.475 2.025,0.84 2.713,1.279 0,0 0.747,0.54 1.013,0.654 0.238,0.064 0.906,-0.054 0.917,-0.093"
       fill="#231f20"
       id="path26"
       clip-path="none" />
    <path
       transform="matrix(1,0,0,-1,184.434,143.916)"
       d="m 0,0 c -0.062,0.322 -0.381,0.678 -0.547,1.105 -0.134,0.476 -0.021,0.539 -0.075,0.821 -0.047,0.242 -0.408,0.381 -0.408,0.381 0,0 -0.143,0.306 -0.061,0.531 0.375,0.657 -0.542,0.647 -0.928,0.698 -0.554,0.06 -0.447,0.373 -0.993,0.602 -0.505,0.236 -0.585,0.221 -0.77,0.31 C -4.006,4.53 -4.61,4.414 -5.076,4.449 -5.462,4.5 -5.858,4.173 -6.582,4.033 -7.106,3.932 -7.687,3.695 -7.687,3.695 c 0,0 -0.721,-0.808 -0.946,-0.935 C -8.867,2.673 -8.852,2.593 -9.087,2.297 -9.274,1.968 -9.486,1.552 -9.632,1.44 -9.825,1.361 -10.918,0.315 -11.12,0.067 c -0.251,-0.215 -0.14,-0.361 -0.271,-0.762 -0.091,-0.394 0.008,-0.041 -0.093,-0.603 -0.002,-0.418 -0.093,-0.811 -0.152,-1.156 0.07,-0.363 0.069,-0.572 -0.007,-1.046 -0.1,-0.562 0.127,-0.226 0.261,-0.701 0.166,-0.427 -0.036,-0.466 -0.11,-0.731 -0.107,-0.313 0.219,-0.918 0.258,-1.12 0.031,-0.161 0.092,-0.692 0.112,-1.231 0.021,-0.539 -0.322,-0.062 -0.322,-0.062 0,0 -0.633,0.254 -1.012,0.055 -0.38,-0.198 -0.178,-0.159 -0.011,-0.378 0.216,-0.25 0.607,-0.551 0.607,-0.551 0,0 0.452,0.255 0.855,0.333 0.403,0.077 0.232,-0.123 0.453,-0.832 0.18,-0.717 0.343,-1.562 0.607,-1.845 0.263,-0.283 0.167,-0.219 0.895,-0.746 0.688,-0.536 0.528,-0.358 1.129,-0.659 0.561,-0.309 1.129,0.427 1.693,0.535 l 0.698,-0.157 0.783,0.485 c 0,0 0.434,-0.083 0.707,-0.198 0.264,-0.074 0.532,0.27 0.726,0.35 0.185,0.119 0.543,0.647 0.543,0.647 0,0 0.065,0.096 0.13,0.192 -0.192,0.13 -0.417,0.212 -0.287,0.404 0.13,0.192 0.47,0.592 0.47,0.592 0.831,0.453 0.496,-0.406 1.509,0.834 0.268,0.344 0.005,0.627 0.005,0.627 0,0 0.076,0.474 0.619,1.122 0.543,0.647 0.48,0.97 0.555,1.235 0.074,0.264 -0.205,0.628 -0.259,0.91 -0.047,0.241 0.278,0.722 0.367,0.906 0.082,0.225 -0.101,0.524 -0.082,0.861 -0.022,0.33 -0.061,0.531 -0.061,0.531 0,0 -0.133,1.77 -0.195,2.092 m -11.712,6.592 c 0.085,0.643 0.695,2.891 0.93,0.806 -0.336,0.227 -0.775,-0.525 -0.93,-0.806 m -1.234,-7.67 c 0.073,0.055 0.106,0.103 0.186,0.119 -0.054,0.281 -0.074,0.821 -0.51,0.695 l -0.154,-0.281 c -0.082,-0.224 0.246,-0.412 0.478,-0.533 m 16.01,1.21 c 0,0 0.068,-0.78 0.025,-1.206 C 3.038,-1.46 2.902,-2.488 2.915,-2.987 2.96,-3.437 2.886,-3.702 2.483,-3.78 2.081,-3.858 1.455,-3.644 1.452,-4.062 1.49,-4.473 1.475,-5.478 1.522,-5.719 1.568,-5.961 1.104,-6.802 0.781,-7.073 0.668,-7.137 0.611,-7.273 0.576,-7.53 c 0,0 0.233,-0.122 0.334,-0.646 C 1.011,-8.699 0.707,-8.424 0.522,-8.543 0.409,-8.607 0.28,-8.589 0.119,-8.621 0.054,-8.717 -0.167,-9.303 -0.297,-9.494 c -0.163,-0.24 -0.963,-0.855 -0.963,-0.855 0,0 -0.6,-0.784 -0.682,-1.008 -0.082,-0.225 0.288,-0.195 -0.503,-0.64 -0.798,-0.405 -1.877,-1.74 -3.271,-2.092 -1.393,-0.353 -3.599,-0.821 -4.61,-0.348 -1.05,0.466 -0.465,1.33 -0.465,1.33 0,0 0.213,0.626 -0.084,0.652 -0.249,-0.006 -0.714,0.238 -0.571,-0.068 0.142,-0.307 0.488,-0.365 0.302,-0.485 -0.193,-0.079 -0.134,-0.819 -0.311,-0.77 -0.209,0.002 -0.243,-0.255 -0.553,0.269 -0.278,0.573 -0.828,1.261 -1.009,1.768 -0.142,0.516 -0.687,0.745 -0.754,1.525 -0.067,0.781 -1.235,1.641 -1.235,1.641 -0.322,-0.062 -0.369,0.179 -0.383,0.469 0.034,0.257 -0.021,0.539 0.134,0.819 0.107,0.313 -0.124,0.644 0.176,1.036 0.34,0.4 0.608,0.744 0.579,1.114 0.002,0.418 0.037,0.884 0.215,1.044 0.171,0.2 0.349,0.359 0.566,0.318 0.168,-0.009 0.586,-0.012 0.38,0.407 0.079,-0.193 -1.496,2.342 -0.636,2.216 0,0 0.658,2.215 0.678,2.761 0.019,0.547 1.09,3.008 1.353,2.725 0.263,-0.283 0.075,-1.906 0.075,-1.906 0,0 0.421,0.415 0.843,0.831 0.461,0.423 0.917,1.304 1.119,1.552 0.243,0.256 0.101,0.562 0.963,0.854 0.903,0.299 0.829,0.035 1.104,0.339 0.268,0.343 0.424,0.833 1.35,1.011 0.886,0.172 1.707,0.455 1.674,0.198 0.014,-0.289 0.445,-0.791 0.841,-0.464 0.388,0.367 -0.197,0.589 0.687,0.55 0.297,-0.026 0.572,0.069 0.885,-0.037 C -1.954,7.097 -1.295,7.141 -1.377,6.917 -1.499,6.685 -1.516,6.556 -1.694,6.396 -1.872,6.236 -2.178,6.094 -2.059,5.908 c 0.071,-0.153 0.487,-0.574 0.487,-0.574 0,0 0.523,0.101 0.706,-0.198 C -0.643,4.845 -0.879,4.34 -0.879,4.34 -1.252,3.892 -0.863,3.174 -0.25,3.459 c 0.072,0.057 0.316,0.312 0.191,0.956 -0.078,0.403 0.363,0.07 -0.14,0.725 -0.079,0.193 -0.02,0.539 -0.02,0.539 0,0 -0.189,0.548 0.403,0.078 C 0.743,5.238 1.016,5.124 1.07,4.842 1.116,4.6 0.963,4.529 1.131,4.311 1.217,4.077 1.706,3.712 1.706,3.712 L 2.264,2.984 c 0,0 0.334,-0.436 0.268,-0.741 C 2.458,1.978 3.064,0.132 3.064,0.132"
       fill="#231f20"
       id="path27"
       clip-path="none" />
    <path
       transform="matrix(1,0,0,-1,197.125,148.807)"
       d="M 0,0 C 0,0 -0.037,-1.159 -0.73,-1.236 -1.463,-1.317 -0.539,-0.348 0,0 m -3.85,-3.975 c 0.457,0.34 0.969,0.561 0.969,0.561 0,0 -0.557,-1.299 -0.969,-0.561 m -2.099,9.999 c -0.127,0.027 -0.217,0.1 -0.217,0.1 0,0 0.045,-0.037 0.099,-0.154 0.041,0.004 0.078,0.049 0.118,0.054 M 12.482,9.098 C 11.798,8.569 13.329,8.161 11.449,7.623 9.805,7.193 9.728,7.143 8.669,7.026 8.515,5.812 8.41,5.635 8.505,4.78 8.523,4.617 8.546,4.413 8.523,4.245 8.718,3.236 8.916,1.814 8.989,0.419 9.006,-0.116 8.888,-1.284 8.599,-1.275 8.033,-1.75 8.132,-2.647 8.122,-3.679 8.073,-4.716 8.267,-4.983 8.031,-6.948 7.795,-8.914 6.93,-7.813 6.93,-7.813 c 0,0 0.589,1.385 -0.031,1.77 -0.661,0.381 -0.398,0.988 -0.465,1.599 -0.064,0.57 0.158,1.173 -0.054,3.088 l -0.032,0.286 0.06,2.069 0.344,1.73 C 6.576,2.833 6.408,2.856 6.195,2.914 5.729,3.028 5.951,3.63 6.051,4.218 6.146,4.848 6.304,6.021 6.304,6.021 l 0.952,0.724 c 0,0 -0.131,0.068 -0.267,0.177 C 5.956,6.931 5.159,7.049 4.439,6.845 3.434,6.61 2.487,5.474 2.487,5.474 L 2.03,5.877 c 0,0 -0.145,1.304 -0.797,0.49 C 0.581,5.551 2.066,5.551 1.364,5.184 l -0.702,-0.366 -1.1,0.62 c 0,0 -1.082,0.458 -1.037,0.051 0.05,-0.449 1.119,-0.784 1.119,-0.784 0,0 0.905,-0.354 -0.685,-0.53 l -1.63,-0.18 -1.703,-0.643 c 0,0 0.847,0.548 -0.733,-0.081 0.004,-1.155 0.135,-2.337 0.067,-3.211 -0.023,-0.91 0.598,-1.295 0.945,-3.319 0.077,-0.322 0.145,-0.562 0.245,-0.716 -0.308,-0.199 -0.571,-0.435 -0.671,-0.652 -0.217,-0.643 0.802,-0.53 0.802,-0.53 0,0 0.919,1.01 1.703,2.128 0.743,1.114 0.172,-0.435 -0.163,-1.503 -0.295,-1.064 -2.066,-2.581 -3.117,-3.894 -1.01,-1.308 -1.671,-0.928 -2.16,-1.724 -0.49,-0.797 -0.48,0.235 -0.48,0.235 0,0 -0.067,2.097 -0.103,3.537 0,1.485 0.448,1.535 0.684,2.015 0.466,1 -0.299,1.576 -1.028,1.082 -0.838,-0.258 -0.348,2.024 0.051,2.523 0.357,0.493 -0.308,1.286 -0.308,1.286 l -0.14,1.263 c -2.015,-0.801 -4.27,-1.67 -5.566,-1.896 -2.309,-0.38 -2.087,0.223 -0.937,0.639 1.11,0.412 -0.47,1.268 -0.47,1.268 0,0 -0.068,0.611 0.511,0.964 0.54,0.349 1.689,-0.72 2.106,-0.385 0.412,0.375 -0.068,0.611 -0.068,0.611 l 0.354,0.905 4.302,1.385 c -0.068,0.983 -0.185,2.414 -0.366,2.93 -0.217,0.842 0.159,2.658 0.092,3.269 -0.064,0.571 0.222,2.088 0.014,3.963 l 1.703,0.642 c 0,0 0.838,0.258 1.236,0.756 0.403,0.457 0.354,0.905 0.354,0.905 0,0 0.552,0.227 1.24,0.716 0.685,0.529 -0.009,-1.033 0.036,-1.44 0.05,-0.449 -0.014,-1.363 -0.381,-2.146 -0.326,-0.779 -0.027,-0.87 -0.077,-1.907 -0.009,-1.033 -1.359,-2.255 -1.359,-2.255 l 1.032,-0.009 c 0,0 0.082,-0.734 -0.032,-1.2 -0.073,-0.462 -0.761,-0.951 -0.761,-0.951 0,0 0.489,-0.688 0.498,-1.883 -0.014,-0.25 -0.036,-0.417 -0.109,-0.508 1.762,0.484 3.451,0.878 4.47,0.991 1.63,0.181 4.365,0.814 6.657,1.357 -0.036,0.697 0.199,1.548 0.222,2.087 0.122,0.756 -0.394,1.318 -0.466,1.97 -0.004,0.04 -0.054,0.118 -0.059,0.158 -0.19,0.598 0.3,1.395 0.376,1.816 0.114,0.467 -0.067,2.097 -0.682,2.441 0,0 0.072,0.462 0.167,1.091 0.059,0.585 0.485,-0.276 1.037,-0.05 0.553,0.227 1.051,1.313 1.364,2.214 0.349,0.946 0.625,-0.054 0.706,-0.788 C 8.445,18.718 8.341,17.056 8.241,16.467 8.141,15.878 8.272,14.697 7.996,13.469 7.678,12.238 8.24,11.268 8.57,9.407 8.579,9.326 8.583,9.285 8.629,9.249 c 2.291,0.543 2.812,1.054 3.726,0.991 0.87,-0.028 0.811,-0.612 0.127,-1.142"
       fill="#231f20"
       id="path28"
       clip-path="none" />
    <path
       transform="matrix(1,0,0,-1,240.495,159.036)"
       d="m 0,0 c 0.001,-0.123 -0.08,-0.411 -0.367,-0.412 -0.41,-0.002 -1.028,0.651 -1.028,0.651 -0.124,0.081 -0.165,0.122 -0.165,0.163 0,0.082 0.122,0.082 0.287,0.083 0.41,0.002 1.149,-0.117 1.149,-0.117 0,0 0.123,-0.163 0.124,-0.368 m -18.522,13.599 c 0.246,10e-4 0.37,-0.121 0.37,-0.285 0.001,-0.164 -0.242,-0.698 -0.529,-0.7 -0.287,-0.001 -0.576,0.366 -0.577,0.612 -0.002,0.123 0.039,0.205 0.162,0.247 0.205,0.083 0.409,0.125 0.574,0.126 M -0.913,2.127 C -0.912,1.922 -3.494,1.704 -3.862,1.579 -4.395,1.453 -4.558,1.247 -4.926,1.245 -5.337,1.243 -7.348,1.766 -7.348,1.684 c 0,0 -0.451,-0.043 -0.943,-0.046 -0.861,-0.046 -1.846,0.195 -2.833,0.805 -0.782,0.488 -6.005,3.413 -6.99,3.654 -0.781,0.283 -2.051,0.195 -2.3,0.562 -0.497,0.941 -1.073,1.348 -1.975,1.343 -0.286,-0.001 -0.285,-0.206 -0.368,-0.207 -0.082,0 -0.205,0.081 -0.494,0.408 -0.783,0.775 -1.481,1.058 -1.851,1.056 -0.902,-0.004 -1.521,0.772 -3.656,1.375 0.004,-0.82 -0.977,-1.481 -0.974,-1.932 0.003,-0.533 0.538,-0.899 0.541,-1.596 0.003,-0.492 -0.528,-0.946 -0.526,-1.356 0.002,-0.246 0.371,-0.244 0.373,-0.695 0.002,-0.451 -1.062,-0.867 -1.102,-0.99 -0.082,-0.082 -0.485,-1.356 -0.773,-1.234 l -0.369,-0.002 -0.129,1.147 0.2,0.986 0.276,2.133 -0.418,1.474 0.282,0.945 c 0.083,0 -0.331,0.613 -0.334,1.146 -0.003,0.574 0.446,0.946 0.691,1.193 l -0.493,0.202 c -1.027,0.405 -1.026,0.159 -1.601,0.484 -0.576,0.284 -2.009,-0.134 -2.013,0.564 -0.003,0.696 1.225,1.072 1.266,1.072 l -0.822,0.406 c 0.165,-0.081 2.539,0.546 3.481,0.879 -0.042,0.123 -0.083,0.205 -0.083,0.205 l 0.079,0.574 0.4,1.847 c -0.041,0 -0.254,1.598 -0.255,1.721 -0.002,0.41 -0.062,3.977 1.497,3.985 0.205,0.002 0.369,-0.039 0.369,-0.039 0,0 0.368,0.166 1.554,0.664 0.369,0.125 0.614,0.209 0.778,0.21 0.287,0.001 0.329,-0.163 0.33,-0.245 0,0 0.007,-1.353 -0.151,-2.666 -0.236,-1.723 -1.341,-2.303 -1.337,-3.041 0.001,-0.164 0.043,-0.328 0.044,-0.492 0.002,-0.492 -0.281,-1.109 -0.321,-1.478 l 0.615,0.126 c 0.286,0.125 1.228,0.417 1.595,0.706 0.45,0.33 1.062,0.866 1.76,0.87 0.327,0.002 0.573,-0.079 0.902,-0.077 0.082,0 0.935,1.563 1.96,1.568 0.533,0.003 2.327,1.816 2.326,2.186 -0.002,0.286 -0.21,0.736 -0.456,0.735 -0.163,-10e-4 -0.368,-0.084 -0.573,-0.085 -0.779,-0.004 -0.909,1.348 -1.565,1.345 -0.492,-0.002 -2.094,0.481 -2.094,0.481 l -1.437,0.444 c 0.573,0.167 -2.465,0.725 -3.694,0.719 -0.493,-0.003 -0.696,-0.25 -1.106,-0.252 -0.164,-0.001 -0.369,0.039 -0.575,0.038 -0.573,-0.003 -1.264,-1.278 -1.262,-1.729 0.001,-0.082 0.209,-0.819 0.128,-0.819 -0.492,-0.003 -1.032,1.306 -1.362,1.633 -0.041,0 -0.081,-0.287 -0.079,-0.697 0.004,-0.575 0.131,-1.435 0.587,-2.335 0.248,-0.449 0.29,-0.613 0.29,-0.654 -0.328,-0.002 -1.861,3.066 -1.869,4.541 -0.003,0.616 0.158,1.232 0.77,1.768 0.694,0.618 2.738,1.777 3.23,1.779 0.082,0.001 0.124,-0.04 0.124,-0.081 0,-0.082 -0.245,-0.288 -0.244,-0.411 0,-0.082 0.083,-0.123 0.288,-0.122 0.779,0.005 1.803,0.215 2.582,0.219 1.23,0.006 4.762,-0.96 5.047,-0.63 0,0 0.122,0.083 0.328,0.083 0.533,0.004 1.523,-1.222 2.302,-1.218 0.574,0.003 0.325,0.494 0.407,0.495 0.123,0 0.457,-1.023 0.499,-1.105 0.121,0.083 0.285,0.125 0.49,0.126 0.165,0.001 0.288,-0.04 0.493,-0.121 l 1.151,-0.568 -0.038,-0.492 0.494,-0.408 0.331,-0.49 c -0.04,-0.246 0.291,-0.983 0.295,-1.639 0.012,-2.418 -2.123,-1.774 -2.568,-2.842 -0.325,-0.74 -1.263,-1.647 -1.878,-1.65 -0.779,-0.004 -2.662,-0.67 -2.66,-0.998 10e-4,-0.123 0.042,-0.205 0.042,-0.287 0,0 -1.717,-0.993 -2.208,-1.159 -0.286,-0.166 -0.902,-0.005 -1.352,-0.294 -1.389,-0.992 -1.187,-0.252 -2.495,-1.244 l 0.045,-0.696 c 0.823,-0.488 1.687,-1.181 1.975,-1.179 0.122,0 0.245,0.042 0.451,0.043 0.327,0.043 0.738,-0.119 1.439,-0.73 1.4,-1.264 2.591,-1.709 2.592,-1.832 10e-4,-0.082 -0.04,-0.123 -0.04,-0.164 0.002,-0.328 5.175,-1.655 5.216,-1.654 0.905,-0.447 3.62,-2.114 4.688,-2.518 0.739,-0.283 4.067,-1.537 5.052,-1.614 0.984,-0.077 3.772,0.02 5.006,-0.671 0.822,-0.447 1.439,-0.813 1.44,-1.018"
       fill="#231f20"
       id="path29"
       clip-path="none" />
    <path
       transform="matrix(1,0,0,-1,234.758,133.242)"
       d="M 0,0 C 0.291,0.579 1.607,2.501 1.143,0.455 0.901,0.78 0.238,0.214 0,0 m -3.689,-6.838 c 0.087,0.029 0.134,0.063 0.215,0.052 0.041,0.284 0.199,0.799 -0.253,0.824 l -0.239,-0.214 c -0.15,-0.186 0.098,-0.47 0.277,-0.662 m 12.58,-3.24 c 0.048,0.324 -0.138,0.766 -0.153,1.224 0.03,0.493 0.158,0.516 0.199,0.799 0.035,0.244 -0.26,0.494 -0.26,0.494 0,0 -0.034,0.336 0.118,0.521 0.569,0.498 -0.299,0.79 -0.647,0.965 -0.504,0.239 -0.3,0.499 -0.74,0.895 -0.4,0.39 -0.48,0.401 -0.624,0.547 -0.186,0.151 -0.795,0.24 -1.223,0.426 -0.348,0.175 -0.829,-0.004 -1.559,0.103 -0.528,0.076 -1.155,0.043 -1.155,0.043 0,0 -0.946,-0.525 -1.202,-0.571 C 1.396,-4.637 1.385,-4.718 1.066,-4.92 0.781,-5.168 0.443,-5.492 0.269,-5.55 0.061,-5.561 -1.315,-6.189 -1.589,-6.357 -1.896,-6.478 -1.839,-6.652 -2.094,-6.987 -2.31,-7.329 -2.1,-7.028 -2.38,-7.526 -2.52,-7.92 -2.736,-8.261 -2.905,-8.568 c -0.053,-0.365 -0.123,-0.562 -0.35,-0.985 -0.28,-0.498 0.045,-0.255 0.015,-0.748 0.016,-0.458 -0.187,-0.429 -0.344,-0.654 -0.203,-0.261 -0.095,-0.939 -0.125,-1.142 -0.023,-0.163 -0.141,-0.684 -0.298,-1.2 -0.158,-0.515 -0.325,0.048 -0.325,0.048 0,0 -0.515,0.447 -0.939,0.385 -0.423,-0.063 -0.22,-0.092 -0.134,-0.353 0.121,-0.308 0.393,-0.72 0.393,-0.72 0,0 0.51,0.091 0.916,0.032 0.406,-0.059 0.179,-0.192 0.154,-0.934 -0.066,-0.736 -0.19,-1.589 -0.034,-1.943 0.155,-0.354 0.086,-0.261 0.6,-0.999 0.474,-0.732 0.381,-0.511 0.85,-0.993 0.427,-0.477 1.206,0.031 1.774,-0.051 l 0.608,-0.379 0.899,0.201 c 0,0 0.383,-0.222 0.603,-0.42 0.225,-0.157 0.59,0.08 0.8,0.091 0.215,0.052 0.725,0.433 0.725,0.433 0,0 0.094,0.069 0.186,0.139 -0.138,0.186 -0.323,0.337 -0.137,0.476 0.186,0.138 0.639,0.404 0.639,0.404 0.933,0.154 0.334,-0.546 1.699,0.291 0.366,0.237 0.211,0.591 0.211,0.591 0,0 0.227,0.423 0.952,0.856 0.727,0.433 0.774,0.757 0.931,0.983 0.157,0.226 0.013,0.661 0.055,0.945 0.035,0.243 0.5,0.59 0.645,0.735 0.152,0.185 0.077,0.527 0.206,0.84 0.087,0.319 0.117,0.521 0.117,0.521 0,0 0.457,1.715 0.504,2.04 m 2.937,-0.884 c 0,0 -0.193,-0.758 -0.374,-1.146 -0.175,-0.348 -0.641,-1.274 -0.793,-1.749 -0.106,-0.441 -0.262,-0.667 -0.668,-0.608 -0.406,0.06 -0.927,0.467 -1.067,0.073 -0.1,-0.4 -0.444,-1.344 -0.48,-1.588 -0.035,-0.243 -0.75,-0.885 -1.145,-1.034 -0.127,-0.023 -0.227,-0.133 -0.343,-0.365 0,0 0.179,-0.192 0.102,-0.719 -0.076,-0.528 -0.272,-0.168 -0.487,-0.219 -0.128,-0.023 -0.243,0.035 -0.406,0.059 -0.092,-0.07 -0.494,-0.55 -0.68,-0.688 -0.232,-0.174 -1.19,-0.49 -1.19,-0.49 0,0 -0.825,-0.543 -0.976,-0.728 -0.151,-0.185 0.208,-0.279 -0.686,-0.439 -0.887,-0.12 -2.345,-1.026 -3.776,-0.901 -1.432,0.126 -3.67,0.41 -4.468,1.19 -0.839,0.784 -0.002,1.408 -0.002,1.408 0,0 0.407,0.521 0.135,0.644 -0.237,0.076 -0.597,0.46 -0.562,0.123 0.034,-0.336 0.341,-0.505 0.126,-0.557 -0.209,-0.011 -0.396,-0.729 -0.547,-0.625 -0.197,0.071 -0.313,-0.161 -0.433,0.437 -0.074,0.632 -0.368,1.462 -0.372,2.001 0.036,0.533 -0.404,0.929 -0.21,1.688 0.194,0.759 -0.627,1.955 -0.627,1.955 -0.325,0.048 -0.289,0.291 -0.208,0.569 0.117,0.232 0.159,0.516 0.397,0.73 0.203,0.26 0.094,0.649 0.507,0.92 0.453,0.266 0.819,0.503 0.912,0.862 0.141,0.394 0.328,0.823 0.548,0.915 0.226,0.133 0.447,0.225 0.638,0.114 0.157,-0.064 0.55,-0.205 0.493,0.26 0.012,-0.209 -0.642,2.704 0.128,2.301 0,0 1.351,1.875 1.549,2.385 0.199,0.51 2.018,2.482 2.174,2.128 0.156,-0.354 -0.555,-1.825 -0.555,-1.825 0,0 0.534,0.254 1.068,0.508 0.575,0.248 1.296,0.93 1.568,1.097 0.314,0.162 0.28,0.498 1.19,0.49 0.951,-0.014 0.794,-0.24 1.154,-0.044 0.367,0.237 0.675,0.648 1.607,0.512 0.893,-0.13 1.763,-0.132 1.647,-0.364 -0.082,-0.278 0.16,-0.893 0.641,-0.715 0.488,0.219 0.008,0.621 0.83,0.294 C 8.46,-2.226 8.749,-2.227 9.01,-2.43 9.38,-2.733 10.018,-2.908 9.866,-3.094 9.674,-3.273 9.616,-3.389 9.395,-3.481 9.175,-3.573 8.839,-3.607 8.89,-3.821 8.907,-3.99 9.161,-4.524 9.161,-4.524 c 0,0 0.527,-0.076 0.602,-0.419 C 9.878,-5.291 9.488,-5.69 9.488,-5.69 8.989,-5.99 9.12,-6.797 9.793,-6.729 c 0.087,0.029 0.4,0.191 0.495,0.84 0.059,0.405 0.365,-0.054 0.106,0.73 -0.011,0.209 0.158,0.515 0.158,0.515 0,0 0.002,0.58 0.406,-0.058 0.358,-0.674 0.578,-0.872 0.536,-1.156 -0.036,-0.243 -0.203,-0.26 -0.117,-0.522 0.005,-0.249 0.346,-0.754 0.346,-0.754 l 0.287,-0.871 c 0,0 0.173,-0.522 0.009,-0.788 -0.156,-0.226 -0.191,-2.169 -0.191,-2.169"
       fill="#231f20"
       id="path30"
       clip-path="none" />
    <path
       transform="matrix(1,0,0,-1,251.741,136.81)"
       d="M 0,0 -0.559,0.352 C -0.903,0.876 -1.076,1.183 -0.838,1.208 -0.545,1.252 -0.429,1.016 -0.17,0.894 0.127,0.755 0.708,1.027 0.569,0.73 0.412,0.396 0,0 0,0 m -2.689,-13.182 c -0.335,0.156 -0.612,0.241 -0.602,-0.126 -0.026,-0.44 0.334,-0.156 0.602,0.126 m -4.364,-6.513 c 0.261,0.558 -0.109,-0.039 -0.556,-0.509 0.219,0.079 0.416,0.213 0.556,0.509 m 31.893,8.647 c -0.451,-0.287 -1.345,-0.457 -1.727,-0.595 -0.382,-0.138 -0.412,-0.396 -0.843,-0.737 -0.377,-0.321 -0.173,-0.371 -0.348,-0.742 -0.174,-0.372 -0.637,-0.878 -0.799,-1.029 -0.161,-0.151 -0.25,-0.245 -0.261,-0.557 0.028,-0.33 -0.209,-0.446 -0.607,-0.621 -0.581,-0.272 -1.081,-0.761 -1.394,-1.429 -0.244,-0.52 -0.583,-0.18 -0.912,-0.207 -0.312,0.01 -0.501,-0.49 -0.501,-0.49 0,0 0.113,-0.144 -0.004,-0.587 -0.134,-0.48 -0.595,-0.4 -0.595,-0.4 l -0.725,0.385 c 0,0 -0.019,-0.716 0.082,-1.08 0.082,-0.31 -1.555,-2.259 -1.93,-2.672 -0.355,-0.468 -0.643,-0.695 -0.747,-0.918 -0.121,-0.26 -0.429,-0.433 -0.429,-0.433 l -0.934,-0.06 c 0,0 0.264,-0.305 0.621,-0.608 0.319,-0.285 0.543,0.289 0.458,0.012 -0.047,-0.295 -0.539,-1.151 -0.473,-1.59 0.047,-0.384 0.394,-0.32 0.828,-0.84 0.416,-0.467 -0.311,0.01 -0.643,0.075 -0.278,0.085 -0.671,0.405 -0.772,0.769 -0.081,0.309 -0.456,-0.104 -0.456,-0.104 0,0 0.108,-0.639 0.632,-1.066 0.58,-0.407 4.901,-0.846 0.896,-0.6 -4.058,0.226 -3.819,1.608 -4.15,2.351 -0.275,0.764 1.146,2.542 1.427,3.045 0.3,0.448 0.64,0.786 1.309,1.152 0.632,0.383 0.125,0.168 0.285,0.319 0.162,0.151 0.734,0.697 0.81,1.341 0.038,0.662 0.943,1.822 1.12,2.101 0.231,0.3 1.101,0.707 1.091,1.074 -0.009,0.366 0.636,0.97 0.636,0.97 0,0 0.267,0.281 0.481,0.543 0.213,0.263 0.093,0.682 0.093,0.682 0,0 0.589,-0.095 0.827,-0.071 0.275,0.007 0.592,0.492 0.347,0.743 -0.207,0.233 -1.31,-0.382 -1.731,-0.411 -0.421,-0.029 -1.145,-0.415 -1.145,-0.415 0,0 -0.84,-0.15 -1.402,-0.384 -0.617,-0.255 -0.12,-0.352 -0.133,-0.572 -0.013,-0.221 -0.289,-0.136 -0.461,0.08 -0.133,0.198 -0.419,0.649 -0.419,0.649 0,0 -0.406,0.1 -0.493,-0.085 -0.088,-0.186 0.306,-0.506 -0.115,-0.536 -0.421,-0.029 -2.074,-0.657 -2.419,-0.813 -0.289,-0.136 -0.946,-0.281 -1.289,-0.528 -0.361,-0.193 -1.203,-0.251 -1.29,-0.437 -0.087,-0.185 -0.768,-0.093 -0.971,-0.043 -0.258,0.03 -0.079,0.218 -0.195,0.454 -0.171,0.215 -0.375,-0.413 -0.375,-0.413 0,0 0.226,-0.197 0.525,-0.427 0.316,-0.194 -0.746,-0.239 -0.746,-0.239 0,0 -0.569,0.04 -1.015,0.249 -0.483,0.226 -0.138,0.381 -0.138,0.381 0,0 -0.356,0.982 -0.551,1.436 -0.195,0.453 -0.578,1.085 -0.676,1.358 -0.098,0.272 -0.581,1.177 -0.631,1.744 -0.106,0.548 -0.357,1.752 -0.794,2.364 -0.003,0.092 -0.06,0.164 -0.079,0.218 -0.155,-0.425 -0.346,-0.834 -0.633,-1.061 -0.556,-0.51 -1.318,-1.556 -1.495,-1.836 -0.213,-0.262 -0.551,-1.371 -0.957,-1.272 -0.013,-0.22 -0.08,-0.46 -0.17,-0.554 -0.178,-0.188 -0.724,-1.064 -0.724,-1.064 0,0 0.059,-0.164 -0.134,-0.48 -0.214,-0.262 -0.798,-1.121 -0.798,-1.121 0,0 -0.116,-0.443 -0.278,-0.594 -0.161,-0.151 -0.52,-0.435 -0.756,-0.551 -0.198,-0.134 -1.082,-1.44 -1.511,-1.873 -0.411,-0.396 -1.087,-1.257 -1.508,-1.286 -0.42,-0.029 -0.554,0.17 -1.335,-0.144 -0.818,-0.296 -2.137,-1.76 -1.378,-0.622 0.796,1.121 1.307,1.244 1.687,1.474 0.072,0.057 0.292,0.044 0.53,0.068 -0.025,0.238 0.095,0.59 0.095,0.59 0,0 -0.3,0.231 -0.625,0.021 -0.379,-0.23 -0.787,-0.039 -0.39,0.228 0.359,0.284 1.063,0.724 1.167,0.947 0.122,0.26 -0.396,0.412 -0.396,0.412 l 0.631,1.153 c 0.549,0.784 1.843,1.808 1.843,1.808 0,0 0.682,-0.093 0.509,0.214 -0.173,0.308 -0.322,0.377 -0.309,0.598 l 0.013,0.22 c 0,0 0.16,0.151 0.334,0.522 0.175,0.371 -0.149,0.84 0.57,1.409 0.739,0.514 1.185,0.984 1.185,0.984 l 0.478,-0.043 c 0,0 -0.038,-0.662 0.435,-0.521 l 0.474,0.14 0.006,0.496 c -0.112,0.052 -0.223,0.104 -0.429,0.245 l -0.913,0.564 c 0,0 -0.252,0.526 -0.001,0.771 0.287,0.227 -0.047,0.383 0.311,0.759 0.302,0.357 0.785,0.809 0.785,0.809 0,0 0.079,0.552 0.361,0.963 0.283,0.41 1.221,1.737 1.308,1.923 0.087,0.185 0.394,0.358 0.643,0.695 0.248,0.336 0.264,1.143 0.426,1.294 0.072,0.057 0.326,0.119 0.562,0.235 -0.11,0.73 -0.196,1.224 -0.196,1.224 -0.062,0.255 -0.484,0.996 -0.484,0.996 l 0.658,0.053 c 0,0 0.249,0.337 0.69,0.311 0.461,-0.08 0.791,-0.823 0.791,-0.823 0,0 0.087,0.185 0.722,-0.293 0.596,-0.37 0.666,-0.9 0.841,-1.299 0.089,0.094 0.253,0.153 0.379,0.229 0.473,0.141 1.206,0.16 1.206,0.16 0,0 -0.203,-0.629 -0.325,-0.889 -0.122,-0.26 -0.487,-0.361 -0.487,-0.361 l 0.183,-0.674 c 0,0 0.116,-0.235 -0.174,-0.371 C 4.226,-4.606 4.137,-4.7 4.01,-4.776 4.208,-5.321 3.949,-5.97 3.862,-6.155 3.758,-6.378 3.983,-6.574 4.143,-7.102 c 0.16,-0.528 -0.25,-0.245 -0.25,-0.245 0,0 -0.063,-0.423 0.073,-0.713 0.098,-0.273 0.252,-0.526 0.252,-0.526 0,0 0.145,-0.656 -0.145,-0.792 -0.307,-0.173 -0.123,-0.938 0.373,-0.944 0.495,-0.006 0.484,-0.318 0.484,-0.318 l -0.104,-0.223 c 0,0 -0.208,-0.445 0.233,-1.241 0.443,-0.796 0.436,-0.521 1.076,-1.183 0.678,-0.679 -0.647,-0.512 -0.734,-0.697 -0.087,-0.186 0.064,-0.347 0.324,-0.469 0.037,-0.017 0.056,-0.072 0.094,-0.089 0.376,-0.357 0.578,0.363 0.771,0.68 0.213,0.262 1.256,0.362 1.586,0.389 0.312,-0.01 0.495,-0.006 0.772,-0.091 0.295,-0.047 0.582,0.18 0.582,0.18 0,0 0.834,0.425 1.202,0.343 0.369,-0.083 -0.542,-0.289 -0.003,-0.587 0.485,-0.318 0.477,0.727 0.932,0.831 0.657,0.145 2.1,1.099 2.879,0.734 0.186,-0.087 0.37,-0.083 0.491,0.177 0.104,0.223 1.056,0.32 1.056,0.32 0,0 -0.375,-0.413 0.138,-0.381 0.531,0.068 0.99,0.759 1.698,1.015 0.672,0.274 1.12,0.653 1.12,0.653 0.521,0.435 6.188,0.451 4.817,-0.446 0,0 1.486,-0.017 0.98,-0.323"
       fill="#231f20"
       id="path31"
       clip-path="none" />
    <path
       transform="matrix(1,0,0,-1,282.233,169.865)"
       d="M 0,0 0.248,0.215 C 0.836,0.727 0.916,1.883 1.999,2.825 2.34,3.121 2.707,3.386 3.017,3.655 3.666,4.22 4.078,6.371 4.41,6.551 4.22,6.332 4.853,7.48 4.53,7.851 4.61,7.758 2.992,8.307 2.28,7.688 1.755,7.231 1.581,7.243 1.419,7.429 1.15,7.738 0.85,8.02 1.098,8.236 1.19,8.316 1.31,8.366 1.399,8.389 L 0.089,8.771 C 0.116,8.74 -0.872,7.501 -0.629,7.222 -0.549,7.13 -0.406,7.091 -0.317,7.114 -0.707,6.937 -3.716,5.897 -4.159,5.783 -4.904,5.515 -6.044,5.013 -6.399,4.922 L -6.33,4.656 C -6.308,4.567 -6.257,4.447 -6.177,4.354 -5.908,4.045 -4.861,4.466 -4.565,4.126 -4.404,3.94 -4.366,3.647 -4.366,3.647 L -4.06,3.044 C -4.09,3.017 -3.791,2.735 -3.101,2.628 -2.468,2.526 -1.446,1.35 -1.069,0.918 -0.8,0.608 -0.358,0.286 0,0 M 1.488,-2.836 C 1.383,-3.09 1.221,-3.34 1.12,-3.536 0.406,-4.591 0.907,-4.917 -0.125,-5.978 -1.189,-7.066 0.084,-6.72 -1.339,-7.957 c -0.062,-0.054 -0.12,-0.05 -0.146,-0.019 -0.081,0.093 -0.078,1.401 -0.293,1.648 -0.027,0.031 -0.084,0.035 -0.116,0.008 -0.003,-0.058 -0.728,-0.85 -0.378,-1.252 0.754,-0.867 0.683,-2.722 0.125,-3.642 -0.132,-0.223 0.016,-1.018 -0.056,-1.624 -0.067,-0.547 -0.563,-1.413 -0.773,-1.922 -0.552,-1.24 -0.229,-1.611 -0.848,-2.149 -0.185,-0.162 -0.479,-0.2 -0.832,0.144 -0.619,0.712 -0.995,1.581 -1.035,2.252 1.861,2.922 1.811,3.042 1.723,3.455 -0.027,0.031 -0.022,0.089 -0.019,0.147 l 0.231,0.797 c -0.054,0.062 0.466,0.026 0.9,0.403 0.154,0.134 -0.445,1.135 -0.506,1.081 -0.248,-0.215 -0.432,-1.19 -0.958,-1.647 -0.371,-0.324 -0.283,-1.551 -0.566,-2.286 -0.179,-0.482 -0.698,-0.824 -0.814,-1.251 0.044,0.636 -0.315,1.736 -0.684,2.285 -0.449,0.642 0.621,3.474 1.124,4.02 0.534,0.573 1.43,2.167 2.281,3.125 0.852,0.958 1.053,1.351 1.477,2.426 0.171,0.365 0.368,0.7 0.624,1.031 -0.058,0.004 -0.085,0.035 -0.112,0.066 -0.962,0.794 -0.94,0.269 -1.478,0.888 -0.134,0.155 -0.185,0.275 -0.185,0.275 l -0.378,0.811 c 0,0 -0.385,0.317 -0.571,0.156 -0.526,-0.458 -1.288,0.293 -1.611,0.664 -0.107,0.124 -0.103,0.182 -0.072,0.208 0.123,0.108 0.498,0.053 0.498,0.053 0,0 -0.439,0.379 -0.724,0.458 C -5.823,2.76 -5.777,2.583 -6.403,2.365 -6.967,2.2 -8.225,3.334 -9.525,4.268 c 0.014,-0.204 -1.55,-0.967 -1.699,-0.608 0,0 0.005,0.494 -0.157,0.679 -0.107,0.124 -0.436,0.002 -0.682,-0.214 -0.496,-0.43 -0.131,-1.037 -0.565,-1.413 -0.309,-0.269 -1.641,-0.613 -2.26,-1.151 -0.216,-0.188 -0.406,-0.407 -0.653,-0.622 -0.495,-0.431 -1.066,-0.711 -1.416,-0.309 -0.377,0.434 -1.342,0.355 -1.934,1.036 -0.188,0.216 -0.23,0.452 0.018,0.667 1.764,1.534 4.166,0.146 5.713,1.491 0.526,0.457 -0.234,0.394 0.756,1.255 0.217,0.189 0.584,0.453 0.92,0.692 -2.382,1.677 -3.026,2.042 -3.429,2.506 -0.135,0.154 0.067,0.547 0.346,0.789 0.433,0.377 2.428,0.645 2.751,0.274 0.134,-0.155 0.176,-0.391 0.283,-0.514 0.216,-0.248 1.709,-0.09 2.382,-0.864 0.242,-0.278 0.422,-0.611 0.637,-0.858 l 0.413,0.087 c 0,0 0.613,0.045 0.83,0.233 0.093,0.081 0.07,0.17 0.163,0.25 0.217,0.188 0.826,0.175 0.826,0.175 l 0.509,-0.21 c 0,0 0.443,0.115 0.722,0.357 0.186,0.161 0.082,0.343 0.267,0.504 0.434,0.377 4.206,1.538 5.466,1.276 1.06,-0.22 1.293,0.2 1.975,-0.022 C 2.8,9.715 3.827,9.034 3.951,9.141 3.92,9.114 4.289,9.815 3.939,10.217 c -0.485,0.557 -0.619,0.712 0,1.25 0.124,0.108 0.248,0.215 0.394,0.234 1.47,0.246 0.885,0.607 2.483,-0.231 C 7.714,11 8.767,11.101 9.439,10.328 9.601,10.142 9.681,9.613 9.463,9.425 9.309,9.29 8.981,9.168 8.424,8.684 7.496,7.877 8.027,7.578 7.44,7.067 7.037,6.717 7.201,6.153 6.737,5.75 L 6.335,5.4 C 5.778,4.915 5.83,4.418 5.528,3.829 5.326,3.436 4.971,3.344 5.051,2.816 5.134,2.345 4.808,1.845 4.808,1.845 c 0,0 -0.68,-0.157 -0.864,-0.318 C 3.665,1.285 2.754,2.395 2.661,2.314 2.039,1.718 3.807,1.246 2.843,-0.082 2.2,-0.967 3.187,-0.978 2.565,-1.574 L 2.752,-1.79 c 0.162,-0.186 0.185,-0.275 0.347,-0.461 1.453,-1.67 2.698,-1.728 3.802,-2.996 0.779,-0.897 0.646,0.943 2.018,-0.635 0.297,-0.341 -0.044,-0.637 0.252,-0.977 l 0.188,-0.217 c 0.323,-0.371 0.434,-0.873 0.434,-0.873 0.081,-0.092 -2.315,0.976 -2.854,1.594 -0.807,0.929 -0.926,-0.371 -3.241,2.29 l -0.645,0.742 c -1.077,1.238 -1.214,0.521 -1.565,0.487"
       fill="#231f20"
       id="path32"
       clip-path="none" />
  </g>
</svg>
