<?xml version="1.0" encoding="UTF-8" standalone="no"?>
<svg
   version="1.1"
   width="320pt"
   height="320pt"
   viewBox="0 0 320.00001 320.00001"
   id="svg32"
   sodipodi:docname="notext.svg"
   inkscape:version="1.3 (0e150ed6c4, 2023-07-21)"
   xmlns:inkscape="http://www.inkscape.org/namespaces/inkscape"
   xmlns:sodipodi="http://sodipodi.sourceforge.net/DTD/sodipodi-0.dtd"
   xmlns="http://www.w3.org/2000/svg"
   xmlns:svg="http://www.w3.org/2000/svg">
  <sodipodi:namedview
     id="namedview32"
     pagecolor="#505050"
     bordercolor="#ffffff"
     borderopacity="1"
     inkscape:showpageshadow="0"
     inkscape:pageopacity="0"
     inkscape:pagecheckerboard="1"
     inkscape:deskcolor="#505050"
     inkscape:document-units="pt"
     inkscape:zoom="2.2076456"
     inkscape:cx="248.22825"
     inkscape:cy="217.4262"
     inkscape:window-width="1920"
     inkscape:window-height="1016"
     inkscape:window-x="0"
     inkscape:window-y="0"
     inkscape:window-maximized="1"
     inkscape:current-layer="svg32" />
  <defs
     id="defs2">
    <clipPath
       id="clip_0">
      <path
         transform="matrix(1,0,0,-1,0,425.197)"
         d="M 0,425.197 H 425.197 V 0 H 0 Z"
         id="path1" />
    </clipPath>
    <clipPath
       id="clip_1">
      <path
         transform="matrix(1,0,0,-1,0,425.197)"
         d="M 0,425.197 H 425.197 V 0 H 0 Z"
         id="path2" />
    </clipPath>
  </defs>
  <g
     id="g1"
     transform="translate(-71.731618,-27.340112)">
    <path
       d="m 0,0 c 0.491,-17.069 -1.85,-21.738 -13.401,-24.272 5.732,-2.644 9.656,-0.219 12.337,3.446 C 3.69,-14.324 4.054,-7.136 0,0 m -28.152,8.752 c 7.449,8.26 6.708,14.301 -2.029,19.572 -5.661,-8.931 -5.258,-13.928 2.029,-19.572 m 1.612,27.701 c -1.198,-0.202 -2.568,-0.095 -3.566,-0.653 -9.207,-5.143 -10.918,-24.773 -2.689,-31.303 4.188,-3.323 8.274,-3.052 12.099,0.971 5.14,5.404 5.062,11.681 3.734,19.399 -1.381,-5.424 -1.952,-9.994 -3.793,-13.977 -1.014,-2.195 -4.249,-4.827 -6.323,-4.697 -2.542,0.159 -5.891,2.456 -7.187,4.779 -4.682,8.392 -0.883,18.821 7.725,25.481 m 12.541,20.023 c -0.715,0.016 -1.429,0.032 -2.144,0.047 -0.916,-5.579 -2.563,-11.174 -2.434,-16.729 0.062,-2.681 3.31,-5.431 5.518,-7.77 0.339,-0.359 3.771,1.002 4.19,2.146 1.201,3.281 2.875,7.239 1.991,10.23 -1.286,4.347 -4.646,8.081 -7.121,12.076 M 3.595,-17.929 c 4.954,0 8.978,0.24 12.962,-0.059 5.27,-0.396 14.17,8.307 13.454,13.646 -0.151,1.126 -1.283,3.082 -1.853,3.043 -6.81,-0.46 -13.781,-0.56 -20.277,-2.337 -1.82,-0.497 -2.288,-6.147 -3.258,-9.468 -0.512,-1.751 -0.769,-3.578 -1.028,-4.825 M 0.067,57.925 c 1.74,-5.076 3.292,-9.6 5.241,-15.285 2.997,1.222 5.832,2.378 8.889,3.624 4.021,-5.636 9.14,-4.993 14.622,-0.296 -3.792,11.92 -18.444,18.044 -28.752,11.957 m 117.775,0.369 c 1.796,-4.386 2.667,-9.7 5.721,-12.979 2.531,-2.718 7.786,-4.399 11.557,-3.989 3.034,0.33 7.76,4.229 8.081,6.972 1.186,10.154 -9.817,16.856 -19.243,12.464 -1.806,-0.841 -3.698,-1.499 -6.116,-2.468 M 12.833,35.055 c 6.153,-8.891 6.32,-18.9 1.982,-29.296 0.815,-0.567 1.631,-1.134 2.446,-1.701 3.047,2.697 6.094,5.393 8.505,7.526 0.556,-0.821 1.625,-2.399 2.695,-3.977 2.145,1.59 5.77,2.891 6.148,4.826 1.008,5.169 1.384,10.748 0.465,15.887 -0.457,2.558 -4.014,5.867 -6.683,6.44 -4.858,1.041 -10.099,0.295 -15.558,0.295 M 96.46,39.104 C 96.944,49.241 92.988,58.864 87.894,58.79 77.055,58.633 66.218,57.477 55.418,56.363 54.062,56.223 52.236,54.045 51.837,52.498 50.788,48.443 57.822,39.267 62.141,39.18 73.387,38.955 84.642,39.104 96.46,39.104 m 61.726,-8.279 c -6.435,5.681 -22.116,6.918 -29.099,2.021 -1.232,-0.864 -2.214,-2.999 -2.21,-4.544 0.015,-5.589 0.5,-11.175 0.848,-17.51 5.913,-0.798 11.98,-2.563 17.879,-2.118 4.875,0.368 11.314,2.016 13.925,5.468 4.396,5.812 4.95,13.462 -0.594,20.774 -0.319,-1.742 -0.533,-2.916 -0.749,-4.091 M 96.729,-17.861 c 1.288,-0.838 2.577,-1.677 3.866,-2.515 2.444,3.064 4.887,6.128 7.073,8.87 0.209,-1.739 0.517,-4.307 0.825,-6.875 0.786,-0.088 1.572,-0.176 2.358,-0.263 12.664,15.157 15.184,33.432 12.801,52.343 -1.323,10.498 -5.602,20.639 -12.746,28.661 -0.616,-0.338 -1.232,-0.675 -1.848,-1.013 0.809,-2.977 1.617,-5.954 2.832,-10.428 -3.124,4.003 -5.112,6.549 -7.099,9.095 -0.485,-0.269 -0.97,-0.539 -1.455,-0.808 1.046,-3.688 2.092,-7.376 3.188,-11.239 -3.845,4.928 -7.472,9.576 -11.098,14.223 C 94.673,61.676 93.92,61.162 93.167,60.647 99.152,48.404 106.408,36.746 106.846,22.445 107.288,8.056 105.041,-5.478 96.729,-17.861 M 56.303,-5.237 c 0.291,-7.722 3.332,-10.151 10.997,-9.305 4.94,0.545 10.047,1.382 14.883,0.701 11.867,-1.671 16.934,1.644 18.81,14.553 -15.552,1.465 -31.177,6.201 -44.879,-6.17 0.481,6.18 1.214,12.353 1.394,18.542 0.426,14.633 -3.943,28.009 -11.202,42.944 -0.282,-3.867 -0.382,-5.251 -0.459,-6.307 -2.829,4.32 -5.564,8.497 -8.299,12.673 -0.612,-0.406 -1.223,-0.812 -1.835,-1.219 3.51,-9.83 7.02,-19.661 10.53,-29.492 -0.767,-0.252 -1.535,-0.504 -2.302,-0.756 -6.502,10.807 -4.202,27.725 -23.099,32.247 23.742,-27.671 22.025,-55.172 3.847,-83.671 5.711,2.818 10.251,5.058 16.02,7.905 -0.546,-3.721 -0.781,-5.323 -1.016,-6.925 0.912,-0.343 1.823,-0.686 2.735,-1.029 2.746,6.72 5.491,13.44 8.198,20.063 -0.327,-4.732 -0.662,-9.6 -0.998,-14.468 0.559,-0.166 1.117,-0.332 1.676,-0.498 1.664,3.401 3.328,6.802 4.999,10.212 m -74.48,3.429 c 2.601,3.274 5.202,6.548 7.544,9.496 -10.108,-0.779 -15.712,-13.475 -11.126,-22.473 0.982,3.428 2.381,8.311 3.779,13.195 -0.014,-4.231 -0.849,-8.696 0.267,-12.604 0.668,-2.342 4.182,-4.275 6.834,-5.445 1.022,-0.45 4.529,1.599 4.635,2.724 0.663,6.991 1.002,14.15 -6.127,19.226 -2.038,-1.445 -3.918,-2.778 -5.806,-4.119 M -0.12,4.36 -0.333,4.554 C 4.914,0.429 8.576,3.163 11.637,7.507 16.976,15.083 16.122,27.44 10.054,34.559 5.982,39.337 1.561,39.602 -3.383,36.056 -14.523,28.068 -12.693,10.24 -0.12,4.36 m 144.223,-19.052 c -1,-5.457 -3.933,-8.587 -9.821,-8.37 -10.8,0.397 -21.615,0.516 -32.401,1.14 -9.928,0.574 -19.864,2.654 -29.727,2.272 -12.749,-0.494 -25.42,-2.856 -38.141,-4.263 -12.908,-1.428 -25.867,-0.088 -38.866,-3.555 -12.844,-3.425 -22.809,7.997 -20.648,21.258 0.253,1.55 0.438,3.112 0.649,4.629 -10.071,2.733 -15.44,7.916 -15.876,16.926 -0.453,9.366 1.223,18.166 10.508,23.687 1.877,1.116 2.774,4.455 3.426,6.952 2.021,7.736 2.78,16.16 12.339,18.927 -10.647,-11.879 -12.561,-21.306 -7.588,-29.632 0.725,5.174 1.197,12.206 2.906,18.923 0.689,2.708 3.705,5.704 6.375,6.749 2.122,0.831 5.327,-1.107 8.052,-1.816 0.179,0.398 0.359,0.796 0.538,1.194 -3.493,1.479 -6.986,2.957 -10.48,4.435 2.155,1.055 4.334,3.062 6.46,3.009 12.341,-0.311 24.673,-1.034 37,-1.757 15.468,-0.907 30.919,-2.215 46.398,-2.797 6.083,-0.229 12.217,1.105 18.338,1.609 12.717,1.045 25.434,2.481 38.168,2.681 3.183,0.05 7.579,-3.286 9.4,-6.289 3.412,-5.625 5.348,-12.144 8.165,-18.933 7.01,0.23 13.532,-2.021 15.436,-10.605 12.578,2.408 13.578,4.074 11.128,15.964 -0.449,2.178 -0.217,4.917 0.74,6.893 5.371,11.089 22.385,19.134 34.363,16.558 5.652,-1.215 7.748,-6.021 5.039,-11.87 -1.214,-2.621 -2.717,-5.108 -4.166,-7.797 8.159,-2.026 15.688,1.256 19.596,10.148 3.153,7.171 4.212,15.262 6.049,22.363 2.616,-8.889 3.973,-19.168 -2.896,-27.015 -5.109,-5.835 -12.667,-10.429 -20.032,-13.103 -6.041,-2.194 -9.983,4.386 -7.411,10.878 1.072,2.708 2.325,5.344 3.908,8.951 -8.534,3.27 -15.094,-0.216 -21.074,-4.411 -4.722,-3.312 -9.418,-6.927 -7.02,-14.492 3.113,-9.815 0.041,-15.479 -10.195,-18.973 -4.744,-1.619 -7.684,-3.501 -8.741,-8.763 -1.561,-7.771 -6.853,-12.579 -12.776,-14.162 -2.776,-6.731 -5.048,-12.236 -7.321,-17.743 1.07,4.537 2.141,9.076 3.285,13.923 -6.203,1.423 -12.869,5.198 -16.948,3.328 -5.281,-2.421 -8.499,-9.343 -12.605,-14.327 0.635,-1.15 1.27,-2.301 1.906,-3.452 8.187,0.243 16.374,0.486 24.561,0.728"
       fill="#231f20"
       id="path3"
       clip-path="none"
       transform="matrix(1,0,0,-1,117.913,233.968)" />
    <path
       transform="matrix(1,0,0,-1,386.345,149.191)"
       d="m 0,0 c -21.53,-2.474 -20.104,-2.327 -16.566,-13.083 -3.315,0.998 -6.773,2.04 -10.762,3.242 -0.734,4.632 7.655,5.499 5.454,13.28 -1.791,6.332 -3.323,8.769 -9.831,9.19 -7.543,0.488 -11.454,-4.445 -13.667,-9.391 -2.875,-6.427 6.858,-8.77 9.56,-14.527 -1.684,-1.204 -3.365,-2.404 -5.368,-3.836 1.003,13.653 -8.77,7.354 -16.916,8.25 4.484,2.619 7.169,4.187 11.394,6.654 -7.96,4.072 -14.803,7.572 -21.646,11.072 0.11,0.254 0.219,0.509 0.329,0.764 5.176,-1.097 10.32,-2.407 15.543,-3.196 2.462,-0.373 5.075,0.254 7.62,0.428 -0.23,2.491 -1.556,3.974 -2.173,6.365 -0.564,2.19 -2.354,7.988 -3.615,10.675 4.494,-3.394 10.154,-8.962 13.933,-11.816 2.642,3.776 5.66,19.326 7.873,22.49 0.617,-2.252 0.217,-18.538 2.46,-20.734 1.935,-1.894 14.058,7.186 17.227,6.788 C -11.115,17.802 -21.299,8.654 -19.777,6.881 -18.014,4.826 -11.271,2.086 0,0"
       fill="#231f20"
       id="path4"
       clip-path="none" />
    <path
       transform="matrix(1,0,0,-1,174.209,239.215)"
       d="m 0,0 c -1.664,-3.401 -3.328,-6.802 -4.992,-10.202 -0.559,0.166 -1.118,0.332 -1.676,0.498 0.335,4.868 0.671,9.736 0.997,14.468 -2.706,-6.623 -5.452,-13.343 -8.198,-20.063 -0.911,0.343 -1.823,0.686 -2.734,1.029 0.235,1.602 0.47,3.204 1.016,6.924 -5.769,-2.846 -10.31,-5.087 -16.02,-7.905 18.178,28.5 19.895,56.001 -3.847,83.672 18.897,-4.522 16.597,-21.441 23.098,-32.247 0.768,0.252 1.535,0.504 2.303,0.755 -3.51,9.831 -7.02,19.662 -10.53,29.493 0.611,0.406 1.223,0.813 1.834,1.219 2.735,-4.177 5.47,-8.353 8.299,-12.673 0.077,1.056 0.178,2.44 0.459,6.306 C -2.731,46.34 1.637,32.964 1.211,18.33 1.031,12.141 0.299,5.969 -0.183,-0.211 L 0,0 c 0,0 0,0 0,0"
       fill="#ffffff"
       id="path5"
       clip-path="none" />
    <path
       d="m 0,0 c 8.312,12.383 10.559,25.916 10.118,40.305 -0.439,14.302 -7.695,25.96 -13.679,38.203 0.753,0.514 1.505,1.028 2.258,1.543 C 2.324,75.403 5.95,70.755 9.796,65.827 8.7,69.691 7.654,73.379 6.608,77.067 c 0.484,0.269 0.969,0.538 1.454,0.808 1.988,-2.547 3.975,-5.093 7.1,-9.096 -1.215,4.474 -2.024,7.452 -2.833,10.429 0.616,0.337 1.233,0.675 1.849,1.012 C 21.321,72.199 25.6,62.057 26.923,51.56 29.307,32.648 26.786,14.374 14.122,-0.784 13.336,-0.696 12.55,-0.608 11.765,-0.52 11.456,2.048 11.148,4.616 10.939,6.354 8.753,3.613 6.31,0.548 3.867,-2.516 2.578,-1.677 1.289,-0.839 0,0"
       fill="#ffffff"
       id="path6"
       clip-path="none"
       transform="matrix(1,0,0,-1,214.642,251.829)" />
    <path
       transform="matrix(1,0,0,-1,276.1,203.141)"
       d="m 0,0 c 0.215,1.174 0.43,2.347 0.748,4.089 5.544,-7.312 4.99,-14.962 0.594,-20.773 -2.611,-3.453 -9.049,-5.101 -13.925,-5.469 -5.899,-0.445 -11.965,1.32 -17.879,2.118 -0.348,6.335 -0.833,11.922 -0.848,17.51 -0.004,1.545 0.978,3.68 2.21,4.544 C -22.117,6.916 -6.435,5.679 0,0"
       fill="#ffffff"
       id="path7"
       clip-path="none" />
    <path
       transform="matrix(1,0,0,-1,214.372,194.864)"
       d="m 0,0 c -11.818,0 -23.072,-0.149 -34.319,0.076 -4.318,0.086 -11.353,9.262 -10.304,13.318 0.4,1.546 2.225,3.724 3.582,3.864 10.799,1.115 21.636,2.27 32.476,2.427 C -3.472,19.759 0.485,10.137 0,0"
       fill="#ffffff"
       id="path8"
       clip-path="none" />
    <path
       transform="matrix(1,0,0,-1,174.026,239.426)"
       d="M 0,0 C 13.702,12.371 29.327,7.635 44.879,6.17 43.003,-6.739 37.936,-10.054 26.07,-8.383 21.233,-7.702 16.126,-8.539 11.186,-9.084 3.522,-9.93 0.481,-7.501 0.186,0.216 0.183,0.211 0,0 0,0"
       fill="#ffffff"
       id="path9"
       clip-path="none" />
    <path
       transform="matrix(1,0,0,-1,130.745,198.913)"
       d="m 0,0 c 5.459,0 10.7,0.746 15.558,-0.296 2.669,-0.572 6.226,-3.881 6.683,-6.439 0.92,-5.14 0.543,-10.718 -0.465,-15.888 -0.377,-1.934 -4.003,-3.236 -6.147,-4.826 -1.07,1.579 -2.14,3.157 -2.696,3.977 -2.41,-2.133 -5.457,-4.829 -8.504,-7.525 -0.816,0.567 -1.631,1.134 -2.447,1.701 C 6.321,-18.901 6.154,-8.891 0,0"
       fill="#ffffff"
       id="path10"
       clip-path="none" />
    <path
       transform="matrix(1,0,0,-1,262.016,248.66)"
       d="m 0,0 c -8.187,-0.243 -16.374,-0.485 -24.561,-0.728 -0.636,1.151 -1.271,2.301 -1.906,3.452 4.106,4.984 7.324,11.906 12.605,14.327 C -9.783,18.92 -3.117,15.146 3.086,13.723 1.942,8.876 0.871,4.337 -0.199,-0.201 -0.197,-0.2 0,0 0,0"
       fill="#ffffff"
       id="path11"
       clip-path="none" />
    <path
       transform="matrix(1,0,0,-1,235.755,175.674)"
       d="m 0,0 c 2.418,0.969 4.31,1.627 6.116,2.468 9.426,4.391 20.429,-2.31 19.243,-12.464 -0.321,-2.743 -5.047,-6.642 -8.082,-6.972 -3.77,-0.41 -9.025,1.271 -11.556,3.989 C 2.667,-9.7 1.796,-4.386 0,0"
       fill="#ffffff"
       id="path12"
       clip-path="none" />
    <path
       transform="matrix(1,0,0,-1,117.98,176.043)"
       d="m 0,0 c 10.308,6.087 24.961,-0.037 28.752,-11.958 -5.481,-4.696 -10.601,-5.34 -14.622,0.297 -3.057,-1.246 -5.891,-2.402 -8.888,-3.624 C 3.292,-9.6 1.741,-5.076 0,0"
       fill="#ffffff"
       id="path13"
       clip-path="none" />
    <path
       transform="matrix(1,0,0,-1,121.508,251.897)"
       d="m 0,0 c 0.259,1.247 0.516,3.073 1.028,4.825 0.97,3.321 1.437,8.97 3.258,9.468 6.496,1.777 13.467,1.877 20.276,2.337 0.571,0.038 1.703,-1.917 1.854,-3.043 C 27.132,8.248 18.232,-0.455 12.962,-0.059 8.978,0.24 4.954,0 0,0"
       fill="#ffffff"
       id="path14"
       clip-path="none" />
    <path
       transform="matrix(1,0,0,-1,103.913,177.492)"
       d="m 0,0 c 2.475,-3.995 5.836,-7.729 7.121,-12.077 0.884,-2.99 -0.79,-6.949 -1.991,-10.229 -0.419,-1.145 -3.85,-2.505 -4.189,-2.146 -2.208,2.339 -5.457,5.088 -5.519,7.77 -0.129,5.554 1.518,11.15 2.435,16.729 C -1.429,0.031 -0.714,0.016 0,0"
       fill="#ffffff"
       id="path15"
       clip-path="none" />
    <path
       transform="matrix(1,0,0,-1,99.7432,235.767)"
       d="m 0,0 c 1.88,1.333 3.761,2.665 5.799,4.11 7.129,-5.075 6.79,-12.235 6.127,-19.226 -0.107,-1.125 -3.614,-3.174 -4.635,-2.723 -2.653,1.169 -6.166,3.102 -6.835,5.444 -1.115,3.908 -0.28,8.373 -0.266,12.604 z"
       fill="#ffffff"
       id="path16"
       clip-path="none" />
    <path
       transform="matrix(1,0,0,-1,117.793,229.608)"
       d="M 0,0 C -12.573,5.88 -14.402,23.708 -3.263,31.696 1.681,35.242 6.102,34.977 10.174,30.199 16.242,23.08 17.096,10.722 11.757,3.147 8.696,-1.197 5.035,-3.931 -0.217,0.197 8.484,-1.052 11.05,4.774 12.504,11.519 14.111,18.976 10.569,29.438 5.354,30.51 2.475,31.102 -2.171,29.442 -4.097,27.168 -10.765,19.297 -9.006,9.883 0,0"
       fill="#ffffff"
       id="path17"
       clip-path="none" />
    <path
       transform="matrix(1,0,0,-1,91.3729,197.515)"
       d="m 0,0 c -8.608,-6.66 -12.407,-17.089 -7.725,-25.481 1.296,-2.323 4.645,-4.62 7.187,-4.779 2.074,-0.13 5.309,2.502 6.323,4.697 1.841,3.983 2.412,8.553 3.793,13.977 1.327,-7.718 1.406,-13.995 -3.734,-19.399 -3.825,-4.023 -7.911,-4.295 -12.099,-0.971 -8.229,6.53 -6.518,26.16 2.688,31.303 C -2.568,-0.095 -1.198,-0.202 0,0"
       fill="#ffffff"
       id="path18"
       clip-path="none" />
    <path
       transform="matrix(1,0,0,-1,89.7613,225.216)"
       d="M 0,0 C -7.287,5.644 -7.69,10.641 -2.029,19.572 6.707,14.302 7.449,8.26 0,0"
       fill="#ffffff"
       id="path19"
       clip-path="none" />
    <path
       transform="matrix(1,0,0,-1,103.261,169.204)"
       d="M 0,0 C 3.493,-1.478 6.986,-2.957 10.48,-4.435 10.3,-4.833 10.121,-5.231 9.942,-5.63 c -2.725,0.709 -5.931,2.648 -8.053,1.817 -2.669,-1.045 -5.685,-4.041 -6.374,-6.749 -1.709,-6.717 -2.181,-13.749 -2.907,-18.923 -4.972,8.326 -3.059,17.753 7.588,29.632 C 0.204,0.151 0,0 0,0"
       fill="#ffffff"
       id="path20"
       clip-path="none" />
    <path
       transform="matrix(1,0,0,-1,117.913,233.968)"
       d="m 0,0 c 4.054,-7.136 3.69,-14.324 -1.064,-20.826 -2.681,-3.665 -6.605,-6.09 -12.337,-3.446 C -1.85,-21.738 0.491,-17.069 0,0"
       fill="#ffffff"
       id="path21"
       clip-path="none" />
    <path
       transform="matrix(1,0,0,-1,99.933,235.558)"
       d="M 0,0 C -1.398,-4.883 -2.797,-9.766 -3.779,-13.194 -8.365,-4.196 -2.761,8.5 7.347,9.278 5.005,6.33 2.404,3.057 -0.193,-0.213 -0.19,-0.209 0,0 0,0"
       fill="#ffffff"
       id="path22"
       clip-path="none" />
    <path
       transform="matrix(1,0,0,-1,116.732,203.888)"
       d="m 0,0 c -4.727,-6.375 -5.136,-14.731 -1.235,-19.469 3.06,-3.717 7.469,-3.637 9.087,0.163 C 10.106,-14.012 6.188,-3.933 0,0 m 1.061,-25.719 c -9.006,9.882 -10.765,19.297 -4.097,27.167 1.926,2.274 6.573,3.934 9.451,3.343 5.216,-1.072 8.757,-11.534 7.15,-18.992 -1.454,-6.744 -4.02,-12.571 -12.72,-11.321 0.004,-0.003 0.216,-0.197 0.216,-0.197"
       fill="#231f20"
       id="path23"
       clip-path="none" />
    <path
       transform="matrix(1,0,0,-1,116.732,203.888)"
       d="m 0,0 c 6.188,-3.933 10.106,-14.012 7.852,-19.306 -1.618,-3.8 -6.027,-3.88 -9.087,-0.163 C -5.136,-14.731 -4.727,-6.375 0,0"
       fill="#ffffff"
       id="path24"
       clip-path="none" />
    <text
       fill="#231f20"
       xml:space="preserve"
       transform="translate(0,425.197)"
       font-size="12px"
       font-family="MyriadPro"
       id="text25"
       clip-path="none"><tspan
         y="-213.4785"
         x="205.63791"
         id="tspan25"> </tspan></text>
  </g>
</svg>
