<?xml version="1.0" encoding="UTF-8" standalone="no"?>
<svg
   version="1.1"
   width="320pt"
   height="320pt"
   viewBox="0 0 320.00001 320.00001"
   id="svg32"
   sodipodi:docname="alltext.svg"
   inkscape:version="1.3 (0e150ed6c4, 2023-07-21)"
   xmlns:inkscape="http://www.inkscape.org/namespaces/inkscape"
   xmlns:sodipodi="http://sodipodi.sourceforge.net/DTD/sodipodi-0.dtd"
   xmlns="http://www.w3.org/2000/svg"
   xmlns:svg="http://www.w3.org/2000/svg">
  <sodipodi:namedview
     id="namedview32"
     pagecolor="#505050"
     bordercolor="#ffffff"
     borderopacity="1"
     inkscape:showpageshadow="0"
     inkscape:pageopacity="0"
     inkscape:pagecheckerboard="1"
     inkscape:deskcolor="#505050"
     inkscape:document-units="pt"
     inkscape:zoom="2.2076456"
     inkscape:cx="248.22825"
     inkscape:cy="181.41499"
     inkscape:window-width="1452"
     inkscape:window-height="991"
     inkscape:window-x="26"
     inkscape:window-y="23"
     inkscape:window-maximized="0"
     inkscape:current-layer="svg32" />
  <defs
     id="defs2">
    <clipPath
       id="clip_0">
      <path
         transform="matrix(1,0,0,-1,0,425.197)"
         d="M 0,425.197 H 425.197 V 0 H 0 Z"
         id="path1" />
    </clipPath>
    <clipPath
       id="clip_1">
      <path
         transform="matrix(1,0,0,-1,0,425.197)"
         d="M 0,425.197 H 425.197 V 0 H 0 Z"
         id="path2" />
    </clipPath>
  </defs>
  <g
     id="g1"
     transform="translate(-71.731883,-27.340378)">
    <path
       transform="matrix(1,0,0,-1,116.732,203.888)"
       d="m 0,0 c -4.727,-6.375 -5.136,-14.731 -1.235,-19.469 3.06,-3.717 7.469,-3.637 9.087,0.163 C 10.106,-14.012 6.188,-3.933 0,0 m 1.061,-25.719 c -9.006,9.882 -10.765,19.297 -4.097,27.167 1.926,2.274 6.573,3.934 9.451,3.343 5.216,-1.072 8.757,-11.534 7.15,-18.992 -1.454,-6.744 -4.02,-12.571 -12.72,-11.321 0.004,-0.003 0.216,-0.197 0.216,-0.197"
       fill="#231f20"
       id="path23"
       clip-path="none" />
    <path
       id="path3"
       clip-path="none"
       d="m 237.46249,83.941633 c -1.837,-7.100993 -2.89681,-15.192777 -6.04981,-22.36377 -3.90799,-8.891991 -11.43622,-12.174435 -19.59521,-10.148437 1.449,2.688997 2.95202,5.176366 4.16601,7.797363 2.709,5.848994 0.61294,10.65463 -5.03906,11.869629 -11.97799,2.575997 -28.99277,-5.46814 -34.36377,-16.557129 -0.957,-1.975998 -1.18874,-4.715557 -0.73974,-6.893555 2.44999,-11.889988 1.44957,-13.555869 -11.12842,-15.963867 -1.904,8.583992 -8.42507,10.835469 -15.43506,10.605469 -2.817,6.788993 -4.75304,13.308111 -8.16504,18.933105 -1.821,3.002997 -6.2169,6.338575 -9.3999,6.288575 -12.73399,-0.2 -25.45098,-1.635665 -38.16797,-2.680664 -6.120994,-0.504 -12.255385,-1.838863 -18.338379,-1.609864 -15.478985,0.582 -30.929477,1.890853 -46.397461,2.797852 -12.326988,0.722999 -24.6595009,1.445348 -37.0004886,1.756347 -2.0774314,0.05179 -4.2052104,-1.849034 -6.3120114,-2.920898 0.0179,0.02002 0.03039,0.03856 0.04834,0.05859 -9.558991,-2.766997 -10.317381,-11.189789 -12.338379,-18.925781 -0.652,-2.496998 -1.549272,-5.83615 -3.42627,-6.952149 -9.284991,-5.520994 -10.960324,-14.321998 -10.507324,-23.687988 0.435999,-9.0099911 5.804987,-14.1918076 15.875976,-16.9248048 -0.210999,-1.5169985 -0.395926,-3.0803727 -0.648925,-4.6303711 -2.160998,-13.2609871 7.802985,-24.6828091 20.6469723,-21.2578121 12.998987,3.466996 25.9587117,2.127177 38.8666997,3.555175 12.720987,1.406999 25.391149,3.768696 38.140136,4.262696 9.86299,0.381999 19.799549,-1.697974 29.727544,-2.271973 10.78598,-0.623999 21.60089,-0.742649 32.40087,-1.139648 5.888,-0.217 8.82178,2.913122 9.82178,8.370117 -0.0395,-0.0012 -0.0791,-0.0018 -0.11865,-0.0029 2.24791,5.4462204 4.49541,10.8893152 7.24072,17.5458985 5.923,1.5829984 11.21391,6.3911171 12.7749,14.1621095 1.057,5.261995 3.99673,7.143697 8.74073,8.762695 10.23599,3.493997 13.30831,9.157666 10.19531,18.972656 -2.398,7.564993 2.299,11.181168 7.021,14.493164 5.97999,4.194996 12.53925,7.680642 21.07324,4.410645 -1.583,-3.606996 -2.83621,-6.243663 -3.90821,-8.95166 -2.57199,-6.491994 1.36966,-13.071928 7.41065,-10.87793 7.36499,2.673998 14.92421,7.268033 20.0332,13.103028 6.869,7.846992 5.512,18.127122 2.896,27.016113 z M -14.596105,64.740461 c 3.475441,-1.470154 6.9493702,-2.940961 10.4238277,-4.412109 -0.1789999,-0.398 -0.3585979,-0.795848 -0.5375977,-1.193848 -2.7249973,0.708999 -5.930248,2.647405 -8.052246,1.816406 -2.669997,-1.044999 -5.686001,-4.040538 -6.375,-6.748535 -1.708998,-6.716993 -2.181251,-13.748857 -2.90625,-18.922852 -4.948647,8.285228 -3.062544,17.663971 7.447266,29.460938 z m 35.4375,-1.565918 c 18.896981,-4.521996 16.597127,-21.440081 23.099121,-32.24707 0.766999,0.251999 1.535735,0.503859 2.302734,0.755859 -3.509996,9.83099 -7.020765,19.661709 -10.530762,29.491699 0.612,0.407 1.22345,0.812751 1.83545,1.21875 2.734997,-4.175996 5.469342,-8.352367 8.298339,-12.672363 0.077,1.055999 0.177962,2.439156 0.459961,6.306152 7.258993,-14.934985 11.62766,-28.310374 11.20166,-42.943359 -0.179999,-6.1889939 -0.913531,-12.36199843 -1.394531,-18.5419923 0.04444,0.040123 0.09029,0.070099 0.134766,0.1098633 -1.652652,-3.3726696 -3.29797,-6.737602 -4.943848,-10.101562 -0.558999,0.165999 -1.116782,0.332047 -1.675781,0.498046 0.336,4.867996 0.670559,9.7362669 0.997559,14.46826212 C 47.919065,-7.1061653 45.173329,-13.825679 42.427332,-20.545672 c -0.911999,0.343 -1.822864,0.685321 -2.734863,1.02832 0.235,1.601999 0.470602,3.204785 1.016601,6.925782 -5.768994,-2.846997 -10.308537,-5.087765 -16.019531,-7.905762 18.177982,28.4989715 19.893832,56.000903 -3.848144,83.671875 z M 110.90585,62.36009 c 7.14399,-8.021992 11.4226,-18.163143 12.7456,-28.661133 2.383,-18.910981 -0.13581,-37.1862768 -12.7998,-52.343262 -0.786,0.087 -1.5724,0.175672 -2.3584,0.263672 -0.308,2.567998 -0.61571,5.135514 -0.82471,6.874512 -2.18599,-2.741997 -4.62973,-5.805632 -7.07373,-8.869629 -1.288996,0.837999 -2.577721,1.677138 -3.86572,2.515137 8.31199,12.3829873 10.55821,25.9161899 10.11621,40.305175 -0.438,14.300986 -7.693716,25.960138 -13.67871,38.203125 0.752999,0.515 1.50579,1.028481 2.258789,1.542481 3.625996,-4.646995 7.254121,-9.295638 11.099121,-14.223633 -1.096,3.862996 -2.14297,7.55175 -3.18896,11.239746 0.48499,0.269 0.97105,0.538129 1.45605,0.807129 1.987,-2.545997 3.97464,-5.090754 7.09863,-9.09375 -1.215,4.473996 -2.02254,7.449761 -2.83154,10.426758 0.616,0.338 1.23117,0.675672 1.84717,1.013672 z m 18.4292,-0.247559 c 7.74589,0.406586 14.82983,-5.564824 13.86621,-13.814941 -0.321,-2.742997 -5.04755,-6.641192 -8.08155,-6.971192 -3.77099,-0.409999 -9.02515,1.270773 -11.55615,3.98877 -3.05399,3.278997 -3.92568,8.59252 -5.72168,12.978516 2.418,0.968999 4.30973,1.627262 6.11573,2.468261 1.76737,0.823499 3.58992,1.256759 5.37744,1.350586 z M 8.3755742,60.30052 C 17.022878,60.587347 25.974936,54.908479 28.818934,45.968488 23.336939,41.271493 18.217859,40.628392 14.196863,46.264387 11.139866,45.018388 8.3051884,43.862362 5.3081914,42.640363 3.3591934,48.325358 1.8069787,52.848548 0.06698047,57.924543 2.6439779,59.446291 5.4931396,60.20491 8.3755742,60.30052 Z M 87.894617,58.790266 c 5.093995,0.074 9.048941,-9.549046 8.564942,-19.686036 -11.817989,0 -23.072371,-0.148827 -34.31836,0.07617 -4.318995,0.087 -11.35271,9.261899 -10.303711,13.316895 0.399,1.546998 2.22408,3.725723 3.580078,3.865723 10.79999,1.113998 21.638062,2.270246 32.477051,2.427246 z M -16.14298,56.522687 c 0.714999,-0.015 1.429531,-0.03087 2.144531,-0.04687 2.474997,-3.994996 5.8346065,-7.729176 7.1206053,-12.076171 0.8839991,-2.990997 -0.7897239,-6.948008 -1.9907227,-10.229004 -0.4189996,-1.143999 -3.8519186,-2.504996 -4.1909176,-2.145996 -2.207998,2.338997 -5.456067,5.088534 -5.518067,7.769531 -0.129,5.554994 1.518571,11.149521 2.434571,16.728515 z M 3.6631719,38.428937 C 5.8954196,38.208688 8.0182872,36.947818 10.054285,34.55882 16.122279,27.439827 16.975311,15.083543 11.636316,7.5075508 8.5753195,3.1635551 4.9140729,0.42942991 -0.33292187,4.5544258 L -0.12051953,4.3596016 C -12.693507,10.239596 -14.522715,28.067899 -3.3827266,36.055891 c 2.47199757,1.772998 4.8136507,2.593296 7.0458985,2.373046 z M -26.540441,36.452863 c -8.607992,-6.659993 -12.406117,-17.088965 -7.724121,-25.480957 1.295998,-2.3229974 4.644525,-4.6193202 7.186523,-4.7783201 2.073998,-0.1299998 5.309731,2.5012913 6.32373,4.6962891 1.840999,3.982996 2.411482,8.553544 3.792481,13.977539 1.327999,-7.717992 1.406108,-13.994931 -3.733887,-19.3989257 -3.824996,-4.022996 -7.911613,-4.2941881 -12.099609,-0.9711914 -8.228992,6.5299931 -6.517538,26.1592511 2.689453,31.3022461 0.997999,0.557999 2.367431,0.45132 3.56543,0.65332 z M 139.66659,35.856672 c 6.86445,0.333847 14.49815,-1.481117 18.52002,-5.031738 0.216,1.174998 0.42953,2.34931 0.74853,4.091308 5.544,-7.311993 4.98926,-14.96242 0.59327,-20.774414 -2.611,-3.451996 -9.04981,-5.100262 -13.92481,-5.4682616 -5.89899,-0.4449995 -11.96542,1.3201649 -17.87842,2.1181636 -0.348,6.334994 -0.83314,11.921748 -0.84814,17.510743 -0.004,1.544998 0.97845,3.679946 2.21045,4.543945 2.61862,1.836373 6.46043,2.809945 10.5791,3.010254 z M 20.837,35.298566 c 2.599872,0.05637 5.125202,-0.01856 7.554199,-0.539062 2.668998,-0.573 6.225618,-3.881456 6.682617,-6.439453 C 35.992815,23.181056 35.61746,17.60135 34.609461,12.432355 34.231461,10.497357 30.60651,9.1971586 28.461512,7.6071602 27.391513,9.1851586 26.322199,10.763212 25.766199,11.584211 23.355202,9.4512131 20.308313,6.7548411 17.261316,4.0578437 16.446317,4.6248432 15.630027,5.1915279 14.815027,5.7585273 19.153023,16.154517 18.986088,26.164411 12.833094,35.055402 c 2.729497,0 5.404034,0.186789 8.003906,0.243164 z m 55.40918,-3.049804 c 0.148,-0.006 0.290269,-0.03071 0.426269,-0.07471 0.272,-0.08 0.459965,-0.244188 0.563965,-0.492188 0.04,-0.096 0.112797,-0.188855 0.216797,-0.276855 0.112,-0.088 0.219731,-0.159332 0.32373,-0.215332 0.104,-0.048 0.211731,-0.115614 0.323731,-0.203614 0.112,-0.08 0.195953,-0.169136 0.251953,-0.265136 0.10399,-0.176 0.248129,-0.462794 0.432129,-0.862793 0.024,-0.064 0.05668,-0.213313 0.09668,-0.445313 0.048,-0.224 0.102992,-0.371848 0.166992,-0.443847 l -0.03516,-1.03125 c -0.016,-0.48 -0.116294,-1.120411 -0.300293,-1.920411 -0.368,-1.623998 -0.924458,-2.739168 -1.668457,-3.347168 -1.255999,-1.007999 -2.415015,-1.188526 -3.479004,-0.540527 -0.512,0.312 -0.924329,0.724329 -1.236328,1.236328 -0.304,0.52 -0.475626,1.083895 -0.515625,1.691895 v 0.01172 c 0,0.08 -0.0052,0.227848 -0.01318,0.443848 v 0.480469 c 0.008,0.112 0.0169,0.250945 0.0249,0.418945 0.016,0.176 0.03234,0.336469 0.04834,0.480469 0.04,0.2 0.11877,0.484539 0.23877,0.852539 0.12,0.368 0.196515,0.639918 0.228515,0.815918 0.128,0.607999 0.356083,1.195672 0.684082,1.763672 0.328,0.575999 0.727708,1.019553 1.199707,1.331543 0.168,0.112 0.392364,0.216012 0.672364,0.312012 0.279999,0.103999 0.575695,0.184234 0.887695,0.240234 0.16,0.032 0.313426,0.04555 0.461426,0.03955 z m 4.123535,-0.56543 c 0.135,-0.0012 0.283848,-0.06164 0.443848,-0.181641 0.111999,-0.08 0.279906,-0.180293 0.503906,-0.300293 0.224,-0.119999 0.406781,-0.24407 0.550781,-0.37207 0.144,-0.12 0.260633,-0.284188 0.348633,-0.492187 0.08,-0.176 0.123836,-0.439016 0.131836,-0.791016 0.016,-0.34399 0.01228,-0.716211 -0.01172,-1.116211 -0.016,-0.392 -0.016,-0.660199 0,-0.804199 0.008,-0.056 0.01172,-0.236528 0.01172,-0.540528 v -0.539062 c 0,-0.19999 0.02378,-0.304012 0.07178,-0.312012 0.048,-0.008 0.175789,0.03212 0.383789,0.120117 0.04,0.016 0.216809,0.06727 0.528809,0.155274 0.311999,0.096 0.600258,0.187391 0.864258,0.275391 0.263999,0.088 0.399226,0.151894 0.407226,0.191894 0.016,0.12 0.05612,0.565009 0.120117,1.333008 0.064,0.767999 0.136797,1.304399 0.216797,1.608398 0.008,0.032 0.02806,0.139731 0.06006,0.323731 0.032,0.192 0.06321,0.367344 0.09521,0.527344 0.032,0.159999 0.07584,0.311566 0.131836,0.455566 0.064,0.152 0.124175,0.235953 0.180175,0.251953 0.232,0.056 0.503919,-0.04801 0.815918,-0.312012 0.31999,-0.255999 0.491625,-0.502676 0.515625,-0.742675 0.008,-0.112 0.0043,-0.272469 -0.01172,-0.480469 -0.008,-0.2 -0.01916,-0.376809 -0.03516,-0.528809 -0.016,-0.144 -0.04124,-0.355742 -0.07324,-0.635742 -0.024,-0.272 -0.03888,-0.540199 -0.04687,-0.804199 -0.008,-0.128 -0.008,-0.270664 0,-0.430664 0.008,-0.152 0.02287,-0.30875 0.04687,-0.46875 0.024,-0.16 0.04924,-0.315286 0.07324,-0.467285 0.032,-0.144 0.0595,-0.300751 0.0835,-0.46875 0.032,-0.168 0.05578,-0.312129 0.07178,-0.432129 0.024,-0.152 0.04406,-0.347403 0.06006,-0.587403 0.024,-0.231999 0.04778,-0.456363 0.07178,-0.672363 0.024,-0.208 0.05296,-0.399684 0.08496,-0.575684 0.008,-0.056 0.03178,-0.152574 0.07178,-0.288574 0.04,-0.136 0.0675,-0.251168 0.0835,-0.347168 0.024,-0.088 0.02772,-0.184574 0.01172,-0.288574 -0.008,-0.104 -0.04293,-0.184234 -0.106934,-0.240234 -0.064,0.024 -0.129359,-0.02355 -0.193359,-0.143555 -0.064,-0.12 -0.09521,-0.212856 -0.09521,-0.276855 0,-0.032 -0.03268,-0.06693 -0.09668,-0.106934 -0.064,-0.04 -0.131613,-0.07268 -0.203613,-0.09668 -0.072,-0.032 -0.128457,-0.04834 -0.168457,-0.04834 -0.128,0.008 -0.307063,0.03696 -0.539062,0.08496 -0.232,0.04 -0.396188,0.0675 -0.492188,0.0835 -0.056,0 -0.108738,0.01634 -0.156738,0.04834 -0.048,0.04 -0.08665,0.09127 -0.118653,0.155274 -0.024,0.064 -0.04406,0.116738 -0.06006,0.156738 -0.016,0.048 -0.03606,0.115613 -0.06006,0.203613 -0.016,0.088 -0.0249,0.140739 -0.0249,0.156739 -0.216,0.807999 -0.323731,1.675028 -0.323731,2.603027 0,0.088 -0.0074,0.157078 -0.02344,0.205078 -0.016,0.048 -0.04868,0.0755 -0.09668,0.0835 -0.04,0.008 -0.0764,0.008 -0.108398,0 -0.032,0 -0.09218,-0.01262 -0.180176,-0.03662 -0.08,-0.016 -0.143895,-0.02716 -0.191895,-0.03516 -0.375999,-0.064 -0.755658,-0.140516 -1.139648,-0.228516 -0.272,-0.064 -0.439906,-0.127894 -0.503906,-0.191894 -0.056,-0.056 -0.09984,-0.211286 -0.131836,-0.467286 -0.048,-0.375999 -0.05172,-0.792047 -0.01172,-1.248046 0,-0.016 0.01634,-0.08508 0.04834,-0.205079 0.04,-0.119999 0.07121,-0.24407 0.09521,-0.37207 0.024,-0.12 0.04034,-0.24407 0.04834,-0.37207 0.008,-0.12 -0.0195,-0.21511 -0.0835,-0.28711 -0.056,-0.064 -0.145137,-0.08406 -0.265137,-0.06006 -0.032,0.008 -0.08699,-0.01206 -0.166992,-0.06006 -0.072,-0.048 -0.135895,-0.06806 -0.191895,-0.06006 -0.064,0.016 -0.193264,0.01228 -0.385254,-0.01172 -0.184,-0.024 -0.311789,-0.0329 -0.383789,-0.0249 -0.144,0.016 -0.25173,0.03234 -0.32373,0.04834 -0.064,0.008 -0.147954,0.02434 -0.251953,0.04834 -0.096,0.032 -0.167333,0.07212 -0.215333,0.120117 -0.048,0.048 -0.09702,0.115614 -0.145019,0.203614 -0.048,0.088 -0.07921,0.19573 -0.09521,0.32373 0.032,-0.048 0.05578,-0.05172 0.07178,-0.01172 0.016,0.04 0.016,0.09646 0,0.168457 -0.008,0.072 -0.02434,0.135895 -0.04834,0.191895 -0.016,0.056 -0.03978,0.119895 -0.07178,0.191895 -0.032,0.08 -0.05206,0.140175 -0.06006,0.180175 -0.024,0.016 -0.03144,0.131169 -0.02344,0.347168 0.008,0.216 0.01172,0.336352 0.01172,0.360352 -0.024,0.799999 0.03618,1.495403 0.180176,2.087402 0.04,0.144 0.06378,0.313372 0.07178,0.505371 0.016,0.2 0.01972,0.431801 0.01172,0.695801 v 0.527344 c 0.008,0.216 0.02062,0.511696 0.03662,0.887695 0.016,0.37599 0.02344,0.647918 0.02344,0.815918 0.008,0.168 0.0043,0.364868 -0.01172,0.588867 -0.016,0.224 -0.04868,0.423122 -0.09668,0.599121 -0.08,0.288 -0.02726,0.484868 0.156738,0.588868 0.072,0.042 0.147516,0.06227 0.228516,0.06152 z m -3.912598,-0.93457 c -0.056,-0.004 -0.112457,-0.01383 -0.168457,-0.02783 -0.28,-0.072 -0.519238,-0.283743 -0.719238,-0.635743 -0.2,-0.343999 -0.347848,-0.707308 -0.443848,-1.091308 -0.144,-0.615999 -0.248012,-1.068446 -0.312011,-1.356445 -0.056,-0.288 -0.116176,-0.683999 -0.180176,-1.187989 -0.056,-0.495999 -0.07234,-0.959602 -0.04834,-1.391601 v -0.01172 -0.06006 c 0.04,-0.311999 0.167789,-0.629219 0.383789,-0.949218 0.216,-0.312 0.464141,-0.527461 0.744141,-0.647461 0.151999,-0.072 0.296129,-0.115836 0.432128,-0.131836 0.136,-0.008 0.260071,0.0083 0.372071,0.04834 0.112,0.04 0.212293,0.09127 0.300293,0.155273 0.096,0.072 0.183672,0.164856 0.263672,0.276856 0.08,0.111999 0.147613,0.223449 0.203613,0.335449 0.064,0.112 0.124176,0.239789 0.180176,0.383789 0.871999,2.039998 1.019847,3.760646 0.443847,5.160644 -0.096,0.224 -0.223789,0.428305 -0.383789,0.612305 -0.152,0.184 -0.339965,0.322945 -0.563965,0.418945 -0.167999,0.078 -0.335906,0.11161 -0.503906,0.09961 z M -30.180578,28.324445 c 8.736991,-5.270994 9.477801,-11.311785 2.028808,-19.571777 -7.286992,5.643994 -7.689802,10.640786 -2.028808,19.571777 z M 80.081141,22.681867 c -0.032,0.008 -0.02084,-0.0284 0.03516,-0.108398 0.056,-0.072 0.0924,-0.07944 0.108398,-0.02344 -0.008,0.088 -0.05555,0.131836 -0.143554,0.131836 z m -3.164063,-4.835449 c 0.47775,-0.014 0.888934,-0.149692 1.231934,-0.408691 l 0.180176,-0.180176 c 0.072,-0.064 0.14705,-0.140516 0.22705,-0.228516 0.08,-0.088 0.149078,-0.183109 0.205078,-0.287109 0.064,-0.096 0.09893,-0.179953 0.106934,-0.251953 0.008,-0.072 0.0533,-0.164856 0.133301,-0.276856 0.08,-0.112 0.127554,-0.199672 0.143554,-0.263672 0.032,-0.112 0.07212,-0.356422 0.120118,-0.732422 0.008,-0.064 0.05555,-0.28318 0.143554,-0.659179 0.096,-0.368 0.136118,-0.656258 0.120118,-0.864258 -0.016,-0.184 -0.02862,-0.388305 -0.03662,-0.612305 -0.008,-0.216 -0.01544,-0.411402 -0.02344,-0.587402 0,-0.168 -0.0037,-0.355965 -0.01172,-0.563965 0,-0.2 -0.0089,-0.387965 -0.0249,-0.563965 -0.016,-0.176 -0.03978,-0.369148 -0.07178,-0.577148 -0.032,-0.208 -0.07584,-0.407122 -0.131836,-0.599121 C 78.820602,8.7016812 78.172753,7.778185 77.284754,7.4181953 76.644755,7.1781956 76.07714,7.141797 75.581141,7.3097969 c -0.488,0.1599998 -0.904048,0.4794731 -1.248047,0.9594726 -0.344,0.4799996 -0.6122,1.0401765 -0.804199,1.6801758 -0.184,0.6399897 -0.291731,1.3205277 -0.323731,2.0405277 v 0.01172 c 0,0.416 0.03122,0.839485 0.09522,1.271485 0.072,0.439999 0.172293,0.876106 0.300293,1.308105 0.128,0.432 0.292188,0.84061 0.492187,1.22461 0.2,0.383999 0.424364,0.723531 0.672364,1.019531 0.255999,0.296 0.547977,0.536713 0.875976,0.720703 0.336,0.184 0.691872,0.282828 1.067871,0.298828 0.071,0.003 0.139758,0.0035 0.208008,0.0015 z M 69.58993,17.465559 c 0.08,0.003 0.161164,0.0016 0.243164,-0.0044 0.327999,-0.024 0.623695,-0.135449 0.887695,-0.335449 0.192,-0.152 0.339848,-0.276071 0.443848,-0.37207 0.112,-0.088 0.239789,-0.212071 0.383789,-0.372071 0.144,-0.16 0.253195,-0.324187 0.325195,-0.492187 0.08,-0.168 0.127555,-0.348528 0.143555,-0.540528 0.048,-0.703999 -0.05973,-1.40684 -0.323731,-2.110839 -0.255999,-0.696 -0.624492,-1.460482 -1.104492,-2.292481 -0.112,-0.192 -0.287344,-0.452762 -0.527344,-0.780762 -0.239999,-0.3279993 -0.409371,-0.5635193 -0.505371,-0.7075192 -0.024,-0.048 -0.08271,-0.1319532 -0.178711,-0.2519531 -0.096,-0.1199999 -0.179953,-0.2277306 -0.251953,-0.3237305 -0.064,-0.096 -0.124176,-0.2000118 -0.180176,-0.3120117 -0.048,-0.1039999 -0.05318,-0.1916719 -0.01318,-0.2636719 0.04,-0.064 0.132855,-0.1041172 0.276855,-0.1201172 0.6,-0.056 1.116341,-0.076059 1.54834,-0.060059 0.024,0 0.09533,0.00372 0.215332,0.011719 0.128,0.008 0.252071,0.011719 0.372071,0.011719 0.127999,0.008 0.259507,0.011719 0.395507,0.011719 0.136,0.008 0.248914,0.00428 0.336914,-0.011719 0.096,-0.016 0.150993,-0.036059 0.166993,-0.060059 0.008,-0.024 -0.0069,-0.099051 -0.04687,-0.2270507 -0.04,-0.1199999 -0.06006,-0.1890782 -0.06006,-0.2050782 -0.008,-0.064 -0.02806,-0.1115547 -0.06006,-0.1435546 -0.032,-0.032 -0.0684,-0.052059 -0.108398,-0.060059 -0.032,-0.008 -0.07584,-0.015437 -0.131836,-0.023437 -0.056,-0.016 -0.09984,-0.036059 -0.131836,-0.060059 -0.152,-0.088 -0.456598,-0.1518946 -0.912598,-0.1918946 -0.455999,-0.04 -0.698957,-0.063777 -0.730957,-0.071777 -0.215999,-0.04 -0.520598,-0.1090782 -0.912597,-0.2050781 -0.384,-0.096 -0.739872,-0.1762345 -1.067871,-0.2402344 -0.32,-0.064 -0.624598,-0.1026524 -0.912598,-0.1186524 -0.296,-0.008 -0.53152,0.043274 -0.70752,0.1552735 -0.167999,0.1119999 -0.268293,0.2635666 -0.300293,0.4555664 -0.032,0.1839998 -0.02456,0.3845861 0.02344,0.6005859 0.048,0.2239998 0.137137,0.4483635 0.265137,0.6723633 0.064,0.1119999 0.251965,0.4879303 0.563965,1.1279297 0.319999,0.6399998 0.591918,1.1199418 0.815918,1.4399418 0.103999,0.144 0.248129,0.36318 0.432128,0.65918 0.192,0.295999 0.336129,0.512926 0.432129,0.648925 0.048,0.064 0.102993,0.171731 0.166993,0.323731 0.072,0.152 0.141078,0.29242 0.205078,0.42041 0.072,0.128 0.143332,0.219391 0.215332,0.275391 l 0.01172,0.02344 c 0.032,0.152 0.0959,0.328809 0.191895,0.528809 0.096,0.208 0.188855,0.395965 0.276855,0.563965 0.088,0.175999 0.163051,0.360246 0.227051,0.552246 0.072,0.191999 0.09724,0.383683 0.07324,0.575683 -0.016,0.192 -0.08508,0.376247 -0.205078,0.552246 -0.184,0.216 -0.41952,0.291051 -0.707519,0.227051 -0.28,-0.056 -0.555647,-0.183789 -0.827637,-0.383789 -0.272,-0.2 -0.448809,-0.391684 -0.528809,-0.575684 -0.04,-0.096 -0.09127,-0.256469 -0.155273,-0.480468 -0.064,-0.224 -0.124176,-0.391907 -0.180176,-0.503907 -0.032,-0.064 -0.07955,-0.124175 -0.143554,-0.180175 -0.064,-0.048 -0.133079,-0.08293 -0.205079,-0.106934 -0.072,-0.024 -0.139613,-0.02028 -0.203613,0.01172 -0.064,0.04 -0.104117,0.111332 -0.120117,0.215332 -0.048,0.248 -0.0079,0.54516 0.120117,0.88916 0.136,0.344 0.307625,0.659754 0.515625,0.947754 0.208,0.288 0.416024,0.50718 0.624024,0.65918 0.279999,0.207999 0.564539,0.368468 0.852539,0.480468 0.221999,0.09 0.452871,0.13895 0.692871,0.14795 z m -0.309082,-4.144043 -0.02344,-0.180176 0.03516,0.03662 c 0.056,0.072 0.056,0.119555 0,0.143555 z m 14.661621,4.144043 c 0.08,0.003 0.159699,0.0016 0.241699,-0.0044 0.328,-0.024 0.62516,-0.135449 0.88916,-0.335449 0.192,-0.152 0.339848,-0.276071 0.443848,-0.37207 0.112,-0.088 0.239789,-0.212071 0.383789,-0.372071 0.144,-0.16 0.25173,-0.324187 0.32373,-0.492187 0.08,-0.168 0.127555,-0.348528 0.143555,-0.540528 0.048,-0.703999 -0.05973,-1.40684 -0.32373,-2.110839 -0.256,-0.696 -0.623028,-1.460482 -1.103028,-2.292481 -0.112,-0.192 -0.288809,-0.452762 -0.528808,-0.780762 -0.24,-0.3279993 -0.407907,-0.5635193 -0.503907,-0.7075192 -0.024,-0.048 -0.08418,-0.1319532 -0.180175,-0.2519531 -0.096,-0.1199999 -0.179954,-0.2277306 -0.251954,-0.3237305 -0.064,-0.096 -0.124175,-0.2000118 -0.180175,-0.3120117 -0.048,-0.1039999 -0.05172,-0.1916719 -0.01172,-0.2636719 0.04,-0.064 0.132856,-0.1041172 0.276855,-0.1201172 0.6,-0.056 1.114876,-0.076059 1.546875,-0.060059 0.024,0 0.0968,0.00372 0.216797,0.011719 0.128,0.008 0.252071,0.011719 0.372071,0.011719 0.127999,0.008 0.259508,0.011719 0.395507,0.011719 0.136,0.008 0.24745,0.00428 0.33545,-0.011719 0.096,-0.016 0.152457,-0.036059 0.168457,-0.060059 0.008,-0.024 -0.0083,-0.099051 -0.04834,-0.2270507 -0.04,-0.1199999 -0.06006,-0.1890782 -0.06006,-0.2050782 -0.008,-0.064 -0.02806,-0.1115547 -0.06006,-0.1435546 -0.032,-0.032 -0.06694,-0.052059 -0.106934,-0.060059 -0.032,-0.008 -0.07584,-0.015437 -0.131836,-0.023437 -0.056,-0.016 -0.101301,-0.036059 -0.133301,-0.060059 -0.152,-0.088 -0.455133,-0.1518946 -0.911133,-0.1918946 -0.455999,-0.04 -0.700421,-0.063777 -0.732421,-0.071777 -0.216,-0.04 -0.519134,-0.1090782 -0.911133,-0.2050781 -0.384,-0.096 -0.741336,-0.1762345 -1.069336,-0.2402344 -0.31999,-0.064 -0.623133,-0.1026524 -0.911133,-0.1186524 -0.296,-0.008 -0.53152,0.043274 -0.707519,0.1552735 -0.168,0.1119999 -0.268294,0.2635666 -0.300293,0.4555664 -0.032,0.1839998 -0.02456,0.3845861 0.02344,0.6005859 0.048,0.2239998 0.135672,0.4483635 0.263672,0.6723633 0.064,0.1119999 0.251965,0.4879303 0.563965,1.1279297 0.319999,0.6399998 0.591918,1.1199418 0.815918,1.4399418 0.104,0.144 0.248129,0.36318 0.432129,0.65918 0.191999,0.295999 0.336129,0.512926 0.432129,0.648925 0.048,0.064 0.104457,0.171731 0.168457,0.323731 0.072,0.152 0.139613,0.29242 0.203613,0.42041 0.072,0.128 0.144797,0.219391 0.216797,0.275391 l 0.01172,0.02344 c 0.032,0.152 0.09589,0.328809 0.191895,0.528809 0.096,0.208 0.187391,0.395965 0.275391,0.563965 0.088,0.175999 0.164515,0.360246 0.228515,0.552246 0.072,0.191999 0.09578,0.383683 0.07178,0.575683 -0.016,0.192 -0.08361,0.376247 -0.203614,0.552246 -0.184,0.216 -0.41952,0.291051 -0.707519,0.227051 -0.28,-0.056 -0.557102,-0.183789 -0.829102,-0.383789 -0.272,-0.2 -0.447344,-0.391684 -0.527344,-0.575684 -0.04,-0.096 -0.09274,-0.256469 -0.156738,-0.480468 -0.064,-0.224 -0.124176,-0.391907 -0.180176,-0.503907 -0.032,-0.064 -0.07955,-0.124175 -0.143554,-0.180175 -0.064,-0.048 -0.131614,-0.08293 -0.203614,-0.106934 -0.072,-0.024 -0.139613,-0.02028 -0.203613,0.01172 -0.064,0.04 -0.104117,0.111332 -0.120117,0.215332 -0.048,0.248 -0.0079,0.54516 0.120117,0.88916 0.136,0.344 0.307625,0.659754 0.515625,0.947754 0.20799,0.288 0.416024,0.50718 0.624024,0.65918 0.279999,0.207999 0.564539,0.368468 0.852539,0.480468 0.221999,0.09 0.452871,0.13895 0.692871,0.14795 z m -0.309082,-4.144043 -0.0249,-0.180176 0.03662,0.03662 c 0.056,0.072 0.056,0.119555 0,0.143555 z m 7.02832,3.681152 c 0.094,0.014 0.138766,-0.0014 0.134766,-0.04541 h 0.03662 c 0.391999,0 0.747881,-0.104012 1.067871,-0.312012 0.328,-0.2 0.587297,-0.463016 0.779297,-0.791016 0.192,-0.319999 0.336129,-0.668434 0.432129,-1.044433 0.104,-0.376 0.153019,-0.748211 0.145019,-1.116211 -0.008,-0.256 -0.08823,-0.675766 -0.240234,-1.259766 -0.024,-0.08 0.03989,-0.256809 0.191894,-0.528808 0.16,-0.272 0.243953,-0.427285 0.251953,-0.467285 0.272,-0.888 0.244504,-1.6524815 -0.0835,-2.2924809 C 93.249527,8.8972463 93.03632,8.6580076 92.74032,8.4260078 92.444321,8.194008 92.11741,8.0060428 91.75741,7.862043 91.405411,7.7180431 91.040636,7.6289062 90.664637,7.5969062 c -0.368,-0.032 -0.687473,0.028176 -0.959473,0.1801758 -0.12,0.064 -0.328024,0.1278946 -0.624023,0.1918946 -0.288,0.064 -0.499743,0.1330782 -0.635743,0.2050781 -0.567999,0.3119997 -0.949123,0.5787346 -1.141113,0.8027344 -0.383999,0.4319995 -0.575683,0.8205511 -0.575683,1.1645509 0,0.128 0.08767,0.295906 0.263671,0.503906 0.144,0.168 0.224235,0.180621 0.240235,0.03662 0.04,-0.455999 0.244305,-0.8809494 0.612305,-1.272949 0.367999,-0.3919996 0.787766,-0.6349572 1.259765,-0.7309571 1.207999,-0.2559997 1.988821,0.1949817 2.34082,1.3549801 0.184,0.6 0.207778,1.068786 0.07178,1.404786 -0.024,0.048 -0.06784,0.07921 -0.131836,0.09521 -0.056,0.016 -0.132516,0.016 -0.228516,0 -0.088,-0.008 -0.168234,-0.01916 -0.240234,-0.03516 -0.072,-0.016 -0.155953,-0.03978 -0.251953,-0.07178 -0.088,-0.024 -0.135555,-0.03662 -0.143555,-0.03662 -0.328,-0.08 -0.588762,-0.03616 -0.780762,0.131836 -0.191999,0.167999 -0.279672,0.392363 -0.263672,0.672363 0.024,0.28 0.144352,0.524422 0.360352,0.732422 0.088,0.088 0.188293,0.159332 0.300293,0.215332 0.112,0.056 0.230887,0.108738 0.358887,0.156738 0.128,0.048 0.237195,0.09927 0.325195,0.155274 0.35999,0.239999 0.491508,0.672387 0.395508,1.296386 -0.088,0.528 -0.303461,0.860094 -0.647461,0.996094 -0.344,0.136 -0.75261,0.07954 -1.224609,-0.168457 -0.048,-0.02399 -0.19213,-0.131731 -0.432129,-0.32373 -0.232,-0.192 -0.399907,-0.292293 -0.503907,-0.300293 -0.239999,-0.008 -0.371507,0.05961 -0.395507,0.203613 -0.016,0.152 0.05161,0.305031 0.203613,0.457031 0.272,0.32 0.695485,0.643192 1.271484,0.971191 0.112,0.056 0.360141,0.152575 0.744141,0.288575 0.192,0.072 0.335199,0.114906 0.429199,0.128906 z M 77.837,16.837141 c -0.711999,-0.096 -1.284797,-0.512048 -1.716797,-1.248047 -0.431999,-0.736 -0.63484,-1.699603 -0.61084,-2.891602 0,-0.367999 0.04012,-0.771426 0.120117,-1.211426 0.08,-0.439999 0.19145,-0.885008 0.33545,-1.333007 0.152,-0.44 0.352586,-0.8233679 0.600586,-1.1513676 0.255999,-0.3199997 0.539074,-0.5168673 0.851074,-0.5888672 0.272,-0.064 0.512703,0.019953 0.720703,0.2519531 0.216,0.2319998 0.383906,0.5328793 0.503906,0.9008789 0.128,0.3679997 0.232012,0.7877658 0.312012,1.2597658 0.08,0.471999 0.131273,0.888047 0.155273,1.248047 0.032,0.367999 0.04834,0.687473 0.04834,0.959472 v 0.108399 0.180176 0.215332 c 0,0.08 -0.0037,0.156515 -0.01172,0.228515 0,0.072 -0.0037,0.139614 -0.01172,0.203614 -0.008,0.064 -0.02062,0.116738 -0.03662,0.156738 -0.016,0.04 -0.03606,0.06378 -0.06006,0.07178 -0.104,0.016 -0.180516,0.06355 -0.228516,0.143555 -0.04,0.088 -0.04,0.19573 0,0.32373 0.04,0.144 0.03256,0.337149 -0.02344,0.577149 -0.048,0.248 -0.124516,0.48352 -0.228516,0.707519 -0.104,0.232 -0.222887,0.432586 -0.358886,0.600586 -0.128,0.176 -0.244633,0.27111 -0.348633,0.28711 z m 13.116211,-4.187989 c -0.168,-0.032 -0.29207,-0.09589 -0.37207,-0.191894 l -0.0249,-0.02344 c 0.2,-0.032 0.353032,0.02818 0.457032,0.180176 0.016,0.032 -0.0041,0.04316 -0.06006,0.03516 z M -10.633703,7.6877266 c -2.341998,-2.9479971 -4.942948,-6.2211205 -7.543945,-9.4951172 0.05519,0.039201 0.11474,0.080927 0.169921,0.1201172 -1.387743,-4.8481013 -2.776664,-9.6942996 -3.751464,-13.0971676 -4.585996,8.9979906 1.017498,21.6931683 11.125488,22.4721676 z M 133.73837,2.827375 c 3.8864,-0.3395153 8.79795,-2.72962607 13.45019,-3.796875 -1.128,-4.7792085 -2.18369,-9.253392 -3.23877,-13.727051 -8.13572,-0.240497 -16.2715,-0.482155 -24.40722,-0.723633 -0.636,1.150999 -1.27223,2.302638 -1.90723,3.452637 4.106,4.9839951 7.32399,11.90517442 12.60498,14.326172 1.01975,0.4674995 2.20258,0.5819218 3.49805,0.46875 z M 77.860438,2.8156562 C 85.42343,2.9949061 93.217258,1.4446399 100.99325,0.71214062 99.117252,-12.196846 94.05018,-15.51208 82.183191,-13.841082 c -4.835995,0.680999 -9.942817,-0.155196 -14.882812,-0.700195 -7.642752,-0.843545 -10.686104,1.574188 -10.992188,9.2431637 6.795541,6.04796394 14.060327,7.9362042 21.552247,8.1137695 z m -90.231446,-0.505371 c 7.1289931,-5.075995 6.7904409,-12.2336164 6.1274416,-19.2246092 -0.1059999,-1.124999 -3.6127667,-3.174609 -4.6347656,-2.72461 -2.651997,1.169999 -6.166962,3.102827 -6.834961,5.444825 -1.109128,3.883936 -0.293387,8.3166324 -0.269531,12.5244137 1.824384,1.29566773 3.642121,2.58341034 5.611816,3.9799805 z M -4.0234375e-4,2.265625e-4 C 4.0535936,-7.1357663 3.6901163,-14.323464 -1.0638789,-20.825457 -3.7448762,-24.490453 -7.6687987,-26.916232 -13.400793,-24.272234 -1.8498045,-21.738237 0.49059717,-17.068756 -4.0234375e-4,2.265625e-4 Z M 28.158289,-1.2990898 c 0.569999,0.039 1.702028,-1.9164816 1.853027,-3.0424805 0.716,-5.3389947 -8.184595,-14.0424837 -13.454589,-13.6464847 -3.983996,0.299 -8.0084077,0.05859 -12.9624028,0.05859 0.2589998,1.246999 0.5163208,3.074197 1.0283203,4.825195 0.9699991,3.3209971 1.4378144,8.9717509 3.2578125,9.4687504 6.495994,1.7769982 13.467839,1.8764262 20.277832,2.3364258 z"
       transform="matrix(1,0,0,-1,117.913,233.968)"
       style="fill:#231f20;fill-opacity:1" />
    <path
       transform="matrix(1,0,0,-1,386.345,149.191)"
       d="m 0,0 c -21.53,-2.474 -20.104,-2.327 -16.566,-13.083 -3.315,0.998 -6.773,2.04 -10.762,3.242 -0.734,4.632 7.655,5.499 5.454,13.28 -1.791,6.332 -3.323,8.769 -9.831,9.19 -7.543,0.488 -11.454,-4.445 -13.667,-9.391 -2.875,-6.427 6.858,-8.77 9.56,-14.527 -1.684,-1.204 -3.365,-2.404 -5.368,-3.836 1.003,13.653 -8.77,7.354 -16.916,8.25 4.484,2.619 7.169,4.187 11.394,6.654 -7.96,4.072 -14.803,7.572 -21.646,11.072 0.11,0.254 0.219,0.509 0.329,0.764 5.176,-1.097 10.32,-2.407 15.543,-3.196 2.462,-0.373 5.075,0.254 7.62,0.428 -0.23,2.491 -1.556,3.974 -2.173,6.365 -0.564,2.19 -2.354,7.988 -3.615,10.675 4.494,-3.394 10.154,-8.962 13.933,-11.816 2.642,3.776 5.66,19.326 7.873,22.49 0.617,-2.252 0.217,-18.538 2.46,-20.734 1.935,-1.894 14.058,7.186 17.227,6.788 C -11.115,17.802 -21.299,8.654 -19.777,6.881 -18.014,4.826 -11.271,2.086 0,0"
       fill="#231f20"
       id="path4"
       clip-path="none" />
    <path
       transform="matrix(1,0,0,-1,157.546,141.322)"
       d="m 0,0 c -0.106,0.396 0.17,1.107 0.138,1.225 0,0 -0.103,0.227 -0.46,0.132 0.08,0.021 -0.324,-0.214 -0.218,-0.61 0.074,-0.277 0.447,-0.56 0.5,-0.758 0.043,-0.158 -0.173,-0.301 -0.163,-0.34 C -0.171,-0.47 0.21,-0.623 0.58,-0.736 0.307,-0.512 0.074,-0.277 0,0 m -6.3,-15.908 c 0.032,-0.119 -0.329,-0.513 -0.566,-0.577 -0.318,-0.085 -1.039,0.231 -1.071,0.35 -0.042,0.158 0.074,0.359 0.388,0.613 0,0 1.09,0.208 1.249,-0.386 M 9.147,-1.662 C 9.678,-3.642 8.953,-4.261 7.983,-5.71 7.799,-5.971 7.51,-7.11 7.035,-7.237 6.876,-7.28 6.615,-7.096 6.535,-7.117 6.456,-7.138 6.384,-8.134 5.553,-8.356 4.998,-8.505 4.33,-8.387 4.172,-8.43 4.013,-8.472 3.955,-8.573 3.955,-8.573 c 0.101,-0.058 0.302,-0.174 0.294,-0.303 0,0 -0.079,-0.021 -0.18,0.037 -0.449,0.092 -0.784,-0.083 -0.816,0.035 -0.085,0.317 0.413,1.469 1.075,1.689 0.396,0.107 0.774,0.123 0.971,0.176 0.119,0.032 0.188,0.093 0.145,0.251 L 5.37,-6.411 c -0.17,0.634 0.5,0.983 0.5,0.983 l -0.478,1.782 c -0.17,0.633 -1.124,1.184 -1.219,1.54 -0.022,0.079 -0.003,0.169 -0.025,0.248 -0.095,0.357 -1.281,0.505 -1.328,0.365 -0.492,0.25 0.076,0.191 -0.941,0.342 -0.488,0.081 -1.405,0.175 -3,0.426 -1.854,0.267 -3.098,0.315 -3.056,0.157 0.022,-0.08 0.262,-0.185 0.262,-0.185 l -0.734,-0.112 c 0.116,0.201 -0.313,-0.254 -1.655,-0.317 0.352,-0.203 0.621,-0.258 0.819,-0.205 l 0.356,0.096 c 0.792,0.212 1.373,-1.16 1.452,-1.139 0.118,0.032 0.192,0.392 0.271,0.413 0.04,0.01 0.101,-0.058 0.164,-0.296 0.213,-0.791 0.187,-1.011 0.132,-1.28 -0.019,-0.09 0.673,-3.3 0.457,-3.443 -0.206,-0.182 -0.721,-0.32 -0.689,-0.439 0.01,-0.04 0.408,-0.57 0.465,-0.469 -0.036,-0.18 0.076,-0.914 0.193,-1.349 0.116,-0.436 0.252,-0.782 0.252,-0.782 0.087,0.151 -0.135,-0.29 0.269,-1.795 l 1.768,0.687 c 0.99,0.265 2.357,2.288 3.268,2.532 0.079,0.021 0.129,-0.008 0.14,-0.047 0.021,-0.079 -0.015,-0.259 -0.103,-0.41 0.252,-0.145 0.791,-0.255 0.854,-0.493 0.096,-0.356 0.537,-0.577 0.601,-0.814 0.053,-0.198 -0.163,-0.341 -0.282,-0.373 -0.119,-0.032 -0.209,-0.014 -0.209,-0.014 l -0.529,0.707 c 0,0 -0.589,0.139 -0.94,0.342 -0.48,-0.426 -1.349,-0.192 -1.137,-0.984 0.032,-0.119 0.122,-0.137 0.201,-0.116 0.158,0.043 0.306,0.125 0.464,0.167 0.159,0.043 0.27,-0.055 0.291,-0.134 0.032,-0.119 -1.532,-1.09 -1.936,-1.326 -0.216,-0.143 -0.532,-0.864 -2.195,-1.31 l -0.005,-0.299 c -0.031,-0.517 0.671,-3.766 0.611,-4.334 -0.052,-0.439 -0.028,-0.687 0.026,-0.885 0.085,-0.317 0.288,-0.602 0.342,-0.8 -0.085,0.317 0.167,-1.1 -0.368,-1.796 -0.252,-0.322 -0.772,-0.759 -0.839,-1.456 -0.097,-0.748 -0.553,-1.421 -0.553,-1.421 0,0 -0.073,-0.36 -0.192,-0.391 0,0 -0.553,0.954 -0.607,1.152 -0.265,0.99 0.412,2.106 0.231,2.779 -0.074,0.277 -0.745,0.563 -0.809,0.801 -0.106,0.396 -0.131,1.281 -0.397,2.27 -0.053,0.198 -0.146,0.386 -0.188,0.544 -0.075,0.277 -0.099,0.525 0.038,0.647 l 0.372,0.354 c 0.04,0.011 -0.478,0.042 -0.733,0.992 -0.118,-0.032 -1.117,0.21 -1.17,0.408 -0.117,0.435 0.777,1.057 1.231,1.264 -0.19,0.076 -0.564,0.994 -0.67,1.39 -0.117,0.436 0.3,0.463 0.141,1.057 -0.297,1.108 -0.546,1.084 -0.673,1.559 -0.064,0.238 -0.08,0.616 0.157,0.679 0.119,0.032 0.259,-0.015 0.259,-0.015 l 0.042,0.478 c 0,0 -0.099,0.525 0.099,0.578 0.396,0.106 0.579,-0.736 1.015,-0.619 0.871,0.234 0.503,0.814 0.471,0.933 -0.053,0.198 -0.117,0.436 -0.235,0.404 -0.159,-0.043 -0.298,-0.632 -0.496,-0.685 -0.119,-0.032 -0.219,0.026 -0.322,0.253 -0.707,1.211 -1.065,0.012 -1.437,1.397 -0.052,0.198 0.069,0.061 0.005,0.299 -0.063,0.237 -0.22,0.662 -0.263,0.82 -0.01,0.04 0.068,0.698 -0.072,1.381 l -0.11,0.565 c 0,0 -0.061,0.069 -0.093,0.187 -0.063,0.238 0.07,1.165 0.09,1.722 -0.169,-0.003 -0.388,0.024 -0.665,-0.051 -0.119,-0.032 -0.267,-0.114 -0.386,-0.146 -0.691,-0.27 -2.437,-1.672 -3.664,-2.001 -0.752,-0.202 -4.536,-0.496 -4.578,-0.338 -0.106,0.396 2.76,1.42 2.515,2.331 -0.011,0.039 -0.1,0.058 -0.258,0.015 l -0.198,-0.053 c -0.515,-0.138 -2.524,-0.719 -2.524,-0.719 -0.644,-0.131 2.052,1.526 4.071,2.068 0.159,0.043 0.238,0.064 0.259,-0.016 0.043,-0.158 -0.743,-0.708 -0.722,-0.787 0.01,-0.04 0.1,-0.059 0.219,-0.027 1.188,0.319 4.383,1.855 6.482,2.419 0.99,0.265 2.101,0.393 3.102,-0.017 -0.06,0.069 -0.182,0.206 -0.214,0.325 -0.032,0.118 0.026,0.219 0.224,0.272 0.752,0.202 1.513,-0.104 1.463,-0.075 -0.05,0.03 -0.151,0.088 -0.172,0.167 -0.011,0.039 0.019,0.09 0.137,0.122 0.119,0.031 0.238,0.063 0.497,0.048 C -0.038,2.197 5.085,2.086 5.276,1.373 5.308,1.255 5.121,1.162 5.153,1.043 5.174,0.964 5.325,0.877 5.483,0.919 5.602,0.951 5.836,1.184 6.074,1.248 6.193,1.28 7.485,0.735 7.924,0.047 8.231,-0.465 9.019,-1.187 9.147,-1.662 M -13.789,-4.76 c 0,0 -0.441,-0.416 -0.905,-0.583 -0.623,-0.21 -2.081,-1.577 -2.675,-1.736 -0.158,-0.043 -0.935,0.003 -1.063,0.479 -0.127,0.475 2.025,0.84 2.713,1.279 0,0 0.747,0.54 1.013,0.654 0.238,0.064 0.906,-0.054 0.917,-0.093"
       fill="#231f20"
       id="path26"
       clip-path="none" />
    <path
       transform="matrix(1,0,0,-1,184.434,143.916)"
       d="m 0,0 c -0.062,0.322 -0.381,0.678 -0.547,1.105 -0.134,0.476 -0.021,0.539 -0.075,0.821 -0.047,0.242 -0.408,0.381 -0.408,0.381 0,0 -0.143,0.306 -0.061,0.531 0.375,0.657 -0.542,0.647 -0.928,0.698 -0.554,0.06 -0.447,0.373 -0.993,0.602 -0.505,0.236 -0.585,0.221 -0.77,0.31 C -4.006,4.53 -4.61,4.414 -5.076,4.449 -5.462,4.5 -5.858,4.173 -6.582,4.033 -7.106,3.932 -7.687,3.695 -7.687,3.695 c 0,0 -0.721,-0.808 -0.946,-0.935 C -8.867,2.673 -8.852,2.593 -9.087,2.297 -9.274,1.968 -9.486,1.552 -9.632,1.44 -9.825,1.361 -10.918,0.315 -11.12,0.067 c -0.251,-0.215 -0.14,-0.361 -0.271,-0.762 -0.091,-0.394 0.008,-0.041 -0.093,-0.603 -0.002,-0.418 -0.093,-0.811 -0.152,-1.156 0.07,-0.363 0.069,-0.572 -0.007,-1.046 -0.1,-0.562 0.127,-0.226 0.261,-0.701 0.166,-0.427 -0.036,-0.466 -0.11,-0.731 -0.107,-0.313 0.219,-0.918 0.258,-1.12 0.031,-0.161 0.092,-0.692 0.112,-1.231 0.021,-0.539 -0.322,-0.062 -0.322,-0.062 0,0 -0.633,0.254 -1.012,0.055 -0.38,-0.198 -0.178,-0.159 -0.011,-0.378 0.216,-0.25 0.607,-0.551 0.607,-0.551 0,0 0.452,0.255 0.855,0.333 0.403,0.077 0.232,-0.123 0.453,-0.832 0.18,-0.717 0.343,-1.562 0.607,-1.845 0.263,-0.283 0.167,-0.219 0.895,-0.746 0.688,-0.536 0.528,-0.358 1.129,-0.659 0.561,-0.309 1.129,0.427 1.693,0.535 l 0.698,-0.157 0.783,0.485 c 0,0 0.434,-0.083 0.707,-0.198 0.264,-0.074 0.532,0.27 0.726,0.35 0.185,0.119 0.543,0.647 0.543,0.647 0,0 0.065,0.096 0.13,0.192 -0.192,0.13 -0.417,0.212 -0.287,0.404 0.13,0.192 0.47,0.592 0.47,0.592 0.831,0.453 0.496,-0.406 1.509,0.834 0.268,0.344 0.005,0.627 0.005,0.627 0,0 0.076,0.474 0.619,1.122 0.543,0.647 0.48,0.97 0.555,1.235 0.074,0.264 -0.205,0.628 -0.259,0.91 -0.047,0.241 0.278,0.722 0.367,0.906 0.082,0.225 -0.101,0.524 -0.082,0.861 -0.022,0.33 -0.061,0.531 -0.061,0.531 0,0 -0.133,1.77 -0.195,2.092 m -11.712,6.592 c 0.085,0.643 0.695,2.891 0.93,0.806 -0.336,0.227 -0.775,-0.525 -0.93,-0.806 m -1.234,-7.67 c 0.073,0.055 0.106,0.103 0.186,0.119 -0.054,0.281 -0.074,0.821 -0.51,0.695 l -0.154,-0.281 c -0.082,-0.224 0.246,-0.412 0.478,-0.533 m 16.01,1.21 c 0,0 0.068,-0.78 0.025,-1.206 C 3.038,-1.46 2.902,-2.488 2.915,-2.987 2.96,-3.437 2.886,-3.702 2.483,-3.78 2.081,-3.858 1.455,-3.644 1.452,-4.062 1.49,-4.473 1.475,-5.478 1.522,-5.719 1.568,-5.961 1.104,-6.802 0.781,-7.073 0.668,-7.137 0.611,-7.273 0.576,-7.53 c 0,0 0.233,-0.122 0.334,-0.646 C 1.011,-8.699 0.707,-8.424 0.522,-8.543 0.409,-8.607 0.28,-8.589 0.119,-8.621 0.054,-8.717 -0.167,-9.303 -0.297,-9.494 c -0.163,-0.24 -0.963,-0.855 -0.963,-0.855 0,0 -0.6,-0.784 -0.682,-1.008 -0.082,-0.225 0.288,-0.195 -0.503,-0.64 -0.798,-0.405 -1.877,-1.74 -3.271,-2.092 -1.393,-0.353 -3.599,-0.821 -4.61,-0.348 -1.05,0.466 -0.465,1.33 -0.465,1.33 0,0 0.213,0.626 -0.084,0.652 -0.249,-0.006 -0.714,0.238 -0.571,-0.068 0.142,-0.307 0.488,-0.365 0.302,-0.485 -0.193,-0.079 -0.134,-0.819 -0.311,-0.77 -0.209,0.002 -0.243,-0.255 -0.553,0.269 -0.278,0.573 -0.828,1.261 -1.009,1.768 -0.142,0.516 -0.687,0.745 -0.754,1.525 -0.067,0.781 -1.235,1.641 -1.235,1.641 -0.322,-0.062 -0.369,0.179 -0.383,0.469 0.034,0.257 -0.021,0.539 0.134,0.819 0.107,0.313 -0.124,0.644 0.176,1.036 0.34,0.4 0.608,0.744 0.579,1.114 0.002,0.418 0.037,0.884 0.215,1.044 0.171,0.2 0.349,0.359 0.566,0.318 0.168,-0.009 0.586,-0.012 0.38,0.407 0.079,-0.193 -1.496,2.342 -0.636,2.216 0,0 0.658,2.215 0.678,2.761 0.019,0.547 1.09,3.008 1.353,2.725 0.263,-0.283 0.075,-1.906 0.075,-1.906 0,0 0.421,0.415 0.843,0.831 0.461,0.423 0.917,1.304 1.119,1.552 0.243,0.256 0.101,0.562 0.963,0.854 0.903,0.299 0.829,0.035 1.104,0.339 0.268,0.343 0.424,0.833 1.35,1.011 0.886,0.172 1.707,0.455 1.674,0.198 0.014,-0.289 0.445,-0.791 0.841,-0.464 0.388,0.367 -0.197,0.589 0.687,0.55 0.297,-0.026 0.572,0.069 0.885,-0.037 C -1.954,7.097 -1.295,7.141 -1.377,6.917 -1.499,6.685 -1.516,6.556 -1.694,6.396 -1.872,6.236 -2.178,6.094 -2.059,5.908 c 0.071,-0.153 0.487,-0.574 0.487,-0.574 0,0 0.523,0.101 0.706,-0.198 C -0.643,4.845 -0.879,4.34 -0.879,4.34 -1.252,3.892 -0.863,3.174 -0.25,3.459 c 0.072,0.057 0.316,0.312 0.191,0.956 -0.078,0.403 0.363,0.07 -0.14,0.725 -0.079,0.193 -0.02,0.539 -0.02,0.539 0,0 -0.189,0.548 0.403,0.078 C 0.743,5.238 1.016,5.124 1.07,4.842 1.116,4.6 0.963,4.529 1.131,4.311 1.217,4.077 1.706,3.712 1.706,3.712 L 2.264,2.984 c 0,0 0.334,-0.436 0.268,-0.741 C 2.458,1.978 3.064,0.132 3.064,0.132"
       fill="#231f20"
       id="path27"
       clip-path="none" />
    <path
       transform="matrix(1,0,0,-1,197.125,148.807)"
       d="M 0,0 C 0,0 -0.037,-1.159 -0.73,-1.236 -1.463,-1.317 -0.539,-0.348 0,0 m -3.85,-3.975 c 0.457,0.34 0.969,0.561 0.969,0.561 0,0 -0.557,-1.299 -0.969,-0.561 m -2.099,9.999 c -0.127,0.027 -0.217,0.1 -0.217,0.1 0,0 0.045,-0.037 0.099,-0.154 0.041,0.004 0.078,0.049 0.118,0.054 M 12.482,9.098 C 11.798,8.569 13.329,8.161 11.449,7.623 9.805,7.193 9.728,7.143 8.669,7.026 8.515,5.812 8.41,5.635 8.505,4.78 8.523,4.617 8.546,4.413 8.523,4.245 8.718,3.236 8.916,1.814 8.989,0.419 9.006,-0.116 8.888,-1.284 8.599,-1.275 8.033,-1.75 8.132,-2.647 8.122,-3.679 8.073,-4.716 8.267,-4.983 8.031,-6.948 7.795,-8.914 6.93,-7.813 6.93,-7.813 c 0,0 0.589,1.385 -0.031,1.77 -0.661,0.381 -0.398,0.988 -0.465,1.599 -0.064,0.57 0.158,1.173 -0.054,3.088 l -0.032,0.286 0.06,2.069 0.344,1.73 C 6.576,2.833 6.408,2.856 6.195,2.914 5.729,3.028 5.951,3.63 6.051,4.218 6.146,4.848 6.304,6.021 6.304,6.021 l 0.952,0.724 c 0,0 -0.131,0.068 -0.267,0.177 C 5.956,6.931 5.159,7.049 4.439,6.845 3.434,6.61 2.487,5.474 2.487,5.474 L 2.03,5.877 c 0,0 -0.145,1.304 -0.797,0.49 C 0.581,5.551 2.066,5.551 1.364,5.184 l -0.702,-0.366 -1.1,0.62 c 0,0 -1.082,0.458 -1.037,0.051 0.05,-0.449 1.119,-0.784 1.119,-0.784 0,0 0.905,-0.354 -0.685,-0.53 l -1.63,-0.18 -1.703,-0.643 c 0,0 0.847,0.548 -0.733,-0.081 0.004,-1.155 0.135,-2.337 0.067,-3.211 -0.023,-0.91 0.598,-1.295 0.945,-3.319 0.077,-0.322 0.145,-0.562 0.245,-0.716 -0.308,-0.199 -0.571,-0.435 -0.671,-0.652 -0.217,-0.643 0.802,-0.53 0.802,-0.53 0,0 0.919,1.01 1.703,2.128 0.743,1.114 0.172,-0.435 -0.163,-1.503 -0.295,-1.064 -2.066,-2.581 -3.117,-3.894 -1.01,-1.308 -1.671,-0.928 -2.16,-1.724 -0.49,-0.797 -0.48,0.235 -0.48,0.235 0,0 -0.067,2.097 -0.103,3.537 0,1.485 0.448,1.535 0.684,2.015 0.466,1 -0.299,1.576 -1.028,1.082 -0.838,-0.258 -0.348,2.024 0.051,2.523 0.357,0.493 -0.308,1.286 -0.308,1.286 l -0.14,1.263 c -2.015,-0.801 -4.27,-1.67 -5.566,-1.896 -2.309,-0.38 -2.087,0.223 -0.937,0.639 1.11,0.412 -0.47,1.268 -0.47,1.268 0,0 -0.068,0.611 0.511,0.964 0.54,0.349 1.689,-0.72 2.106,-0.385 0.412,0.375 -0.068,0.611 -0.068,0.611 l 0.354,0.905 4.302,1.385 c -0.068,0.983 -0.185,2.414 -0.366,2.93 -0.217,0.842 0.159,2.658 0.092,3.269 -0.064,0.571 0.222,2.088 0.014,3.963 l 1.703,0.642 c 0,0 0.838,0.258 1.236,0.756 0.403,0.457 0.354,0.905 0.354,0.905 0,0 0.552,0.227 1.24,0.716 0.685,0.529 -0.009,-1.033 0.036,-1.44 0.05,-0.449 -0.014,-1.363 -0.381,-2.146 -0.326,-0.779 -0.027,-0.87 -0.077,-1.907 -0.009,-1.033 -1.359,-2.255 -1.359,-2.255 l 1.032,-0.009 c 0,0 0.082,-0.734 -0.032,-1.2 -0.073,-0.462 -0.761,-0.951 -0.761,-0.951 0,0 0.489,-0.688 0.498,-1.883 -0.014,-0.25 -0.036,-0.417 -0.109,-0.508 1.762,0.484 3.451,0.878 4.47,0.991 1.63,0.181 4.365,0.814 6.657,1.357 -0.036,0.697 0.199,1.548 0.222,2.087 0.122,0.756 -0.394,1.318 -0.466,1.97 -0.004,0.04 -0.054,0.118 -0.059,0.158 -0.19,0.598 0.3,1.395 0.376,1.816 0.114,0.467 -0.067,2.097 -0.682,2.441 0,0 0.072,0.462 0.167,1.091 0.059,0.585 0.485,-0.276 1.037,-0.05 0.553,0.227 1.051,1.313 1.364,2.214 0.349,0.946 0.625,-0.054 0.706,-0.788 C 8.445,18.718 8.341,17.056 8.241,16.467 8.141,15.878 8.272,14.697 7.996,13.469 7.678,12.238 8.24,11.268 8.57,9.407 8.579,9.326 8.583,9.285 8.629,9.249 c 2.291,0.543 2.812,1.054 3.726,0.991 0.87,-0.028 0.811,-0.612 0.127,-1.142"
       fill="#231f20"
       id="path28"
       clip-path="none" />
    <path
       transform="matrix(1,0,0,-1,240.495,159.036)"
       d="m 0,0 c 0.001,-0.123 -0.08,-0.411 -0.367,-0.412 -0.41,-0.002 -1.028,0.651 -1.028,0.651 -0.124,0.081 -0.165,0.122 -0.165,0.163 0,0.082 0.122,0.082 0.287,0.083 0.41,0.002 1.149,-0.117 1.149,-0.117 0,0 0.123,-0.163 0.124,-0.368 m -18.522,13.599 c 0.246,10e-4 0.37,-0.121 0.37,-0.285 0.001,-0.164 -0.242,-0.698 -0.529,-0.7 -0.287,-0.001 -0.576,0.366 -0.577,0.612 -0.002,0.123 0.039,0.205 0.162,0.247 0.205,0.083 0.409,0.125 0.574,0.126 M -0.913,2.127 C -0.912,1.922 -3.494,1.704 -3.862,1.579 -4.395,1.453 -4.558,1.247 -4.926,1.245 -5.337,1.243 -7.348,1.766 -7.348,1.684 c 0,0 -0.451,-0.043 -0.943,-0.046 -0.861,-0.046 -1.846,0.195 -2.833,0.805 -0.782,0.488 -6.005,3.413 -6.99,3.654 -0.781,0.283 -2.051,0.195 -2.3,0.562 -0.497,0.941 -1.073,1.348 -1.975,1.343 -0.286,-0.001 -0.285,-0.206 -0.368,-0.207 -0.082,0 -0.205,0.081 -0.494,0.408 -0.783,0.775 -1.481,1.058 -1.851,1.056 -0.902,-0.004 -1.521,0.772 -3.656,1.375 0.004,-0.82 -0.977,-1.481 -0.974,-1.932 0.003,-0.533 0.538,-0.899 0.541,-1.596 0.003,-0.492 -0.528,-0.946 -0.526,-1.356 0.002,-0.246 0.371,-0.244 0.373,-0.695 0.002,-0.451 -1.062,-0.867 -1.102,-0.99 -0.082,-0.082 -0.485,-1.356 -0.773,-1.234 l -0.369,-0.002 -0.129,1.147 0.2,0.986 0.276,2.133 -0.418,1.474 0.282,0.945 c 0.083,0 -0.331,0.613 -0.334,1.146 -0.003,0.574 0.446,0.946 0.691,1.193 l -0.493,0.202 c -1.027,0.405 -1.026,0.159 -1.601,0.484 -0.576,0.284 -2.009,-0.134 -2.013,0.564 -0.003,0.696 1.225,1.072 1.266,1.072 l -0.822,0.406 c 0.165,-0.081 2.539,0.546 3.481,0.879 -0.042,0.123 -0.083,0.205 -0.083,0.205 l 0.079,0.574 0.4,1.847 c -0.041,0 -0.254,1.598 -0.255,1.721 -0.002,0.41 -0.062,3.977 1.497,3.985 0.205,0.002 0.369,-0.039 0.369,-0.039 0,0 0.368,0.166 1.554,0.664 0.369,0.125 0.614,0.209 0.778,0.21 0.287,0.001 0.329,-0.163 0.33,-0.245 0,0 0.007,-1.353 -0.151,-2.666 -0.236,-1.723 -1.341,-2.303 -1.337,-3.041 0.001,-0.164 0.043,-0.328 0.044,-0.492 0.002,-0.492 -0.281,-1.109 -0.321,-1.478 l 0.615,0.126 c 0.286,0.125 1.228,0.417 1.595,0.706 0.45,0.33 1.062,0.866 1.76,0.87 0.327,0.002 0.573,-0.079 0.902,-0.077 0.082,0 0.935,1.563 1.96,1.568 0.533,0.003 2.327,1.816 2.326,2.186 -0.002,0.286 -0.21,0.736 -0.456,0.735 -0.163,-10e-4 -0.368,-0.084 -0.573,-0.085 -0.779,-0.004 -0.909,1.348 -1.565,1.345 -0.492,-0.002 -2.094,0.481 -2.094,0.481 l -1.437,0.444 c 0.573,0.167 -2.465,0.725 -3.694,0.719 -0.493,-0.003 -0.696,-0.25 -1.106,-0.252 -0.164,-0.001 -0.369,0.039 -0.575,0.038 -0.573,-0.003 -1.264,-1.278 -1.262,-1.729 0.001,-0.082 0.209,-0.819 0.128,-0.819 -0.492,-0.003 -1.032,1.306 -1.362,1.633 -0.041,0 -0.081,-0.287 -0.079,-0.697 0.004,-0.575 0.131,-1.435 0.587,-2.335 0.248,-0.449 0.29,-0.613 0.29,-0.654 -0.328,-0.002 -1.861,3.066 -1.869,4.541 -0.003,0.616 0.158,1.232 0.77,1.768 0.694,0.618 2.738,1.777 3.23,1.779 0.082,0.001 0.124,-0.04 0.124,-0.081 0,-0.082 -0.245,-0.288 -0.244,-0.411 0,-0.082 0.083,-0.123 0.288,-0.122 0.779,0.005 1.803,0.215 2.582,0.219 1.23,0.006 4.762,-0.96 5.047,-0.63 0,0 0.122,0.083 0.328,0.083 0.533,0.004 1.523,-1.222 2.302,-1.218 0.574,0.003 0.325,0.494 0.407,0.495 0.123,0 0.457,-1.023 0.499,-1.105 0.121,0.083 0.285,0.125 0.49,0.126 0.165,0.001 0.288,-0.04 0.493,-0.121 l 1.151,-0.568 -0.038,-0.492 0.494,-0.408 0.331,-0.49 c -0.04,-0.246 0.291,-0.983 0.295,-1.639 0.012,-2.418 -2.123,-1.774 -2.568,-2.842 -0.325,-0.74 -1.263,-1.647 -1.878,-1.65 -0.779,-0.004 -2.662,-0.67 -2.66,-0.998 10e-4,-0.123 0.042,-0.205 0.042,-0.287 0,0 -1.717,-0.993 -2.208,-1.159 -0.286,-0.166 -0.902,-0.005 -1.352,-0.294 -1.389,-0.992 -1.187,-0.252 -2.495,-1.244 l 0.045,-0.696 c 0.823,-0.488 1.687,-1.181 1.975,-1.179 0.122,0 0.245,0.042 0.451,0.043 0.327,0.043 0.738,-0.119 1.439,-0.73 1.4,-1.264 2.591,-1.709 2.592,-1.832 10e-4,-0.082 -0.04,-0.123 -0.04,-0.164 0.002,-0.328 5.175,-1.655 5.216,-1.654 0.905,-0.447 3.62,-2.114 4.688,-2.518 0.739,-0.283 4.067,-1.537 5.052,-1.614 0.984,-0.077 3.772,0.02 5.006,-0.671 0.822,-0.447 1.439,-0.813 1.44,-1.018"
       fill="#231f20"
       id="path29"
       clip-path="none" />
    <path
       transform="matrix(1,0,0,-1,234.758,133.242)"
       d="M 0,0 C 0.291,0.579 1.607,2.501 1.143,0.455 0.901,0.78 0.238,0.214 0,0 m -3.689,-6.838 c 0.087,0.029 0.134,0.063 0.215,0.052 0.041,0.284 0.199,0.799 -0.253,0.824 l -0.239,-0.214 c -0.15,-0.186 0.098,-0.47 0.277,-0.662 m 12.58,-3.24 c 0.048,0.324 -0.138,0.766 -0.153,1.224 0.03,0.493 0.158,0.516 0.199,0.799 0.035,0.244 -0.26,0.494 -0.26,0.494 0,0 -0.034,0.336 0.118,0.521 0.569,0.498 -0.299,0.79 -0.647,0.965 -0.504,0.239 -0.3,0.499 -0.74,0.895 -0.4,0.39 -0.48,0.401 -0.624,0.547 -0.186,0.151 -0.795,0.24 -1.223,0.426 -0.348,0.175 -0.829,-0.004 -1.559,0.103 -0.528,0.076 -1.155,0.043 -1.155,0.043 0,0 -0.946,-0.525 -1.202,-0.571 C 1.396,-4.637 1.385,-4.718 1.066,-4.92 0.781,-5.168 0.443,-5.492 0.269,-5.55 0.061,-5.561 -1.315,-6.189 -1.589,-6.357 -1.896,-6.478 -1.839,-6.652 -2.094,-6.987 -2.31,-7.329 -2.1,-7.028 -2.38,-7.526 -2.52,-7.92 -2.736,-8.261 -2.905,-8.568 c -0.053,-0.365 -0.123,-0.562 -0.35,-0.985 -0.28,-0.498 0.045,-0.255 0.015,-0.748 0.016,-0.458 -0.187,-0.429 -0.344,-0.654 -0.203,-0.261 -0.095,-0.939 -0.125,-1.142 -0.023,-0.163 -0.141,-0.684 -0.298,-1.2 -0.158,-0.515 -0.325,0.048 -0.325,0.048 0,0 -0.515,0.447 -0.939,0.385 -0.423,-0.063 -0.22,-0.092 -0.134,-0.353 0.121,-0.308 0.393,-0.72 0.393,-0.72 0,0 0.51,0.091 0.916,0.032 0.406,-0.059 0.179,-0.192 0.154,-0.934 -0.066,-0.736 -0.19,-1.589 -0.034,-1.943 0.155,-0.354 0.086,-0.261 0.6,-0.999 0.474,-0.732 0.381,-0.511 0.85,-0.993 0.427,-0.477 1.206,0.031 1.774,-0.051 l 0.608,-0.379 0.899,0.201 c 0,0 0.383,-0.222 0.603,-0.42 0.225,-0.157 0.59,0.08 0.8,0.091 0.215,0.052 0.725,0.433 0.725,0.433 0,0 0.094,0.069 0.186,0.139 -0.138,0.186 -0.323,0.337 -0.137,0.476 0.186,0.138 0.639,0.404 0.639,0.404 0.933,0.154 0.334,-0.546 1.699,0.291 0.366,0.237 0.211,0.591 0.211,0.591 0,0 0.227,0.423 0.952,0.856 0.727,0.433 0.774,0.757 0.931,0.983 0.157,0.226 0.013,0.661 0.055,0.945 0.035,0.243 0.5,0.59 0.645,0.735 0.152,0.185 0.077,0.527 0.206,0.84 0.087,0.319 0.117,0.521 0.117,0.521 0,0 0.457,1.715 0.504,2.04 m 2.937,-0.884 c 0,0 -0.193,-0.758 -0.374,-1.146 -0.175,-0.348 -0.641,-1.274 -0.793,-1.749 -0.106,-0.441 -0.262,-0.667 -0.668,-0.608 -0.406,0.06 -0.927,0.467 -1.067,0.073 -0.1,-0.4 -0.444,-1.344 -0.48,-1.588 -0.035,-0.243 -0.75,-0.885 -1.145,-1.034 -0.127,-0.023 -0.227,-0.133 -0.343,-0.365 0,0 0.179,-0.192 0.102,-0.719 -0.076,-0.528 -0.272,-0.168 -0.487,-0.219 -0.128,-0.023 -0.243,0.035 -0.406,0.059 -0.092,-0.07 -0.494,-0.55 -0.68,-0.688 -0.232,-0.174 -1.19,-0.49 -1.19,-0.49 0,0 -0.825,-0.543 -0.976,-0.728 -0.151,-0.185 0.208,-0.279 -0.686,-0.439 -0.887,-0.12 -2.345,-1.026 -3.776,-0.901 -1.432,0.126 -3.67,0.41 -4.468,1.19 -0.839,0.784 -0.002,1.408 -0.002,1.408 0,0 0.407,0.521 0.135,0.644 -0.237,0.076 -0.597,0.46 -0.562,0.123 0.034,-0.336 0.341,-0.505 0.126,-0.557 -0.209,-0.011 -0.396,-0.729 -0.547,-0.625 -0.197,0.071 -0.313,-0.161 -0.433,0.437 -0.074,0.632 -0.368,1.462 -0.372,2.001 0.036,0.533 -0.404,0.929 -0.21,1.688 0.194,0.759 -0.627,1.955 -0.627,1.955 -0.325,0.048 -0.289,0.291 -0.208,0.569 0.117,0.232 0.159,0.516 0.397,0.73 0.203,0.26 0.094,0.649 0.507,0.92 0.453,0.266 0.819,0.503 0.912,0.862 0.141,0.394 0.328,0.823 0.548,0.915 0.226,0.133 0.447,0.225 0.638,0.114 0.157,-0.064 0.55,-0.205 0.493,0.26 0.012,-0.209 -0.642,2.704 0.128,2.301 0,0 1.351,1.875 1.549,2.385 0.199,0.51 2.018,2.482 2.174,2.128 0.156,-0.354 -0.555,-1.825 -0.555,-1.825 0,0 0.534,0.254 1.068,0.508 0.575,0.248 1.296,0.93 1.568,1.097 0.314,0.162 0.28,0.498 1.19,0.49 0.951,-0.014 0.794,-0.24 1.154,-0.044 0.367,0.237 0.675,0.648 1.607,0.512 0.893,-0.13 1.763,-0.132 1.647,-0.364 -0.082,-0.278 0.16,-0.893 0.641,-0.715 0.488,0.219 0.008,0.621 0.83,0.294 C 8.46,-2.226 8.749,-2.227 9.01,-2.43 9.38,-2.733 10.018,-2.908 9.866,-3.094 9.674,-3.273 9.616,-3.389 9.395,-3.481 9.175,-3.573 8.839,-3.607 8.89,-3.821 8.907,-3.99 9.161,-4.524 9.161,-4.524 c 0,0 0.527,-0.076 0.602,-0.419 C 9.878,-5.291 9.488,-5.69 9.488,-5.69 8.989,-5.99 9.12,-6.797 9.793,-6.729 c 0.087,0.029 0.4,0.191 0.495,0.84 0.059,0.405 0.365,-0.054 0.106,0.73 -0.011,0.209 0.158,0.515 0.158,0.515 0,0 0.002,0.58 0.406,-0.058 0.358,-0.674 0.578,-0.872 0.536,-1.156 -0.036,-0.243 -0.203,-0.26 -0.117,-0.522 0.005,-0.249 0.346,-0.754 0.346,-0.754 l 0.287,-0.871 c 0,0 0.173,-0.522 0.009,-0.788 -0.156,-0.226 -0.191,-2.169 -0.191,-2.169"
       fill="#231f20"
       id="path30"
       clip-path="none" />
    <path
       transform="matrix(1,0,0,-1,251.741,136.81)"
       d="M 0,0 -0.559,0.352 C -0.903,0.876 -1.076,1.183 -0.838,1.208 -0.545,1.252 -0.429,1.016 -0.17,0.894 0.127,0.755 0.708,1.027 0.569,0.73 0.412,0.396 0,0 0,0 m -2.689,-13.182 c -0.335,0.156 -0.612,0.241 -0.602,-0.126 -0.026,-0.44 0.334,-0.156 0.602,0.126 m -4.364,-6.513 c 0.261,0.558 -0.109,-0.039 -0.556,-0.509 0.219,0.079 0.416,0.213 0.556,0.509 m 31.893,8.647 c -0.451,-0.287 -1.345,-0.457 -1.727,-0.595 -0.382,-0.138 -0.412,-0.396 -0.843,-0.737 -0.377,-0.321 -0.173,-0.371 -0.348,-0.742 -0.174,-0.372 -0.637,-0.878 -0.799,-1.029 -0.161,-0.151 -0.25,-0.245 -0.261,-0.557 0.028,-0.33 -0.209,-0.446 -0.607,-0.621 -0.581,-0.272 -1.081,-0.761 -1.394,-1.429 -0.244,-0.52 -0.583,-0.18 -0.912,-0.207 -0.312,0.01 -0.501,-0.49 -0.501,-0.49 0,0 0.113,-0.144 -0.004,-0.587 -0.134,-0.48 -0.595,-0.4 -0.595,-0.4 l -0.725,0.385 c 0,0 -0.019,-0.716 0.082,-1.08 0.082,-0.31 -1.555,-2.259 -1.93,-2.672 -0.355,-0.468 -0.643,-0.695 -0.747,-0.918 -0.121,-0.26 -0.429,-0.433 -0.429,-0.433 l -0.934,-0.06 c 0,0 0.264,-0.305 0.621,-0.608 0.319,-0.285 0.543,0.289 0.458,0.012 -0.047,-0.295 -0.539,-1.151 -0.473,-1.59 0.047,-0.384 0.394,-0.32 0.828,-0.84 0.416,-0.467 -0.311,0.01 -0.643,0.075 -0.278,0.085 -0.671,0.405 -0.772,0.769 -0.081,0.309 -0.456,-0.104 -0.456,-0.104 0,0 0.108,-0.639 0.632,-1.066 0.58,-0.407 4.901,-0.846 0.896,-0.6 -4.058,0.226 -3.819,1.608 -4.15,2.351 -0.275,0.764 1.146,2.542 1.427,3.045 0.3,0.448 0.64,0.786 1.309,1.152 0.632,0.383 0.125,0.168 0.285,0.319 0.162,0.151 0.734,0.697 0.81,1.341 0.038,0.662 0.943,1.822 1.12,2.101 0.231,0.3 1.101,0.707 1.091,1.074 -0.009,0.366 0.636,0.97 0.636,0.97 0,0 0.267,0.281 0.481,0.543 0.213,0.263 0.093,0.682 0.093,0.682 0,0 0.589,-0.095 0.827,-0.071 0.275,0.007 0.592,0.492 0.347,0.743 -0.207,0.233 -1.31,-0.382 -1.731,-0.411 -0.421,-0.029 -1.145,-0.415 -1.145,-0.415 0,0 -0.84,-0.15 -1.402,-0.384 -0.617,-0.255 -0.12,-0.352 -0.133,-0.572 -0.013,-0.221 -0.289,-0.136 -0.461,0.08 -0.133,0.198 -0.419,0.649 -0.419,0.649 0,0 -0.406,0.1 -0.493,-0.085 -0.088,-0.186 0.306,-0.506 -0.115,-0.536 -0.421,-0.029 -2.074,-0.657 -2.419,-0.813 -0.289,-0.136 -0.946,-0.281 -1.289,-0.528 -0.361,-0.193 -1.203,-0.251 -1.29,-0.437 -0.087,-0.185 -0.768,-0.093 -0.971,-0.043 -0.258,0.03 -0.079,0.218 -0.195,0.454 -0.171,0.215 -0.375,-0.413 -0.375,-0.413 0,0 0.226,-0.197 0.525,-0.427 0.316,-0.194 -0.746,-0.239 -0.746,-0.239 0,0 -0.569,0.04 -1.015,0.249 -0.483,0.226 -0.138,0.381 -0.138,0.381 0,0 -0.356,0.982 -0.551,1.436 -0.195,0.453 -0.578,1.085 -0.676,1.358 -0.098,0.272 -0.581,1.177 -0.631,1.744 -0.106,0.548 -0.357,1.752 -0.794,2.364 -0.003,0.092 -0.06,0.164 -0.079,0.218 -0.155,-0.425 -0.346,-0.834 -0.633,-1.061 -0.556,-0.51 -1.318,-1.556 -1.495,-1.836 -0.213,-0.262 -0.551,-1.371 -0.957,-1.272 -0.013,-0.22 -0.08,-0.46 -0.17,-0.554 -0.178,-0.188 -0.724,-1.064 -0.724,-1.064 0,0 0.059,-0.164 -0.134,-0.48 -0.214,-0.262 -0.798,-1.121 -0.798,-1.121 0,0 -0.116,-0.443 -0.278,-0.594 -0.161,-0.151 -0.52,-0.435 -0.756,-0.551 -0.198,-0.134 -1.082,-1.44 -1.511,-1.873 -0.411,-0.396 -1.087,-1.257 -1.508,-1.286 -0.42,-0.029 -0.554,0.17 -1.335,-0.144 -0.818,-0.296 -2.137,-1.76 -1.378,-0.622 0.796,1.121 1.307,1.244 1.687,1.474 0.072,0.057 0.292,0.044 0.53,0.068 -0.025,0.238 0.095,0.59 0.095,0.59 0,0 -0.3,0.231 -0.625,0.021 -0.379,-0.23 -0.787,-0.039 -0.39,0.228 0.359,0.284 1.063,0.724 1.167,0.947 0.122,0.26 -0.396,0.412 -0.396,0.412 l 0.631,1.153 c 0.549,0.784 1.843,1.808 1.843,1.808 0,0 0.682,-0.093 0.509,0.214 -0.173,0.308 -0.322,0.377 -0.309,0.598 l 0.013,0.22 c 0,0 0.16,0.151 0.334,0.522 0.175,0.371 -0.149,0.84 0.57,1.409 0.739,0.514 1.185,0.984 1.185,0.984 l 0.478,-0.043 c 0,0 -0.038,-0.662 0.435,-0.521 l 0.474,0.14 0.006,0.496 c -0.112,0.052 -0.223,0.104 -0.429,0.245 l -0.913,0.564 c 0,0 -0.252,0.526 -0.001,0.771 0.287,0.227 -0.047,0.383 0.311,0.759 0.302,0.357 0.785,0.809 0.785,0.809 0,0 0.079,0.552 0.361,0.963 0.283,0.41 1.221,1.737 1.308,1.923 0.087,0.185 0.394,0.358 0.643,0.695 0.248,0.336 0.264,1.143 0.426,1.294 0.072,0.057 0.326,0.119 0.562,0.235 -0.11,0.73 -0.196,1.224 -0.196,1.224 -0.062,0.255 -0.484,0.996 -0.484,0.996 l 0.658,0.053 c 0,0 0.249,0.337 0.69,0.311 0.461,-0.08 0.791,-0.823 0.791,-0.823 0,0 0.087,0.185 0.722,-0.293 0.596,-0.37 0.666,-0.9 0.841,-1.299 0.089,0.094 0.253,0.153 0.379,0.229 0.473,0.141 1.206,0.16 1.206,0.16 0,0 -0.203,-0.629 -0.325,-0.889 -0.122,-0.26 -0.487,-0.361 -0.487,-0.361 l 0.183,-0.674 c 0,0 0.116,-0.235 -0.174,-0.371 C 4.226,-4.606 4.137,-4.7 4.01,-4.776 4.208,-5.321 3.949,-5.97 3.862,-6.155 3.758,-6.378 3.983,-6.574 4.143,-7.102 c 0.16,-0.528 -0.25,-0.245 -0.25,-0.245 0,0 -0.063,-0.423 0.073,-0.713 0.098,-0.273 0.252,-0.526 0.252,-0.526 0,0 0.145,-0.656 -0.145,-0.792 -0.307,-0.173 -0.123,-0.938 0.373,-0.944 0.495,-0.006 0.484,-0.318 0.484,-0.318 l -0.104,-0.223 c 0,0 -0.208,-0.445 0.233,-1.241 0.443,-0.796 0.436,-0.521 1.076,-1.183 0.678,-0.679 -0.647,-0.512 -0.734,-0.697 -0.087,-0.186 0.064,-0.347 0.324,-0.469 0.037,-0.017 0.056,-0.072 0.094,-0.089 0.376,-0.357 0.578,0.363 0.771,0.68 0.213,0.262 1.256,0.362 1.586,0.389 0.312,-0.01 0.495,-0.006 0.772,-0.091 0.295,-0.047 0.582,0.18 0.582,0.18 0,0 0.834,0.425 1.202,0.343 0.369,-0.083 -0.542,-0.289 -0.003,-0.587 0.485,-0.318 0.477,0.727 0.932,0.831 0.657,0.145 2.1,1.099 2.879,0.734 0.186,-0.087 0.37,-0.083 0.491,0.177 0.104,0.223 1.056,0.32 1.056,0.32 0,0 -0.375,-0.413 0.138,-0.381 0.531,0.068 0.99,0.759 1.698,1.015 0.672,0.274 1.12,0.653 1.12,0.653 0.521,0.435 6.188,0.451 4.817,-0.446 0,0 1.486,-0.017 0.98,-0.323"
       fill="#231f20"
       id="path31"
       clip-path="none" />
    <path
       transform="matrix(1,0,0,-1,282.233,169.865)"
       d="M 0,0 0.248,0.215 C 0.836,0.727 0.916,1.883 1.999,2.825 2.34,3.121 2.707,3.386 3.017,3.655 3.666,4.22 4.078,6.371 4.41,6.551 4.22,6.332 4.853,7.48 4.53,7.851 4.61,7.758 2.992,8.307 2.28,7.688 1.755,7.231 1.581,7.243 1.419,7.429 1.15,7.738 0.85,8.02 1.098,8.236 1.19,8.316 1.31,8.366 1.399,8.389 L 0.089,8.771 C 0.116,8.74 -0.872,7.501 -0.629,7.222 -0.549,7.13 -0.406,7.091 -0.317,7.114 -0.707,6.937 -3.716,5.897 -4.159,5.783 -4.904,5.515 -6.044,5.013 -6.399,4.922 L -6.33,4.656 C -6.308,4.567 -6.257,4.447 -6.177,4.354 -5.908,4.045 -4.861,4.466 -4.565,4.126 -4.404,3.94 -4.366,3.647 -4.366,3.647 L -4.06,3.044 C -4.09,3.017 -3.791,2.735 -3.101,2.628 -2.468,2.526 -1.446,1.35 -1.069,0.918 -0.8,0.608 -0.358,0.286 0,0 M 1.488,-2.836 C 1.383,-3.09 1.221,-3.34 1.12,-3.536 0.406,-4.591 0.907,-4.917 -0.125,-5.978 -1.189,-7.066 0.084,-6.72 -1.339,-7.957 c -0.062,-0.054 -0.12,-0.05 -0.146,-0.019 -0.081,0.093 -0.078,1.401 -0.293,1.648 -0.027,0.031 -0.084,0.035 -0.116,0.008 -0.003,-0.058 -0.728,-0.85 -0.378,-1.252 0.754,-0.867 0.683,-2.722 0.125,-3.642 -0.132,-0.223 0.016,-1.018 -0.056,-1.624 -0.067,-0.547 -0.563,-1.413 -0.773,-1.922 -0.552,-1.24 -0.229,-1.611 -0.848,-2.149 -0.185,-0.162 -0.479,-0.2 -0.832,0.144 -0.619,0.712 -0.995,1.581 -1.035,2.252 1.861,2.922 1.811,3.042 1.723,3.455 -0.027,0.031 -0.022,0.089 -0.019,0.147 l 0.231,0.797 c -0.054,0.062 0.466,0.026 0.9,0.403 0.154,0.134 -0.445,1.135 -0.506,1.081 -0.248,-0.215 -0.432,-1.19 -0.958,-1.647 -0.371,-0.324 -0.283,-1.551 -0.566,-2.286 -0.179,-0.482 -0.698,-0.824 -0.814,-1.251 0.044,0.636 -0.315,1.736 -0.684,2.285 -0.449,0.642 0.621,3.474 1.124,4.02 0.534,0.573 1.43,2.167 2.281,3.125 0.852,0.958 1.053,1.351 1.477,2.426 0.171,0.365 0.368,0.7 0.624,1.031 -0.058,0.004 -0.085,0.035 -0.112,0.066 -0.962,0.794 -0.94,0.269 -1.478,0.888 -0.134,0.155 -0.185,0.275 -0.185,0.275 l -0.378,0.811 c 0,0 -0.385,0.317 -0.571,0.156 -0.526,-0.458 -1.288,0.293 -1.611,0.664 -0.107,0.124 -0.103,0.182 -0.072,0.208 0.123,0.108 0.498,0.053 0.498,0.053 0,0 -0.439,0.379 -0.724,0.458 C -5.823,2.76 -5.777,2.583 -6.403,2.365 -6.967,2.2 -8.225,3.334 -9.525,4.268 c 0.014,-0.204 -1.55,-0.967 -1.699,-0.608 0,0 0.005,0.494 -0.157,0.679 -0.107,0.124 -0.436,0.002 -0.682,-0.214 -0.496,-0.43 -0.131,-1.037 -0.565,-1.413 -0.309,-0.269 -1.641,-0.613 -2.26,-1.151 -0.216,-0.188 -0.406,-0.407 -0.653,-0.622 -0.495,-0.431 -1.066,-0.711 -1.416,-0.309 -0.377,0.434 -1.342,0.355 -1.934,1.036 -0.188,0.216 -0.23,0.452 0.018,0.667 1.764,1.534 4.166,0.146 5.713,1.491 0.526,0.457 -0.234,0.394 0.756,1.255 0.217,0.189 0.584,0.453 0.92,0.692 -2.382,1.677 -3.026,2.042 -3.429,2.506 -0.135,0.154 0.067,0.547 0.346,0.789 0.433,0.377 2.428,0.645 2.751,0.274 0.134,-0.155 0.176,-0.391 0.283,-0.514 0.216,-0.248 1.709,-0.09 2.382,-0.864 0.242,-0.278 0.422,-0.611 0.637,-0.858 l 0.413,0.087 c 0,0 0.613,0.045 0.83,0.233 0.093,0.081 0.07,0.17 0.163,0.25 0.217,0.188 0.826,0.175 0.826,0.175 l 0.509,-0.21 c 0,0 0.443,0.115 0.722,0.357 0.186,0.161 0.082,0.343 0.267,0.504 0.434,0.377 4.206,1.538 5.466,1.276 1.06,-0.22 1.293,0.2 1.975,-0.022 C 2.8,9.715 3.827,9.034 3.951,9.141 3.92,9.114 4.289,9.815 3.939,10.217 c -0.485,0.557 -0.619,0.712 0,1.25 0.124,0.108 0.248,0.215 0.394,0.234 1.47,0.246 0.885,0.607 2.483,-0.231 C 7.714,11 8.767,11.101 9.439,10.328 9.601,10.142 9.681,9.613 9.463,9.425 9.309,9.29 8.981,9.168 8.424,8.684 7.496,7.877 8.027,7.578 7.44,7.067 7.037,6.717 7.201,6.153 6.737,5.75 L 6.335,5.4 C 5.778,4.915 5.83,4.418 5.528,3.829 5.326,3.436 4.971,3.344 5.051,2.816 5.134,2.345 4.808,1.845 4.808,1.845 c 0,0 -0.68,-0.157 -0.864,-0.318 C 3.665,1.285 2.754,2.395 2.661,2.314 2.039,1.718 3.807,1.246 2.843,-0.082 2.2,-0.967 3.187,-0.978 2.565,-1.574 L 2.752,-1.79 c 0.162,-0.186 0.185,-0.275 0.347,-0.461 1.453,-1.67 2.698,-1.728 3.802,-2.996 0.779,-0.897 0.646,0.943 2.018,-0.635 0.297,-0.341 -0.044,-0.637 0.252,-0.977 l 0.188,-0.217 c 0.323,-0.371 0.434,-0.873 0.434,-0.873 0.081,-0.092 -2.315,0.976 -2.854,1.594 -0.807,0.929 -0.926,-0.371 -3.241,2.29 l -0.645,0.742 c -1.077,1.238 -1.214,0.521 -1.565,0.487"
       fill="#231f20"
       id="path32"
       clip-path="none" />
  </g>
</svg>
