<?xml version="1.0" encoding="UTF-8" standalone="no"?>
<svg
   version="1.1"
   width="425.197pt"
   height="425.197pt"
   viewBox="0 0 425.197 425.197"
   id="svg32"
   sodipodi:docname="TNT_nobg.svg"
   inkscape:version="1.3 (0e150ed6c4, 2023-07-21)"
   xmlns:inkscape="http://www.inkscape.org/namespaces/inkscape"
   xmlns:sodipodi="http://sodipodi.sourceforge.net/DTD/sodipodi-0.dtd"
   xmlns="http://www.w3.org/2000/svg"
   xmlns:svg="http://www.w3.org/2000/svg">
  <sodipodi:namedview
     id="namedview32"
     pagecolor="#505050"
     bordercolor="#ffffff"
     borderopacity="1"
     inkscape:showpageshadow="0"
     inkscape:pageopacity="0"
     inkscape:pagecheckerboard="1"
     inkscape:deskcolor="#505050"
     inkscape:document-units="pt"
     inkscape:zoom="2.2076456"
     inkscape:cx="248.45473"
     inkscape:cy="180.96202"
     inkscape:window-width="1981"
     inkscape:window-height="1691"
     inkscape:window-x="1090"
     inkscape:window-y="0"
     inkscape:window-maximized="0"
     inkscape:current-layer="svg32" />
  <defs
     id="defs2">
    <clipPath
       id="clip_0">
      <path
         transform="matrix(1,0,0,-1,0,425.197)"
         d="M0 425.197H425.197V0H0Z"
         id="path1" />
    </clipPath>
    <clipPath
       id="clip_1">
      <path
         transform="matrix(1,0,0,-1,0,425.197)"
         d="M0 425.197H425.197V0H0Z"
         id="path2" />
    </clipPath>
  </defs>
  <path
     transform="matrix(1 0 0 -1 116.732 203.888)"
     d="M0 0C-4.727-6.375-5.136-14.731-1.235-19.469 1.825-23.186 6.234-23.106 7.852-19.306 10.106-14.012 6.188-3.933 0 0M1.061-25.719C-7.945-15.837-9.704-6.422-3.036 1.448-1.11 3.722 3.537 5.382 6.415 4.791 11.631 3.719 15.172-6.743 13.565-14.201 12.111-20.945 9.545-26.772 .845-25.522 .849-25.525 1.061-25.719 1.061-25.719"
     fill="#231f20"
     id="path23"
     clip-path="none" />
  <path
     id="path3"
     clip-path="none"
     d="M 237.46249 83.941633 C 235.62549 76.84064 234.56568 68.748856 231.41268 61.577863 C 227.50469 52.685872 219.97646 49.403428 211.81747 51.429426 C 213.26647 54.118423 214.76949 56.605792 215.98348 59.226789 C 218.69248 65.075783 216.59642 69.881419 210.94442 71.096418 C 198.96643 73.672415 181.95165 65.628278 176.58065 54.539289 C 175.62365 52.563291 175.39191 49.823732 175.84091 47.645734 C 178.2909 35.755746 177.29048 34.089865 164.71249 31.681867 C 162.80849 40.265859 156.28742 42.517336 149.27743 42.287336 C 146.46043 49.076329 144.52439 55.595447 141.11239 61.220441 C 139.29139 64.223438 134.89549 67.559016 131.71249 67.509016 C 118.9785 67.309016 106.26151 65.873351 93.54452 64.828352 C 87.423526 64.324352 81.289135 62.989489 75.206141 63.218488 C 59.727156 63.800488 44.276664 65.109341 28.80868 66.01634 C 16.481692 66.739339 4.1491791 67.461688 -8.1918086 67.772687 C -10.26924 67.824477 -12.397019 65.923653 -14.50382 64.851789 C -14.485917 64.871805 -14.473433 64.890353 -14.45548 64.910383 C -24.014471 62.143386 -24.772861 53.720594 -26.793859 45.984602 C -27.445859 43.487604 -28.343131 40.148452 -30.220129 39.032453 C -39.50512 33.511459 -41.180453 24.710455 -40.727453 15.344465 C -40.291454 6.3344739 -34.922466 1.1526574 -24.851477 -1.5803398 C -25.062476 -3.0973383 -25.247403 -4.6607125 -25.500402 -6.2107109 C -27.6614 -19.471698 -17.697417 -30.89352 -4.8534297 -27.468523 C 8.1455573 -24.001527 21.105282 -25.341346 34.01327 -23.913348 C 46.734257 -22.506349 59.404419 -20.144652 72.153406 -19.650652 C 82.016396 -19.268653 91.952955 -21.348626 101.88095 -21.922625 C 112.66693 -22.546624 123.48184 -22.665274 134.28182 -23.062273 C 140.16982 -23.279273 143.1036 -20.149151 144.1036 -14.692156 C 144.06406 -14.693325 144.02449 -14.693917 143.98495 -14.695086 C 146.23286 -9.2488656 148.48036 -3.8057708 151.22567 2.8508125 C 157.14867 4.4338109 162.43958 9.2419296 164.00057 17.012922 C 165.05757 22.274917 167.9973 24.156619 172.7413 25.775617 C 182.97729 29.269614 186.04961 34.933283 182.93661 44.748273 C 180.53861 52.313266 185.23561 55.929441 189.95761 59.241437 C 195.9376 63.436433 202.49686 66.922079 211.03085 63.652082 C 209.44785 60.045086 208.19464 57.408419 207.12264 54.700422 C 204.55065 48.208428 208.4923 41.628494 214.53329 43.822492 C 221.89828 46.49649 229.4575 51.090525 234.56649 56.92552 C 241.43549 64.772512 240.07849 75.052642 237.46249 83.941633 z M -14.596105 64.740461 C -11.120664 63.270307 -7.6467348 61.7995 -4.1722773 60.328352 C -4.3512772 59.930352 -4.5308752 59.532504 -4.709875 59.134504 C -7.4348723 59.843503 -10.640123 61.781909 -12.762121 60.95091 C -15.432118 59.905911 -18.448122 56.910372 -19.137121 54.202375 C -20.846119 47.485382 -21.318372 40.453518 -22.043371 35.279523 C -26.992018 43.564751 -25.105915 52.943494 -14.596105 64.740461 z M 20.841395 63.174543 C 39.738376 58.652547 37.438522 41.734462 43.940516 30.927473 C 44.707515 31.179472 45.476251 31.431332 46.24325 31.683332 C 42.733254 41.514322 39.222485 51.345041 35.712488 61.175031 C 36.324488 61.582031 36.935938 61.987782 37.547938 62.393781 C 40.282935 58.217785 43.01728 54.041414 45.846277 49.721418 C 45.923277 50.777417 46.024239 52.160574 46.306238 56.02757 C 53.565231 41.092585 57.933898 27.717196 57.507898 13.084211 C 57.327899 6.8952171 56.594367 0.72221257 56.113367 -5.4577813 C 56.157807 -5.4176581 56.203652 -5.3876819 56.248133 -5.347918 C 54.595481 -8.7205876 52.950163 -12.08552 51.304285 -15.44948 C 50.745286 -15.283481 50.187503 -15.117433 49.628504 -14.951434 C 49.964504 -10.083438 50.299063 -5.2151671 50.626063 -0.48317188 C 47.919065 -7.1061653 45.173329 -13.825679 42.427332 -20.545672 C 41.515333 -20.202672 40.604468 -19.860351 39.692469 -19.517352 C 39.927469 -17.915353 40.163071 -16.312567 40.70907 -12.59157 C 34.940076 -15.438567 30.400533 -17.679335 24.689539 -20.497332 C 42.867521 8.0016395 44.583371 35.503571 20.841395 63.174543 z M 110.90585 62.36009 C 118.04984 54.338098 122.32845 44.196947 123.65145 33.698957 C 126.03445 14.787976 123.51564 -3.4873198 110.85165 -18.644305 C 110.06565 -18.557305 109.27925 -18.468633 108.49325 -18.380633 C 108.18525 -15.812635 107.87754 -13.245119 107.66854 -11.506121 C 105.48255 -14.248118 103.03881 -17.311753 100.59481 -20.37575 C 99.305814 -19.537751 98.017089 -18.698612 96.72909 -17.860613 C 105.04108 -5.4776257 107.2873 8.0555769 106.8453 22.444562 C 106.4073 36.745548 99.151584 48.4047 93.16659 60.647687 C 93.919589 61.162687 94.67238 61.676168 95.425379 62.190168 C 99.051375 57.543173 102.6795 52.89453 106.5245 47.966535 C 105.4285 51.829531 104.38153 55.518285 103.33554 59.206281 C 103.82053 59.475281 104.30659 59.74441 104.79159 60.01341 C 106.77859 57.467413 108.76623 54.922656 111.89022 50.91966 C 110.67522 55.393656 109.86768 58.369421 109.05868 61.346418 C 109.67468 61.684418 110.28985 62.02209 110.90585 62.36009 z M 129.33505 62.112531 C 137.08094 62.519117 144.16488 56.547707 143.20126 48.29759 C 142.88026 45.554593 138.15371 41.656398 135.11971 41.326398 C 131.34872 40.916399 126.09456 42.597171 123.56356 45.315168 C 120.50957 48.594165 119.63788 53.907688 117.84188 58.293684 C 120.25988 59.262683 122.15161 59.920946 123.95761 60.761945 C 125.72498 61.585444 127.54753 62.018704 129.33505 62.112531 z M 8.3755742 60.30052 C 17.022878 60.587347 25.974936 54.908479 28.818934 45.968488 C 23.336939 41.271493 18.217859 40.628392 14.196863 46.264387 C 11.139866 45.018388 8.3051884 43.862362 5.3081914 42.640363 C 3.3591934 48.325358 1.8069787 52.848548 0.066980469 57.924543 C 2.6439779 59.446291 5.4931396 60.20491 8.3755742 60.30052 z M 87.894617 58.790266 C 92.988612 58.864266 96.943558 49.24122 96.459559 39.10423 C 84.64157 39.10423 73.387188 38.955403 62.141199 39.180402 C 57.822204 39.267402 50.788489 48.442301 51.837488 52.497297 C 52.236488 54.044295 54.061568 56.22302 55.417566 56.36302 C 66.217556 57.477018 77.055628 58.633266 87.894617 58.790266 z M -16.14298 56.522687 C -15.427981 56.507688 -14.713449 56.491812 -13.998449 56.475812 C -11.523452 52.480816 -8.1638425 48.746636 -6.8778437 44.399641 C -5.9938446 41.408644 -7.6675676 37.451633 -8.8685664 34.170637 C -9.287566 33.026638 -12.720485 31.665641 -13.059484 32.024641 C -15.267482 34.363638 -18.515551 37.113175 -18.577551 39.794172 C -18.706551 45.349166 -17.05898 50.943693 -16.14298 56.522687 z M 3.6631719 38.428937 C 5.8954196 38.208688 8.0182872 36.947818 10.054285 34.55882 C 16.122279 27.439827 16.975311 15.083543 11.636316 7.5075508 C 8.5753195 3.1635551 4.9140729 0.42942991 -0.33292187 4.5544258 L -0.12051953 4.3596016 C -12.693507 10.239596 -14.522715 28.067899 -3.3827266 36.055891 C -0.91072903 37.828889 1.4309241 38.649187 3.6631719 38.428937 z M -26.540441 36.452863 C -35.148433 29.79287 -38.946558 19.363898 -34.264562 10.971906 C -32.968564 8.6489086 -29.620037 6.3525858 -27.078039 6.1935859 C -25.004041 6.0635861 -21.768308 8.6948772 -20.754309 10.889875 C -18.91331 14.872871 -18.342827 19.443419 -16.961828 24.867414 C -15.633829 17.149422 -15.55572 10.872483 -20.695715 5.4684883 C -24.520711 1.4454923 -28.607328 1.1743002 -32.795324 4.4972969 C -41.024316 11.02729 -39.312862 30.656548 -30.105871 35.799543 C -29.107872 36.357542 -27.73844 36.250863 -26.540441 36.452863 z M 139.66659 35.856672 C 146.53104 36.190519 154.16474 34.375555 158.18661 30.824934 C 158.40261 31.999932 158.61614 33.174244 158.93514 34.916242 C 164.47914 27.604249 163.9244 19.953822 159.52841 14.141828 C 156.91741 10.689832 150.4786 9.041566 145.6036 8.6735664 C 139.70461 8.2285669 133.63818 9.9937313 127.72518 10.79173 C 127.37718 17.126724 126.89204 22.713478 126.87704 28.302473 C 126.87304 29.847471 127.85549 31.982419 129.08749 32.846418 C 131.70611 34.682791 135.54792 35.656363 139.66659 35.856672 z M 20.837 35.298566 C 23.436872 35.354941 25.962202 35.280003 28.391199 34.759504 C 31.060197 34.186504 34.616817 30.878048 35.073816 28.320051 C 35.992815 23.181056 35.61746 17.60135 34.609461 12.432355 C 34.231461 10.497357 30.60651 9.1971586 28.461512 7.6071602 C 27.391513 9.1851586 26.322199 10.763212 25.766199 11.584211 C 23.355202 9.4512131 20.308313 6.7548411 17.261316 4.0578437 C 16.446317 4.6248432 15.630027 5.1915279 14.815027 5.7585273 C 19.153023 16.154517 18.986088 26.164411 12.833094 35.055402 C 15.562591 35.055402 18.237128 35.242191 20.837 35.298566 z M 76.24618 32.248762 C 76.39418 32.242762 76.536449 32.218055 76.672449 32.174055 C 76.944449 32.094055 77.132414 31.929867 77.236414 31.681867 C 77.276414 31.585867 77.349211 31.493012 77.453211 31.405012 C 77.565211 31.317012 77.672942 31.24568 77.776941 31.18968 C 77.880941 31.14168 77.988672 31.074066 78.100672 30.986066 C 78.212672 30.906066 78.296625 30.81693 78.352625 30.72093 C 78.456615 30.54493 78.600754 30.258136 78.784754 29.858137 C 78.808754 29.794137 78.841434 29.644824 78.881434 29.412824 C 78.929434 29.188824 78.984426 29.040976 79.048426 28.968977 L 79.01327 27.937727 C 78.99727 27.457727 78.896976 26.817316 78.712977 26.017316 C 78.344977 24.393318 77.788519 23.278148 77.04452 22.670148 C 75.788521 21.662149 74.629505 21.481622 73.565516 22.129621 C 73.053516 22.441621 72.641187 22.85395 72.329188 23.365949 C 72.025188 23.885949 71.853562 24.449844 71.813563 25.057844 L 71.813563 25.069562 C 71.813563 25.149562 71.808379 25.29741 71.800379 25.51341 L 71.800379 25.993879 C 71.808379 26.105879 71.817281 26.244824 71.825281 26.412824 C 71.841281 26.588824 71.857621 26.749293 71.873621 26.893293 C 71.913621 27.093293 71.992391 27.377832 72.112391 27.745832 C 72.232391 28.113832 72.308906 28.38575 72.340906 28.56175 C 72.468906 29.169749 72.696989 29.757422 73.024988 30.325422 C 73.352988 30.901421 73.752696 31.344975 74.224695 31.656965 C 74.392695 31.768965 74.617059 31.872977 74.897059 31.968977 C 75.177058 32.072976 75.472754 32.153211 75.784754 32.209211 C 75.944754 32.241211 76.09818 32.254762 76.24618 32.248762 z M 80.369715 31.683332 C 80.504715 31.682082 80.653563 31.621691 80.813563 31.501691 C 80.925562 31.421691 81.093469 31.321398 81.317469 31.201398 C 81.541469 31.081399 81.72425 30.957328 81.86825 30.829328 C 82.01225 30.709328 82.128883 30.54514 82.216883 30.337141 C 82.296883 30.161141 82.340719 29.898125 82.348719 29.546125 C 82.364719 29.202135 82.361 28.829914 82.337 28.429914 C 82.321 28.037914 82.321 27.769715 82.337 27.625715 C 82.345 27.569715 82.348719 27.389187 82.348719 27.085187 L 82.348719 26.546125 C 82.348719 26.346135 82.372496 26.242113 82.420496 26.234113 C 82.468496 26.226113 82.596285 26.266231 82.804285 26.35423 C 82.844285 26.37023 83.021094 26.421504 83.333094 26.509504 C 83.645093 26.605504 83.933352 26.696895 84.197352 26.784895 C 84.461351 26.872894 84.596578 26.936789 84.604578 26.976789 C 84.620578 27.096789 84.660695 27.541798 84.724695 28.309797 C 84.788695 29.077796 84.861492 29.614196 84.941492 29.918195 C 84.949492 29.950195 84.969551 30.057926 85.001551 30.241926 C 85.033551 30.433926 85.064766 30.60927 85.096766 30.76927 C 85.128766 30.929269 85.172602 31.080836 85.228602 31.224836 C 85.292601 31.376836 85.352777 31.460789 85.408777 31.476789 C 85.640777 31.532789 85.912696 31.428777 86.224695 31.164777 C 86.544685 30.908778 86.71632 30.662101 86.74032 30.422102 C 86.74832 30.310102 86.744602 30.149633 86.728602 29.941633 C 86.720602 29.741633 86.709445 29.564824 86.693445 29.412824 C 86.677445 29.268824 86.652203 29.057082 86.620203 28.777082 C 86.596203 28.505082 86.581328 28.236883 86.573328 27.972883 C 86.565328 27.844883 86.565328 27.702219 86.573328 27.542219 C 86.581328 27.390219 86.596203 27.233469 86.620203 27.073469 C 86.644203 26.913469 86.669445 26.758183 86.693445 26.606184 C 86.725445 26.462184 86.752941 26.305433 86.776941 26.137434 C 86.808941 25.969434 86.832719 25.825305 86.848719 25.705305 C 86.872719 25.553305 86.892777 25.357902 86.908777 25.117902 C 86.932777 24.885903 86.956555 24.661539 86.980555 24.445539 C 87.004555 24.237539 87.033516 24.045855 87.065516 23.869855 C 87.073516 23.813856 87.097293 23.717281 87.137293 23.581281 C 87.177293 23.445281 87.204789 23.330113 87.220789 23.234113 C 87.244789 23.146113 87.248508 23.049539 87.232508 22.945539 C 87.224508 22.841539 87.189574 22.761305 87.125574 22.705305 C 87.061574 22.729305 86.996215 22.68175 86.932215 22.56175 C 86.868215 22.44175 86.837 22.348894 86.837 22.284895 C 86.837 22.252895 86.80432 22.217961 86.74032 22.177961 C 86.67632 22.137961 86.608707 22.105281 86.536707 22.081281 C 86.464707 22.049281 86.40825 22.032941 86.36825 22.032941 C 86.24025 22.040941 86.061187 22.069902 85.829188 22.117902 C 85.597188 22.157902 85.433 22.185398 85.337 22.201398 C 85.281 22.201398 85.228262 22.217738 85.180262 22.249738 C 85.132262 22.289738 85.093609 22.341012 85.061609 22.405012 C 85.037609 22.469012 85.017551 22.52175 85.001551 22.56175 C 84.985551 22.60975 84.965492 22.677363 84.941492 22.765363 C 84.925492 22.853363 84.91659 22.906102 84.91659 22.922102 C 84.70059 23.730101 84.592859 24.59713 84.592859 25.525129 C 84.592859 25.613129 84.585422 25.682207 84.569422 25.730207 C 84.553422 25.778207 84.520742 25.805703 84.472742 25.813703 C 84.432742 25.821703 84.396344 25.821703 84.364344 25.813703 C 84.332344 25.813703 84.272168 25.801082 84.184168 25.777082 C 84.104168 25.761082 84.040273 25.749926 83.992273 25.741926 C 83.616274 25.677926 83.236615 25.60141 82.852625 25.51341 C 82.580625 25.44941 82.412719 25.385516 82.348719 25.321516 C 82.292719 25.265516 82.248883 25.11023 82.216883 24.85423 C 82.168883 24.478231 82.165164 24.062183 82.205164 23.606184 C 82.205164 23.590184 82.221504 23.521105 82.253504 23.401105 C 82.293504 23.281106 82.324719 23.157035 82.348719 23.029035 C 82.372719 22.909035 82.389059 22.784965 82.397059 22.656965 C 82.405059 22.536965 82.377562 22.441855 82.313563 22.369855 C 82.257563 22.305856 82.168426 22.285797 82.048426 22.309797 C 82.016426 22.317797 81.961434 22.297738 81.881434 22.249738 C 81.809434 22.201738 81.745539 22.18168 81.689539 22.18968 C 81.625539 22.20568 81.496275 22.201961 81.304285 22.177961 C 81.120285 22.153961 80.992496 22.145059 80.920496 22.153059 C 80.776496 22.169059 80.668766 22.185398 80.596766 22.201398 C 80.532766 22.209398 80.448812 22.225738 80.344813 22.249738 C 80.248813 22.281738 80.17748 22.321856 80.12948 22.369855 C 80.081481 22.417855 80.032461 22.485469 79.984461 22.573469 C 79.936461 22.661469 79.905246 22.769199 79.889246 22.897199 C 79.921246 22.849199 79.945023 22.845481 79.961023 22.88548 C 79.977023 22.92548 79.977023 22.981938 79.961023 23.053937 C 79.953023 23.125937 79.936684 23.189832 79.912684 23.245832 C 79.896684 23.301832 79.872906 23.365727 79.840906 23.437727 C 79.808906 23.517726 79.788848 23.577902 79.780848 23.617902 C 79.756848 23.633902 79.74941 23.749071 79.75741 23.96507 C 79.76541 24.18107 79.769129 24.301422 79.769129 24.325422 C 79.745129 25.125421 79.805305 25.820825 79.949305 26.412824 C 79.989305 26.556824 80.013082 26.726196 80.021082 26.918195 C 80.037082 27.118195 80.040801 27.349996 80.032801 27.613996 L 80.032801 28.14134 C 80.040801 28.35734 80.053422 28.653036 80.069422 29.029035 C 80.085422 29.405025 80.092859 29.676953 80.092859 29.844953 C 80.100859 30.012953 80.097141 30.209821 80.081141 30.43382 C 80.065141 30.65782 80.032461 30.856942 79.984461 31.032941 C 79.904461 31.320941 79.957199 31.517809 80.141199 31.621809 C 80.213199 31.663809 80.288715 31.684082 80.369715 31.683332 z M 76.457117 30.748762 C 76.401117 30.744762 76.34466 30.73493 76.28866 30.72093 C 76.00866 30.64893 75.769422 30.437187 75.569422 30.085187 C 75.369422 29.741188 75.221574 29.377879 75.125574 28.993879 C 74.981574 28.37788 74.877562 27.925433 74.813563 27.637434 C 74.757563 27.349434 74.697387 26.953435 74.633387 26.449445 C 74.577387 25.953446 74.561047 25.489843 74.585047 25.057844 L 74.585047 25.046125 L 74.585047 24.986066 C 74.625047 24.674067 74.752836 24.356847 74.968836 24.036848 C 75.184836 23.724848 75.432977 23.509387 75.712977 23.389387 C 75.864976 23.317387 76.009106 23.273551 76.145105 23.257551 C 76.281105 23.249551 76.405176 23.265891 76.517176 23.305891 C 76.629176 23.345891 76.729469 23.397164 76.817469 23.461164 C 76.913469 23.533164 77.001141 23.62602 77.081141 23.73802 C 77.161141 23.850019 77.228754 23.961469 77.284754 24.073469 C 77.348754 24.185469 77.40893 24.313258 77.46493 24.457258 C 78.336929 26.497256 78.484777 28.217904 77.908777 29.617902 C 77.812777 29.841902 77.684988 30.046207 77.524988 30.230207 C 77.372988 30.414207 77.185023 30.553152 76.961023 30.649152 C 76.793024 30.727152 76.625117 30.760762 76.457117 30.748762 z M -30.180578 28.324445 C -21.443587 23.053451 -20.702777 17.01266 -28.15177 8.752668 C -35.438762 14.396662 -35.841572 19.393454 -30.180578 28.324445 z M 80.081141 22.681867 C 80.049141 22.689867 80.060297 22.653469 80.116297 22.573469 C 80.172297 22.501469 80.208695 22.494031 80.224695 22.550031 C 80.216695 22.638031 80.169141 22.681867 80.081141 22.681867 z M 76.917078 17.846418 C 77.394828 17.832418 77.806012 17.696726 78.149012 17.437727 L 78.329188 17.257551 C 78.401187 17.193551 78.476238 17.117035 78.556238 17.029035 C 78.636238 16.941035 78.705316 16.845926 78.761316 16.741926 C 78.825316 16.645926 78.86025 16.561973 78.86825 16.489973 C 78.87625 16.417973 78.921551 16.325117 79.001551 16.213117 C 79.081551 16.101117 79.129105 16.013445 79.145105 15.949445 C 79.177105 15.837445 79.217223 15.593023 79.265223 15.217023 C 79.273223 15.153024 79.320777 14.933843 79.408777 14.557844 C 79.504777 14.189844 79.544895 13.901586 79.528895 13.693586 C 79.512895 13.509586 79.500273 13.305281 79.492273 13.081281 C 79.484273 12.865281 79.476836 12.669879 79.468836 12.493879 C 79.468836 12.325879 79.465117 12.137914 79.457117 11.929914 C 79.457117 11.729914 79.448215 11.541949 79.432215 11.365949 C 79.416215 11.189949 79.392437 10.996801 79.360438 10.788801 C 79.328438 10.580801 79.284602 10.381679 79.228602 10.18968 C 78.820602 8.7016812 78.172753 7.778185 77.284754 7.4181953 C 76.644755 7.1781956 76.07714 7.141797 75.581141 7.3097969 C 75.093141 7.4697967 74.677093 7.78927 74.333094 8.2692695 C 73.989094 8.7492691 73.720894 9.309446 73.528895 9.9494453 C 73.344895 10.589435 73.237164 11.269973 73.205164 11.989973 L 73.205164 12.001691 C 73.205164 12.417691 73.236379 12.841176 73.300379 13.273176 C 73.372379 13.713175 73.472672 14.149282 73.600672 14.581281 C 73.728672 15.013281 73.89286 15.421891 74.092859 15.805891 C 74.292859 16.18989 74.517223 16.529422 74.765223 16.825422 C 75.021222 17.121422 75.3132 17.362135 75.641199 17.546125 C 75.977199 17.730125 76.333071 17.828953 76.70907 17.844953 C 76.78007 17.847953 76.848828 17.848418 76.917078 17.846418 z M 69.58993 17.465559 C 69.66993 17.468559 69.751094 17.467164 69.833094 17.461164 C 70.161093 17.437164 70.456789 17.325715 70.720789 17.125715 C 70.912789 16.973715 71.060637 16.849644 71.164637 16.753645 C 71.276637 16.665645 71.404426 16.541574 71.548426 16.381574 C 71.692426 16.221574 71.801621 16.057387 71.873621 15.889387 C 71.953621 15.721387 72.001176 15.540859 72.017176 15.348859 C 72.065176 14.64486 71.957445 13.942019 71.693445 13.23802 C 71.437446 12.54202 71.068953 11.777538 70.588953 10.945539 C 70.476953 10.753539 70.301609 10.492777 70.061609 10.164777 C 69.82161 9.8367777 69.652238 9.6012577 69.556238 9.4572578 C 69.532238 9.4092579 69.473527 9.3253046 69.377527 9.2053047 C 69.281527 9.0853048 69.197574 8.9775741 69.125574 8.8815742 C 69.061574 8.7855743 69.001398 8.6815624 68.945398 8.5695625 C 68.897398 8.4655626 68.892215 8.3778906 68.932215 8.3058906 C 68.972215 8.2418907 69.06507 8.2017734 69.20907 8.1857734 C 69.80907 8.1297735 70.325411 8.1097149 70.75741 8.1257148 C 70.78141 8.1257148 70.852742 8.1294336 70.972742 8.1374336 C 71.100742 8.1454336 71.224813 8.1491523 71.344813 8.1491523 C 71.472812 8.1571523 71.60432 8.1608711 71.74032 8.1608711 C 71.87632 8.1688711 71.989234 8.1651523 72.077234 8.1491523 C 72.173234 8.1331524 72.228227 8.1130937 72.244227 8.0890937 C 72.252227 8.0650938 72.237352 7.9900428 72.197352 7.862043 C 72.157352 7.7420431 72.137293 7.6729648 72.137293 7.6569648 C 72.129293 7.5929649 72.109234 7.5454101 72.077234 7.5134102 C 72.045234 7.4814102 72.008836 7.4613516 71.968836 7.4533516 C 71.936836 7.4453516 71.893 7.4379141 71.837 7.4299141 C 71.781 7.4139141 71.737164 7.3938554 71.705164 7.3698555 C 71.553164 7.2818556 71.248566 7.2179609 70.792566 7.1779609 C 70.336567 7.137961 70.093609 7.1141836 70.061609 7.1061836 C 69.84561 7.0661836 69.541011 6.9971054 69.149012 6.9011055 C 68.765012 6.8051056 68.40914 6.724871 68.081141 6.6608711 C 67.761141 6.5968712 67.456543 6.5582187 67.168543 6.5422187 C 66.872543 6.5342188 66.637023 6.5854923 66.461023 6.6974922 C 66.293024 6.8094921 66.19273 6.9610588 66.16073 7.1530586 C 66.128731 7.3370584 66.136168 7.5376447 66.184168 7.7536445 C 66.232168 7.9776443 66.321305 8.202008 66.449305 8.4260078 C 66.513305 8.5380077 66.70127 8.9139381 67.01327 9.5539375 C 67.333269 10.193937 67.605188 10.673879 67.829188 10.993879 C 67.933187 11.137879 68.077317 11.357059 68.261316 11.653059 C 68.453316 11.949058 68.597445 12.165985 68.693445 12.301984 C 68.741445 12.365984 68.796438 12.473715 68.860438 12.625715 C 68.932437 12.777715 69.001516 12.918135 69.065516 13.046125 C 69.137516 13.174125 69.208848 13.265516 69.280848 13.321516 L 69.292566 13.344953 C 69.324566 13.496953 69.388461 13.673762 69.484461 13.873762 C 69.580461 14.081762 69.673316 14.269727 69.761316 14.437727 C 69.849316 14.613726 69.924367 14.797973 69.988367 14.989973 C 70.060367 15.181972 70.085609 15.373656 70.061609 15.565656 C 70.045609 15.757656 69.976531 15.941903 69.856531 16.117902 C 69.672531 16.333902 69.437011 16.408953 69.149012 16.344953 C 68.869012 16.288953 68.593365 16.161164 68.321375 15.961164 C 68.049375 15.761164 67.872566 15.56948 67.792566 15.38548 C 67.752566 15.289481 67.701293 15.129011 67.637293 14.905012 C 67.573293 14.681012 67.513117 14.513105 67.457117 14.401105 C 67.425117 14.337106 67.377562 14.27693 67.313563 14.22093 C 67.249563 14.17293 67.180484 14.137996 67.108484 14.113996 C 67.036484 14.089996 66.968871 14.093715 66.904871 14.125715 C 66.840871 14.165715 66.800754 14.237047 66.784754 14.341047 C 66.736754 14.589047 66.776871 14.886207 66.904871 15.230207 C 67.040871 15.574207 67.212496 15.889961 67.420496 16.177961 C 67.628496 16.465961 67.83652 16.685141 68.04452 16.837141 C 68.324519 17.04514 68.609059 17.205609 68.897059 17.317609 C 69.119058 17.407609 69.34993 17.456559 69.58993 17.465559 z M 69.280848 13.321516 L 69.25741 13.14134 L 69.292566 13.177961 C 69.348566 13.249961 69.348566 13.297516 69.292566 13.321516 L 69.280848 13.321516 z M 83.942469 17.465559 C 84.022469 17.468559 84.102168 17.467164 84.184168 17.461164 C 84.512168 17.437164 84.809328 17.325715 85.073328 17.125715 C 85.265328 16.973715 85.413176 16.849644 85.517176 16.753645 C 85.629176 16.665645 85.756965 16.541574 85.900965 16.381574 C 86.044965 16.221574 86.152695 16.057387 86.224695 15.889387 C 86.304695 15.721387 86.35225 15.540859 86.36825 15.348859 C 86.41625 14.64486 86.308519 13.942019 86.04452 13.23802 C 85.78852 12.54202 85.421492 11.777538 84.941492 10.945539 C 84.829492 10.753539 84.652683 10.492777 84.412684 10.164777 C 84.172684 9.8367777 84.004777 9.6012577 83.908777 9.4572578 C 83.884777 9.4092579 83.824601 9.3253046 83.728602 9.2053047 C 83.632602 9.0853048 83.548648 8.9775741 83.476648 8.8815742 C 83.412649 8.7855743 83.352473 8.6815624 83.296473 8.5695625 C 83.248473 8.4655626 83.244754 8.3778906 83.284754 8.3058906 C 83.324754 8.2418907 83.41761 8.2017734 83.561609 8.1857734 C 84.161609 8.1297735 84.676485 8.1097149 85.108484 8.1257148 C 85.132484 8.1257148 85.205281 8.1294336 85.325281 8.1374336 C 85.453281 8.1454336 85.577352 8.1491523 85.697352 8.1491523 C 85.825351 8.1571523 85.95686 8.1608711 86.092859 8.1608711 C 86.228859 8.1688711 86.340309 8.1651523 86.428309 8.1491523 C 86.524308 8.1331524 86.580766 8.1130937 86.596766 8.0890937 C 86.604766 8.0650938 86.588426 7.9900428 86.548426 7.862043 C 86.508426 7.7420431 86.488367 7.6729648 86.488367 7.6569648 C 86.480367 7.5929649 86.460309 7.5454101 86.428309 7.5134102 C 86.396309 7.4814102 86.361365 7.4613516 86.321375 7.4533516 C 86.289375 7.4453516 86.245539 7.4379141 86.189539 7.4299141 C 86.133539 7.4139141 86.088238 7.3938554 86.056238 7.3698555 C 85.904238 7.2818556 85.601105 7.2179609 85.145105 7.1779609 C 84.689106 7.137961 84.444684 7.1141836 84.412684 7.1061836 C 84.196684 7.0661836 83.89355 6.9971054 83.501551 6.9011055 C 83.117551 6.8051056 82.760215 6.724871 82.432215 6.6608711 C 82.112225 6.5968712 81.809082 6.5582187 81.521082 6.5422187 C 81.225082 6.5342188 80.989562 6.5854923 80.813563 6.6974922 C 80.645563 6.8094921 80.545269 6.9610588 80.51327 7.1530586 C 80.48127 7.3370584 80.488707 7.5376447 80.536707 7.7536445 C 80.584707 7.9776443 80.672379 8.202008 80.800379 8.4260078 C 80.864379 8.5380077 81.052344 8.9139381 81.364344 9.5539375 C 81.684343 10.193937 81.956262 10.673879 82.180262 10.993879 C 82.284262 11.137879 82.428391 11.357059 82.612391 11.653059 C 82.80439 11.949058 82.94852 12.165985 83.04452 12.301984 C 83.092519 12.365984 83.148977 12.473715 83.212977 12.625715 C 83.284976 12.777715 83.35259 12.918135 83.41659 13.046125 C 83.48859 13.174125 83.561387 13.265516 83.633387 13.321516 L 83.645105 13.344953 C 83.677105 13.496953 83.741 13.673762 83.837 13.873762 C 83.933 14.081762 84.024391 14.269727 84.112391 14.437727 C 84.200391 14.613726 84.276906 14.797973 84.340906 14.989973 C 84.412906 15.181972 84.436684 15.373656 84.412684 15.565656 C 84.396684 15.757656 84.32907 15.941903 84.20907 16.117902 C 84.02507 16.333902 83.78955 16.408953 83.501551 16.344953 C 83.221551 16.288953 82.944449 16.161164 82.672449 15.961164 C 82.400449 15.761164 82.225105 15.56948 82.145105 15.38548 C 82.105106 15.289481 82.052367 15.129011 81.988367 14.905012 C 81.924367 14.681012 81.864191 14.513105 81.808191 14.401105 C 81.776191 14.337106 81.728637 14.27693 81.664637 14.22093 C 81.600637 14.17293 81.533023 14.137996 81.461023 14.113996 C 81.389024 14.089996 81.32141 14.093715 81.25741 14.125715 C 81.19341 14.165715 81.153293 14.237047 81.137293 14.341047 C 81.089293 14.589047 81.12941 14.886207 81.25741 15.230207 C 81.39341 15.574207 81.565035 15.889961 81.773035 16.177961 C 81.981025 16.465961 82.189059 16.685141 82.397059 16.837141 C 82.677058 17.04514 82.961598 17.205609 83.249598 17.317609 C 83.471597 17.407609 83.702469 17.456559 83.942469 17.465559 z M 83.633387 13.321516 L 83.608484 13.14134 L 83.645105 13.177961 C 83.701105 13.249961 83.701105 13.297516 83.645105 13.321516 L 83.633387 13.321516 z M 90.661707 17.002668 C 90.755707 17.016668 90.800473 17.001258 90.796473 16.957258 L 90.833094 16.957258 C 91.225093 16.957258 91.580975 16.853246 91.900965 16.645246 C 92.228965 16.445246 92.488262 16.18223 92.680262 15.85423 C 92.872262 15.534231 93.016391 15.185796 93.112391 14.809797 C 93.216391 14.433797 93.26541 14.061586 93.25741 13.693586 C 93.24941 13.437586 93.169176 13.01782 93.017176 12.43382 C 92.993176 12.35382 93.05707 12.177011 93.20907 11.905012 C 93.36907 11.633012 93.453023 11.477727 93.461023 11.437727 C 93.733023 10.549727 93.705527 9.7852455 93.377527 9.1452461 C 93.249527 8.8972463 93.03632 8.6580076 92.74032 8.4260078 C 92.444321 8.194008 92.11741 8.0060428 91.75741 7.862043 C 91.405411 7.7180431 91.040636 7.6289062 90.664637 7.5969062 C 90.296637 7.5649063 89.977164 7.6250822 89.705164 7.777082 C 89.585164 7.841082 89.37714 7.9049766 89.081141 7.9689766 C 88.793141 8.0329765 88.581398 8.1020548 88.445398 8.1740547 C 87.877399 8.4860544 87.496275 8.7527893 87.304285 8.9767891 C 86.920286 9.4087886 86.728602 9.7973402 86.728602 10.14134 C 86.728602 10.26934 86.816274 10.437246 86.992273 10.645246 C 87.136273 10.813246 87.216508 10.825867 87.232508 10.681867 C 87.272508 10.225868 87.476813 9.8009176 87.844813 9.408918 C 88.212812 9.0169184 88.632579 8.7739608 89.104578 8.6779609 C 90.312577 8.4219612 91.093399 8.8729426 91.445398 10.032941 C 91.629398 10.632941 91.653176 11.101727 91.517176 11.437727 C 91.493176 11.485727 91.44934 11.516941 91.38534 11.532941 C 91.32934 11.548941 91.252824 11.548941 91.156824 11.532941 C 91.068824 11.524941 90.98859 11.513785 90.91659 11.497785 C 90.84459 11.481785 90.760637 11.458008 90.664637 11.426008 C 90.576637 11.402008 90.529082 11.389387 90.521082 11.389387 C 90.193082 11.309387 89.93232 11.353223 89.74032 11.521223 C 89.548321 11.689222 89.460648 11.913586 89.476648 12.193586 C 89.500648 12.473586 89.621 12.718008 89.837 12.926008 C 89.925 13.014008 90.025293 13.08534 90.137293 13.14134 C 90.249293 13.19734 90.36818 13.250078 90.49618 13.298078 C 90.62418 13.346078 90.733375 13.397352 90.821375 13.453352 C 91.181365 13.693351 91.312883 14.125739 91.216883 14.749738 C 91.128883 15.277738 90.913422 15.609832 90.569422 15.745832 C 90.225422 15.881832 89.816812 15.825375 89.344813 15.577375 C 89.296813 15.553385 89.152683 15.445644 88.912684 15.253645 C 88.680684 15.061645 88.512777 14.961352 88.408777 14.953352 C 88.168778 14.945352 88.03727 15.012965 88.01327 15.156965 C 87.99727 15.308965 88.064883 15.461996 88.216883 15.613996 C 88.488883 15.933996 88.912368 16.257188 89.488367 16.585187 C 89.600367 16.641187 89.848508 16.737762 90.232508 16.873762 C 90.424508 16.945762 90.567707 16.988668 90.661707 17.002668 z M 77.837 16.837141 C 77.125001 16.741141 76.552203 16.325093 76.120203 15.589094 C 75.688204 14.853094 75.485363 13.889491 75.509363 12.697492 C 75.509363 12.329493 75.549481 11.926066 75.62948 11.486066 C 75.70948 11.046067 75.82093 10.601058 75.96493 10.153059 C 76.11693 9.713059 76.317516 9.3296911 76.565516 9.0016914 C 76.821515 8.6816917 77.10459 8.4848241 77.41659 8.4128242 C 77.68859 8.3488243 77.929293 8.4327776 78.137293 8.6647773 C 78.353293 8.8967771 78.521199 9.1976566 78.641199 9.5656562 C 78.769199 9.9336559 78.873211 10.353422 78.953211 10.825422 C 79.033211 11.297421 79.084484 11.713469 79.108484 12.073469 C 79.140484 12.441468 79.156824 12.760942 79.156824 13.032941 L 79.156824 13.14134 L 79.156824 13.321516 L 79.156824 13.536848 C 79.156824 13.616848 79.153105 13.693363 79.145105 13.765363 C 79.145105 13.837363 79.141387 13.904977 79.133387 13.968977 C 79.125387 14.032976 79.112766 14.085715 79.096766 14.125715 C 79.080766 14.165715 79.060707 14.189492 79.036707 14.197492 C 78.932707 14.213492 78.856191 14.261047 78.808191 14.341047 C 78.768191 14.429047 78.768191 14.536777 78.808191 14.664777 C 78.848191 14.808777 78.840754 15.001926 78.784754 15.241926 C 78.736754 15.489926 78.660238 15.725446 78.556238 15.949445 C 78.452238 16.181445 78.333351 16.382031 78.197352 16.550031 C 78.069352 16.726031 77.952719 16.821141 77.848719 16.837141 L 77.837 16.837141 z M 90.953211 12.649152 C 90.785211 12.617152 90.661141 12.553258 90.581141 12.457258 L 90.556238 12.43382 C 90.756238 12.40182 90.90927 12.461996 91.01327 12.613996 C 91.02927 12.645996 91.009211 12.657152 90.953211 12.649152 z M -10.633703 7.6877266 C -12.975701 4.7397295 -15.576651 1.4666061 -18.177648 -1.8073906 C -18.122458 -1.7681899 -18.062908 -1.7264635 -18.007727 -1.6872734 C -19.39547 -6.5353747 -20.784391 -11.381573 -21.759191 -14.784441 C -26.345187 -5.7864504 -20.741693 6.9087273 -10.633703 7.6877266 z M 133.73837 2.827375 C 137.62477 2.4878597 142.53632 0.097748933 147.18856 -0.9695 C 146.06056 -5.7487085 145.00487 -10.222892 143.94979 -14.696551 C 135.81407 -14.937048 127.67829 -15.178706 119.54257 -15.420184 C 118.90657 -14.269185 118.27034 -13.117546 117.63534 -11.967547 C 121.74134 -6.9835519 124.95933 -0.062372579 130.24032 2.358625 C 131.26007 2.8261245 132.4429 2.9405468 133.73837 2.827375 z M 77.860438 2.8156562 C 85.42343 2.9949061 93.217258 1.4446399 100.99325 0.71214062 C 99.117252 -12.196846 94.05018 -15.51208 82.183191 -13.841082 C 77.347196 -13.160083 72.240374 -13.996278 67.300379 -14.541277 C 59.657627 -15.384822 56.614275 -12.967089 56.308191 -5.2981133 C 63.103732 0.74985064 70.368518 2.6380909 77.860438 2.8156562 z M -12.371008 2.3102852 C -5.2420149 -2.7657098 -5.5805671 -9.9233312 -6.2435664 -16.914324 C -6.3495663 -18.039323 -9.8563331 -20.088933 -10.878332 -19.638934 C -13.530329 -18.468935 -17.045294 -16.536107 -17.713293 -14.194109 C -18.822421 -10.310173 -18.00668 -5.8774766 -17.982824 -1.6696953 C -16.15844 -0.37402757 -14.340703 0.91371504 -12.371008 2.3102852 z M -0.00040234375 0.0002265625 C 4.0535936 -7.1357663 3.6901163 -14.323464 -1.0638789 -20.825457 C -3.7448762 -24.490453 -7.6687987 -26.916232 -13.400793 -24.272234 C -1.8498045 -21.738237 0.49059717 -17.068756 -0.00040234375 0.0002265625 z M 28.158289 -1.2990898 C 28.728288 -1.2600899 29.860317 -3.2155714 30.011316 -4.3415703 C 30.727316 -9.680565 21.826721 -18.384054 16.556727 -17.988055 C 12.572731 -17.689055 8.5483193 -17.929461 3.5943242 -17.929461 C 3.853324 -16.682462 4.110645 -14.855264 4.6226445 -13.104266 C 5.5926436 -9.7832689 6.0604589 -4.1325151 7.880457 -3.6355156 C 14.376451 -1.8585174 21.348296 -1.7590894 28.158289 -1.2990898 z "
     transform="matrix(1 0 0 -1 117.913 233.968)"
     style="fill:#231f20;fill-opacity:1" />
  <path
     transform="matrix(1 0 0 -1 386.345 149.191)"
     d="M0 0C-21.53-2.474-20.104-2.327-16.566-13.083-19.881-12.085-23.339-11.043-27.328-9.841-28.062-5.209-19.673-4.342-21.874 3.439-23.665 9.771-25.197 12.208-31.705 12.629-39.248 13.117-43.159 8.184-45.372 3.238-48.247-3.189-38.514-5.532-35.812-11.289-37.496-12.493-39.177-13.693-41.18-15.125-40.177-1.472-49.95-7.771-58.096-6.875-53.612-4.256-50.927-2.688-46.702-.221-54.662 3.851-61.505 7.351-68.348 10.851-68.238 11.105-68.129 11.36-68.019 11.615-62.843 10.518-57.699 9.208-52.476 8.419-50.014 8.046-47.401 8.673-44.856 8.847-45.086 11.338-46.412 12.821-47.029 15.212-47.593 17.402-49.383 23.2-50.644 25.887-46.15 22.493-40.49 16.925-36.711 14.071-34.069 17.847-31.051 33.397-28.838 36.561-28.221 34.309-28.621 18.023-26.378 15.827-24.443 13.933-12.32 23.013-9.151 22.615-11.115 17.802-21.299 8.654-19.777 6.881-18.014 4.826-11.271 2.086 0 0"
     fill="#231f20"
     id="path4"
     clip-path="none" />
  <path
     transform="matrix(1 0 0 -1 157.546 141.322)"
     d="M0 0C-.106 .396 .17 1.107 .138 1.225 .138 1.225 .035 1.452-.322 1.357-.242 1.378-.646 1.143-.54 .747-.466 .47-.093 .187-.04-.011 .003-.169-.213-.312-.203-.351-.171-.47 .21-.623 .58-.736 .307-.512 .074-.277 0 0M-6.3-15.908C-6.268-16.027-6.629-16.421-6.866-16.485-7.184-16.57-7.905-16.254-7.937-16.135-7.979-15.977-7.863-15.776-7.549-15.522-7.549-15.522-6.459-15.314-6.3-15.908M9.147-1.662C9.678-3.642 8.953-4.261 7.983-5.71 7.799-5.971 7.51-7.11 7.035-7.237 6.876-7.28 6.615-7.096 6.535-7.117 6.456-7.138 6.384-8.134 5.553-8.356 4.998-8.505 4.33-8.387 4.172-8.43 4.013-8.472 3.955-8.573 3.955-8.573 4.056-8.631 4.257-8.747 4.249-8.876 4.249-8.876 4.17-8.897 4.069-8.839 3.62-8.747 3.285-8.922 3.253-8.804 3.168-8.487 3.666-7.335 4.328-7.115 4.724-7.008 5.102-6.992 5.299-6.939 5.418-6.907 5.487-6.846 5.444-6.688L5.37-6.411C5.2-5.777 5.87-5.428 5.87-5.428L5.392-3.646C5.222-3.013 4.268-2.462 4.173-2.106 4.151-2.027 4.17-1.937 4.148-1.858 4.053-1.501 2.867-1.353 2.82-1.493 2.328-1.243 2.896-1.302 1.879-1.151 1.391-1.07 .474-.976-1.121-.725-2.975-.458-4.219-.41-4.177-.568-4.155-.648-3.915-.753-3.915-.753L-4.649-.865C-4.533-.664-4.962-1.119-6.304-1.182-5.952-1.385-5.683-1.44-5.485-1.387L-5.129-1.291C-4.337-1.079-3.756-2.451-3.677-2.43-3.559-2.398-3.485-2.038-3.406-2.017-3.366-2.007-3.305-2.075-3.242-2.313-3.029-3.104-3.055-3.324-3.11-3.593-3.129-3.683-2.437-6.893-2.653-7.036-2.859-7.218-3.374-7.356-3.342-7.475-3.332-7.515-2.934-8.045-2.877-7.944-2.913-8.124-2.801-8.858-2.684-9.293-2.568-9.729-2.432-10.075-2.432-10.075-2.345-9.924-2.567-10.365-2.163-11.87L-.395-11.183C.595-10.918 1.962-8.895 2.873-8.651 2.952-8.63 3.002-8.659 3.013-8.698 3.034-8.777 2.998-8.957 2.91-9.108 3.162-9.253 3.701-9.363 3.764-9.601 3.86-9.957 4.301-10.178 4.365-10.415 4.418-10.613 4.202-10.756 4.083-10.788 3.964-10.82 3.874-10.802 3.874-10.802L3.345-10.095C3.345-10.095 2.756-9.956 2.405-9.753 1.925-10.179 1.056-9.945 1.268-10.737 1.3-10.856 1.39-10.874 1.469-10.853 1.627-10.81 1.775-10.728 1.933-10.686 2.092-10.643 2.203-10.741 2.224-10.82 2.256-10.939 .692-11.91 .288-12.146 .072-12.289-.244-13.01-1.907-13.456L-1.912-13.755C-1.943-14.272-1.241-17.521-1.301-18.089-1.353-18.528-1.329-18.776-1.275-18.974-1.19-19.291-.987-19.576-.933-19.774-1.018-19.457-.766-20.874-1.301-21.57-1.553-21.892-2.073-22.329-2.14-23.026-2.237-23.774-2.693-24.447-2.693-24.447-2.693-24.447-2.766-24.807-2.885-24.838-2.885-24.838-3.438-23.884-3.492-23.686-3.757-22.696-3.08-21.58-3.261-20.907-3.335-20.63-4.006-20.344-4.07-20.106-4.176-19.71-4.201-18.825-4.467-17.836-4.52-17.638-4.613-17.45-4.655-17.292-4.73-17.015-4.754-16.767-4.617-16.645L-4.245-16.291C-4.205-16.28-4.723-16.249-4.978-15.299-5.096-15.331-6.095-15.089-6.148-14.891-6.265-14.456-5.371-13.834-4.917-13.627-5.107-13.551-5.481-12.633-5.587-12.237-5.704-11.801-5.287-11.774-5.446-11.18-5.743-10.072-5.992-10.096-6.119-9.621-6.183-9.383-6.199-9.005-5.962-8.942-5.843-8.91-5.703-8.957-5.703-8.957L-5.661-8.479C-5.661-8.479-5.76-7.954-5.562-7.901-5.166-7.795-4.983-8.637-4.547-8.52-3.676-8.286-4.044-7.706-4.076-7.587-4.129-7.389-4.193-7.151-4.311-7.183-4.47-7.226-4.609-7.815-4.807-7.868-4.926-7.9-5.026-7.842-5.129-7.615-5.836-6.404-6.194-7.603-6.566-6.218-6.618-6.02-6.497-6.157-6.561-5.919-6.624-5.682-6.781-5.257-6.824-5.099-6.834-5.059-6.756-4.401-6.896-3.718L-7.006-3.153C-7.006-3.153-7.067-3.084-7.099-2.966-7.162-2.728-7.029-1.801-7.009-1.244-7.178-1.247-7.397-1.22-7.674-1.295-7.793-1.327-7.941-1.409-8.06-1.441-8.751-1.711-10.497-3.113-11.724-3.442-12.476-3.644-16.26-3.938-16.302-3.78-16.408-3.384-13.542-2.36-13.787-1.449-13.798-1.41-13.887-1.391-14.045-1.434L-14.243-1.487C-14.758-1.625-16.767-2.206-16.767-2.206-17.411-2.337-14.715-.68-12.696-.138-12.537-.095-12.458-.074-12.437-.154-12.394-.312-13.18-.862-13.159-.941-13.149-.981-13.059-1-12.94-.968-11.752-.649-8.557 .887-6.458 1.451-5.468 1.716-4.357 1.844-3.356 1.434-3.416 1.503-3.538 1.64-3.57 1.759-3.602 1.877-3.544 1.978-3.346 2.031-2.594 2.233-1.833 1.927-1.883 1.956-1.933 1.986-2.034 2.044-2.055 2.123-2.066 2.162-2.036 2.213-1.918 2.245-1.799 2.276-1.68 2.308-1.421 2.293-.038 2.197 5.085 2.086 5.276 1.373 5.308 1.255 5.121 1.162 5.153 1.043 5.174 .964 5.325 .877 5.483 .919 5.602 .951 5.836 1.184 6.074 1.248 6.193 1.28 7.485 .735 7.924 .047 8.231-.465 9.019-1.187 9.147-1.662M-13.789-4.76C-13.789-4.76-14.23-5.176-14.694-5.343-15.317-5.553-16.775-6.92-17.369-7.079-17.527-7.122-18.304-7.076-18.432-6.6-18.559-6.125-16.407-5.76-15.719-5.321-15.719-5.321-14.972-4.781-14.706-4.667-14.468-4.603-13.8-4.721-13.789-4.76"
     fill="#231f20"
     id="path26"
     clip-path="none" />
  <path
     transform="matrix(1 0 0 -1 184.434 143.916)"
     d="M0 0C-.062 .322-.381 .678-.547 1.105-.681 1.581-.568 1.644-.622 1.926-.669 2.168-1.03 2.307-1.03 2.307-1.03 2.307-1.173 2.613-1.091 2.838-.716 3.495-1.633 3.485-2.019 3.536-2.573 3.596-2.466 3.909-3.012 4.138-3.517 4.374-3.597 4.359-3.782 4.448-4.006 4.53-4.61 4.414-5.076 4.449-5.462 4.5-5.858 4.173-6.582 4.033-7.106 3.932-7.687 3.695-7.687 3.695-7.687 3.695-8.408 2.887-8.633 2.76-8.867 2.673-8.852 2.593-9.087 2.297-9.274 1.968-9.486 1.552-9.632 1.44-9.825 1.361-10.918 .315-11.12 .067-11.371-.148-11.26-.294-11.391-.695-11.482-1.089-11.383-.736-11.484-1.298-11.486-1.716-11.577-2.109-11.636-2.454-11.566-2.817-11.567-3.026-11.643-3.5-11.743-4.062-11.516-3.726-11.382-4.201-11.216-4.628-11.418-4.667-11.492-4.932-11.599-5.245-11.273-5.85-11.234-6.052-11.203-6.213-11.142-6.744-11.122-7.283-11.101-7.822-11.444-7.345-11.444-7.345-11.444-7.345-12.077-7.091-12.456-7.29-12.836-7.488-12.634-7.449-12.467-7.668-12.251-7.918-11.86-8.219-11.86-8.219-11.86-8.219-11.408-7.964-11.005-7.886-10.602-7.809-10.773-8.009-10.552-8.718-10.372-9.435-10.209-10.28-9.945-10.563-9.682-10.846-9.778-10.782-9.05-11.309-8.362-11.845-8.522-11.667-7.921-11.968-7.36-12.277-6.792-11.541-6.228-11.433L-5.53-11.59-4.747-11.105C-4.747-11.105-4.313-11.188-4.04-11.303-3.776-11.377-3.508-11.033-3.314-10.953-3.129-10.834-2.771-10.306-2.771-10.306-2.771-10.306-2.706-10.21-2.641-10.114-2.833-9.984-3.058-9.902-2.928-9.71-2.798-9.518-2.458-9.118-2.458-9.118-1.627-8.665-1.962-9.524-.949-8.284-.681-7.94-.944-7.657-.944-7.657-.944-7.657-.868-7.183-.325-6.535 .218-5.888 .155-5.565 .23-5.3 .304-5.036 .025-4.672-.029-4.39-.076-4.149 .249-3.668 .338-3.484 .42-3.259 .237-2.96 .256-2.623 .234-2.293 .195-2.092 .195-2.092 .195-2.092 .062-.322 0 0M-11.712 6.592C-11.627 7.235-11.017 9.483-10.782 7.398-11.118 7.625-11.557 6.873-11.712 6.592M-12.946-1.078C-12.873-1.023-12.84-.975-12.76-.959-12.814-.678-12.834-.138-13.27-.264L-13.424-.545C-13.506-.769-13.178-.957-12.946-1.078M3.064 .132C3.064 .132 3.132-.648 3.089-1.074 3.038-1.46 2.902-2.488 2.915-2.987 2.96-3.437 2.886-3.702 2.483-3.78 2.081-3.858 1.455-3.644 1.452-4.062 1.49-4.473 1.475-5.478 1.522-5.719 1.568-5.961 1.104-6.802 .781-7.073 .668-7.137 .611-7.273 .576-7.53 .576-7.53 .809-7.652 .91-8.176 1.011-8.699 .707-8.424 .522-8.543 .409-8.607 .28-8.589 .119-8.621 .054-8.717-.167-9.303-.297-9.494-.46-9.734-1.26-10.349-1.26-10.349-1.26-10.349-1.86-11.133-1.942-11.357-2.024-11.582-1.654-11.552-2.445-11.997-3.243-12.402-4.322-13.737-5.716-14.089-7.109-14.442-9.315-14.91-10.326-14.437-11.376-13.971-10.791-13.107-10.791-13.107-10.791-13.107-10.578-12.481-10.875-12.455-11.124-12.461-11.589-12.217-11.446-12.523-11.304-12.83-10.958-12.888-11.144-13.008-11.337-13.087-11.278-13.827-11.455-13.778-11.664-13.776-11.698-14.033-12.008-13.509-12.286-12.936-12.836-12.248-13.017-11.741-13.159-11.225-13.704-10.996-13.771-10.216-13.838-9.435-15.006-8.575-15.006-8.575-15.328-8.637-15.375-8.396-15.389-8.106-15.355-7.849-15.41-7.567-15.255-7.287-15.148-6.974-15.379-6.643-15.079-6.251-14.739-5.851-14.471-5.507-14.5-5.137-14.498-4.719-14.463-4.253-14.285-4.093-14.114-3.893-13.936-3.734-13.719-3.775-13.551-3.784-13.133-3.787-13.339-3.368-13.26-3.561-14.835-1.026-13.975-1.152-13.975-1.152-13.317 1.063-13.297 1.609-13.278 2.156-12.207 4.617-11.944 4.334-11.681 4.051-11.869 2.428-11.869 2.428-11.869 2.428-11.448 2.843-11.026 3.259-10.565 3.682-10.109 4.563-9.907 4.811-9.664 5.067-9.806 5.373-8.944 5.665-8.041 5.964-8.115 5.7-7.84 6.004-7.572 6.347-7.416 6.837-6.49 7.015-5.604 7.187-4.783 7.47-4.816 7.213-4.802 6.924-4.371 6.422-3.975 6.749-3.587 7.116-4.172 7.338-3.288 7.299-2.991 7.273-2.716 7.368-2.403 7.262-1.954 7.097-1.295 7.141-1.377 6.917-1.499 6.685-1.516 6.556-1.694 6.396-1.872 6.236-2.178 6.094-2.059 5.908-1.988 5.755-1.572 5.334-1.572 5.334-1.572 5.334-1.049 5.435-.866 5.136-.643 4.845-.879 4.34-.879 4.34-1.252 3.892-.863 3.174-.25 3.459-.178 3.516 .066 3.771-.059 4.415-.137 4.818 .304 4.485-.199 5.14-.278 5.333-.219 5.679-.219 5.679-.219 5.679-.408 6.227 .184 5.757 .743 5.238 1.016 5.124 1.07 4.842 1.116 4.6 .963 4.529 1.131 4.311 1.217 4.077 1.706 3.712 1.706 3.712L2.264 2.984C2.264 2.984 2.598 2.548 2.532 2.243 2.458 1.978 3.064 .132 3.064 .132"
     fill="#231f20"
     id="path27"
     clip-path="none" />
  <path
     transform="matrix(1 0 0 -1 197.125 148.807)"
     d="M0 0C0 0-.037-1.159-.73-1.236-1.463-1.317-.539-.348 0 0M-3.85-3.975C-3.393-3.635-2.881-3.414-2.881-3.414-2.881-3.414-3.438-4.713-3.85-3.975M-5.949 6.024C-6.076 6.051-6.166 6.124-6.166 6.124-6.166 6.124-6.121 6.087-6.067 5.97-6.026 5.974-5.989 6.019-5.949 6.024M12.482 9.098C11.798 8.569 13.329 8.161 11.449 7.623 9.805 7.193 9.728 7.143 8.669 7.026 8.515 5.812 8.41 5.635 8.505 4.78 8.523 4.617 8.546 4.413 8.523 4.245 8.718 3.236 8.916 1.814 8.989 .419 9.006-.116 8.888-1.284 8.599-1.275 8.033-1.75 8.132-2.647 8.122-3.679 8.073-4.716 8.267-4.983 8.031-6.948 7.795-8.914 6.93-7.813 6.93-7.813 6.93-7.813 7.519-6.428 6.899-6.043 6.238-5.662 6.501-5.055 6.434-4.444 6.37-3.874 6.592-3.271 6.38-1.356L6.348-1.07 6.408 .999 6.752 2.729C6.576 2.833 6.408 2.856 6.195 2.914 5.729 3.028 5.951 3.63 6.051 4.218 6.146 4.848 6.304 6.021 6.304 6.021L7.256 6.745C7.256 6.745 7.125 6.813 6.989 6.922 5.956 6.931 5.159 7.049 4.439 6.845 3.434 6.61 2.487 5.474 2.487 5.474L2.03 5.877C2.03 5.877 1.885 7.181 1.233 6.367 .581 5.551 2.066 5.551 1.364 5.184L.662 4.818-.438 5.438C-.438 5.438-1.52 5.896-1.475 5.489-1.425 5.04-.356 4.705-.356 4.705-.356 4.705 .549 4.351-1.041 4.175L-2.671 3.995-4.374 3.352C-4.374 3.352-3.527 3.9-5.107 3.271-5.103 2.116-4.972 .934-5.04 .06-5.063-.85-4.442-1.235-4.095-3.259-4.018-3.581-3.95-3.821-3.85-3.975-4.158-4.174-4.421-4.41-4.521-4.627-4.738-5.27-3.719-5.157-3.719-5.157-3.719-5.157-2.8-4.147-2.016-3.029-1.273-1.915-1.844-3.464-2.179-4.532-2.474-5.596-4.245-7.113-5.296-8.426-6.306-9.734-6.967-9.354-7.456-10.15-7.946-10.947-7.936-9.915-7.936-9.915-7.936-9.915-8.003-7.818-8.039-6.378-8.039-4.893-7.591-4.843-7.355-4.363-6.889-3.363-7.654-2.787-8.383-3.281-9.221-3.539-8.731-1.257-8.332-.758-7.975-.265-8.64 .528-8.64 .528L-8.78 1.791C-10.795 .99-13.05 .121-14.346-.105-16.655-.485-16.433 .118-15.283 .534-14.173 .946-15.753 1.802-15.753 1.802-15.753 1.802-15.821 2.413-15.242 2.766-14.702 3.115-13.553 2.046-13.136 2.381-12.724 2.756-13.204 2.992-13.204 2.992L-12.85 3.897-8.548 5.282C-8.616 6.265-8.733 7.696-8.914 8.212-9.131 9.054-8.755 10.87-8.822 11.481-8.886 12.052-8.6 13.569-8.808 15.444L-7.105 16.086C-7.105 16.086-6.267 16.344-5.869 16.842-5.466 17.299-5.515 17.747-5.515 17.747-5.515 17.747-4.963 17.974-4.275 18.463-3.59 18.992-4.284 17.43-4.239 17.023-4.189 16.574-4.253 15.66-4.62 14.877-4.946 14.098-4.647 14.007-4.697 12.97-4.706 11.937-6.056 10.715-6.056 10.715L-5.024 10.706C-5.024 10.706-4.942 9.972-5.056 9.506-5.129 9.044-5.817 8.555-5.817 8.555-5.817 8.555-5.328 7.867-5.319 6.672-5.333 6.422-5.355 6.255-5.428 6.164-3.666 6.648-1.977 7.042-.958 7.155 .672 7.336 3.407 7.969 5.699 8.512 5.663 9.209 5.898 10.06 5.921 10.599 6.043 11.355 5.527 11.917 5.455 12.569 5.451 12.609 5.401 12.687 5.396 12.727 5.206 13.325 5.696 14.122 5.772 14.543 5.886 15.01 5.705 16.64 5.09 16.984 5.09 16.984 5.162 17.446 5.257 18.075 5.316 18.66 5.742 17.799 6.294 18.025 6.847 18.252 7.345 19.338 7.658 20.239 8.007 21.185 8.283 20.185 8.364 19.451 8.445 18.718 8.341 17.056 8.241 16.467 8.141 15.878 8.272 14.697 7.996 13.469 7.678 12.238 8.24 11.268 8.57 9.407 8.579 9.326 8.583 9.285 8.629 9.249 10.92 9.792 11.441 10.303 12.355 10.24 13.225 10.212 13.166 9.628 12.482 9.098"
     fill="#231f20"
     id="path28"
     clip-path="none" />
  <path
     transform="matrix(1 0 0 -1 240.495 159.036)"
     d="M0 0C.001-.123-.08-.411-.367-.412-.777-.414-1.395 .239-1.395 .239-1.519 .32-1.56 .361-1.56 .402-1.56 .484-1.438 .484-1.273 .485-.863 .487-.124 .368-.124 .368-.124 .368-.001 .205 0 0M-18.522 13.599C-18.276 13.6-18.152 13.478-18.152 13.314-18.151 13.15-18.394 12.616-18.681 12.614-18.968 12.613-19.257 12.98-19.258 13.226-19.26 13.349-19.219 13.431-19.096 13.473-18.891 13.556-18.687 13.598-18.522 13.599M-.913 2.127C-.912 1.922-3.494 1.704-3.862 1.579-4.395 1.453-4.558 1.247-4.926 1.245-5.337 1.243-7.348 1.766-7.348 1.684-7.348 1.684-7.799 1.641-8.291 1.638-9.152 1.592-10.137 1.833-11.124 2.443-11.906 2.931-17.129 5.856-18.114 6.097-18.895 6.38-20.165 6.292-20.414 6.659-20.911 7.6-21.487 8.007-22.389 8.002-22.675 8.001-22.674 7.796-22.757 7.795-22.839 7.795-22.962 7.876-23.251 8.203-24.034 8.978-24.732 9.261-25.102 9.259-26.004 9.255-26.623 10.031-28.758 10.634-28.754 9.814-29.735 9.153-29.732 8.702-29.729 8.169-29.194 7.803-29.191 7.106-29.188 6.614-29.719 6.16-29.717 5.75-29.715 5.504-29.346 5.506-29.344 5.055-29.342 4.604-30.406 4.188-30.446 4.065-30.528 3.983-30.931 2.709-31.219 2.831L-31.588 2.829-31.717 3.976-31.517 4.962-31.241 7.095-31.659 8.569-31.377 9.514C-31.294 9.514-31.708 10.127-31.711 10.66-31.714 11.234-31.265 11.606-31.02 11.853L-31.513 12.055C-32.54 12.46-32.539 12.214-33.114 12.539-33.69 12.823-35.123 12.405-35.127 13.103-35.13 13.799-33.902 14.175-33.861 14.175L-34.683 14.581C-34.518 14.5-32.144 15.127-31.202 15.46-31.244 15.583-31.285 15.665-31.285 15.665L-31.206 16.239-30.806 18.086C-30.847 18.086-31.06 19.684-31.061 19.807-31.063 20.217-31.123 23.784-29.564 23.792-29.359 23.794-29.195 23.753-29.195 23.753-29.195 23.753-28.827 23.919-27.641 24.417-27.272 24.542-27.027 24.626-26.863 24.627-26.576 24.628-26.534 24.464-26.533 24.382-26.533 24.382-26.526 23.029-26.684 21.716-26.92 19.993-28.025 19.413-28.021 18.675-28.02 18.511-27.978 18.347-27.977 18.183-27.975 17.691-28.258 17.074-28.298 16.705L-27.683 16.831C-27.397 16.956-26.455 17.248-26.088 17.537-25.638 17.867-25.026 18.403-24.328 18.407-24.001 18.409-23.755 18.328-23.426 18.33-23.344 18.33-22.491 19.893-21.466 19.898-20.933 19.901-19.139 21.714-19.14 22.084-19.142 22.37-19.35 22.82-19.596 22.819-19.759 22.818-19.964 22.735-20.169 22.734-20.948 22.73-21.078 24.082-21.734 24.079-22.226 24.077-23.828 24.56-23.828 24.56L-25.265 25.004C-24.692 25.171-27.73 25.729-28.959 25.723-29.452 25.72-29.655 25.473-30.065 25.471-30.229 25.47-30.434 25.51-30.64 25.509-31.213 25.506-31.904 24.231-31.902 23.78-31.901 23.698-31.693 22.961-31.774 22.961-32.266 22.958-32.806 24.267-33.136 24.594-33.177 24.594-33.217 24.307-33.215 23.897-33.211 23.322-33.084 22.462-32.628 21.562-32.38 21.113-32.338 20.949-32.338 20.908-32.666 20.906-34.199 23.974-34.207 25.449-34.21 26.065-34.049 26.681-33.437 27.217-32.743 27.835-30.699 28.994-30.207 28.996-30.125 28.997-30.083 28.956-30.083 28.915-30.083 28.833-30.328 28.627-30.327 28.504-30.327 28.422-30.244 28.381-30.039 28.382-29.26 28.387-28.236 28.597-27.457 28.601-26.227 28.607-22.695 27.641-22.41 27.971-22.41 27.971-22.288 28.054-22.082 28.054-21.549 28.058-20.559 26.832-19.78 26.836-19.206 26.839-19.455 27.33-19.373 27.331-19.25 27.331-18.916 26.308-18.874 26.226-18.753 26.309-18.589 26.351-18.384 26.352-18.219 26.353-18.096 26.312-17.891 26.231L-16.74 25.663-16.778 25.171-16.284 24.763-15.953 24.273C-15.993 24.027-15.662 23.29-15.658 22.634-15.646 20.216-17.781 20.86-18.226 19.792-18.551 19.052-19.489 18.145-20.104 18.142-20.883 18.138-22.766 17.472-22.764 17.144-22.763 17.021-22.722 16.939-22.722 16.857-22.722 16.857-24.439 15.864-24.93 15.698-25.216 15.532-25.832 15.693-26.282 15.404-27.671 14.412-27.469 15.152-28.777 14.16L-28.732 13.464C-27.909 12.976-27.045 12.283-26.757 12.285-26.635 12.285-26.512 12.327-26.306 12.328-25.979 12.371-25.568 12.209-24.867 11.598-23.467 10.334-22.276 9.889-22.275 9.766-22.274 9.684-22.315 9.643-22.315 9.602-22.313 9.274-17.14 7.947-17.099 7.948-16.194 7.501-13.479 5.834-12.411 5.43-11.672 5.147-8.344 3.893-7.359 3.816-6.375 3.739-3.587 3.836-2.353 3.145-1.531 2.698-.914 2.332-.913 2.127"
     fill="#231f20"
     id="path29"
     clip-path="none" />
  <path
     transform="matrix(1 0 0 -1 234.758 133.242)"
     d="M0 0C.291 .579 1.607 2.501 1.143 .455 .901 .78 .238 .214 0 0M-3.689-6.838C-3.602-6.809-3.555-6.775-3.474-6.786-3.433-6.502-3.275-5.987-3.727-5.962L-3.966-6.176C-4.116-6.362-3.868-6.646-3.689-6.838M8.891-10.078C8.939-9.754 8.753-9.312 8.738-8.854 8.768-8.361 8.896-8.338 8.937-8.055 8.972-7.811 8.677-7.561 8.677-7.561 8.677-7.561 8.643-7.225 8.795-7.04 9.364-6.542 8.496-6.25 8.148-6.075 7.644-5.836 7.848-5.576 7.408-5.18 7.008-4.79 6.928-4.779 6.784-4.633 6.598-4.482 5.989-4.393 5.561-4.207 5.213-4.032 4.732-4.211 4.002-4.104 3.474-4.028 2.847-4.061 2.847-4.061 2.847-4.061 1.901-4.586 1.645-4.632 1.396-4.637 1.385-4.718 1.066-4.92 .781-5.168 .443-5.492 .269-5.55 .061-5.561-1.315-6.189-1.589-6.357-1.896-6.478-1.839-6.652-2.094-6.987-2.31-7.329-2.1-7.028-2.38-7.526-2.52-7.92-2.736-8.261-2.905-8.568-2.958-8.933-3.028-9.13-3.255-9.553-3.535-10.051-3.21-9.808-3.24-10.301-3.224-10.759-3.427-10.73-3.584-10.955-3.787-11.216-3.679-11.894-3.709-12.097-3.732-12.26-3.85-12.781-4.007-13.297-4.165-13.812-4.332-13.249-4.332-13.249-4.332-13.249-4.847-12.802-5.271-12.864-5.694-12.927-5.491-12.956-5.405-13.217-5.284-13.525-5.012-13.937-5.012-13.937-5.012-13.937-4.502-13.846-4.096-13.905-3.69-13.964-3.917-14.097-3.942-14.839-4.008-15.575-4.132-16.428-3.976-16.782-3.821-17.136-3.89-17.043-3.376-17.781-2.902-18.513-2.995-18.292-2.526-18.774-2.099-19.251-1.32-18.743-.752-18.825L-.144-19.204 .755-19.003C.755-19.003 1.138-19.225 1.358-19.423 1.583-19.58 1.948-19.343 2.158-19.332 2.373-19.28 2.883-18.899 2.883-18.899 2.883-18.899 2.977-18.83 3.069-18.76 2.931-18.574 2.746-18.423 2.932-18.284 3.118-18.146 3.571-17.88 3.571-17.88 4.504-17.726 3.905-18.426 5.27-17.589 5.636-17.352 5.481-16.998 5.481-16.998 5.481-16.998 5.708-16.575 6.433-16.142 7.16-15.709 7.207-15.385 7.364-15.159 7.521-14.933 7.377-14.498 7.419-14.214 7.454-13.971 7.919-13.624 8.064-13.479 8.216-13.294 8.141-12.952 8.27-12.639 8.357-12.32 8.387-12.118 8.387-12.118 8.387-12.118 8.844-10.403 8.891-10.078M11.828-10.962C11.828-10.962 11.635-11.72 11.454-12.108 11.279-12.456 10.813-13.382 10.661-13.857 10.555-14.298 10.399-14.524 9.993-14.465 9.587-14.405 9.066-13.998 8.926-14.392 8.826-14.792 8.482-15.736 8.446-15.98 8.411-16.223 7.696-16.865 7.301-17.014 7.174-17.037 7.074-17.147 6.958-17.379 6.958-17.379 7.137-17.571 7.06-18.098 6.984-18.626 6.788-18.266 6.573-18.317 6.445-18.34 6.33-18.282 6.167-18.258 6.075-18.328 5.673-18.808 5.487-18.946 5.255-19.12 4.297-19.436 4.297-19.436 4.297-19.436 3.472-19.979 3.321-20.164 3.17-20.349 3.529-20.443 2.635-20.603 1.748-20.723 .29-21.629-1.141-21.504-2.573-21.378-4.811-21.094-5.609-20.314-6.448-19.53-5.611-18.906-5.611-18.906-5.611-18.906-5.204-18.385-5.476-18.262-5.713-18.186-6.073-17.802-6.038-18.139-6.004-18.475-5.697-18.644-5.912-18.696-6.121-18.707-6.308-19.425-6.459-19.321-6.656-19.25-6.772-19.482-6.892-18.884-6.966-18.252-7.26-17.422-7.264-16.883-7.228-16.35-7.668-15.954-7.474-15.195-7.28-14.436-8.101-13.24-8.101-13.24-8.426-13.192-8.39-12.949-8.309-12.671-8.192-12.439-8.15-12.155-7.912-11.941-7.709-11.681-7.818-11.292-7.405-11.021-6.952-10.755-6.586-10.518-6.493-10.159-6.352-9.765-6.165-9.336-5.945-9.244-5.719-9.111-5.498-9.019-5.307-9.13-5.15-9.194-4.757-9.335-4.814-8.87-4.802-9.079-5.456-6.166-4.686-6.569-4.686-6.569-3.335-4.694-3.137-4.184-2.938-3.674-1.119-1.702-.963-2.056-.807-2.41-1.518-3.881-1.518-3.881-1.518-3.881-.984-3.627-.45-3.373 .125-3.125 .846-2.443 1.118-2.276 1.432-2.114 1.398-1.778 2.308-1.786 3.259-1.8 3.102-2.026 3.462-1.83 3.829-1.593 4.137-1.182 5.069-1.318 5.962-1.448 6.832-1.45 6.716-1.682 6.634-1.96 6.876-2.575 7.357-2.397 7.845-2.178 7.365-1.776 8.187-2.103 8.46-2.226 8.749-2.227 9.01-2.43 9.38-2.733 10.018-2.908 9.866-3.094 9.674-3.273 9.616-3.389 9.395-3.481 9.175-3.573 8.839-3.607 8.89-3.821 8.907-3.99 9.161-4.524 9.161-4.524 9.161-4.524 9.688-4.6 9.763-4.943 9.878-5.291 9.488-5.69 9.488-5.69 8.989-5.99 9.12-6.797 9.793-6.729 9.88-6.7 10.193-6.538 10.288-5.889 10.347-5.484 10.653-5.943 10.394-5.159 10.383-4.95 10.552-4.644 10.552-4.644 10.552-4.644 10.554-4.064 10.958-4.702 11.316-5.376 11.536-5.574 11.494-5.858 11.458-6.101 11.291-6.118 11.377-6.38 11.382-6.629 11.723-7.134 11.723-7.134L12.01-8.005C12.01-8.005 12.183-8.527 12.019-8.793 11.863-9.019 11.828-10.962 11.828-10.962"
     fill="#231f20"
     id="path30"
     clip-path="none" />
  <path
     transform="matrix(1 0 0 -1 251.741 136.81)"
     d="M0 0-.559 .352C-.903 .876-1.076 1.183-.838 1.208-.545 1.252-.429 1.016-.17 .894 .127 .755 .708 1.027 .569 .73 .412 .396 0 0 0 0M-2.689-13.182C-3.024-13.026-3.301-12.941-3.291-13.308-3.317-13.748-2.957-13.464-2.689-13.182M-7.053-19.695C-6.792-19.137-7.162-19.734-7.609-20.204-7.39-20.125-7.193-19.991-7.053-19.695M24.84-11.048C24.389-11.335 23.495-11.505 23.113-11.643 22.731-11.781 22.701-12.039 22.27-12.38 21.893-12.701 22.097-12.751 21.922-13.122 21.748-13.494 21.285-14 21.123-14.151 20.962-14.302 20.873-14.396 20.862-14.708 20.89-15.038 20.653-15.154 20.255-15.329 19.674-15.601 19.174-16.09 18.861-16.758 18.617-17.278 18.278-16.938 17.949-16.965 17.637-16.955 17.448-17.455 17.448-17.455 17.448-17.455 17.561-17.599 17.444-18.042 17.31-18.522 16.849-18.442 16.849-18.442L16.124-18.057C16.124-18.057 16.105-18.773 16.206-19.137 16.288-19.447 14.651-21.396 14.276-21.809 13.921-22.277 13.633-22.504 13.529-22.727 13.408-22.987 13.1-23.16 13.1-23.16L12.166-23.22C12.166-23.22 12.43-23.525 12.787-23.828 13.106-24.113 13.33-23.539 13.245-23.816 13.198-24.111 12.706-24.967 12.772-25.406 12.819-25.79 13.166-25.726 13.6-26.246 14.016-26.713 13.289-26.236 12.957-26.171 12.679-26.086 12.286-25.766 12.185-25.402 12.104-25.093 11.729-25.506 11.729-25.506 11.729-25.506 11.837-26.145 12.361-26.572 12.941-26.979 17.262-27.418 13.257-27.172 9.199-26.946 9.438-25.564 9.107-24.821 8.832-24.057 10.253-22.279 10.534-21.776 10.834-21.328 11.174-20.99 11.843-20.624 12.475-20.241 11.968-20.456 12.128-20.305 12.29-20.154 12.862-19.608 12.938-18.964 12.976-18.302 13.881-17.142 14.058-16.863 14.289-16.563 15.159-16.156 15.149-15.789 15.14-15.423 15.785-14.819 15.785-14.819 15.785-14.819 16.052-14.538 16.266-14.276 16.479-14.013 16.359-13.594 16.359-13.594 16.359-13.594 16.948-13.689 17.186-13.665 17.461-13.658 17.778-13.173 17.533-12.922 17.326-12.689 16.223-13.304 15.802-13.333 15.381-13.362 14.657-13.748 14.657-13.748 14.657-13.748 13.817-13.898 13.255-14.132 12.638-14.387 13.135-14.484 13.122-14.704 13.109-14.925 12.833-14.84 12.661-14.624 12.528-14.426 12.242-13.975 12.242-13.975 12.242-13.975 11.836-13.875 11.749-14.06 11.661-14.246 12.055-14.566 11.634-14.596 11.213-14.625 9.56-15.253 9.215-15.409 8.926-15.545 8.269-15.69 7.926-15.937 7.565-16.13 6.723-16.188 6.636-16.374 6.549-16.559 5.868-16.467 5.665-16.417 5.407-16.387 5.586-16.199 5.47-15.963 5.299-15.748 5.095-16.376 5.095-16.376 5.095-16.376 5.321-16.573 5.62-16.803 5.936-16.997 4.874-17.042 4.874-17.042 4.874-17.042 4.305-17.002 3.859-16.793 3.376-16.567 3.721-16.412 3.721-16.412 3.721-16.412 3.365-15.43 3.17-14.976 2.975-14.523 2.592-13.891 2.494-13.618 2.396-13.346 1.913-12.441 1.863-11.874 1.757-11.326 1.506-10.122 1.069-9.51 1.066-9.418 1.009-9.346 .99-9.292 .835-9.717 .644-10.126 .357-10.353-.199-10.863-.961-11.909-1.138-12.189-1.351-12.451-1.689-13.56-2.095-13.461-2.108-13.681-2.175-13.921-2.265-14.015-2.443-14.203-2.989-15.079-2.989-15.079-2.989-15.079-2.93-15.243-3.123-15.559-3.337-15.821-3.921-16.68-3.921-16.68-3.921-16.68-4.037-17.123-4.199-17.274-4.36-17.425-4.719-17.709-4.955-17.825-5.153-17.959-6.037-19.265-6.466-19.698-6.877-20.094-7.553-20.955-7.974-20.984-8.394-21.013-8.528-20.814-9.309-21.128-10.127-21.424-11.446-22.888-10.687-21.75-9.891-20.629-9.38-20.506-9-20.276-8.928-20.219-8.708-20.232-8.47-20.208-8.495-19.97-8.375-19.618-8.375-19.618-8.375-19.618-8.675-19.387-9-19.597-9.379-19.827-9.787-19.636-9.39-19.369-9.031-19.085-8.327-18.645-8.223-18.422-8.101-18.162-8.619-18.01-8.619-18.01L-7.988-16.857C-7.439-16.073-6.145-15.049-6.145-15.049-6.145-15.049-5.463-15.142-5.636-14.835-5.809-14.527-5.958-14.458-5.945-14.237L-5.932-14.017C-5.932-14.017-5.772-13.866-5.598-13.495-5.423-13.124-5.747-12.655-5.028-12.086-4.289-11.572-3.843-11.102-3.843-11.102L-3.365-11.145C-3.365-11.145-3.403-11.807-2.93-11.666L-2.456-11.526-2.45-11.03C-2.562-10.978-2.673-10.926-2.879-10.785L-3.792-10.221C-3.792-10.221-4.044-9.695-3.793-9.45-3.506-9.223-3.84-9.067-3.482-8.691-3.18-8.334-2.697-7.882-2.697-7.882-2.697-7.882-2.618-7.33-2.336-6.919-2.053-6.509-1.115-5.182-1.028-4.996-.941-4.811-.634-4.638-.385-4.301-.137-3.965-.121-3.158 .041-3.007 .113-2.95 .367-2.888 .603-2.772 .493-2.042 .407-1.548 .407-1.548 .345-1.293-.077-.552-.077-.552L.581-.499C.581-.499 .83-.162 1.271-.188 1.732-.268 2.062-1.011 2.062-1.011 2.062-1.011 2.149-.826 2.784-1.304 3.38-1.674 3.45-2.204 3.625-2.603 3.714-2.509 3.878-2.45 4.004-2.374 4.477-2.233 5.21-2.214 5.21-2.214 5.21-2.214 5.007-2.843 4.885-3.103 4.763-3.363 4.398-3.464 4.398-3.464L4.581-4.138C4.581-4.138 4.697-4.373 4.407-4.509 4.226-4.606 4.137-4.7 4.01-4.776 4.208-5.321 3.949-5.97 3.862-6.155 3.758-6.378 3.983-6.574 4.143-7.102 4.303-7.63 3.893-7.347 3.893-7.347 3.893-7.347 3.83-7.77 3.966-8.06 4.064-8.333 4.218-8.586 4.218-8.586 4.218-8.586 4.363-9.242 4.073-9.378 3.766-9.551 3.95-10.316 4.446-10.322 4.941-10.328 4.93-10.64 4.93-10.64L4.826-10.863C4.826-10.863 4.618-11.308 5.059-12.104 5.502-12.9 5.495-12.625 6.135-13.287 6.813-13.966 5.488-13.799 5.401-13.984 5.314-14.17 5.465-14.331 5.725-14.453 5.762-14.47 5.781-14.525 5.819-14.542 6.195-14.899 6.397-14.179 6.59-13.862 6.803-13.6 7.846-13.5 8.176-13.473 8.488-13.483 8.671-13.479 8.948-13.564 9.243-13.611 9.53-13.384 9.53-13.384 9.53-13.384 10.364-12.959 10.732-13.041 11.101-13.124 10.19-13.33 10.729-13.628 11.214-13.946 11.206-12.901 11.661-12.797 12.318-12.652 13.761-11.698 14.54-12.063 14.726-12.15 14.91-12.146 15.031-11.886 15.135-11.663 16.087-11.566 16.087-11.566 16.087-11.566 15.712-11.979 16.225-11.947 16.756-11.879 17.215-11.188 17.923-10.932 18.595-10.658 19.043-10.279 19.043-10.279 19.564-9.844 25.231-9.828 23.86-10.725 23.86-10.725 25.346-10.742 24.84-11.048"
     fill="#231f20"
     id="path31"
     clip-path="none" />
  <path
     transform="matrix(1 0 0 -1 282.233 169.865)"
     d="M0 0 .248 .215C.836 .727 .916 1.883 1.999 2.825 2.34 3.121 2.707 3.386 3.017 3.655 3.666 4.22 4.078 6.371 4.41 6.551 4.22 6.332 4.853 7.48 4.53 7.851 4.61 7.758 2.992 8.307 2.28 7.688 1.755 7.231 1.581 7.243 1.419 7.429 1.15 7.738 .85 8.02 1.098 8.236 1.19 8.316 1.31 8.366 1.399 8.389L.089 8.771C.116 8.74-.872 7.501-.629 7.222-.549 7.13-.406 7.091-.317 7.114-.707 6.937-3.716 5.897-4.159 5.783-4.904 5.515-6.044 5.013-6.399 4.922L-6.33 4.656C-6.308 4.567-6.257 4.447-6.177 4.354-5.908 4.045-4.861 4.466-4.565 4.126-4.404 3.94-4.366 3.647-4.366 3.647L-4.06 3.044C-4.09 3.017-3.791 2.735-3.101 2.628-2.468 2.526-1.446 1.35-1.069 .918-.8 .608-.358 .286 0 0M1.488-2.836C1.383-3.09 1.221-3.34 1.12-3.536 .406-4.591 .907-4.917-.125-5.978-1.189-7.066 .084-6.72-1.339-7.957-1.401-8.011-1.459-8.007-1.485-7.976-1.566-7.883-1.563-6.575-1.778-6.328-1.805-6.297-1.862-6.293-1.894-6.32-1.897-6.378-2.622-7.17-2.272-7.572-1.518-8.439-1.589-10.294-2.147-11.214-2.279-11.437-2.131-12.232-2.203-12.838-2.27-13.385-2.766-14.251-2.976-14.76-3.528-16-3.205-16.371-3.824-16.909-4.009-17.071-4.303-17.109-4.656-16.765-5.275-16.053-5.651-15.184-5.691-14.513-3.83-11.591-3.88-11.471-3.968-11.058-3.995-11.027-3.99-10.969-3.987-10.911L-3.756-10.114C-3.81-10.052-3.29-10.088-2.856-9.711-2.702-9.577-3.301-8.576-3.362-8.63-3.61-8.845-3.794-9.82-4.32-10.277-4.691-10.601-4.603-11.828-4.886-12.563-5.065-13.045-5.584-13.387-5.7-13.814-5.656-13.178-6.015-12.078-6.384-11.529-6.833-10.887-5.763-8.055-5.26-7.509-4.726-6.936-3.83-5.342-2.979-4.384-2.127-3.426-1.926-3.033-1.502-1.958-1.331-1.593-1.134-1.258-.878-.927-.936-.923-.963-.892-.99-.861-1.952-.067-1.93-.592-2.468 .027-2.602 .182-2.653 .302-2.653 .302L-3.031 1.113C-3.031 1.113-3.416 1.43-3.602 1.269-4.128 .811-4.89 1.562-5.213 1.933-5.32 2.057-5.316 2.115-5.285 2.141-5.162 2.249-4.787 2.194-4.787 2.194-4.787 2.194-5.226 2.573-5.511 2.652-5.823 2.76-5.777 2.583-6.403 2.365-6.967 2.2-8.225 3.334-9.525 4.268-9.511 4.064-11.075 3.301-11.224 3.66-11.224 3.66-11.219 4.154-11.381 4.339-11.488 4.463-11.817 4.341-12.063 4.125-12.559 3.695-12.194 3.088-12.628 2.712-12.937 2.443-14.269 2.099-14.888 1.561-15.104 1.373-15.294 1.154-15.541 .939-16.036 .508-16.607 .228-16.957 .63-17.334 1.064-18.299 .985-18.891 1.666-19.079 1.882-19.121 2.118-18.873 2.333-17.109 3.867-14.707 2.479-13.16 3.824-12.634 4.281-13.394 4.218-12.404 5.079-12.187 5.268-11.82 5.532-11.484 5.771-13.866 7.448-14.51 7.813-14.913 8.277-15.048 8.431-14.846 8.824-14.567 9.066-14.134 9.443-12.139 9.711-11.816 9.34-11.682 9.185-11.64 8.949-11.533 8.826-11.317 8.578-9.824 8.736-9.151 7.962-8.909 7.684-8.729 7.351-8.514 7.104L-8.101 7.191C-8.101 7.191-7.488 7.236-7.271 7.424-7.178 7.505-7.201 7.594-7.108 7.674-6.891 7.862-6.282 7.849-6.282 7.849L-5.773 7.639C-5.773 7.639-5.33 7.754-5.051 7.996-4.865 8.157-4.969 8.339-4.784 8.5-4.35 8.877-.578 10.038 .682 9.776 1.742 9.556 1.975 9.976 2.657 9.754 2.8 9.715 3.827 9.034 3.951 9.141 3.92 9.114 4.289 9.815 3.939 10.217 3.454 10.774 3.32 10.929 3.939 11.467 4.063 11.575 4.187 11.682 4.333 11.701 5.803 11.947 5.218 12.308 6.816 11.47 7.714 11 8.767 11.101 9.439 10.328 9.601 10.142 9.681 9.613 9.463 9.425 9.309 9.29 8.981 9.168 8.424 8.684 7.496 7.877 8.027 7.578 7.44 7.067 7.037 6.717 7.201 6.153 6.737 5.75L6.335 5.4C5.778 4.915 5.83 4.418 5.528 3.829 5.326 3.436 4.971 3.344 5.051 2.816 5.134 2.345 4.808 1.845 4.808 1.845 4.808 1.845 4.128 1.688 3.944 1.527 3.665 1.285 2.754 2.395 2.661 2.314 2.039 1.718 3.807 1.246 2.843-.082 2.2-.967 3.187-.978 2.565-1.574L2.752-1.79C2.914-1.976 2.937-2.065 3.099-2.251 4.552-3.921 5.797-3.979 6.901-5.247 7.68-6.144 7.547-4.304 8.919-5.882 9.216-6.223 8.875-6.519 9.171-6.859L9.359-7.076C9.682-7.447 9.793-7.949 9.793-7.949 9.874-8.041 7.478-6.973 6.939-6.355 6.132-5.426 6.013-6.726 3.698-4.065L3.053-3.323C1.976-2.085 1.839-2.802 1.488-2.836"
     fill="#231f20"
     id="path32"
     clip-path="none" />
</svg>
