<?xml version="1.0" encoding="UTF-8" standalone="no"?>
<svg
   version="1.1"
   width="320pt"
   height="320pt"
   viewBox="0 0 320.00001 320.00001"
   id="svg32"
   sodipodi:docname="notitile.svg"
   inkscape:version="1.3 (0e150ed6c4, 2023-07-21)"
   xmlns:inkscape="http://www.inkscape.org/namespaces/inkscape"
   xmlns:sodipodi="http://sodipodi.sourceforge.net/DTD/sodipodi-0.dtd"
   xmlns="http://www.w3.org/2000/svg"
   xmlns:svg="http://www.w3.org/2000/svg">
  <sodipodi:namedview
     id="namedview32"
     pagecolor="#505050"
     bordercolor="#ffffff"
     borderopacity="1"
     inkscape:showpageshadow="0"
     inkscape:pageopacity="0"
     inkscape:pagecheckerboard="1"
     inkscape:deskcolor="#505050"
     inkscape:document-units="pt"
     inkscape:zoom="2.2076456"
     inkscape:cx="248.22825"
     inkscape:cy="181.41499"
     inkscape:window-width="1452"
     inkscape:window-height="991"
     inkscape:window-x="26"
     inkscape:window-y="23"
     inkscape:window-maximized="0"
     inkscape:current-layer="svg32" />
  <defs
     id="defs2">
    <clipPath
       id="clip_0">
      <path
         transform="matrix(1,0,0,-1,0,425.197)"
         d="M 0,425.197 H 425.197 V 0 H 0 Z"
         id="path1" />
    </clipPath>
    <clipPath
       id="clip_1">
      <path
         transform="matrix(1,0,0,-1,0,425.197)"
         d="M 0,425.197 H 425.197 V 0 H 0 Z"
         id="path2" />
    </clipPath>
  </defs>
  <g
     id="g1"
     transform="translate(-71.731883,-27.340378)">
    <path
       transform="matrix(1,0,0,-1,116.732,203.888)"
       d="m 0,0 c -4.727,-6.375 -5.136,-14.731 -1.235,-19.469 3.06,-3.717 7.469,-3.637 9.087,0.163 C 10.106,-14.012 6.188,-3.933 0,0 m 1.061,-25.719 c -9.006,9.882 -10.765,19.297 -4.097,27.167 1.926,2.274 6.573,3.934 9.451,3.343 5.216,-1.072 8.757,-11.534 7.15,-18.992 -1.454,-6.744 -4.02,-12.571 -12.72,-11.321 0.004,-0.003 0.216,-0.197 0.216,-0.197"
       fill="#231f20"
       id="path23"
       clip-path="none" />
    <path
       id="path3"
       clip-path="none"
       d="m 237.46249,83.941633 c -1.837,-7.100993 -2.89681,-15.192777 -6.04981,-22.36377 -3.90799,-8.891991 -11.43622,-12.174435 -19.59521,-10.148437 1.449,2.688997 2.95202,5.176366 4.16601,7.797363 2.709,5.848994 0.61294,10.65463 -5.03906,11.869629 -11.97799,2.575997 -28.99277,-5.46814 -34.36377,-16.557129 -0.957,-1.975998 -1.18874,-4.715557 -0.73974,-6.893555 2.44999,-11.889988 1.44957,-13.555869 -11.12842,-15.963867 -1.904,8.583992 -8.42507,10.835469 -15.43506,10.605469 -2.817,6.788993 -4.75304,13.308111 -8.16504,18.933105 -1.821,3.002997 -6.2169,6.338575 -9.3999,6.288575 -12.73399,-0.2 -25.45098,-1.635665 -38.16797,-2.680664 -6.120994,-0.504 -12.255385,-1.838863 -18.338379,-1.609864 -15.478985,0.582 -30.929477,1.890853 -46.397461,2.797852 -12.326988,0.722999 -24.6595009,1.445348 -37.0004886,1.756347 -2.0774314,0.05179 -4.2052104,-1.849034 -6.3120114,-2.920898 0.0179,0.02002 0.03039,0.03856 0.04834,0.05859 -9.558991,-2.766997 -10.317381,-11.189789 -12.338379,-18.925781 -0.652,-2.496998 -1.549272,-5.83615 -3.42627,-6.952149 -9.284991,-5.520994 -10.960324,-14.321998 -10.507324,-23.687988 0.435999,-9.0099911 5.804987,-14.1918076 15.875976,-16.9248048 -0.210999,-1.5169985 -0.395926,-3.0803727 -0.648925,-4.6303711 -2.160998,-13.2609871 7.802985,-24.6828091 20.6469723,-21.2578121 12.998987,3.466996 25.9587117,2.127177 38.8666997,3.555175 12.720987,1.406999 25.391149,3.768696 38.140136,4.262696 9.86299,0.381999 19.799549,-1.697974 29.727544,-2.271973 10.78598,-0.623999 21.60089,-0.742649 32.40087,-1.139648 5.888,-0.217 8.82178,2.913122 9.82178,8.370117 -0.0395,-0.0012 -0.0791,-0.0018 -0.11865,-0.0029 2.24791,5.4462204 4.49541,10.8893152 7.24072,17.5458985 5.923,1.5829984 11.21391,6.3911171 12.7749,14.1621095 1.057,5.261995 3.99673,7.143697 8.74073,8.762695 10.23599,3.493997 13.30831,9.157666 10.19531,18.972656 -2.398,7.564993 2.299,11.181168 7.021,14.493164 5.97999,4.194996 12.53925,7.680642 21.07324,4.410645 -1.583,-3.606996 -2.83621,-6.243663 -3.90821,-8.95166 -2.57199,-6.491994 1.36966,-13.071928 7.41065,-10.87793 7.36499,2.673998 14.92421,7.268033 20.0332,13.103028 6.869,7.846992 5.512,18.127122 2.896,27.016113 z M -14.596105,64.740461 c 3.475441,-1.470154 6.9493702,-2.940961 10.4238277,-4.412109 -0.1789999,-0.398 -0.3585979,-0.795848 -0.5375977,-1.193848 -2.7249973,0.708999 -5.930248,2.647405 -8.052246,1.816406 -2.669997,-1.044999 -5.686001,-4.040538 -6.375,-6.748535 -1.708998,-6.716993 -2.181251,-13.748857 -2.90625,-18.922852 -4.948647,8.285228 -3.062544,17.663971 7.447266,29.460938 z m 35.4375,-1.565918 c 18.896981,-4.521996 16.597127,-21.440081 23.099121,-32.24707 0.766999,0.251999 1.535735,0.503859 2.302734,0.755859 -3.509996,9.83099 -7.020765,19.661709 -10.530762,29.491699 0.612,0.407 1.22345,0.812751 1.83545,1.21875 2.734997,-4.175996 5.469342,-8.352367 8.298339,-12.672363 0.077,1.055999 0.177962,2.439156 0.459961,6.306152 7.258993,-14.934985 11.62766,-28.310374 11.20166,-42.943359 -0.179999,-6.1889939 -0.913531,-12.36199843 -1.394531,-18.5419923 0.04444,0.040123 0.09029,0.070099 0.134766,0.1098633 -1.652652,-3.3726696 -3.29797,-6.737602 -4.943848,-10.101562 -0.558999,0.165999 -1.116782,0.332047 -1.675781,0.498046 0.336,4.867996 0.670559,9.7362669 0.997559,14.46826212 C 47.919065,-7.1061653 45.173329,-13.825679 42.427332,-20.545672 c -0.911999,0.343 -1.822864,0.685321 -2.734863,1.02832 0.235,1.601999 0.470602,3.204785 1.016601,6.925782 -5.768994,-2.846997 -10.308537,-5.087765 -16.019531,-7.905762 18.177982,28.4989715 19.893832,56.000903 -3.848144,83.671875 z M 110.90585,62.36009 c 7.14399,-8.021992 11.4226,-18.163143 12.7456,-28.661133 2.383,-18.910981 -0.13581,-37.1862768 -12.7998,-52.343262 -0.786,0.087 -1.5724,0.175672 -2.3584,0.263672 -0.308,2.567998 -0.61571,5.135514 -0.82471,6.874512 -2.18599,-2.741997 -4.62973,-5.805632 -7.07373,-8.869629 -1.288996,0.837999 -2.577721,1.677138 -3.86572,2.515137 8.31199,12.3829873 10.55821,25.9161899 10.11621,40.305175 -0.438,14.300986 -7.693716,25.960138 -13.67871,38.203125 0.752999,0.515 1.50579,1.028481 2.258789,1.542481 3.625996,-4.646995 7.254121,-9.295638 11.099121,-14.223633 -1.096,3.862996 -2.14297,7.55175 -3.18896,11.239746 0.48499,0.269 0.97105,0.538129 1.45605,0.807129 1.987,-2.545997 3.97464,-5.090754 7.09863,-9.09375 -1.215,4.473996 -2.02254,7.449761 -2.83154,10.426758 0.616,0.338 1.23117,0.675672 1.84717,1.013672 z m 18.4292,-0.247559 c 7.74589,0.406586 14.82983,-5.564824 13.86621,-13.814941 -0.321,-2.742997 -5.04755,-6.641192 -8.08155,-6.971192 -3.77099,-0.409999 -9.02515,1.270773 -11.55615,3.98877 -3.05399,3.278997 -3.92568,8.59252 -5.72168,12.978516 2.418,0.968999 4.30973,1.627262 6.11573,2.468261 1.76737,0.823499 3.58992,1.256759 5.37744,1.350586 z M 8.3755742,60.30052 C 17.022878,60.587347 25.974936,54.908479 28.818934,45.968488 23.336939,41.271493 18.217859,40.628392 14.196863,46.264387 11.139866,45.018388 8.3051884,43.862362 5.3081914,42.640363 3.3591934,48.325358 1.8069787,52.848548 0.06698047,57.924543 2.6439779,59.446291 5.4931396,60.20491 8.3755742,60.30052 Z M 87.894617,58.790266 c 5.093995,0.074 9.048941,-9.549046 8.564942,-19.686036 -11.817989,0 -23.072371,-0.148827 -34.31836,0.07617 -4.318995,0.087 -11.35271,9.261899 -10.303711,13.316895 0.399,1.546998 2.22408,3.725723 3.580078,3.865723 10.79999,1.113998 21.638062,2.270246 32.477051,2.427246 z M -16.14298,56.522687 c 0.714999,-0.015 1.429531,-0.03087 2.144531,-0.04687 2.474997,-3.994996 5.8346065,-7.729176 7.1206053,-12.076171 0.8839991,-2.990997 -0.7897239,-6.948008 -1.9907227,-10.229004 -0.4189996,-1.143999 -3.8519186,-2.504996 -4.1909176,-2.145996 -2.207998,2.338997 -5.456067,5.088534 -5.518067,7.769531 -0.129,5.554994 1.518571,11.149521 2.434571,16.728515 z M 3.6631719,38.428937 C 5.8954196,38.208688 8.0182872,36.947818 10.054285,34.55882 16.122279,27.439827 16.975311,15.083543 11.636316,7.5075508 8.5753195,3.1635551 4.9140729,0.42942991 -0.33292187,4.5544258 L -0.12051953,4.3596016 C -12.693507,10.239596 -14.522715,28.067899 -3.3827266,36.055891 c 2.47199757,1.772998 4.8136507,2.593296 7.0458985,2.373046 z M -26.540441,36.452863 c -8.607992,-6.659993 -12.406117,-17.088965 -7.724121,-25.480957 1.295998,-2.3229974 4.644525,-4.6193202 7.186523,-4.7783201 2.073998,-0.1299998 5.309731,2.5012913 6.32373,4.6962891 1.840999,3.982996 2.411482,8.553544 3.792481,13.977539 1.327999,-7.717992 1.406108,-13.994931 -3.733887,-19.3989257 -3.824996,-4.022996 -7.911613,-4.2941881 -12.099609,-0.9711914 -8.228992,6.5299931 -6.517538,26.1592511 2.689453,31.3022461 0.997999,0.557999 2.367431,0.45132 3.56543,0.65332 z M 139.66659,35.856672 c 6.86445,0.333847 14.49815,-1.481117 18.52002,-5.031738 0.216,1.174998 0.42953,2.34931 0.74853,4.091308 5.544,-7.311993 4.98926,-14.96242 0.59327,-20.774414 -2.611,-3.451996 -9.04981,-5.100262 -13.92481,-5.4682616 -5.89899,-0.4449995 -11.96542,1.3201649 -17.87842,2.1181636 -0.348,6.334994 -0.83314,11.921748 -0.84814,17.510743 -0.004,1.544998 0.97845,3.679946 2.21045,4.543945 2.61862,1.836373 6.46043,2.809945 10.5791,3.010254 z M 20.837,35.298566 c 2.599872,0.05637 5.125202,-0.01856 7.554199,-0.539062 2.668998,-0.573 6.225618,-3.881456 6.682617,-6.439453 C 35.992815,23.181056 35.61746,17.60135 34.609461,12.432355 34.231461,10.497357 30.60651,9.1971586 28.461512,7.6071602 27.391513,9.1851586 26.322199,10.763212 25.766199,11.584211 23.355202,9.4512131 20.308313,6.7548411 17.261316,4.0578437 16.446317,4.6248432 15.630027,5.1915279 14.815027,5.7585273 19.153023,16.154517 18.986088,26.164411 12.833094,35.055402 c 2.729497,0 5.404034,0.186789 8.003906,0.243164 z m 55.40918,-3.049804 c 0.148,-0.006 0.290269,-0.03071 0.426269,-0.07471 0.272,-0.08 0.459965,-0.244188 0.563965,-0.492188 0.04,-0.096 0.112797,-0.188855 0.216797,-0.276855 0.112,-0.088 0.219731,-0.159332 0.32373,-0.215332 0.104,-0.048 0.211731,-0.115614 0.323731,-0.203614 0.112,-0.08 0.195953,-0.169136 0.251953,-0.265136 0.10399,-0.176 0.248129,-0.462794 0.432129,-0.862793 0.024,-0.064 0.05668,-0.213313 0.09668,-0.445313 0.048,-0.224 0.102992,-0.371848 0.166992,-0.443847 l -0.03516,-1.03125 c -0.016,-0.48 -0.116294,-1.120411 -0.300293,-1.920411 -0.368,-1.623998 -0.924458,-2.739168 -1.668457,-3.347168 -1.255999,-1.007999 -2.415015,-1.188526 -3.479004,-0.540527 -0.512,0.312 -0.924329,0.724329 -1.236328,1.236328 -0.304,0.52 -0.475626,1.083895 -0.515625,1.691895 v 0.01172 c 0,0.08 -0.0052,0.227848 -0.01318,0.443848 v 0.480469 c 0.008,0.112 0.0169,0.250945 0.0249,0.418945 0.016,0.176 0.03234,0.336469 0.04834,0.480469 0.04,0.2 0.11877,0.484539 0.23877,0.852539 0.12,0.368 0.196515,0.639918 0.228515,0.815918 0.128,0.607999 0.356083,1.195672 0.684082,1.763672 0.328,0.575999 0.727708,1.019553 1.199707,1.331543 0.168,0.112 0.392364,0.216012 0.672364,0.312012 0.279999,0.103999 0.575695,0.184234 0.887695,0.240234 0.16,0.032 0.313426,0.04555 0.461426,0.03955 z m 4.123535,-0.56543 c 0.135,-0.0012 0.283848,-0.06164 0.443848,-0.181641 0.111999,-0.08 0.279906,-0.180293 0.503906,-0.300293 0.224,-0.119999 0.406781,-0.24407 0.550781,-0.37207 0.144,-0.12 0.260633,-0.284188 0.348633,-0.492187 0.08,-0.176 0.123836,-0.439016 0.131836,-0.791016 0.016,-0.34399 0.01228,-0.716211 -0.01172,-1.116211 -0.016,-0.392 -0.016,-0.660199 0,-0.804199 0.008,-0.056 0.01172,-0.236528 0.01172,-0.540528 v -0.539062 c 0,-0.19999 0.02378,-0.304012 0.07178,-0.312012 0.048,-0.008 0.175789,0.03212 0.383789,0.120117 0.04,0.016 0.216809,0.06727 0.528809,0.155274 0.311999,0.096 0.600258,0.187391 0.864258,0.275391 0.263999,0.088 0.399226,0.151894 0.407226,0.191894 0.016,0.12 0.05612,0.565009 0.120117,1.333008 0.064,0.767999 0.136797,1.304399 0.216797,1.608398 0.008,0.032 0.02806,0.139731 0.06006,0.323731 0.032,0.192 0.06321,0.367344 0.09521,0.527344 0.032,0.159999 0.07584,0.311566 0.131836,0.455566 0.064,0.152 0.124175,0.235953 0.180175,0.251953 0.232,0.056 0.503919,-0.04801 0.815918,-0.312012 0.31999,-0.255999 0.491625,-0.502676 0.515625,-0.742675 0.008,-0.112 0.0043,-0.272469 -0.01172,-0.480469 -0.008,-0.2 -0.01916,-0.376809 -0.03516,-0.528809 -0.016,-0.144 -0.04124,-0.355742 -0.07324,-0.635742 -0.024,-0.272 -0.03888,-0.540199 -0.04687,-0.804199 -0.008,-0.128 -0.008,-0.270664 0,-0.430664 0.008,-0.152 0.02287,-0.30875 0.04687,-0.46875 0.024,-0.16 0.04924,-0.315286 0.07324,-0.467285 0.032,-0.144 0.0595,-0.300751 0.0835,-0.46875 0.032,-0.168 0.05578,-0.312129 0.07178,-0.432129 0.024,-0.152 0.04406,-0.347403 0.06006,-0.587403 0.024,-0.231999 0.04778,-0.456363 0.07178,-0.672363 0.024,-0.208 0.05296,-0.399684 0.08496,-0.575684 0.008,-0.056 0.03178,-0.152574 0.07178,-0.288574 0.04,-0.136 0.0675,-0.251168 0.0835,-0.347168 0.024,-0.088 0.02772,-0.184574 0.01172,-0.288574 -0.008,-0.104 -0.04293,-0.184234 -0.106934,-0.240234 -0.064,0.024 -0.129359,-0.02355 -0.193359,-0.143555 -0.064,-0.12 -0.09521,-0.212856 -0.09521,-0.276855 0,-0.032 -0.03268,-0.06693 -0.09668,-0.106934 -0.064,-0.04 -0.131613,-0.07268 -0.203613,-0.09668 -0.072,-0.032 -0.128457,-0.04834 -0.168457,-0.04834 -0.128,0.008 -0.307063,0.03696 -0.539062,0.08496 -0.232,0.04 -0.396188,0.0675 -0.492188,0.0835 -0.056,0 -0.108738,0.01634 -0.156738,0.04834 -0.048,0.04 -0.08665,0.09127 -0.118653,0.155274 -0.024,0.064 -0.04406,0.116738 -0.06006,0.156738 -0.016,0.048 -0.03606,0.115613 -0.06006,0.203613 -0.016,0.088 -0.0249,0.140739 -0.0249,0.156739 -0.216,0.807999 -0.323731,1.675028 -0.323731,2.603027 0,0.088 -0.0074,0.157078 -0.02344,0.205078 -0.016,0.048 -0.04868,0.0755 -0.09668,0.0835 -0.04,0.008 -0.0764,0.008 -0.108398,0 -0.032,0 -0.09218,-0.01262 -0.180176,-0.03662 -0.08,-0.016 -0.143895,-0.02716 -0.191895,-0.03516 -0.375999,-0.064 -0.755658,-0.140516 -1.139648,-0.228516 -0.272,-0.064 -0.439906,-0.127894 -0.503906,-0.191894 -0.056,-0.056 -0.09984,-0.211286 -0.131836,-0.467286 -0.048,-0.375999 -0.05172,-0.792047 -0.01172,-1.248046 0,-0.016 0.01634,-0.08508 0.04834,-0.205079 0.04,-0.119999 0.07121,-0.24407 0.09521,-0.37207 0.024,-0.12 0.04034,-0.24407 0.04834,-0.37207 0.008,-0.12 -0.0195,-0.21511 -0.0835,-0.28711 -0.056,-0.064 -0.145137,-0.08406 -0.265137,-0.06006 -0.032,0.008 -0.08699,-0.01206 -0.166992,-0.06006 -0.072,-0.048 -0.135895,-0.06806 -0.191895,-0.06006 -0.064,0.016 -0.193264,0.01228 -0.385254,-0.01172 -0.184,-0.024 -0.311789,-0.0329 -0.383789,-0.0249 -0.144,0.016 -0.25173,0.03234 -0.32373,0.04834 -0.064,0.008 -0.147954,0.02434 -0.251953,0.04834 -0.096,0.032 -0.167333,0.07212 -0.215333,0.120117 -0.048,0.048 -0.09702,0.115614 -0.145019,0.203614 -0.048,0.088 -0.07921,0.19573 -0.09521,0.32373 0.032,-0.048 0.05578,-0.05172 0.07178,-0.01172 0.016,0.04 0.016,0.09646 0,0.168457 -0.008,0.072 -0.02434,0.135895 -0.04834,0.191895 -0.016,0.056 -0.03978,0.119895 -0.07178,0.191895 -0.032,0.08 -0.05206,0.140175 -0.06006,0.180175 -0.024,0.016 -0.03144,0.131169 -0.02344,0.347168 0.008,0.216 0.01172,0.336352 0.01172,0.360352 -0.024,0.799999 0.03618,1.495403 0.180176,2.087402 0.04,0.144 0.06378,0.313372 0.07178,0.505371 0.016,0.2 0.01972,0.431801 0.01172,0.695801 v 0.527344 c 0.008,0.216 0.02062,0.511696 0.03662,0.887695 0.016,0.37599 0.02344,0.647918 0.02344,0.815918 0.008,0.168 0.0043,0.364868 -0.01172,0.588867 -0.016,0.224 -0.04868,0.423122 -0.09668,0.599121 -0.08,0.288 -0.02726,0.484868 0.156738,0.588868 0.072,0.042 0.147516,0.06227 0.228516,0.06152 z m -3.912598,-0.93457 c -0.056,-0.004 -0.112457,-0.01383 -0.168457,-0.02783 -0.28,-0.072 -0.519238,-0.283743 -0.719238,-0.635743 -0.2,-0.343999 -0.347848,-0.707308 -0.443848,-1.091308 -0.144,-0.615999 -0.248012,-1.068446 -0.312011,-1.356445 -0.056,-0.288 -0.116176,-0.683999 -0.180176,-1.187989 -0.056,-0.495999 -0.07234,-0.959602 -0.04834,-1.391601 v -0.01172 -0.06006 c 0.04,-0.311999 0.167789,-0.629219 0.383789,-0.949218 0.216,-0.312 0.464141,-0.527461 0.744141,-0.647461 0.151999,-0.072 0.296129,-0.115836 0.432128,-0.131836 0.136,-0.008 0.260071,0.0083 0.372071,0.04834 0.112,0.04 0.212293,0.09127 0.300293,0.155273 0.096,0.072 0.183672,0.164856 0.263672,0.276856 0.08,0.111999 0.147613,0.223449 0.203613,0.335449 0.064,0.112 0.124176,0.239789 0.180176,0.383789 0.871999,2.039998 1.019847,3.760646 0.443847,5.160644 -0.096,0.224 -0.223789,0.428305 -0.383789,0.612305 -0.152,0.184 -0.339965,0.322945 -0.563965,0.418945 -0.167999,0.078 -0.335906,0.11161 -0.503906,0.09961 z M -30.180578,28.324445 c 8.736991,-5.270994 9.477801,-11.311785 2.028808,-19.571777 -7.286992,5.643994 -7.689802,10.640786 -2.028808,19.571777 z M 80.081141,22.681867 c -0.032,0.008 -0.02084,-0.0284 0.03516,-0.108398 0.056,-0.072 0.0924,-0.07944 0.108398,-0.02344 -0.008,0.088 -0.05555,0.131836 -0.143554,0.131836 z m -3.164063,-4.835449 c 0.47775,-0.014 0.888934,-0.149692 1.231934,-0.408691 l 0.180176,-0.180176 c 0.072,-0.064 0.14705,-0.140516 0.22705,-0.228516 0.08,-0.088 0.149078,-0.183109 0.205078,-0.287109 0.064,-0.096 0.09893,-0.179953 0.106934,-0.251953 0.008,-0.072 0.0533,-0.164856 0.133301,-0.276856 0.08,-0.112 0.127554,-0.199672 0.143554,-0.263672 0.032,-0.112 0.07212,-0.356422 0.120118,-0.732422 0.008,-0.064 0.05555,-0.28318 0.143554,-0.659179 0.096,-0.368 0.136118,-0.656258 0.120118,-0.864258 -0.016,-0.184 -0.02862,-0.388305 -0.03662,-0.612305 -0.008,-0.216 -0.01544,-0.411402 -0.02344,-0.587402 0,-0.168 -0.0037,-0.355965 -0.01172,-0.563965 0,-0.2 -0.0089,-0.387965 -0.0249,-0.563965 -0.016,-0.176 -0.03978,-0.369148 -0.07178,-0.577148 -0.032,-0.208 -0.07584,-0.407122 -0.131836,-0.599121 C 78.820602,8.7016812 78.172753,7.778185 77.284754,7.4181953 76.644755,7.1781956 76.07714,7.141797 75.581141,7.3097969 c -0.488,0.1599998 -0.904048,0.4794731 -1.248047,0.9594726 -0.344,0.4799996 -0.6122,1.0401765 -0.804199,1.6801758 -0.184,0.6399897 -0.291731,1.3205277 -0.323731,2.0405277 v 0.01172 c 0,0.416 0.03122,0.839485 0.09522,1.271485 0.072,0.439999 0.172293,0.876106 0.300293,1.308105 0.128,0.432 0.292188,0.84061 0.492187,1.22461 0.2,0.383999 0.424364,0.723531 0.672364,1.019531 0.255999,0.296 0.547977,0.536713 0.875976,0.720703 0.336,0.184 0.691872,0.282828 1.067871,0.298828 0.071,0.003 0.139758,0.0035 0.208008,0.0015 z M 69.58993,17.465559 c 0.08,0.003 0.161164,0.0016 0.243164,-0.0044 0.327999,-0.024 0.623695,-0.135449 0.887695,-0.335449 0.192,-0.152 0.339848,-0.276071 0.443848,-0.37207 0.112,-0.088 0.239789,-0.212071 0.383789,-0.372071 0.144,-0.16 0.253195,-0.324187 0.325195,-0.492187 0.08,-0.168 0.127555,-0.348528 0.143555,-0.540528 0.048,-0.703999 -0.05973,-1.40684 -0.323731,-2.110839 -0.255999,-0.696 -0.624492,-1.460482 -1.104492,-2.292481 -0.112,-0.192 -0.287344,-0.452762 -0.527344,-0.780762 -0.239999,-0.3279993 -0.409371,-0.5635193 -0.505371,-0.7075192 -0.024,-0.048 -0.08271,-0.1319532 -0.178711,-0.2519531 -0.096,-0.1199999 -0.179953,-0.2277306 -0.251953,-0.3237305 -0.064,-0.096 -0.124176,-0.2000118 -0.180176,-0.3120117 -0.048,-0.1039999 -0.05318,-0.1916719 -0.01318,-0.2636719 0.04,-0.064 0.132855,-0.1041172 0.276855,-0.1201172 0.6,-0.056 1.116341,-0.076059 1.54834,-0.060059 0.024,0 0.09533,0.00372 0.215332,0.011719 0.128,0.008 0.252071,0.011719 0.372071,0.011719 0.127999,0.008 0.259507,0.011719 0.395507,0.011719 0.136,0.008 0.248914,0.00428 0.336914,-0.011719 0.096,-0.016 0.150993,-0.036059 0.166993,-0.060059 0.008,-0.024 -0.0069,-0.099051 -0.04687,-0.2270507 -0.04,-0.1199999 -0.06006,-0.1890782 -0.06006,-0.2050782 -0.008,-0.064 -0.02806,-0.1115547 -0.06006,-0.1435546 -0.032,-0.032 -0.0684,-0.052059 -0.108398,-0.060059 -0.032,-0.008 -0.07584,-0.015437 -0.131836,-0.023437 -0.056,-0.016 -0.09984,-0.036059 -0.131836,-0.060059 -0.152,-0.088 -0.456598,-0.1518946 -0.912598,-0.1918946 -0.455999,-0.04 -0.698957,-0.063777 -0.730957,-0.071777 -0.215999,-0.04 -0.520598,-0.1090782 -0.912597,-0.2050781 -0.384,-0.096 -0.739872,-0.1762345 -1.067871,-0.2402344 -0.32,-0.064 -0.624598,-0.1026524 -0.912598,-0.1186524 -0.296,-0.008 -0.53152,0.043274 -0.70752,0.1552735 -0.167999,0.1119999 -0.268293,0.2635666 -0.300293,0.4555664 -0.032,0.1839998 -0.02456,0.3845861 0.02344,0.6005859 0.048,0.2239998 0.137137,0.4483635 0.265137,0.6723633 0.064,0.1119999 0.251965,0.4879303 0.563965,1.1279297 0.319999,0.6399998 0.591918,1.1199418 0.815918,1.4399418 0.103999,0.144 0.248129,0.36318 0.432128,0.65918 0.192,0.295999 0.336129,0.512926 0.432129,0.648925 0.048,0.064 0.102993,0.171731 0.166993,0.323731 0.072,0.152 0.141078,0.29242 0.205078,0.42041 0.072,0.128 0.143332,0.219391 0.215332,0.275391 l 0.01172,0.02344 c 0.032,0.152 0.0959,0.328809 0.191895,0.528809 0.096,0.208 0.188855,0.395965 0.276855,0.563965 0.088,0.175999 0.163051,0.360246 0.227051,0.552246 0.072,0.191999 0.09724,0.383683 0.07324,0.575683 -0.016,0.192 -0.08508,0.376247 -0.205078,0.552246 -0.184,0.216 -0.41952,0.291051 -0.707519,0.227051 -0.28,-0.056 -0.555647,-0.183789 -0.827637,-0.383789 -0.272,-0.2 -0.448809,-0.391684 -0.528809,-0.575684 -0.04,-0.096 -0.09127,-0.256469 -0.155273,-0.480468 -0.064,-0.224 -0.124176,-0.391907 -0.180176,-0.503907 -0.032,-0.064 -0.07955,-0.124175 -0.143554,-0.180175 -0.064,-0.048 -0.133079,-0.08293 -0.205079,-0.106934 -0.072,-0.024 -0.139613,-0.02028 -0.203613,0.01172 -0.064,0.04 -0.104117,0.111332 -0.120117,0.215332 -0.048,0.248 -0.0079,0.54516 0.120117,0.88916 0.136,0.344 0.307625,0.659754 0.515625,0.947754 0.208,0.288 0.416024,0.50718 0.624024,0.65918 0.279999,0.207999 0.564539,0.368468 0.852539,0.480468 0.221999,0.09 0.452871,0.13895 0.692871,0.14795 z m -0.309082,-4.144043 -0.02344,-0.180176 0.03516,0.03662 c 0.056,0.072 0.056,0.119555 0,0.143555 z m 14.661621,4.144043 c 0.08,0.003 0.159699,0.0016 0.241699,-0.0044 0.328,-0.024 0.62516,-0.135449 0.88916,-0.335449 0.192,-0.152 0.339848,-0.276071 0.443848,-0.37207 0.112,-0.088 0.239789,-0.212071 0.383789,-0.372071 0.144,-0.16 0.25173,-0.324187 0.32373,-0.492187 0.08,-0.168 0.127555,-0.348528 0.143555,-0.540528 0.048,-0.703999 -0.05973,-1.40684 -0.32373,-2.110839 -0.256,-0.696 -0.623028,-1.460482 -1.103028,-2.292481 -0.112,-0.192 -0.288809,-0.452762 -0.528808,-0.780762 -0.24,-0.3279993 -0.407907,-0.5635193 -0.503907,-0.7075192 -0.024,-0.048 -0.08418,-0.1319532 -0.180175,-0.2519531 -0.096,-0.1199999 -0.179954,-0.2277306 -0.251954,-0.3237305 -0.064,-0.096 -0.124175,-0.2000118 -0.180175,-0.3120117 -0.048,-0.1039999 -0.05172,-0.1916719 -0.01172,-0.2636719 0.04,-0.064 0.132856,-0.1041172 0.276855,-0.1201172 0.6,-0.056 1.114876,-0.076059 1.546875,-0.060059 0.024,0 0.0968,0.00372 0.216797,0.011719 0.128,0.008 0.252071,0.011719 0.372071,0.011719 0.127999,0.008 0.259508,0.011719 0.395507,0.011719 0.136,0.008 0.24745,0.00428 0.33545,-0.011719 0.096,-0.016 0.152457,-0.036059 0.168457,-0.060059 0.008,-0.024 -0.0083,-0.099051 -0.04834,-0.2270507 -0.04,-0.1199999 -0.06006,-0.1890782 -0.06006,-0.2050782 -0.008,-0.064 -0.02806,-0.1115547 -0.06006,-0.1435546 -0.032,-0.032 -0.06694,-0.052059 -0.106934,-0.060059 -0.032,-0.008 -0.07584,-0.015437 -0.131836,-0.023437 -0.056,-0.016 -0.101301,-0.036059 -0.133301,-0.060059 -0.152,-0.088 -0.455133,-0.1518946 -0.911133,-0.1918946 -0.455999,-0.04 -0.700421,-0.063777 -0.732421,-0.071777 -0.216,-0.04 -0.519134,-0.1090782 -0.911133,-0.2050781 -0.384,-0.096 -0.741336,-0.1762345 -1.069336,-0.2402344 -0.31999,-0.064 -0.623133,-0.1026524 -0.911133,-0.1186524 -0.296,-0.008 -0.53152,0.043274 -0.707519,0.1552735 -0.168,0.1119999 -0.268294,0.2635666 -0.300293,0.4555664 -0.032,0.1839998 -0.02456,0.3845861 0.02344,0.6005859 0.048,0.2239998 0.135672,0.4483635 0.263672,0.6723633 0.064,0.1119999 0.251965,0.4879303 0.563965,1.1279297 0.319999,0.6399998 0.591918,1.1199418 0.815918,1.4399418 0.104,0.144 0.248129,0.36318 0.432129,0.65918 0.191999,0.295999 0.336129,0.512926 0.432129,0.648925 0.048,0.064 0.104457,0.171731 0.168457,0.323731 0.072,0.152 0.139613,0.29242 0.203613,0.42041 0.072,0.128 0.144797,0.219391 0.216797,0.275391 l 0.01172,0.02344 c 0.032,0.152 0.09589,0.328809 0.191895,0.528809 0.096,0.208 0.187391,0.395965 0.275391,0.563965 0.088,0.175999 0.164515,0.360246 0.228515,0.552246 0.072,0.191999 0.09578,0.383683 0.07178,0.575683 -0.016,0.192 -0.08361,0.376247 -0.203614,0.552246 -0.184,0.216 -0.41952,0.291051 -0.707519,0.227051 -0.28,-0.056 -0.557102,-0.183789 -0.829102,-0.383789 -0.272,-0.2 -0.447344,-0.391684 -0.527344,-0.575684 -0.04,-0.096 -0.09274,-0.256469 -0.156738,-0.480468 -0.064,-0.224 -0.124176,-0.391907 -0.180176,-0.503907 -0.032,-0.064 -0.07955,-0.124175 -0.143554,-0.180175 -0.064,-0.048 -0.131614,-0.08293 -0.203614,-0.106934 -0.072,-0.024 -0.139613,-0.02028 -0.203613,0.01172 -0.064,0.04 -0.104117,0.111332 -0.120117,0.215332 -0.048,0.248 -0.0079,0.54516 0.120117,0.88916 0.136,0.344 0.307625,0.659754 0.515625,0.947754 0.20799,0.288 0.416024,0.50718 0.624024,0.65918 0.279999,0.207999 0.564539,0.368468 0.852539,0.480468 0.221999,0.09 0.452871,0.13895 0.692871,0.14795 z m -0.309082,-4.144043 -0.0249,-0.180176 0.03662,0.03662 c 0.056,0.072 0.056,0.119555 0,0.143555 z m 7.02832,3.681152 c 0.094,0.014 0.138766,-0.0014 0.134766,-0.04541 h 0.03662 c 0.391999,0 0.747881,-0.104012 1.067871,-0.312012 0.328,-0.2 0.587297,-0.463016 0.779297,-0.791016 0.192,-0.319999 0.336129,-0.668434 0.432129,-1.044433 0.104,-0.376 0.153019,-0.748211 0.145019,-1.116211 -0.008,-0.256 -0.08823,-0.675766 -0.240234,-1.259766 -0.024,-0.08 0.03989,-0.256809 0.191894,-0.528808 0.16,-0.272 0.243953,-0.427285 0.251953,-0.467285 0.272,-0.888 0.244504,-1.6524815 -0.0835,-2.2924809 C 93.249527,8.8972463 93.03632,8.6580076 92.74032,8.4260078 92.444321,8.194008 92.11741,8.0060428 91.75741,7.862043 91.405411,7.7180431 91.040636,7.6289062 90.664637,7.5969062 c -0.368,-0.032 -0.687473,0.028176 -0.959473,0.1801758 -0.12,0.064 -0.328024,0.1278946 -0.624023,0.1918946 -0.288,0.064 -0.499743,0.1330782 -0.635743,0.2050781 -0.567999,0.3119997 -0.949123,0.5787346 -1.141113,0.8027344 -0.383999,0.4319995 -0.575683,0.8205511 -0.575683,1.1645509 0,0.128 0.08767,0.295906 0.263671,0.503906 0.144,0.168 0.224235,0.180621 0.240235,0.03662 0.04,-0.455999 0.244305,-0.8809494 0.612305,-1.272949 0.367999,-0.3919996 0.787766,-0.6349572 1.259765,-0.7309571 1.207999,-0.2559997 1.988821,0.1949817 2.34082,1.3549801 0.184,0.6 0.207778,1.068786 0.07178,1.404786 -0.024,0.048 -0.06784,0.07921 -0.131836,0.09521 -0.056,0.016 -0.132516,0.016 -0.228516,0 -0.088,-0.008 -0.168234,-0.01916 -0.240234,-0.03516 -0.072,-0.016 -0.155953,-0.03978 -0.251953,-0.07178 -0.088,-0.024 -0.135555,-0.03662 -0.143555,-0.03662 -0.328,-0.08 -0.588762,-0.03616 -0.780762,0.131836 -0.191999,0.167999 -0.279672,0.392363 -0.263672,0.672363 0.024,0.28 0.144352,0.524422 0.360352,0.732422 0.088,0.088 0.188293,0.159332 0.300293,0.215332 0.112,0.056 0.230887,0.108738 0.358887,0.156738 0.128,0.048 0.237195,0.09927 0.325195,0.155274 0.35999,0.239999 0.491508,0.672387 0.395508,1.296386 -0.088,0.528 -0.303461,0.860094 -0.647461,0.996094 -0.344,0.136 -0.75261,0.07954 -1.224609,-0.168457 -0.048,-0.02399 -0.19213,-0.131731 -0.432129,-0.32373 -0.232,-0.192 -0.399907,-0.292293 -0.503907,-0.300293 -0.239999,-0.008 -0.371507,0.05961 -0.395507,0.203613 -0.016,0.152 0.05161,0.305031 0.203613,0.457031 0.272,0.32 0.695485,0.643192 1.271484,0.971191 0.112,0.056 0.360141,0.152575 0.744141,0.288575 0.192,0.072 0.335199,0.114906 0.429199,0.128906 z M 77.837,16.837141 c -0.711999,-0.096 -1.284797,-0.512048 -1.716797,-1.248047 -0.431999,-0.736 -0.63484,-1.699603 -0.61084,-2.891602 0,-0.367999 0.04012,-0.771426 0.120117,-1.211426 0.08,-0.439999 0.19145,-0.885008 0.33545,-1.333007 0.152,-0.44 0.352586,-0.8233679 0.600586,-1.1513676 0.255999,-0.3199997 0.539074,-0.5168673 0.851074,-0.5888672 0.272,-0.064 0.512703,0.019953 0.720703,0.2519531 0.216,0.2319998 0.383906,0.5328793 0.503906,0.9008789 0.128,0.3679997 0.232012,0.7877658 0.312012,1.2597658 0.08,0.471999 0.131273,0.888047 0.155273,1.248047 0.032,0.367999 0.04834,0.687473 0.04834,0.959472 v 0.108399 0.180176 0.215332 c 0,0.08 -0.0037,0.156515 -0.01172,0.228515 0,0.072 -0.0037,0.139614 -0.01172,0.203614 -0.008,0.064 -0.02062,0.116738 -0.03662,0.156738 -0.016,0.04 -0.03606,0.06378 -0.06006,0.07178 -0.104,0.016 -0.180516,0.06355 -0.228516,0.143555 -0.04,0.088 -0.04,0.19573 0,0.32373 0.04,0.144 0.03256,0.337149 -0.02344,0.577149 -0.048,0.248 -0.124516,0.48352 -0.228516,0.707519 -0.104,0.232 -0.222887,0.432586 -0.358886,0.600586 -0.128,0.176 -0.244633,0.27111 -0.348633,0.28711 z m 13.116211,-4.187989 c -0.168,-0.032 -0.29207,-0.09589 -0.37207,-0.191894 l -0.0249,-0.02344 c 0.2,-0.032 0.353032,0.02818 0.457032,0.180176 0.016,0.032 -0.0041,0.04316 -0.06006,0.03516 z M -10.633703,7.6877266 c -2.341998,-2.9479971 -4.942948,-6.2211205 -7.543945,-9.4951172 0.05519,0.039201 0.11474,0.080927 0.169921,0.1201172 -1.387743,-4.8481013 -2.776664,-9.6942996 -3.751464,-13.0971676 -4.585996,8.9979906 1.017498,21.6931683 11.125488,22.4721676 z M 133.73837,2.827375 c 3.8864,-0.3395153 8.79795,-2.72962607 13.45019,-3.796875 -1.128,-4.7792085 -2.18369,-9.253392 -3.23877,-13.727051 -8.13572,-0.240497 -16.2715,-0.482155 -24.40722,-0.723633 -0.636,1.150999 -1.27223,2.302638 -1.90723,3.452637 4.106,4.9839951 7.32399,11.90517442 12.60498,14.326172 1.01975,0.4674995 2.20258,0.5819218 3.49805,0.46875 z M 77.860438,2.8156562 C 85.42343,2.9949061 93.217258,1.4446399 100.99325,0.71214062 99.117252,-12.196846 94.05018,-15.51208 82.183191,-13.841082 c -4.835995,0.680999 -9.942817,-0.155196 -14.882812,-0.700195 -7.642752,-0.843545 -10.686104,1.574188 -10.992188,9.2431637 6.795541,6.04796394 14.060327,7.9362042 21.552247,8.1137695 z m -90.231446,-0.505371 c 7.1289931,-5.075995 6.7904409,-12.2336164 6.1274416,-19.2246092 -0.1059999,-1.124999 -3.6127667,-3.174609 -4.6347656,-2.72461 -2.651997,1.169999 -6.166962,3.102827 -6.834961,5.444825 -1.109128,3.883936 -0.293387,8.3166324 -0.269531,12.5244137 1.824384,1.29566773 3.642121,2.58341034 5.611816,3.9799805 z M -4.0234375e-4,2.265625e-4 C 4.0535936,-7.1357663 3.6901163,-14.323464 -1.0638789,-20.825457 -3.7448762,-24.490453 -7.6687987,-26.916232 -13.400793,-24.272234 -1.8498045,-21.738237 0.49059717,-17.068756 -4.0234375e-4,2.265625e-4 Z M 28.158289,-1.2990898 c 0.569999,0.039 1.702028,-1.9164816 1.853027,-3.0424805 0.716,-5.3389947 -8.184595,-14.0424837 -13.454589,-13.6464847 -3.983996,0.299 -8.0084077,0.05859 -12.9624028,0.05859 0.2589998,1.246999 0.5163208,3.074197 1.0283203,4.825195 0.9699991,3.3209971 1.4378144,8.9717509 3.2578125,9.4687504 6.495994,1.7769982 13.467839,1.8764262 20.277832,2.3364258 z"
       transform="matrix(1,0,0,-1,117.913,233.968)"
       style="fill:#231f20;fill-opacity:1" />
    <path
       transform="matrix(1,0,0,-1,386.345,149.191)"
       d="m 0,0 c -21.53,-2.474 -20.104,-2.327 -16.566,-13.083 -3.315,0.998 -6.773,2.04 -10.762,3.242 -0.734,4.632 7.655,5.499 5.454,13.28 -1.791,6.332 -3.323,8.769 -9.831,9.19 -7.543,0.488 -11.454,-4.445 -13.667,-9.391 -2.875,-6.427 6.858,-8.77 9.56,-14.527 -1.684,-1.204 -3.365,-2.404 -5.368,-3.836 1.003,13.653 -8.77,7.354 -16.916,8.25 4.484,2.619 7.169,4.187 11.394,6.654 -7.96,4.072 -14.803,7.572 -21.646,11.072 0.11,0.254 0.219,0.509 0.329,0.764 5.176,-1.097 10.32,-2.407 15.543,-3.196 2.462,-0.373 5.075,0.254 7.62,0.428 -0.23,2.491 -1.556,3.974 -2.173,6.365 -0.564,2.19 -2.354,7.988 -3.615,10.675 4.494,-3.394 10.154,-8.962 13.933,-11.816 2.642,3.776 5.66,19.326 7.873,22.49 0.617,-2.252 0.217,-18.538 2.46,-20.734 1.935,-1.894 14.058,7.186 17.227,6.788 C -11.115,17.802 -21.299,8.654 -19.777,6.881 -18.014,4.826 -11.271,2.086 0,0"
       fill="#231f20"
       id="path4"
       clip-path="none" />
  </g>
</svg>
