<?xml version="1.0" encoding="UTF-8" standalone="no"?>
<svg
   version="1.1"
   width="425.197pt"
   height="425.197pt"
   viewBox="0 0 425.197 425.197"
   id="svg32"
   sodipodi:docname="TNT_nobg_notitile.svg"
   inkscape:version="1.3 (0e150ed6c4, 2023-07-21)"
   xmlns:inkscape="http://www.inkscape.org/namespaces/inkscape"
   xmlns:sodipodi="http://sodipodi.sourceforge.net/DTD/sodipodi-0.dtd"
   xmlns="http://www.w3.org/2000/svg"
   xmlns:svg="http://www.w3.org/2000/svg">
  <sodipodi:namedview
     id="namedview32"
     pagecolor="#505050"
     bordercolor="#ffffff"
     borderopacity="1"
     inkscape:showpageshadow="0"
     inkscape:pageopacity="0"
     inkscape:pagecheckerboard="1"
     inkscape:deskcolor="#505050"
     inkscape:document-units="pt"
     inkscape:zoom="2.2076456"
     inkscape:cx="248.45473"
     inkscape:cy="180.96202"
     inkscape:window-width="1981"
     inkscape:window-height="1691"
     inkscape:window-x="1090"
     inkscape:window-y="0"
     inkscape:window-maximized="0"
     inkscape:current-layer="svg32" />
  <defs
     id="defs2">
    <clipPath
       id="clip_0">
      <path
         transform="matrix(1,0,0,-1,0,425.197)"
         d="M0 425.197H425.197V0H0Z"
         id="path1" />
    </clipPath>
    <clipPath
       id="clip_1">
      <path
         transform="matrix(1,0,0,-1,0,425.197)"
         d="M0 425.197H425.197V0H0Z"
         id="path2" />
    </clipPath>
  </defs>
  <path
     transform="matrix(1 0 0 -1 116.732 203.888)"
     d="M0 0C-4.727-6.375-5.136-14.731-1.235-19.469 1.825-23.186 6.234-23.106 7.852-19.306 10.106-14.012 6.188-3.933 0 0M1.061-25.719C-7.945-15.837-9.704-6.422-3.036 1.448-1.11 3.722 3.537 5.382 6.415 4.791 11.631 3.719 15.172-6.743 13.565-14.201 12.111-20.945 9.545-26.772 .845-25.522 .849-25.525 1.061-25.719 1.061-25.719"
     fill="#231f20"
     id="path23"
     clip-path="none" />
  <path
     id="path3"
     clip-path="none"
     d="M 237.46249 83.941633 C 235.62549 76.84064 234.56568 68.748856 231.41268 61.577863 C 227.50469 52.685872 219.97646 49.403428 211.81747 51.429426 C 213.26647 54.118423 214.76949 56.605792 215.98348 59.226789 C 218.69248 65.075783 216.59642 69.881419 210.94442 71.096418 C 198.96643 73.672415 181.95165 65.628278 176.58065 54.539289 C 175.62365 52.563291 175.39191 49.823732 175.84091 47.645734 C 178.2909 35.755746 177.29048 34.089865 164.71249 31.681867 C 162.80849 40.265859 156.28742 42.517336 149.27743 42.287336 C 146.46043 49.076329 144.52439 55.595447 141.11239 61.220441 C 139.29139 64.223438 134.89549 67.559016 131.71249 67.509016 C 118.9785 67.309016 106.26151 65.873351 93.54452 64.828352 C 87.423526 64.324352 81.289135 62.989489 75.206141 63.218488 C 59.727156 63.800488 44.276664 65.109341 28.80868 66.01634 C 16.481692 66.739339 4.1491791 67.461688 -8.1918086 67.772687 C -10.26924 67.824477 -12.397019 65.923653 -14.50382 64.851789 C -14.485917 64.871805 -14.473433 64.890353 -14.45548 64.910383 C -24.014471 62.143386 -24.772861 53.720594 -26.793859 45.984602 C -27.445859 43.487604 -28.343131 40.148452 -30.220129 39.032453 C -39.50512 33.511459 -41.180453 24.710455 -40.727453 15.344465 C -40.291454 6.3344739 -34.922466 1.1526574 -24.851477 -1.5803398 C -25.062476 -3.0973383 -25.247403 -4.6607125 -25.500402 -6.2107109 C -27.6614 -19.471698 -17.697417 -30.89352 -4.8534297 -27.468523 C 8.1455573 -24.001527 21.105282 -25.341346 34.01327 -23.913348 C 46.734257 -22.506349 59.404419 -20.144652 72.153406 -19.650652 C 82.016396 -19.268653 91.952955 -21.348626 101.88095 -21.922625 C 112.66693 -22.546624 123.48184 -22.665274 134.28182 -23.062273 C 140.16982 -23.279273 143.1036 -20.149151 144.1036 -14.692156 C 144.06406 -14.693325 144.02449 -14.693917 143.98495 -14.695086 C 146.23286 -9.2488656 148.48036 -3.8057708 151.22567 2.8508125 C 157.14867 4.4338109 162.43958 9.2419296 164.00057 17.012922 C 165.05757 22.274917 167.9973 24.156619 172.7413 25.775617 C 182.97729 29.269614 186.04961 34.933283 182.93661 44.748273 C 180.53861 52.313266 185.23561 55.929441 189.95761 59.241437 C 195.9376 63.436433 202.49686 66.922079 211.03085 63.652082 C 209.44785 60.045086 208.19464 57.408419 207.12264 54.700422 C 204.55065 48.208428 208.4923 41.628494 214.53329 43.822492 C 221.89828 46.49649 229.4575 51.090525 234.56649 56.92552 C 241.43549 64.772512 240.07849 75.052642 237.46249 83.941633 z M -14.596105 64.740461 C -11.120664 63.270307 -7.6467348 61.7995 -4.1722773 60.328352 C -4.3512772 59.930352 -4.5308752 59.532504 -4.709875 59.134504 C -7.4348723 59.843503 -10.640123 61.781909 -12.762121 60.95091 C -15.432118 59.905911 -18.448122 56.910372 -19.137121 54.202375 C -20.846119 47.485382 -21.318372 40.453518 -22.043371 35.279523 C -26.992018 43.564751 -25.105915 52.943494 -14.596105 64.740461 z M 20.841395 63.174543 C 39.738376 58.652547 37.438522 41.734462 43.940516 30.927473 C 44.707515 31.179472 45.476251 31.431332 46.24325 31.683332 C 42.733254 41.514322 39.222485 51.345041 35.712488 61.175031 C 36.324488 61.582031 36.935938 61.987782 37.547938 62.393781 C 40.282935 58.217785 43.01728 54.041414 45.846277 49.721418 C 45.923277 50.777417 46.024239 52.160574 46.306238 56.02757 C 53.565231 41.092585 57.933898 27.717196 57.507898 13.084211 C 57.327899 6.8952171 56.594367 0.72221257 56.113367 -5.4577813 C 56.157807 -5.4176581 56.203652 -5.3876819 56.248133 -5.347918 C 54.595481 -8.7205876 52.950163 -12.08552 51.304285 -15.44948 C 50.745286 -15.283481 50.187503 -15.117433 49.628504 -14.951434 C 49.964504 -10.083438 50.299063 -5.2151671 50.626063 -0.48317188 C 47.919065 -7.1061653 45.173329 -13.825679 42.427332 -20.545672 C 41.515333 -20.202672 40.604468 -19.860351 39.692469 -19.517352 C 39.927469 -17.915353 40.163071 -16.312567 40.70907 -12.59157 C 34.940076 -15.438567 30.400533 -17.679335 24.689539 -20.497332 C 42.867521 8.0016395 44.583371 35.503571 20.841395 63.174543 z M 110.90585 62.36009 C 118.04984 54.338098 122.32845 44.196947 123.65145 33.698957 C 126.03445 14.787976 123.51564 -3.4873198 110.85165 -18.644305 C 110.06565 -18.557305 109.27925 -18.468633 108.49325 -18.380633 C 108.18525 -15.812635 107.87754 -13.245119 107.66854 -11.506121 C 105.48255 -14.248118 103.03881 -17.311753 100.59481 -20.37575 C 99.305814 -19.537751 98.017089 -18.698612 96.72909 -17.860613 C 105.04108 -5.4776257 107.2873 8.0555769 106.8453 22.444562 C 106.4073 36.745548 99.151584 48.4047 93.16659 60.647687 C 93.919589 61.162687 94.67238 61.676168 95.425379 62.190168 C 99.051375 57.543173 102.6795 52.89453 106.5245 47.966535 C 105.4285 51.829531 104.38153 55.518285 103.33554 59.206281 C 103.82053 59.475281 104.30659 59.74441 104.79159 60.01341 C 106.77859 57.467413 108.76623 54.922656 111.89022 50.91966 C 110.67522 55.393656 109.86768 58.369421 109.05868 61.346418 C 109.67468 61.684418 110.28985 62.02209 110.90585 62.36009 z M 129.33505 62.112531 C 137.08094 62.519117 144.16488 56.547707 143.20126 48.29759 C 142.88026 45.554593 138.15371 41.656398 135.11971 41.326398 C 131.34872 40.916399 126.09456 42.597171 123.56356 45.315168 C 120.50957 48.594165 119.63788 53.907688 117.84188 58.293684 C 120.25988 59.262683 122.15161 59.920946 123.95761 60.761945 C 125.72498 61.585444 127.54753 62.018704 129.33505 62.112531 z M 8.3755742 60.30052 C 17.022878 60.587347 25.974936 54.908479 28.818934 45.968488 C 23.336939 41.271493 18.217859 40.628392 14.196863 46.264387 C 11.139866 45.018388 8.3051884 43.862362 5.3081914 42.640363 C 3.3591934 48.325358 1.8069787 52.848548 0.066980469 57.924543 C 2.6439779 59.446291 5.4931396 60.20491 8.3755742 60.30052 z M 87.894617 58.790266 C 92.988612 58.864266 96.943558 49.24122 96.459559 39.10423 C 84.64157 39.10423 73.387188 38.955403 62.141199 39.180402 C 57.822204 39.267402 50.788489 48.442301 51.837488 52.497297 C 52.236488 54.044295 54.061568 56.22302 55.417566 56.36302 C 66.217556 57.477018 77.055628 58.633266 87.894617 58.790266 z M -16.14298 56.522687 C -15.427981 56.507688 -14.713449 56.491812 -13.998449 56.475812 C -11.523452 52.480816 -8.1638425 48.746636 -6.8778437 44.399641 C -5.9938446 41.408644 -7.6675676 37.451633 -8.8685664 34.170637 C -9.287566 33.026638 -12.720485 31.665641 -13.059484 32.024641 C -15.267482 34.363638 -18.515551 37.113175 -18.577551 39.794172 C -18.706551 45.349166 -17.05898 50.943693 -16.14298 56.522687 z M 3.6631719 38.428937 C 5.8954196 38.208688 8.0182872 36.947818 10.054285 34.55882 C 16.122279 27.439827 16.975311 15.083543 11.636316 7.5075508 C 8.5753195 3.1635551 4.9140729 0.42942991 -0.33292187 4.5544258 L -0.12051953 4.3596016 C -12.693507 10.239596 -14.522715 28.067899 -3.3827266 36.055891 C -0.91072903 37.828889 1.4309241 38.649187 3.6631719 38.428937 z M -26.540441 36.452863 C -35.148433 29.79287 -38.946558 19.363898 -34.264562 10.971906 C -32.968564 8.6489086 -29.620037 6.3525858 -27.078039 6.1935859 C -25.004041 6.0635861 -21.768308 8.6948772 -20.754309 10.889875 C -18.91331 14.872871 -18.342827 19.443419 -16.961828 24.867414 C -15.633829 17.149422 -15.55572 10.872483 -20.695715 5.4684883 C -24.520711 1.4454923 -28.607328 1.1743002 -32.795324 4.4972969 C -41.024316 11.02729 -39.312862 30.656548 -30.105871 35.799543 C -29.107872 36.357542 -27.73844 36.250863 -26.540441 36.452863 z M 139.66659 35.856672 C 146.53104 36.190519 154.16474 34.375555 158.18661 30.824934 C 158.40261 31.999932 158.61614 33.174244 158.93514 34.916242 C 164.47914 27.604249 163.9244 19.953822 159.52841 14.141828 C 156.91741 10.689832 150.4786 9.041566 145.6036 8.6735664 C 139.70461 8.2285669 133.63818 9.9937313 127.72518 10.79173 C 127.37718 17.126724 126.89204 22.713478 126.87704 28.302473 C 126.87304 29.847471 127.85549 31.982419 129.08749 32.846418 C 131.70611 34.682791 135.54792 35.656363 139.66659 35.856672 z M 20.837 35.298566 C 23.436872 35.354941 25.962202 35.280003 28.391199 34.759504 C 31.060197 34.186504 34.616817 30.878048 35.073816 28.320051 C 35.992815 23.181056 35.61746 17.60135 34.609461 12.432355 C 34.231461 10.497357 30.60651 9.1971586 28.461512 7.6071602 C 27.391513 9.1851586 26.322199 10.763212 25.766199 11.584211 C 23.355202 9.4512131 20.308313 6.7548411 17.261316 4.0578437 C 16.446317 4.6248432 15.630027 5.1915279 14.815027 5.7585273 C 19.153023 16.154517 18.986088 26.164411 12.833094 35.055402 C 15.562591 35.055402 18.237128 35.242191 20.837 35.298566 z M 76.24618 32.248762 C 76.39418 32.242762 76.536449 32.218055 76.672449 32.174055 C 76.944449 32.094055 77.132414 31.929867 77.236414 31.681867 C 77.276414 31.585867 77.349211 31.493012 77.453211 31.405012 C 77.565211 31.317012 77.672942 31.24568 77.776941 31.18968 C 77.880941 31.14168 77.988672 31.074066 78.100672 30.986066 C 78.212672 30.906066 78.296625 30.81693 78.352625 30.72093 C 78.456615 30.54493 78.600754 30.258136 78.784754 29.858137 C 78.808754 29.794137 78.841434 29.644824 78.881434 29.412824 C 78.929434 29.188824 78.984426 29.040976 79.048426 28.968977 L 79.01327 27.937727 C 78.99727 27.457727 78.896976 26.817316 78.712977 26.017316 C 78.344977 24.393318 77.788519 23.278148 77.04452 22.670148 C 75.788521 21.662149 74.629505 21.481622 73.565516 22.129621 C 73.053516 22.441621 72.641187 22.85395 72.329188 23.365949 C 72.025188 23.885949 71.853562 24.449844 71.813563 25.057844 L 71.813563 25.069562 C 71.813563 25.149562 71.808379 25.29741 71.800379 25.51341 L 71.800379 25.993879 C 71.808379 26.105879 71.817281 26.244824 71.825281 26.412824 C 71.841281 26.588824 71.857621 26.749293 71.873621 26.893293 C 71.913621 27.093293 71.992391 27.377832 72.112391 27.745832 C 72.232391 28.113832 72.308906 28.38575 72.340906 28.56175 C 72.468906 29.169749 72.696989 29.757422 73.024988 30.325422 C 73.352988 30.901421 73.752696 31.344975 74.224695 31.656965 C 74.392695 31.768965 74.617059 31.872977 74.897059 31.968977 C 75.177058 32.072976 75.472754 32.153211 75.784754 32.209211 C 75.944754 32.241211 76.09818 32.254762 76.24618 32.248762 z M 80.369715 31.683332 C 80.504715 31.682082 80.653563 31.621691 80.813563 31.501691 C 80.925562 31.421691 81.093469 31.321398 81.317469 31.201398 C 81.541469 31.081399 81.72425 30.957328 81.86825 30.829328 C 82.01225 30.709328 82.128883 30.54514 82.216883 30.337141 C 82.296883 30.161141 82.340719 29.898125 82.348719 29.546125 C 82.364719 29.202135 82.361 28.829914 82.337 28.429914 C 82.321 28.037914 82.321 27.769715 82.337 27.625715 C 82.345 27.569715 82.348719 27.389187 82.348719 27.085187 L 82.348719 26.546125 C 82.348719 26.346135 82.372496 26.242113 82.420496 26.234113 C 82.468496 26.226113 82.596285 26.266231 82.804285 26.35423 C 82.844285 26.37023 83.021094 26.421504 83.333094 26.509504 C 83.645093 26.605504 83.933352 26.696895 84.197352 26.784895 C 84.461351 26.872894 84.596578 26.936789 84.604578 26.976789 C 84.620578 27.096789 84.660695 27.541798 84.724695 28.309797 C 84.788695 29.077796 84.861492 29.614196 84.941492 29.918195 C 84.949492 29.950195 84.969551 30.057926 85.001551 30.241926 C 85.033551 30.433926 85.064766 30.60927 85.096766 30.76927 C 85.128766 30.929269 85.172602 31.080836 85.228602 31.224836 C 85.292601 31.376836 85.352777 31.460789 85.408777 31.476789 C 85.640777 31.532789 85.912696 31.428777 86.224695 31.164777 C 86.544685 30.908778 86.71632 30.662101 86.74032 30.422102 C 86.74832 30.310102 86.744602 30.149633 86.728602 29.941633 C 86.720602 29.741633 86.709445 29.564824 86.693445 29.412824 C 86.677445 29.268824 86.652203 29.057082 86.620203 28.777082 C 86.596203 28.505082 86.581328 28.236883 86.573328 27.972883 C 86.565328 27.844883 86.565328 27.702219 86.573328 27.542219 C 86.581328 27.390219 86.596203 27.233469 86.620203 27.073469 C 86.644203 26.913469 86.669445 26.758183 86.693445 26.606184 C 86.725445 26.462184 86.752941 26.305433 86.776941 26.137434 C 86.808941 25.969434 86.832719 25.825305 86.848719 25.705305 C 86.872719 25.553305 86.892777 25.357902 86.908777 25.117902 C 86.932777 24.885903 86.956555 24.661539 86.980555 24.445539 C 87.004555 24.237539 87.033516 24.045855 87.065516 23.869855 C 87.073516 23.813856 87.097293 23.717281 87.137293 23.581281 C 87.177293 23.445281 87.204789 23.330113 87.220789 23.234113 C 87.244789 23.146113 87.248508 23.049539 87.232508 22.945539 C 87.224508 22.841539 87.189574 22.761305 87.125574 22.705305 C 87.061574 22.729305 86.996215 22.68175 86.932215 22.56175 C 86.868215 22.44175 86.837 22.348894 86.837 22.284895 C 86.837 22.252895 86.80432 22.217961 86.74032 22.177961 C 86.67632 22.137961 86.608707 22.105281 86.536707 22.081281 C 86.464707 22.049281 86.40825 22.032941 86.36825 22.032941 C 86.24025 22.040941 86.061187 22.069902 85.829188 22.117902 C 85.597188 22.157902 85.433 22.185398 85.337 22.201398 C 85.281 22.201398 85.228262 22.217738 85.180262 22.249738 C 85.132262 22.289738 85.093609 22.341012 85.061609 22.405012 C 85.037609 22.469012 85.017551 22.52175 85.001551 22.56175 C 84.985551 22.60975 84.965492 22.677363 84.941492 22.765363 C 84.925492 22.853363 84.91659 22.906102 84.91659 22.922102 C 84.70059 23.730101 84.592859 24.59713 84.592859 25.525129 C 84.592859 25.613129 84.585422 25.682207 84.569422 25.730207 C 84.553422 25.778207 84.520742 25.805703 84.472742 25.813703 C 84.432742 25.821703 84.396344 25.821703 84.364344 25.813703 C 84.332344 25.813703 84.272168 25.801082 84.184168 25.777082 C 84.104168 25.761082 84.040273 25.749926 83.992273 25.741926 C 83.616274 25.677926 83.236615 25.60141 82.852625 25.51341 C 82.580625 25.44941 82.412719 25.385516 82.348719 25.321516 C 82.292719 25.265516 82.248883 25.11023 82.216883 24.85423 C 82.168883 24.478231 82.165164 24.062183 82.205164 23.606184 C 82.205164 23.590184 82.221504 23.521105 82.253504 23.401105 C 82.293504 23.281106 82.324719 23.157035 82.348719 23.029035 C 82.372719 22.909035 82.389059 22.784965 82.397059 22.656965 C 82.405059 22.536965 82.377562 22.441855 82.313563 22.369855 C 82.257563 22.305856 82.168426 22.285797 82.048426 22.309797 C 82.016426 22.317797 81.961434 22.297738 81.881434 22.249738 C 81.809434 22.201738 81.745539 22.18168 81.689539 22.18968 C 81.625539 22.20568 81.496275 22.201961 81.304285 22.177961 C 81.120285 22.153961 80.992496 22.145059 80.920496 22.153059 C 80.776496 22.169059 80.668766 22.185398 80.596766 22.201398 C 80.532766 22.209398 80.448812 22.225738 80.344813 22.249738 C 80.248813 22.281738 80.17748 22.321856 80.12948 22.369855 C 80.081481 22.417855 80.032461 22.485469 79.984461 22.573469 C 79.936461 22.661469 79.905246 22.769199 79.889246 22.897199 C 79.921246 22.849199 79.945023 22.845481 79.961023 22.88548 C 79.977023 22.92548 79.977023 22.981938 79.961023 23.053937 C 79.953023 23.125937 79.936684 23.189832 79.912684 23.245832 C 79.896684 23.301832 79.872906 23.365727 79.840906 23.437727 C 79.808906 23.517726 79.788848 23.577902 79.780848 23.617902 C 79.756848 23.633902 79.74941 23.749071 79.75741 23.96507 C 79.76541 24.18107 79.769129 24.301422 79.769129 24.325422 C 79.745129 25.125421 79.805305 25.820825 79.949305 26.412824 C 79.989305 26.556824 80.013082 26.726196 80.021082 26.918195 C 80.037082 27.118195 80.040801 27.349996 80.032801 27.613996 L 80.032801 28.14134 C 80.040801 28.35734 80.053422 28.653036 80.069422 29.029035 C 80.085422 29.405025 80.092859 29.676953 80.092859 29.844953 C 80.100859 30.012953 80.097141 30.209821 80.081141 30.43382 C 80.065141 30.65782 80.032461 30.856942 79.984461 31.032941 C 79.904461 31.320941 79.957199 31.517809 80.141199 31.621809 C 80.213199 31.663809 80.288715 31.684082 80.369715 31.683332 z M 76.457117 30.748762 C 76.401117 30.744762 76.34466 30.73493 76.28866 30.72093 C 76.00866 30.64893 75.769422 30.437187 75.569422 30.085187 C 75.369422 29.741188 75.221574 29.377879 75.125574 28.993879 C 74.981574 28.37788 74.877562 27.925433 74.813563 27.637434 C 74.757563 27.349434 74.697387 26.953435 74.633387 26.449445 C 74.577387 25.953446 74.561047 25.489843 74.585047 25.057844 L 74.585047 25.046125 L 74.585047 24.986066 C 74.625047 24.674067 74.752836 24.356847 74.968836 24.036848 C 75.184836 23.724848 75.432977 23.509387 75.712977 23.389387 C 75.864976 23.317387 76.009106 23.273551 76.145105 23.257551 C 76.281105 23.249551 76.405176 23.265891 76.517176 23.305891 C 76.629176 23.345891 76.729469 23.397164 76.817469 23.461164 C 76.913469 23.533164 77.001141 23.62602 77.081141 23.73802 C 77.161141 23.850019 77.228754 23.961469 77.284754 24.073469 C 77.348754 24.185469 77.40893 24.313258 77.46493 24.457258 C 78.336929 26.497256 78.484777 28.217904 77.908777 29.617902 C 77.812777 29.841902 77.684988 30.046207 77.524988 30.230207 C 77.372988 30.414207 77.185023 30.553152 76.961023 30.649152 C 76.793024 30.727152 76.625117 30.760762 76.457117 30.748762 z M -30.180578 28.324445 C -21.443587 23.053451 -20.702777 17.01266 -28.15177 8.752668 C -35.438762 14.396662 -35.841572 19.393454 -30.180578 28.324445 z M 80.081141 22.681867 C 80.049141 22.689867 80.060297 22.653469 80.116297 22.573469 C 80.172297 22.501469 80.208695 22.494031 80.224695 22.550031 C 80.216695 22.638031 80.169141 22.681867 80.081141 22.681867 z M 76.917078 17.846418 C 77.394828 17.832418 77.806012 17.696726 78.149012 17.437727 L 78.329188 17.257551 C 78.401187 17.193551 78.476238 17.117035 78.556238 17.029035 C 78.636238 16.941035 78.705316 16.845926 78.761316 16.741926 C 78.825316 16.645926 78.86025 16.561973 78.86825 16.489973 C 78.87625 16.417973 78.921551 16.325117 79.001551 16.213117 C 79.081551 16.101117 79.129105 16.013445 79.145105 15.949445 C 79.177105 15.837445 79.217223 15.593023 79.265223 15.217023 C 79.273223 15.153024 79.320777 14.933843 79.408777 14.557844 C 79.504777 14.189844 79.544895 13.901586 79.528895 13.693586 C 79.512895 13.509586 79.500273 13.305281 79.492273 13.081281 C 79.484273 12.865281 79.476836 12.669879 79.468836 12.493879 C 79.468836 12.325879 79.465117 12.137914 79.457117 11.929914 C 79.457117 11.729914 79.448215 11.541949 79.432215 11.365949 C 79.416215 11.189949 79.392437 10.996801 79.360438 10.788801 C 79.328438 10.580801 79.284602 10.381679 79.228602 10.18968 C 78.820602 8.7016812 78.172753 7.778185 77.284754 7.4181953 C 76.644755 7.1781956 76.07714 7.141797 75.581141 7.3097969 C 75.093141 7.4697967 74.677093 7.78927 74.333094 8.2692695 C 73.989094 8.7492691 73.720894 9.309446 73.528895 9.9494453 C 73.344895 10.589435 73.237164 11.269973 73.205164 11.989973 L 73.205164 12.001691 C 73.205164 12.417691 73.236379 12.841176 73.300379 13.273176 C 73.372379 13.713175 73.472672 14.149282 73.600672 14.581281 C 73.728672 15.013281 73.89286 15.421891 74.092859 15.805891 C 74.292859 16.18989 74.517223 16.529422 74.765223 16.825422 C 75.021222 17.121422 75.3132 17.362135 75.641199 17.546125 C 75.977199 17.730125 76.333071 17.828953 76.70907 17.844953 C 76.78007 17.847953 76.848828 17.848418 76.917078 17.846418 z M 69.58993 17.465559 C 69.66993 17.468559 69.751094 17.467164 69.833094 17.461164 C 70.161093 17.437164 70.456789 17.325715 70.720789 17.125715 C 70.912789 16.973715 71.060637 16.849644 71.164637 16.753645 C 71.276637 16.665645 71.404426 16.541574 71.548426 16.381574 C 71.692426 16.221574 71.801621 16.057387 71.873621 15.889387 C 71.953621 15.721387 72.001176 15.540859 72.017176 15.348859 C 72.065176 14.64486 71.957445 13.942019 71.693445 13.23802 C 71.437446 12.54202 71.068953 11.777538 70.588953 10.945539 C 70.476953 10.753539 70.301609 10.492777 70.061609 10.164777 C 69.82161 9.8367777 69.652238 9.6012577 69.556238 9.4572578 C 69.532238 9.4092579 69.473527 9.3253046 69.377527 9.2053047 C 69.281527 9.0853048 69.197574 8.9775741 69.125574 8.8815742 C 69.061574 8.7855743 69.001398 8.6815624 68.945398 8.5695625 C 68.897398 8.4655626 68.892215 8.3778906 68.932215 8.3058906 C 68.972215 8.2418907 69.06507 8.2017734 69.20907 8.1857734 C 69.80907 8.1297735 70.325411 8.1097149 70.75741 8.1257148 C 70.78141 8.1257148 70.852742 8.1294336 70.972742 8.1374336 C 71.100742 8.1454336 71.224813 8.1491523 71.344813 8.1491523 C 71.472812 8.1571523 71.60432 8.1608711 71.74032 8.1608711 C 71.87632 8.1688711 71.989234 8.1651523 72.077234 8.1491523 C 72.173234 8.1331524 72.228227 8.1130937 72.244227 8.0890937 C 72.252227 8.0650938 72.237352 7.9900428 72.197352 7.862043 C 72.157352 7.7420431 72.137293 7.6729648 72.137293 7.6569648 C 72.129293 7.5929649 72.109234 7.5454101 72.077234 7.5134102 C 72.045234 7.4814102 72.008836 7.4613516 71.968836 7.4533516 C 71.936836 7.4453516 71.893 7.4379141 71.837 7.4299141 C 71.781 7.4139141 71.737164 7.3938554 71.705164 7.3698555 C 71.553164 7.2818556 71.248566 7.2179609 70.792566 7.1779609 C 70.336567 7.137961 70.093609 7.1141836 70.061609 7.1061836 C 69.84561 7.0661836 69.541011 6.9971054 69.149012 6.9011055 C 68.765012 6.8051056 68.40914 6.724871 68.081141 6.6608711 C 67.761141 6.5968712 67.456543 6.5582187 67.168543 6.5422187 C 66.872543 6.5342188 66.637023 6.5854923 66.461023 6.6974922 C 66.293024 6.8094921 66.19273 6.9610588 66.16073 7.1530586 C 66.128731 7.3370584 66.136168 7.5376447 66.184168 7.7536445 C 66.232168 7.9776443 66.321305 8.202008 66.449305 8.4260078 C 66.513305 8.5380077 66.70127 8.9139381 67.01327 9.5539375 C 67.333269 10.193937 67.605188 10.673879 67.829188 10.993879 C 67.933187 11.137879 68.077317 11.357059 68.261316 11.653059 C 68.453316 11.949058 68.597445 12.165985 68.693445 12.301984 C 68.741445 12.365984 68.796438 12.473715 68.860438 12.625715 C 68.932437 12.777715 69.001516 12.918135 69.065516 13.046125 C 69.137516 13.174125 69.208848 13.265516 69.280848 13.321516 L 69.292566 13.344953 C 69.324566 13.496953 69.388461 13.673762 69.484461 13.873762 C 69.580461 14.081762 69.673316 14.269727 69.761316 14.437727 C 69.849316 14.613726 69.924367 14.797973 69.988367 14.989973 C 70.060367 15.181972 70.085609 15.373656 70.061609 15.565656 C 70.045609 15.757656 69.976531 15.941903 69.856531 16.117902 C 69.672531 16.333902 69.437011 16.408953 69.149012 16.344953 C 68.869012 16.288953 68.593365 16.161164 68.321375 15.961164 C 68.049375 15.761164 67.872566 15.56948 67.792566 15.38548 C 67.752566 15.289481 67.701293 15.129011 67.637293 14.905012 C 67.573293 14.681012 67.513117 14.513105 67.457117 14.401105 C 67.425117 14.337106 67.377562 14.27693 67.313563 14.22093 C 67.249563 14.17293 67.180484 14.137996 67.108484 14.113996 C 67.036484 14.089996 66.968871 14.093715 66.904871 14.125715 C 66.840871 14.165715 66.800754 14.237047 66.784754 14.341047 C 66.736754 14.589047 66.776871 14.886207 66.904871 15.230207 C 67.040871 15.574207 67.212496 15.889961 67.420496 16.177961 C 67.628496 16.465961 67.83652 16.685141 68.04452 16.837141 C 68.324519 17.04514 68.609059 17.205609 68.897059 17.317609 C 69.119058 17.407609 69.34993 17.456559 69.58993 17.465559 z M 69.280848 13.321516 L 69.25741 13.14134 L 69.292566 13.177961 C 69.348566 13.249961 69.348566 13.297516 69.292566 13.321516 L 69.280848 13.321516 z M 83.942469 17.465559 C 84.022469 17.468559 84.102168 17.467164 84.184168 17.461164 C 84.512168 17.437164 84.809328 17.325715 85.073328 17.125715 C 85.265328 16.973715 85.413176 16.849644 85.517176 16.753645 C 85.629176 16.665645 85.756965 16.541574 85.900965 16.381574 C 86.044965 16.221574 86.152695 16.057387 86.224695 15.889387 C 86.304695 15.721387 86.35225 15.540859 86.36825 15.348859 C 86.41625 14.64486 86.308519 13.942019 86.04452 13.23802 C 85.78852 12.54202 85.421492 11.777538 84.941492 10.945539 C 84.829492 10.753539 84.652683 10.492777 84.412684 10.164777 C 84.172684 9.8367777 84.004777 9.6012577 83.908777 9.4572578 C 83.884777 9.4092579 83.824601 9.3253046 83.728602 9.2053047 C 83.632602 9.0853048 83.548648 8.9775741 83.476648 8.8815742 C 83.412649 8.7855743 83.352473 8.6815624 83.296473 8.5695625 C 83.248473 8.4655626 83.244754 8.3778906 83.284754 8.3058906 C 83.324754 8.2418907 83.41761 8.2017734 83.561609 8.1857734 C 84.161609 8.1297735 84.676485 8.1097149 85.108484 8.1257148 C 85.132484 8.1257148 85.205281 8.1294336 85.325281 8.1374336 C 85.453281 8.1454336 85.577352 8.1491523 85.697352 8.1491523 C 85.825351 8.1571523 85.95686 8.1608711 86.092859 8.1608711 C 86.228859 8.1688711 86.340309 8.1651523 86.428309 8.1491523 C 86.524308 8.1331524 86.580766 8.1130937 86.596766 8.0890937 C 86.604766 8.0650938 86.588426 7.9900428 86.548426 7.862043 C 86.508426 7.7420431 86.488367 7.6729648 86.488367 7.6569648 C 86.480367 7.5929649 86.460309 7.5454101 86.428309 7.5134102 C 86.396309 7.4814102 86.361365 7.4613516 86.321375 7.4533516 C 86.289375 7.4453516 86.245539 7.4379141 86.189539 7.4299141 C 86.133539 7.4139141 86.088238 7.3938554 86.056238 7.3698555 C 85.904238 7.2818556 85.601105 7.2179609 85.145105 7.1779609 C 84.689106 7.137961 84.444684 7.1141836 84.412684 7.1061836 C 84.196684 7.0661836 83.89355 6.9971054 83.501551 6.9011055 C 83.117551 6.8051056 82.760215 6.724871 82.432215 6.6608711 C 82.112225 6.5968712 81.809082 6.5582187 81.521082 6.5422187 C 81.225082 6.5342188 80.989562 6.5854923 80.813563 6.6974922 C 80.645563 6.8094921 80.545269 6.9610588 80.51327 7.1530586 C 80.48127 7.3370584 80.488707 7.5376447 80.536707 7.7536445 C 80.584707 7.9776443 80.672379 8.202008 80.800379 8.4260078 C 80.864379 8.5380077 81.052344 8.9139381 81.364344 9.5539375 C 81.684343 10.193937 81.956262 10.673879 82.180262 10.993879 C 82.284262 11.137879 82.428391 11.357059 82.612391 11.653059 C 82.80439 11.949058 82.94852 12.165985 83.04452 12.301984 C 83.092519 12.365984 83.148977 12.473715 83.212977 12.625715 C 83.284976 12.777715 83.35259 12.918135 83.41659 13.046125 C 83.48859 13.174125 83.561387 13.265516 83.633387 13.321516 L 83.645105 13.344953 C 83.677105 13.496953 83.741 13.673762 83.837 13.873762 C 83.933 14.081762 84.024391 14.269727 84.112391 14.437727 C 84.200391 14.613726 84.276906 14.797973 84.340906 14.989973 C 84.412906 15.181972 84.436684 15.373656 84.412684 15.565656 C 84.396684 15.757656 84.32907 15.941903 84.20907 16.117902 C 84.02507 16.333902 83.78955 16.408953 83.501551 16.344953 C 83.221551 16.288953 82.944449 16.161164 82.672449 15.961164 C 82.400449 15.761164 82.225105 15.56948 82.145105 15.38548 C 82.105106 15.289481 82.052367 15.129011 81.988367 14.905012 C 81.924367 14.681012 81.864191 14.513105 81.808191 14.401105 C 81.776191 14.337106 81.728637 14.27693 81.664637 14.22093 C 81.600637 14.17293 81.533023 14.137996 81.461023 14.113996 C 81.389024 14.089996 81.32141 14.093715 81.25741 14.125715 C 81.19341 14.165715 81.153293 14.237047 81.137293 14.341047 C 81.089293 14.589047 81.12941 14.886207 81.25741 15.230207 C 81.39341 15.574207 81.565035 15.889961 81.773035 16.177961 C 81.981025 16.465961 82.189059 16.685141 82.397059 16.837141 C 82.677058 17.04514 82.961598 17.205609 83.249598 17.317609 C 83.471597 17.407609 83.702469 17.456559 83.942469 17.465559 z M 83.633387 13.321516 L 83.608484 13.14134 L 83.645105 13.177961 C 83.701105 13.249961 83.701105 13.297516 83.645105 13.321516 L 83.633387 13.321516 z M 90.661707 17.002668 C 90.755707 17.016668 90.800473 17.001258 90.796473 16.957258 L 90.833094 16.957258 C 91.225093 16.957258 91.580975 16.853246 91.900965 16.645246 C 92.228965 16.445246 92.488262 16.18223 92.680262 15.85423 C 92.872262 15.534231 93.016391 15.185796 93.112391 14.809797 C 93.216391 14.433797 93.26541 14.061586 93.25741 13.693586 C 93.24941 13.437586 93.169176 13.01782 93.017176 12.43382 C 92.993176 12.35382 93.05707 12.177011 93.20907 11.905012 C 93.36907 11.633012 93.453023 11.477727 93.461023 11.437727 C 93.733023 10.549727 93.705527 9.7852455 93.377527 9.1452461 C 93.249527 8.8972463 93.03632 8.6580076 92.74032 8.4260078 C 92.444321 8.194008 92.11741 8.0060428 91.75741 7.862043 C 91.405411 7.7180431 91.040636 7.6289062 90.664637 7.5969062 C 90.296637 7.5649063 89.977164 7.6250822 89.705164 7.777082 C 89.585164 7.841082 89.37714 7.9049766 89.081141 7.9689766 C 88.793141 8.0329765 88.581398 8.1020548 88.445398 8.1740547 C 87.877399 8.4860544 87.496275 8.7527893 87.304285 8.9767891 C 86.920286 9.4087886 86.728602 9.7973402 86.728602 10.14134 C 86.728602 10.26934 86.816274 10.437246 86.992273 10.645246 C 87.136273 10.813246 87.216508 10.825867 87.232508 10.681867 C 87.272508 10.225868 87.476813 9.8009176 87.844813 9.408918 C 88.212812 9.0169184 88.632579 8.7739608 89.104578 8.6779609 C 90.312577 8.4219612 91.093399 8.8729426 91.445398 10.032941 C 91.629398 10.632941 91.653176 11.101727 91.517176 11.437727 C 91.493176 11.485727 91.44934 11.516941 91.38534 11.532941 C 91.32934 11.548941 91.252824 11.548941 91.156824 11.532941 C 91.068824 11.524941 90.98859 11.513785 90.91659 11.497785 C 90.84459 11.481785 90.760637 11.458008 90.664637 11.426008 C 90.576637 11.402008 90.529082 11.389387 90.521082 11.389387 C 90.193082 11.309387 89.93232 11.353223 89.74032 11.521223 C 89.548321 11.689222 89.460648 11.913586 89.476648 12.193586 C 89.500648 12.473586 89.621 12.718008 89.837 12.926008 C 89.925 13.014008 90.025293 13.08534 90.137293 13.14134 C 90.249293 13.19734 90.36818 13.250078 90.49618 13.298078 C 90.62418 13.346078 90.733375 13.397352 90.821375 13.453352 C 91.181365 13.693351 91.312883 14.125739 91.216883 14.749738 C 91.128883 15.277738 90.913422 15.609832 90.569422 15.745832 C 90.225422 15.881832 89.816812 15.825375 89.344813 15.577375 C 89.296813 15.553385 89.152683 15.445644 88.912684 15.253645 C 88.680684 15.061645 88.512777 14.961352 88.408777 14.953352 C 88.168778 14.945352 88.03727 15.012965 88.01327 15.156965 C 87.99727 15.308965 88.064883 15.461996 88.216883 15.613996 C 88.488883 15.933996 88.912368 16.257188 89.488367 16.585187 C 89.600367 16.641187 89.848508 16.737762 90.232508 16.873762 C 90.424508 16.945762 90.567707 16.988668 90.661707 17.002668 z M 77.837 16.837141 C 77.125001 16.741141 76.552203 16.325093 76.120203 15.589094 C 75.688204 14.853094 75.485363 13.889491 75.509363 12.697492 C 75.509363 12.329493 75.549481 11.926066 75.62948 11.486066 C 75.70948 11.046067 75.82093 10.601058 75.96493 10.153059 C 76.11693 9.713059 76.317516 9.3296911 76.565516 9.0016914 C 76.821515 8.6816917 77.10459 8.4848241 77.41659 8.4128242 C 77.68859 8.3488243 77.929293 8.4327776 78.137293 8.6647773 C 78.353293 8.8967771 78.521199 9.1976566 78.641199 9.5656562 C 78.769199 9.9336559 78.873211 10.353422 78.953211 10.825422 C 79.033211 11.297421 79.084484 11.713469 79.108484 12.073469 C 79.140484 12.441468 79.156824 12.760942 79.156824 13.032941 L 79.156824 13.14134 L 79.156824 13.321516 L 79.156824 13.536848 C 79.156824 13.616848 79.153105 13.693363 79.145105 13.765363 C 79.145105 13.837363 79.141387 13.904977 79.133387 13.968977 C 79.125387 14.032976 79.112766 14.085715 79.096766 14.125715 C 79.080766 14.165715 79.060707 14.189492 79.036707 14.197492 C 78.932707 14.213492 78.856191 14.261047 78.808191 14.341047 C 78.768191 14.429047 78.768191 14.536777 78.808191 14.664777 C 78.848191 14.808777 78.840754 15.001926 78.784754 15.241926 C 78.736754 15.489926 78.660238 15.725446 78.556238 15.949445 C 78.452238 16.181445 78.333351 16.382031 78.197352 16.550031 C 78.069352 16.726031 77.952719 16.821141 77.848719 16.837141 L 77.837 16.837141 z M 90.953211 12.649152 C 90.785211 12.617152 90.661141 12.553258 90.581141 12.457258 L 90.556238 12.43382 C 90.756238 12.40182 90.90927 12.461996 91.01327 12.613996 C 91.02927 12.645996 91.009211 12.657152 90.953211 12.649152 z M -10.633703 7.6877266 C -12.975701 4.7397295 -15.576651 1.4666061 -18.177648 -1.8073906 C -18.122458 -1.7681899 -18.062908 -1.7264635 -18.007727 -1.6872734 C -19.39547 -6.5353747 -20.784391 -11.381573 -21.759191 -14.784441 C -26.345187 -5.7864504 -20.741693 6.9087273 -10.633703 7.6877266 z M 133.73837 2.827375 C 137.62477 2.4878597 142.53632 0.097748933 147.18856 -0.9695 C 146.06056 -5.7487085 145.00487 -10.222892 143.94979 -14.696551 C 135.81407 -14.937048 127.67829 -15.178706 119.54257 -15.420184 C 118.90657 -14.269185 118.27034 -13.117546 117.63534 -11.967547 C 121.74134 -6.9835519 124.95933 -0.062372579 130.24032 2.358625 C 131.26007 2.8261245 132.4429 2.9405468 133.73837 2.827375 z M 77.860438 2.8156562 C 85.42343 2.9949061 93.217258 1.4446399 100.99325 0.71214062 C 99.117252 -12.196846 94.05018 -15.51208 82.183191 -13.841082 C 77.347196 -13.160083 72.240374 -13.996278 67.300379 -14.541277 C 59.657627 -15.384822 56.614275 -12.967089 56.308191 -5.2981133 C 63.103732 0.74985064 70.368518 2.6380909 77.860438 2.8156562 z M -12.371008 2.3102852 C -5.2420149 -2.7657098 -5.5805671 -9.9233312 -6.2435664 -16.914324 C -6.3495663 -18.039323 -9.8563331 -20.088933 -10.878332 -19.638934 C -13.530329 -18.468935 -17.045294 -16.536107 -17.713293 -14.194109 C -18.822421 -10.310173 -18.00668 -5.8774766 -17.982824 -1.6696953 C -16.15844 -0.37402757 -14.340703 0.91371504 -12.371008 2.3102852 z M -0.00040234375 0.0002265625 C 4.0535936 -7.1357663 3.6901163 -14.323464 -1.0638789 -20.825457 C -3.7448762 -24.490453 -7.6687987 -26.916232 -13.400793 -24.272234 C -1.8498045 -21.738237 0.49059717 -17.068756 -0.00040234375 0.0002265625 z M 28.158289 -1.2990898 C 28.728288 -1.2600899 29.860317 -3.2155714 30.011316 -4.3415703 C 30.727316 -9.680565 21.826721 -18.384054 16.556727 -17.988055 C 12.572731 -17.689055 8.5483193 -17.929461 3.5943242 -17.929461 C 3.853324 -16.682462 4.110645 -14.855264 4.6226445 -13.104266 C 5.5926436 -9.7832689 6.0604589 -4.1325151 7.880457 -3.6355156 C 14.376451 -1.8585174 21.348296 -1.7590894 28.158289 -1.2990898 z "
     transform="matrix(1 0 0 -1 117.913 233.968)"
     style="fill:#231f20;fill-opacity:1" />
  <path
     transform="matrix(1 0 0 -1 386.345 149.191)"
     d="M0 0C-21.53-2.474-20.104-2.327-16.566-13.083-19.881-12.085-23.339-11.043-27.328-9.841-28.062-5.209-19.673-4.342-21.874 3.439-23.665 9.771-25.197 12.208-31.705 12.629-39.248 13.117-43.159 8.184-45.372 3.238-48.247-3.189-38.514-5.532-35.812-11.289-37.496-12.493-39.177-13.693-41.18-15.125-40.177-1.472-49.95-7.771-58.096-6.875-53.612-4.256-50.927-2.688-46.702-.221-54.662 3.851-61.505 7.351-68.348 10.851-68.238 11.105-68.129 11.36-68.019 11.615-62.843 10.518-57.699 9.208-52.476 8.419-50.014 8.046-47.401 8.673-44.856 8.847-45.086 11.338-46.412 12.821-47.029 15.212-47.593 17.402-49.383 23.2-50.644 25.887-46.15 22.493-40.49 16.925-36.711 14.071-34.069 17.847-31.051 33.397-28.838 36.561-28.221 34.309-28.621 18.023-26.378 15.827-24.443 13.933-12.32 23.013-9.151 22.615-11.115 17.802-21.299 8.654-19.777 6.881-18.014 4.826-11.271 2.086 0 0"
     fill="#231f20"
     id="path4"
     clip-path="none" />
</svg>
