<?xml version="1.0" encoding="UTF-8" standalone="no"?>
<svg
   version="1.1"
   width="336pt"
   height="336pt"
   viewBox="0 0 336.00001 336.00001"
   id="svg89"
   sodipodi:docname="nobg_color.svg"
   inkscape:version="1.3 (0e150ed6c4, 2023-07-21)"
   xmlns:inkscape="http://www.inkscape.org/namespaces/inkscape"
   xmlns:sodipodi="http://sodipodi.sourceforge.net/DTD/sodipodi-0.dtd"
   xmlns:xlink="http://www.w3.org/1999/xlink"
   xmlns="http://www.w3.org/2000/svg"
   xmlns:svg="http://www.w3.org/2000/svg">
  <sodipodi:namedview
     id="namedview89"
     pagecolor="#505050"
     bordercolor="#ffffff"
     borderopacity="1"
     inkscape:showpageshadow="0"
     inkscape:pageopacity="0"
     inkscape:pagecheckerboard="1"
     inkscape:deskcolor="#505050"
     inkscape:document-units="pt"
     showgrid="false"
     inkscape:zoom="0.76837149"
     inkscape:cx="713.19669"
     inkscape:cy="406.05359"
     inkscape:window-width="1920"
     inkscape:window-height="1016"
     inkscape:window-x="0"
     inkscape:window-y="0"
     inkscape:window-maximized="1"
     inkscape:current-layer="svg89" />
  <defs
     id="defs5">
    <clipPath
       id="clip_0">
      <path
         transform="matrix(1,0,0,-1,0,425.197)"
         d="M 0,425.197 H 425.197 V 0 H 0 Z"
         id="path1" />
    </clipPath>
    <clipPath
       id="clip_1">
      <path
         transform="matrix(1,0,0,-1,0,425.197)"
         d="m 335.985,272.544 h 14.494 v 25.223 h -14.494 z"
         id="path2" />
    </clipPath>
    <clipPath
       id="clip_2">
      <path
         transform="matrix(1,0,0,-1,0,425.197)"
         d="m 344.67,274.735 h 13.795 v 16.786 H 344.67 Z"
         id="path3" />
    </clipPath>
    <clipPath
       id="clip_3">
      <path
         transform="matrix(1,0,0,-1,0,425.197)"
         d="m 333.846,262.627 h 8.022 v 9.047 h -8.022 z"
         id="path4" />
    </clipPath>
    <clipPath
       id="clip_4">
      <path
         transform="matrix(1,0,0,-1,0,425.197)"
         d="m 344.038,265.886 h 5.385 v 6.708 h -5.385 z"
         id="path5" />
    </clipPath>
    <clipPath
       clipPathUnits="userSpaceOnUse"
       id="clipPath3093">
      <use
         x="0"
         y="0"
         xlink:href="#path1"
         id="use212" />
    </clipPath>
    <clipPath
       clipPathUnits="userSpaceOnUse"
       id="clipPath2105">
      <use
         x="0"
         y="0"
         xlink:href="#path1"
         id="use225" />
    </clipPath>
    <clipPath
       clipPathUnits="userSpaceOnUse"
       id="clipPath7034">
      <use
         x="0"
         y="0"
         xlink:href="#path1"
         id="use243" />
    </clipPath>
    <clipPath
       clipPathUnits="userSpaceOnUse"
       id="clipPath6859">
      <use
         x="0"
         y="0"
         xlink:href="#path1"
         id="use246" />
    </clipPath>
  </defs>
  <g
     id="g1"
     transform="translate(5.54298,62.210021)">
    <path
       d="m 51.027039,209.603 c 1.335,-0.489 2.641,-1.099 4.014,-1.424 0.931,-0.221 1.957,-0.042 2.941,-0.042 0.078,-0.515 0.157,-1.029 0.235,-1.544 -1.558,-0.649 -3.116,-1.299 -4.673,-1.942 -0.379,-3.469 0.361,-8.299 -5.809,-4.43 -0.585,0.366 -2.2,-0.91 -3.198,-1.361 0.551,-2.868 1.036,-5.395 1.383,-7.198 -2.588,-1.125 -4.46,-2.234 -6.48,-2.685 -0.896,-0.2 -2.725,0.71 -3,1.506 -0.426,1.234 0.116,2.802 0.289,4.672 -4.538,-1.483 -8.098,-0.085 -8.853,4.343 -0.369,2.162 1.09,5.417 2.808,6.996 3.909,3.594 7.577,1.146 11.32,-2.051 0.345,5.831 3.744,6.931 8.574,5.577 -3.932,2.697 -18.739,1.701 -22.085,-1.486 -4.345,-4.139 -3.418,-11.297 1.906,-14.44 1.126,-0.665 3.313,-1.034 3.399,-1.736 1.101,-9.047 7.416,-4.146 11.206,-3.663 1.635,0.208 2.745,4.542 4.513,6.49 2.06,2.36 4.13,4.711 6.162,7.095 0.184,0.215 0.017,0.842 0.194,0.936 2.288,1.218 4.923,3.198 2.818,5.431 -1.361,1.444 -5.03,0.713 -7.664,0.956"
       fill="#b7bc34"
       id="path18"
       clip-path="none" />
    <path
       d="m 270.26204,83.011 c -0.271,1.629 -0.542,3.258 -0.813,4.888 l 7.989,-2.243 c 0,-0.587 0,-1.174 10e-4,-1.76 -1.981,-1.271 -3.962,-2.542 -5.942,-3.813 3.573,-3.127 3.982,2.164 6.303,2.369 -0.403,1.589 -0.583,3.287 -1.288,4.729 -0.469,0.957 -1.643,2.112 -2.581,2.188 -2.253,0.182 -5.719,0.632 -6.593,-0.564 -1.852,-2.533 -0.281,-4.943 2.924,-5.794"
       fill="#b7bc34"
       id="path51"
       clip-path="none" />
    <path
       d="m 157.29304,44.339 c -2.248,1.917 -4.735,5.602 -6.688,5.338 -2.973,-0.402 -5.576,-3.54 -8.25,-5.454 -3.43,6.186 -5.154,6.334 -11.695,-0.244 -1.047,3.015 -2.144,6.779 -6.137,4.913 -2.691,-1.257 -4.722,-3.924 -7.225,-6.115 0.436,2.443 1.18,4.893 1.208,7.351 0.021,1.805 -0.384,4.2 -1.562,5.247 -0.922,0.818 -3.431,0.301 -5.039,-0.222 -1.837,-0.599 -3.458,-1.862 -5.486,-3.014 0.323,3.222 0.842,6.103 0.849,8.985 0.01,4.525 -2.932,6.778 -7.265,5.449 -3.782001,-1.16 -7.406001,-2.834 -12.035001,-4.648 2.124,3.293 4.008,5.835 5.478,8.597 1.474,2.769 2.789,5.677 3.725,8.664 1.945,6.211 0.025,9.285 -6.382,10.8 -1.265,0.299 -2.55,0.517 -3.934,0.795 3.235,2.698 6.986,4.74 9.13,7.879 2.932,4.291 -0.759,7.632 -3.807,10.646 13.232001,4.674 14.287001,7.882 6.683,19.522 -1.264,1.936 -2.709,3.753 -4.374,6.042 4.622,-1.575 8.737001,-3.041 12.894001,-4.373 3.652,-1.171 4.848,0.475 4.166,3.974 5.546,-1.063 6.597,-0.324 6.588,5.223 -0.005,3.398 -0.46,6.796 -0.723,10.321 10.279,-12.714 11.958,-13.477 17.653,-7.843 9.204,-7.772 10.723,3.148 15.615,6.774 0.172,-3.351 -0.68,-7.123 0.814,-9.241 1.151,-1.632 5.249,-1.187 7.643,-1.598 1.289,-2.789 2.132,-8.221 4.663,-9.175 3.149,-1.188 7.692,1.324 11.474,2.201 -1.385,-12.732 -0.858,-13.314 13.205,-13.427 -4.156,-6.574 0.357,-9.686 5.763,-12.167 -0.831,0.903 -1.744,1.745 -2.47,2.725 -0.946,1.277 -2.249,2.588 -2.466,4.025 -0.228,1.505 0.455,3.26 1.099,4.751 0.634,1.47 1.718,2.745 2.982,4.682 -5.548,-1.292 -11.725,-5.331 -15.138,-0.343 -2.285,3.34 -0.538,9.438 -0.594,14.141 -1.562,-0.812 -4.048,-2.341 -6.71,-3.443 -6.567,-2.718 -9.495,-0.427 -8.755,6.676 0.133,1.286 0.343,2.563 0.431,3.208 -3.173,-0.532 -6.27,-1.052 -9.367,-1.572 -0.085,3.353 -0.284,6.709 -0.208,10.058 0.04,1.786 0.556,3.562 0.2,5.881 -1.036,-1.453 -2.102,-2.886 -3.102,-4.365 -1.118,-1.654 -2.078,-3.422 -3.276,-5.014 -5.23,-6.951 -6.543,-7.024 -12.411,-0.871 -3.631,-6.222 -6.679,-6.545 -11.316,-0.575 -3.229,4.157 -5.772,8.846 -8.967,13.837 0.705,-4.756 1.597,-8.998 1.877,-13.281 0.186,-2.848 -0.502,-5.752 -0.799,-8.631 -2.749,0.597 -5.497,1.194 -8.154,1.771 0.578,-1.504 1.354,-3.52 2.18,-5.665 -5.725,-0.628 -5.725,-0.628 -22.766001,7.9 1.207,-1.322 2.443,-2.62 3.615,-3.973 1.199,-1.383 2.446,-2.744 3.475,-4.249 1.782,-2.608 3.662,-5.195 5.054,-8.011 3.508001,-7.099 2.044001,-10.496 -5.38,-13.295 -1.542,-0.581 -3.087,-1.153 -4.614,-1.723 0.023,-0.458 -0.075,-0.854 0.065,-0.977 7.713,-6.73 6.909,-11.938 -2.65,-15.994 -3.282,-1.393 -6.771,-2.299 -10.044,-4.215 2.389,0 4.78,0.061 7.167,-0.011 10.811,-0.326 14.803,-7.104 9.144,-16.313 -3.897,-6.339 -8.678,-12.134 -14.013,-19.48 2.706,1.671 4.195,2.756 5.822,3.562 4.439,2.2 8.777,4.784 13.456,6.272 4.965001,1.578 8.164001,-1.571 7.287001,-6.76 -0.513,-3.037 -1.855,-5.934 -2.902,-9.134 2.759,1.562 5.376,3.506 8.311,4.602 4.908,1.832 7.1,-0.148 5.89,-5.248 -1.16,-4.888 -2.799,-9.662 -3.591,-14.782 2.147,3.094 3.992,6.471 6.538,9.191 2.009,2.147 4.882,3.487 7.371,5.184 1.256,-2.175 2.512,-4.351 3.539,-6.13 2.255,1.718 4.928,3.754 7.602,5.79 1.908,-3.117 3.816,-6.234 5.746,-9.386 0.357,1.02 0.931,2.755 1.569,4.467 2.847,7.641 5.828,8.397 11.868,3.027 0.152,0.163 0.304,0.327 0.456,0.491"
       fill="#941a1d"
       id="path7"
       clip-path="none" />
    <path
       d="m 218.40104,132.722 c 4.425,2.558 8.85,5.117 13.275,7.675 -0.127,0.302 -0.255,0.603 -0.383,0.905 -6.136,-2.197 -12.234,-4.512 -18.419,-6.562 -7.019,-2.326 -14.095,-4.488 -21.188,-6.577 -3.644,-1.073 -5.816,0.995 -5.173,4.763 1.037,6.075 4.812,10.449 9.186,14.402 1.84,1.663 3.795,3.199 5.32,5.586 -1.268,-0.622 -2.522,-1.272 -3.804,-1.862 -6.303,-2.899 -12.518,-6.03 -18.979,-8.521 -1.972,-0.76 -5.626,-0.583 -6.7,0.691 -1.136,1.348 -0.19,4.52 0.006,6.882 0.062,0.75 0.633,1.458 1.371,3.046 -2.706,-1.312 -4.603,-2.478 -6.659,-3.179 -4.638,-1.581 -7.777,0.676 -7.095,5.495 0.574,4.056 1.871,8.065 3.288,11.933 2.374,6.482 5.098,12.836 6.921,19.619 -5.787,-7.852 -11.333,-15.899 -17.471,-23.467 -2.816,-3.473 -6.696,-6.128 -10.272,-8.925 -3.734,-2.92 -6.524,-1.949 -7.661,3.506 -1.452,-2.393 -2.378,-3.919 -4.022,-6.629 -3.037,2.817 -6.69,4.904 -8.404,8.048 -4.555,8.357 -8.275,17.17 -12.863,26.944 0,-2.452 -0.024,-3.823 0.004,-5.193 0.145,-6.98 0.591,-13.967 0.387,-20.936 -0.267,-9.087 -2.412,-10.311 -10.680001,-6.48 0.175,-1.894 0.333,-3.603 0.626,-6.765 -4.371,1.945 -8.289,3.212 -11.711,5.295 -13.207,8.036 -23.977,18.951 -34.603,30.003 -0.871,0.906 -1.851,1.706 -3.678,1.849 3.71,-5.353 7.42,-10.707 11.939,-17.228 -0.266,2.421 -0.381,3.471 -0.463,4.212 7.886,-6.624 15.747,-13.472 23.899,-19.954 3.22,-2.56 6.978,-4.524 10.687,-6.366 4.721,-2.345 5.891001,-1.663 7.264001,3.375 7.152,-0.979 8.713,0.329 8.795,7.659 0.076,6.809 0.016,13.62 0.016,20.772 2.723,-5.933 5.181,-11.792 8.083,-17.423 1.657,-3.214 3.842,-6.216 6.148,-9.018 1.93,-2.345 4.431,-3.609 7.335,-1.051 0.496,0.437 1.581,0.804 2.071,0.559 4.655,-2.334 7.806,0.507 10.443,3.419 5.905,6.521 11.445,13.373 17.815,20.894 -1.894,-5.152 -3.478,-9.451 -5.051,-13.753 -0.171,-0.467 -0.397,-0.953 -0.406,-1.434 -0.073,-3.794 -0.1,-7.589 -0.141,-11.384 h 11.503 c -0.544,0.826 -0.25,0.585 -0.24,0.332 0.107,-2.646 -0.785,-6.824 0.455,-7.597 2.068,-1.287 5.667,-1.013 8.307,-0.275 4.072,1.139 7.88,3.226 12.525,5.222 -2.194,-3.088 -4.673,-5.335 -5.505,-8.081 -0.925,-3.051 -1.35,-6.979 -0.177,-9.76 1.539,-3.648 5.628,-2.881 8.851,-1.73 7.809,2.789 15.545,5.783 23.318,8.673 0.556,0.206 1.177,0.235 1.768,0.346 -0.169,-0.416 -0.338,-0.833 -0.507,-1.249 0.216,-0.236 0.433,-0.471 0.649,-0.706"
       fill="#be1e2d"
       id="path8"
       clip-path="none" />
    <path
       d="m 77.763039,76.856 c 3.48,-4.625 0.805,-9.358 -2.024,-12.871 -10.635,-13.208 -21.901,-25.909 -32.931,-38.8 -0.992,-1.16 -1.982,-2.322 -2.973,-3.484 0.379,-0.32 0.758,-0.641 1.137,-0.962 9.196,10.16 18.631,20.117 27.493,30.56 4.922,5.8 9.323,12.158 13.159,18.73 3.723,6.378 1.444,11.567 -5.976,12.174 -9.535,0.782 -19.225,-0.099 -28.836,-0.538 -4.958,-0.227 -9.889,-1.048 -14.902,-1.17 10.837,3.222 21.742,6.235 32.476,9.769 4.363,1.436 8.574,3.662 12.458,6.147 5.343,3.419 5.754,7.728 0.999,11.802 -4.506,3.862 -9.618,7.015 -13.73,9.955 4.623,-0.632 10.095,-1.864 15.595,-2.002 5.913,-0.148 8.719,3.482 7.393,9.093 -2.407,10.177 -8.985,18.138 -15.211,26.277 0.729,-1.376 1.506,-2.729 2.18,-4.131 3.195,-6.65 6.638,-13.198 9.446,-20.008 2.03,-4.922 -3.009,-9.559 -9.44,-8.225 -7.892,1.636 -15.608,4.139 -23.374,6.36 -2.007,0.574 -3.915,1.496 -6.276,1.468 4.993,-2.99 10.075,-5.84 14.951,-9.009 4.567,-2.968 9.048,-6.103 13.324,-9.473 5.695,-4.487 4.947,-8.215 -1.309,-12.009 -12.596,-7.639 -26.792,-10.534 -40.695,-14.269 -7.984,-2.145 -16.145,-3.626 -24.1290004,-6.439 6.1120004,0.55 12.2230004,1.098 18.3350004,1.651 12.909,1.167 25.809,2.478 38.735,3.412 3.4,0.246 6.936,-0.428 10.305,-1.16 1.413,-0.306 2.555,-1.861 3.82,-2.848"
       fill="#be1e2d"
       id="path9"
       clip-path="none" />
    <path
       d="m 104.40904,13.771 c 1.978,2.455 4.106,4.807 5.901,7.39 3.014,4.335 6.511,7.875 13.011,8.706 0.794,-3.592 1.656,-7.492 2.505,-11.334 1.429,2.74 2.673,6.078 4.716,8.821 3.248,4.361 5.436,4.366 7.383,-0.542 2.599,-6.551 4.035,-13.564 5.964,-20.38 0.206,-0.728 0.372,-1.467 1.378,-2.116 0,3.471 -0.408,7.003 0.101,10.397 0.679,4.529 1.522,9.186 3.306,13.355 1.901,4.441 5.449,6.732 9.223,1.367 5.21,-7.405 9.415,-15.518 14.03,-23.339 0.489,-0.829 0.845,-1.737 1.963,-2.377 -0.998,3.48 -1.996,6.961 -2.994,10.441 l 0.082,-0.091 c -1.017,6.288 -2.762,12.57 -2.814,18.866 -0.04,4.771 3.784,6.386 7.494,3.164 7.746,-6.729 14.86,-14.187 22.208,-21.37 1.217,-1.191 2.308,-2.511 4.356,-3.04 -3.806,5.742 -7.951,11.294 -11.315,17.285 -2.865,5.101 -5.021,10.635 -7.081,16.132 -0.613,1.637 0.156,3.793 0.338,6.369 -3.804,-0.376 -4.646,-2.815 -3.576,-5.694 1.782,-4.792 4.125,-9.376 6.247,-14.041 0.308,-0.677 0.703,-1.314 1.057,-1.97 -0.323,-0.272 -0.646,-0.544 -0.969,-0.817 -3.611,3.784 -7.028,7.787 -10.926,11.249 -1.654,1.469 -4.919,3.049 -6.37,2.346 -1.882,-0.912 -3.456,-3.943 -3.783,-6.257 -0.593,-4.201 -0.168,-8.546 -0.168,-13.447 -2.149,3.22 -3.911,6.158 -5.965,8.875 -4.669,6.18 -10.831,5.385 -13.636,-1.917 -1.331,-3.464 -1.814,-7.255 -2.62,-10.643 -1.194,3.581 -2.221,7.612 -3.916,11.339 -0.862,1.895 -2.833,4.371 -4.479,4.51 -1.578,0.134 -3.427,-2.364 -5.066,-3.809 -0.581,-0.514 -0.893,-1.333 -1.439,-2.186 -2.397,7.403 -5.813,8.582 -11.121,3.018 -5.113,-5.36 -9.174,-11.723 -13.697,-17.645 0.224,-0.205 0.448,-0.41 0.672,-0.615"
       fill="#be1e2d"
       id="path10"
       clip-path="none" />
    <path
       d="m 103.73704,14.386 c -0.395,0.316 -1.183,0.762 -1.127,0.928 1.829,5.502 4.173,10.877 5.466,16.496 0.705,3.065 0.898,7.921 -0.88,9.519 -3.259,2.929 -7.067,0 -10.115001,-2.476 -1.027,-0.834 -2.06,-1.661 -4.307,-3.471 1.862,4.003 3.333,6.61 4.314,9.389 2.006,5.688 -1.22,9.683 -6.981,8.015 -4.355,-1.26 -8.666,-3.529 -12.3,-6.271 -13.667,-10.31 -27.048,-21.001 -40.541,-31.542 -0.738,-0.577 -1.523,-1.094 -2.731,-1.189 0.898,1.238 1.797,2.476 2.695,3.714 -0.268,0.248 -0.536,0.496 -0.804,0.744 -5.508,-5.764 -11.017,-11.527 -16.525,-17.291 0.265,-0.317 0.53,-0.634 0.794,-0.951 2.213,1.596 4.459,3.148 6.632,4.796 16.82,12.757 33.532,25.661 50.518,38.193 3.271,2.413 7.473,3.959 11.48,4.868 4.198,0.951 5.998,-2.034 4.188,-6.35 -1.022,-2.436 -2.448,-4.709 -3.761,-7.016 -1.313,-2.307 -2.711,-4.565 -4.499,-7.562 6.678,3.036 9.537,11.794 17.668001,10.182 4.09,-6.036 1.763,-11.589 -0.437,-17.135 -2.492001,-6.282 -5.014001,-12.552 -6.696001,-19.357 2.874,4.384 5.747001,8.768 8.621001,13.152 -0.224,0.205 -0.448,0.41 -0.672,0.615"
       fill="#be1e2d"
       id="path11"
       clip-path="none" />
    <path
       d="M 11.126439,136.094 C 8.4664386,129.243 6.6744386,122.333 7.9154386,114.815 9.9444386,102.518 21.311439,94.54 33.564439,97.396 c 1.735,-4.302 3.364,-8.967 9.841,-9.277 -5.088,3.535 -8.743,7.227 -6.966,13.44 -0.544,0.221 -0.971,0.514 -1.082,0.423 -8.515,-6.998 -15.332,-2.627 -20.747,3.412 -8.8220004,9.841 -6.9060004,26.058 3.724,33.46 5.099,3.551 10.683,3.024 16.304,1.854 1.764,-0.367 3.463,-1.04 5.855,-1.777 -2.153,5.839 -8.19,11.493 -1.368,16.979 6.472,5.205 12.5,0.864 17.487,-2.016 1.896,2.632 3.584,4.974 5.473,7.595 -2.18,-1.023 -4.524,-2.123 -7.402,-3.474 -5.508,2.376 -11.716,3.82 -17.478,-1.306 -4.158,-3.699 -3.599,-8.22 -2.116,-12.327 -5.619,-0.742 -11.176,-1.476 -16.733,-2.21 -2.41,-2.026 -4.82,-4.052 -7.23,-6.078"
       fill="#1475bc"
       id="path13"
       clip-path="none" />
    <path
       d="m 143.73404,174.461 c 4.953,0.909 9.512,1.746 15.235,2.796 h -13.606 c -0.402,1.538 -0.821,3.567 -1.462,5.523 -2.447,7.462 -9.54,11.3 -17.306,9.814 -1.721,-0.329 -3.807,0.334 -5.515,1.043 -3.959,1.645 -7.621,4.404 -11.707,5.264 -9.945001,2.094 -19.742001,-4.987 -22.358001,-15.361 -1.27,-5.037 -2.567,-10.066 -3.787,-14.845 -7.201,-0.587 -8.012,-1.771 -5.193,-7.71 -0.229,4.678 1.866,5.973 5.074,5.019 1.544,2.731 2.944,5.106 4.234,7.541 0.51,0.963 1.189,2.101 1.083,3.084 -0.902,8.378 2.11,14.642 9.769,18.365 7.426001,3.611 14.423001,1.72 20.644001,-2.733 2.903,-2.079 4.721,-3.238 8.608,-1.682 6.514,2.606 13.826,-3.016 15.492,-10.969 0.401,-1.917 0.602,-3.875 0.795,-5.149"
       fill="#1475bc"
       id="path16"
       clip-path="none" />
    <path
       d="m 261.52504,53.475 c 0.172,0.066 0.343,0.131 0.515,0.197 l 6.757,-26.934 c -2.914,0.806 -4.564,1.263 -6.645,1.838 -0.214,8.515 -0.421,16.707 -0.627,24.899 m -4.447,3.125 c 0.182,-7.228 0.208,-14.333 0.628,-21.415 0.135,-2.282 0.86,-4.795 2.1,-6.688 2.409,-3.682 6.327,-3.614 10.855,-3.175 -0.513,2.838 -0.858,5.398 -1.45,7.899 -1.378,5.82 -3.078,11.57 -4.259,17.427 -0.888,4.41 -3.431,6.023 -7.874,5.952"
       fill="#ef4036"
       id="path17"
       clip-path="none" />
    <path
       d="m 272.78904,119.501 c 0.551,-2.209 2.75,-6.447 -1.778,-9.573 -4.03,-2.784 -8.428,-3.873 -13.081,-1.364 -4.995,2.694 -5.384,6.961 -3.82,10.972 -3.111,1.937 -5.769,3.593 -8.427,5.248 0.233,0.599 0.466,1.199 0.699,1.798 2.037,0.223 4.073,0.446 6.222,0.681 -0.199,0.469 -0.425,0.884 -0.552,1.327 -0.549,1.907 -1.068,3.822 -1.598,5.735 2.126,0.249 4.263,0.744 6.374,0.651 1.203,-0.053 2.311,-1.284 3.559,-1.589 1.35,-0.331 3.016,-0.683 4.188,-0.185 3.872,1.644 9.14,-0.681 11.446,-6.264 0.591,-1.432 -1.67,-4.041 -3.232,-7.437 m -10.087,-14.263 c 3.067,1.134 6.252,2.028 9.167,3.468 3.153,1.557 4.558,4.448 3.714,7.925 -0.635,2.615 -0.906,4.767 1.764,6.471 0.625,0.398 0.838,1.767 0.877,2.704 0.21,5.056 -8.781,11.462 -13.52,9.928 -1.43,-0.463 -3.386,-0.336 -4.771,0.271 -7.119,3.123 -8.429,1.059 -12.36,-5.389 -4.096,-6.719 -2.617,-9.082 3.451,-11.608 0.568,-0.237 0.569,-2.071 0.662,-3.178 0.523,-6.161 4.711,-10.057 11.016,-10.592"
       fill="#b7bc34"
       id="path19"
       clip-path="none" />
    <path
       d="m 217.75204,133.427 c -6.453,-4.597 -13.108,-8.948 -19.24,-13.94 -1.874,-1.527 -3.539,-5.102 -3.044,-7.21 0.433,-1.846 4.029,-2.95 5.544,-3.937 -0.853,-2.154 -2.461,-4.876 -2.821,-7.755 -0.155,-1.237 2.282,-2.799 3.924,-3.834 -3.293,7.91 1.906,10.599 14.461,12.999 -1.87,0.425 -2.625,0.677 -3.396,0.747 -0.65,0.059 -1.319,-0.098 -1.981,-0.153 -4.584,-0.379 -10.018,-0.24 -11.572,4.266 -1.498,4.342 3.504,6.88 6.75,9.335 3.957,2.993 8.012,5.857 12.024,8.776 -0.217,0.235 -0.433,0.471 -0.649,0.706"
       fill="#be1e2d"
       id="path20"
       clip-path="none" />
    <path
       d="m 205.61104,155.865 c 2.519,0.56 4.887,1.195 7.294,1.599 4.139,0.695 8.134,0.544 10.355,-3.8 2.257,-4.412 -1.136,-6.564 -4.557,-8.972 1.642,-0.719 2.775,-1.216 3.713,-1.627 3.286,5.256 4.502,10.471 0.325,15.765 h -13.759 c -3.007,6.805 -4.837,7.757 -12.731,6.673 -1.178,-0.162 -3.082,-0.042 -3.583,0.683 -3.291,4.769 -8.183,3.494 -12.123,2.521 -3.218,-0.795 -4.65,-0.109 -6.731,1.896 -1.769,1.705 -4.264,2.657 -6.787,3.198 2.95,-2.474 5.9,-4.948 9.298,-7.797 5.104,1.847 10.749,3.5 15.799,-2.163 0.831,-0.932 3.972,0.219 6.047,0.371 6.346,0.462 8.458,-1.781 7.44,-8.347"
       fill="#1475bc"
       id="path22"
       clip-path="none" />
    <path
       d="m 58.384039,47.117 c -0.821,0.644 -0.933,0.802 -1.069,0.829 -10.878,2.133 -11.774,3.233 -12.08,14.09 -0.042,1.502 -0.768,2.984 -1.311,4.964 1.662,1.306 3.575,2.809 4.88,3.834 -1.272,2.02 -2.494,3.96 -4.494,7.136 -0.464,-1.91 -0.916,-3.25 -1.085,-4.625 -0.139,-1.13 0.576,-2.806 0.024,-3.373 -4.346,-4.459 -3.842,-9.196 -1.322,-14.221 2.773,-5.53 7.087,-8.666 13.392,-8.77 0.812,-0.013 1.626,0.069 3.065,0.136"
       fill="#1475bc"
       id="path23"
       clip-path="none" />
    <path
       d="m 19.190239,165.028 c -0.258,0.402 -0.455,0.863 -0.782,1.198 -4.189,4.301 -4.059,4.861 1.341,7.01 -0.689,3.373 -1.366,6.68 -2.202,10.771 2.561,-0.2 4.715,0.196 6.263,-0.594 4.603,-2.351 8.968,-5.169 14.226,-8.277 0.553,-1.301 -6.109,-4.196 0.097,-6.133 0.044,0.811 -0.05,1.658 0.153,2.427 1.866,7.092 1.863,7.003 -5.333,8.549 -1.279,0.274 -2.375,1.53 -3.489,2.416 -3.213,2.558 -6.567,4.496 -10.877,2.874 -0.462,-0.174 -1.165,-0.189 -1.36,-0.515 -1.133,-1.894 -3.53,-4.866 -2.973,-5.631 3.128,-4.291 -4.7480004,-12.405 4.936,-14.095"
       fill="#b7bc34"
       id="path24"
       clip-path="none" />
    <path
       d="m 276.23004,41.897 c -1.206,4.598 -1.407,9.911 -8.581,11.378 1.944,-7.97 3.236,-15.438 5.684,-22.506 1.544,-4.457 5.193,-2.583 8.809,-0.378 -2.042,3.94 -4.033,7.784 -6.027,11.63 1.181,-3.809 2.363,-7.621 3.615,-11.654 -2.929,0.858 -8.307,14.033 -8.239,19.35 1.602,-2.644 3.171,-5.232 4.739,-7.82"
       fill="#ef4036"
       id="path25"
       clip-path="none" />
    <path
       d="m 246.99404,26.118 c -18.653,5.293 -37.306,10.585 -56.167,15.937 3.43,-5.088 42.012,-14.549 56.167,-15.937"
       fill="#2e3092"
       id="path26"
       clip-path="none" />
    <path
       d="m 248.55404,86.804 c 4.802,6.978 2.395,13.616 -0.516,20.399 -3.193,7.438 -10.88,8.202 -16.764,11.857 v 6.342 c -1.549,-2.42 -2.899,-4.529 -4.434,-6.927 14.964,-4.735 25.179,-13.481 21.714,-31.671"
       fill="#1475bc"
       id="path27"
       clip-path="none" />
    <path
       d="m 285.16704,43.955 c -1.043,2.34 -2.085,4.681 -3.175,7.128 -1.968,-0.552 -3.346,-0.938 -5.659,-1.586 1.851,-4.915 3.313,-9.789 5.63,-14.215 0.546,-1.044 4.218,-1.266 6.015,-0.631 2.201,0.779 3.048,2.973 0.924,5.174 -1.328,1.376 -2.573,2.833 -3.856,4.255 0.988,-2.466 1.976,-4.932 2.964,-7.399 -0.638,-0.243 -1.275,-0.487 -1.913,-0.73 -2.129,4.11 -4.258,8.221 -6.387,12.332 0.296,0.166 0.591,0.333 0.887,0.499 1.523,-1.609 3.047,-3.218 4.57,-4.827"
       fill="#ef4036"
       id="path28"
       clip-path="none" />
    <path
       d="m 222.20704,15.883 c -3.864,0.548 -7.448,0.106 -9.666,1.639 -2.178,1.506 -2.969,5.019 -5.033,8.901 3.026,-1.04 4.99,-1.715 7.185,-2.47 1.006,0.578 2.348,1.349 4.309,2.475 1.109,-3.649 2.033,-6.69 3.205,-10.545 m -6.882,12.151 c -2.264,0 -4.625,0.379 -6.747,-0.17 -0.965,-0.25 -2.288,-2.554 -2.027,-3.555 1.843,-7.059 8.175,-11.171 15.077,-10.026 0.828,0.138 1.893,0.927 2.213,1.684 1.618,3.823 -4.299,12.443 -8.516,12.067"
       fill="#b7bc34"
       id="path29"
       clip-path="none" />
    <path
       d="m 254.38804,65.387 c 3.114,-2.709 5.258,-4.574 7.403,-6.44 1.356,1.561 3.753,3.06 3.852,4.697 0.205,3.406 -1.376,6.975 -5.288,7.139 -1.55,0.065 -3.222,-2.798 -5.967,-5.396"
       fill="#ef4036"
       id="path30"
       clip-path="none" />
    <path
       d="m 66.106039,11.972 c 1.297,2.473 2.39,6.872 3.93,7.034 3.68,0.389 7.571,-1.219 11.237,-2.687 3.072,-0.107 6.502,4.286 9.295,-0.837 0.423,-0.776 -2.136,-3.177 -3.94,-5.699 -0.04,0.064 0.709,-1.114 1.457,-2.292 0.444,0.815 0.683,1.997 1.368,2.378 2.375,1.322 4.469,2.729 2.765,5.766 -1.727,3.077 -4.4,5.696 -8.03,4.026 -2.732,-1.256 -4.072,-0.338 -6.081,1 -3.61,2.405 -7.387,1.819 -10.636,-0.79 -2.592,-2.081 -3.358,-4.844 -1.365,-7.899"
       fill="#b7bc34"
       id="path31"
       clip-path="none" />
    <path
       d="m 156.83704,43.848 c 1.157,-1.943 2.314,-3.887 4.18,-7.02 -0.01,5.915 -3.212,12.33 2.314,14.055 3.431,1.071 8.393,-2.761 12.237,-4.228 -0.263,1.554 -0.713,4.212 -1.293,7.639 -0.829,-1.677 -1.353,-2.738 -1.876,-3.799 -0.152,0.068 -0.32,0.113 -0.453,0.206 -10.401,7.268 -11.613,6.772 -13.579,-5.498 -0.054,-0.336 -0.703,-0.578 -1.074,-0.864 -0.151,-0.164 -0.304,-0.328 -0.456,-0.491"
       fill="#941a1d"
       id="path32"
       clip-path="none" />
    <path
       d="m 187.18804,12.333 c 1.195,-0.842 3.246,-1.928 4.79,-3.509 0.929,-0.951 1.069,-2.674 1.563,-4.051 -1.549,-0.499 -3.22,-1.624 -4.62,-1.352 -2.168,0.42 -4.18,1.736 -6.195,2.794 -0.633,0.332 -1.443,1.032 -1.477,1.604 -0.034,0.589 0.661,1.399 1.249,1.808 1.247,0.869 2.633,1.541 4.69,2.706 m 8.02,-6.946 c -0.048,3.558 -7.076,10.432 -9.091,9.221 -2.52,-1.514 -4.657,-4.314 -5.927,-7.04 -0.895,-1.92 6.383,-6.621 9.87,-6.6 3.52,0.021 5.055,1.981 5.148,4.419"
       fill="#b7bc34"
       id="path33"
       clip-path="none" />
    <path
       d="m 3.0247386,88.176 c -0.185,0.58 -0.371,1.161 -0.556,1.741 1.249,1.33 3.382,3.951 3.613,3.793 2.473,-1.694 4.6460004,-3.827 7.9730004,-6.795 -4.7930004,0.548 -7.9120004,0.904 -11.0300004,1.261 m 6.238,-2.246 c 0.658,0 1.3650004,-0.155 1.9640004,0.033 1.265,0.396 2.473,0.973 3.704,1.476 -0.557,1.099 -0.937,2.348 -1.713,3.259 -1.041,1.222 -2.223,2.609 -3.6420004,3.158 -2.401,0.929 -5.036,1.612 -7.572,1.608 -0.702,-0.001 -2.39099999,-3.566 -1.92299999,-4.167 1.68299999,-2.157 4.01199999,-3.864 6.28599999,-5.473 0.626,-0.443 1.913,0.05 2.896,0.106"
       fill="#b7bc34"
       id="path34"
       clip-path="none" />
    <path
       d="m 191.48104,179.714 c 2.302,2.141 3.851,4.278 5.944,5.284 1.411,0.679 3.713,0.073 5.366,-0.587 0.688,-0.275 1.296,-2.983 0.961,-3.224 -2.404,-1.731 -4.922,-3.657 -7.699,-4.36 -1.275,-0.323 -3.214,1.969 -4.572,2.887 m 8.638,8.697 c -4.105,-2.709 -7.429,-4.739 -10.441,-7.157 -0.281,-0.226 1.031,-3.51 2.281,-4.294 1.565,-0.982 3.882,-1.28 5.778,-1.055 1.468,0.173 2.932,1.44 4.137,2.514 1.524,1.357 4.206,3.928 3.914,4.381 -1.364,2.116 -3.579,3.683 -5.669,5.611"
       fill="#b7bc34"
       id="path35"
       clip-path="none" />
    <path
       d="m 37.222039,42.899 c 0.388,1.32 1.525,3.31 1.042,3.85 -3.014,3.365 -6.016,7.001 -9.766,9.368 -3.024,1.91 -9.809,-2.043 -12.503,-6.222 -0.353,-0.547 -0.766,-1.056 -1.151,-1.583 0.162,-0.169 0.324,-0.338 0.486,-0.506 2.782,1.997 5.684,3.847 8.312,6.029 2.975,2.47 6.329,1.505 7.51,-2.536 0.635,-2.175 -0.036,-5.559 4.109,-3.525 0.552,-1.515 1.104,-3.031 1.655,-4.547 z"
       fill="#b7bc34"
       id="path36"
       clip-path="none" />
    <path
       d="m 304.91404,46.874 c 0.194,1.243 0.387,2.487 0.568,3.647 5.147,-0.507 10.196,-1.004 15.246,-1.502 0.04,0.266 0.08,0.532 0.12,0.797 -11.428,2.361 -22.856,4.723 -34.284,7.084 -0.113,-0.387 -0.226,-0.774 -0.339,-1.161 5.772,-1.496 11.544,-2.993 17.533,-4.546 0.147,-1.366 0.304,-2.812 0.46,-4.258 0.232,-0.02 0.464,-0.041 0.696,-0.061"
       fill="#2e3092"
       id="path37"
       clip-path="none" />
    <path
       d="m 137.45004,204.189 c 1.554,-0.374 3.503,-0.591 5.219,-1.341 1.183,-0.518 2.403,-1.611 2.917,-2.756 0.316,-0.704 -0.411,-2.568 -1.125,-2.885 -1.153,-0.511 -2.939,-0.66 -3.999,-0.098 -2.236,1.187 -4.175,2.933 -5.389,3.826 0.769,1.053 1.489,2.038 2.377,3.254 m -1.818,2.337 c -0.624,-0.771 -2.36,-2.035 -2.778,-3.643 -0.58,-2.226 6.034,-7.866 8.964,-7.923 3.259,-0.065 5.42,1.342 5.571,4.894 0.176,4.158 -3.254,6.337 -11.757,6.672"
       fill="#b7bc34"
       id="path38"
       clip-path="none" />
    <path
       d="m 126.05804,4.998 c 4.421,1.855 8.842,3.71 13.262,5.564 0.232,-0.402 0.464,-0.804 0.696,-1.207 -2.141,1.056 -4.282,2.113 -6.885,3.397 -6.178,-7.044 -14.534,-7.882 -23.64,-5.901 5.324,-3.609 10.986,-2.885 16.687,-1.763 z"
       fill="#1475bc"
       id="path39"
       clip-path="none" />
    <path
       d="m 324.91404,17.668 c -15.617,0.958 -31.234,1.916 -46.85,2.874 -0.026,-0.418 -0.052,-0.836 -0.078,-1.254 15.617,-0.956 31.234,-1.911 46.851,-2.866 z"
       fill="#2e3092"
       id="path40"
       clip-path="none" />
    <path
       d="m 14.844239,48.311 c -0.9,-1.887 -3.023,-4.376 -2.45,-5.537 1.286,-2.609 3.91,-4.558 5.989,-6.776 0.301,0.285 0.601,0.57 0.902,0.855 0.838,-1.922 1.675,-3.845 2.558,-5.872 3.352,2.619 1.987,2.509 0.775,5.249 -1.5,3.391 -4.935,2.114 -5.958,4.02 -1.149,2.14 -0.945,5.005 -1.33,7.555 -0.162,0.169 -0.324,0.337 -0.486,0.506"
       fill="#b7bc34"
       id="path41"
       clip-path="none" />
    <path
       d="m 64.288039,196.038 c 0.009,0.391 0.018,0.782 0.028,1.173 1.372,0 3.11,0.522 4.029,-0.124 1.345,-0.944 2.303,-2.641 2.96,-4.212 0.149,-0.358 -1.61,-1.513 -2.491,-2.301 -0.832,0.977 -1.833,1.867 -2.415,2.976 -0.234,0.448 0.449,1.376 0.75,2.182 -1.209,0.129 -2.035,0.218 -2.861,0.306 m 6.1,-7.615 c 0.907,1.487 2.308,2.88 2.61,4.48 0.524,2.773 -3.796,7.074 -6.756,6.529 -1.396,-0.257 -3.716,-2.99 -3.467,-3.456 1.491,-2.8 3.607,-5.268 5.514,-7.847 0.7,0.098 1.399,0.196 2.099,0.294"
       fill="#b7bc34"
       id="path42"
       clip-path="none" />
    <path
       d="m 59.001039,10.578 c 3.978,4.011 4.292,7.34 1.601,10.539 -0.555,0.661 -3.319,0.653 -3.76,0.03 -2.922,-4.129 1.024,-6.62 2.159,-10.569"
       fill="#b7bc34"
       id="path43"
       clip-path="none" />
    <path
       d="m 254.81204,79.807 c -9.119,4.36 -18.237,8.719 -27.356,13.079 -0.245,-0.506 -0.49,-1.012 -0.734,-1.517 9.098,-4.319 18.196,-8.638 27.295,-12.958 0.265,0.466 0.53,0.931 0.795,1.396"
       fill="#2e3092"
       id="path44"
       clip-path="none" />
    <path
       d="m 265.50904,59.352 c 2.156,-2.093 3.76,-3.651 5.364,-5.208 0.937,1.077 2.881,2.65 2.636,3.146 -1.053,2.139 -2.747,3.962 -4.208,5.901 -1.002,-1.015 -2.004,-2.029 -3.792,-3.839"
       fill="#ef4036"
       id="path46"
       clip-path="none" />
    <path
       d="m 79.984039,2.26 c -3.22,2.243 -6.439,4.486 -9.635,6.712 0.333,0.049 1.062,0.157 1.791,0.265 0.101,0.263 0.201,0.525 0.302,0.788 -2.145,0.695 -4.29,1.39 -6.435,2.084 1.693,-2.139 3.02,-4.82 5.174,-6.279 2.563,-1.737 5.837,-2.427 8.803,-3.57"
       fill="#b7bc34"
       id="path47"
       clip-path="none" />
    <path
       d="m 249.12804,148.229 c -2.002,0.732 -4.004,1.464 -6.396,2.338 2.172,2.651 3.717,4.537 6.084,7.425 1.877,-0.093 5.092,-0.252 8.307,-0.412 -1.778,4.922 -7.195,2.999 -8.575,2.123 -2.935,-1.864 -5.348,-5.592 -6.399,-9.037 -0.8,-2.621 3.264,-3.987 6.979,-2.437"
       fill="#b7bc34"
       id="path48"
       clip-path="none" />
    <path
       d="m 291.02504,76.065 c 2.301,0.19 4.601,0.381 6.902,0.571 -0.285,1.623 -0.089,4.268 -0.948,4.673 -2.316,1.091 -5.341,2.148 -7.605,1.511 -2.929,-0.823 -1.961,-4.504 1.773,-6.876 0.164,1.918 0.329,3.836 0.494,5.753 0.464,0.178 0.928,0.355 1.391,0.533 1.356,-1.347 2.712,-2.694 4.067,-4.041 -1.695,-0.678 -3.386,-1.369 -5.092,-2.023 -0.296,-0.113 -0.653,-0.071 -0.982,-0.101"
       fill="#b7bc34"
       id="path49"
       clip-path="none" />
    <path
       d="m 11.126439,136.094 c 2.41,2.026 4.82,4.052 7.23,6.078 0.988,2.609 -0.301,1.939 -1.666,1.157 -8.2300004,-4.718 -11.9510004,-11.986 -12.2460004,-21.196 2.225,4.652 4.454,9.306 6.6820004,13.961"
       fill="#1475bc"
       id="path50"
       clip-path="none" />
    <path
       d="m 30.135839,60.316 c 2.033,2.085 3.499,3.589 4.964,5.092 -1.26,0.875 -2.962,2.748 -3.691,2.425 -1.723,-0.764 -3.087,-2.493 -4.296,-4.062 -0.146,-0.19 1.558,-1.804 3.023,-3.455"
       fill="#b7bc34"
       id="path52"
       clip-path="none" />
    <path
       d="m 165.87804,13.816 c -1.469,0.104 -3.712,0.871 -4.284,0.205 -4.016,-4.68 -8.664,-4.778 -13.87,-2.708 6.708,-7.407 12.046,0.666 18.154,2.503"
       fill="#1475bc"
       id="path53"
       clip-path="none" />
    <path
       d="m 152.31404,190.352 c -1.382,-1.546 -2.151,-2.407 -2.921,-3.267 1.663,-1.335 3.24,-2.823 5.073,-3.856 0.305,-0.172 1.725,1.636 2.63,2.529 -1.424,1.368 -2.848,2.736 -4.782,4.594"
       fill="#b7bc34"
       id="path54"
       clip-path="none" />
    <path
       d="m 319.30504,28.565 -24.992,4.622 c -0.083,-0.49 -0.165,-0.98 -0.248,-1.47 8.358,-1.385 16.716,-2.771 25.074,-4.156 0.055,0.335 0.111,0.669 0.166,1.004"
       fill="#2e3092"
       id="path55"
       clip-path="none" />
    <path
       d="m 75.279039,37.575 c 1.618,-5.273 3.708,-6.532 10.426,-5.175 -2.187,1.513 -3.621,2.76 -5.27,3.57 -1.542,0.758 -3.312,1.054 -5.156,1.605"
       fill="#1475bc"
       id="path56"
       clip-path="none" />
    <path
       d="m 36.917039,43.226 c -1.429,-0.412 -2.858,-0.824 -4.555,-1.313 1.101,-4.411 1.376,-8.78 -3.458,-11.632 4.749,-0.052 5.536,3.38 6.358,6.94 0.448,1.94 1.294,3.788 1.961,5.677 0,0 -0.306,0.328 -0.306,0.328"
       fill="#b7bc34"
       id="path57"
       clip-path="none" />
    <path
       d="m 126.17704,5.087 c -7.533,-4.189 -14.549,-1.229 -22.195,2.214 5.867,-6.212 15.493,-7.162 24.669,-2.648 -1.254,0.167 -1.925,0.256 -2.595,0.344 0.001,0 0.121,0.09 0.121,0.09"
       fill="#1475bc"
       id="path58"
       clip-path="none" />
    <path
       d="m 276.60704,59.932 c -1.403,-2.792 -1.392,-5.229 1.584,-6.669 0.562,-0.272 2.623,0.939 2.765,1.696 0.585,3.13 -0.805,4.991 -4.349,4.973"
       fill="#ef4036"
       id="path59"
       clip-path="none" />
    <path
       d="m 193.93904,44.075 c 6.802,-2.073 13.603,-4.146 20.404,-6.219 0.112,0.35 0.223,0.7 0.334,1.05 -6.765,2.186 -13.531,4.372 -20.296,6.558 z"
       fill="#2e3092"
       id="path60"
       clip-path="none" />
    <path
       d="m 91.592039,30.157 2.911,-11.9 c 0.424,0.091 0.847,0.183 1.27,0.275 -2.132,3.803 2.95,8.924 -2.469,12.127 -0.57,-0.167 -1.141,-0.335 -1.712,-0.502"
       fill="#1475bc"
       id="path61"
       clip-path="none" />
    <path
       d="m 38.019039,169.134 c -0.476,-5.053 -3.071,-6.027 -7.976,-3.084 -1.053,0.631 -2.337,3.349 -3.413,-0.044 3.226,-0.977 6.45,-2.716 9.68,-2.729 3.666,-0.014 4.304,2.91 1.709,5.857"
       fill="#b7bc34"
       id="path62"
       clip-path="none" />
    <path
       d="m 298.75704,21.648 c -6.195,0.733 -12.39,1.466 -18.586,2.199 l -0.137,-1.292 c 6.198,-0.572 12.396,-1.145 18.594,-1.717 0.043,0.27 0.086,0.54 0.129,0.81"
       fill="#2e3092"
       id="path63"
       clip-path="none" />
    <path
       d="m 170.89604,14.16 c 4.165,-0.677 6.784,0.89 8.47,4.903 0.762,1.814 2.904,3.048 4.526,4.649 h -6.08 c 0.938,-5.367 -1.46,-8.634 -6.831,-9.645 -0.003,0.002 -0.085,0.093 -0.085,0.093"
       fill="#1475bc"
       id="path64"
       clip-path="none" />
    <path
       d="m 160.53304,4.366 0.1,0.253 -0.252,-0.028 z"
       fill="#231f20"
       id="path65"
       clip-path="none" />
    <path
       stroke-width="1"
       stroke-linecap="butt"
       stroke-miterlimit="4"
       stroke-linejoin="miter"
       fill="none"
       stroke="#f26422"
       d="m 122.22804,95.282 c -1.814,-3.384 -7.384,-4.108 -11.2,-2.062 -0.148,0.08 -1.995,1.75 -2.262,1.962 1.924,3.802 3.596,7.773 5.609,11.527 1.149,2.142 2.565,4.072 3.579,6.319 l 3.169,0.582 2.558,-1.269 c -1.292,-2.337 -2.535,-4.939 -3.589,-7.403 2.802,-3.443 4.348,-5.531 2.136,-9.656 z m -5.156,-2.512 c -1.474,0.519 -3.112,1.158 -4.503,1.905 -0.414,0.221 -0.905,0.655 -1.291,0.93 l -1.383,-0.518 c 0.717,-0.724 0.929,-1.111 1.729,-1.608 0.623,-0.402 3.242,-1.057 3.49,-1.02 0.658,0.09 1.301,0.221 1.958,0.311 z m 3.863,1.946 c 1.482,1.486 1.733,3.802 1.614,5.568 -0.496,1.492 -2.07,3.458 -3.346,4.416 1.053,2.533 2.223,5.071 3.602,7.429 l -1.698,0.741 c -3.003,-3.326 -5.179,-8.593 -7.305,-12.559 -0.738,-1.375 -1.355,-2.882 -2.033,-4.288 0.593,-0.386 1.232,-0.899 1.824,-1.217 1.331,-0.713 2.971,-1.491 4.453,-1.639 0,0 2.332,0.724 2.889,1.549 z m -0.912,18.122 -1.736,-0.397 c -0.926,-2.295 -2.313,-4.172 -3.461,-6.313 -1.858,-3.464 -3.316,-7.107 -5.262,-10.523 l 1.525,0.714 c 1.745,3.183 3.416,6.441 5.131,9.639 0.454,0.846 0.803,1.782 1.271,2.655 0.766,1.428 1.708,2.829 2.532,4.225 z m 0.485,-16.43 c -1.377,-2.427 -5.805,-0.597 -5.805,-0.597 0.747,1.608 1.421,3.221 2.258,4.78 0.326,0.608 1.038,1.793 1.038,1.793 0,0 4.271,-2.903 2.509,-5.976 z m -3.473,-0.724 c 0,0 1.271,1.803 1.331,2.554 -0.13,0.682 -0.794,1.788 -0.794,1.788 l -1.923,-3.871 z m 3.181,1.528 c 0.649,1.354 -0.897,3.443 -1.969,4.426 l -0.448,-1.189 c 0.599,-0.73 1.402,-2.216 0.679,-3.564 -0.255,-0.477 -0.569,-0.921 -0.929,-1.307 0.886,0.444 1.777,-0.238 2.667,1.634 z"
       id="path76"
       clip-path="none" />
    <path
       stroke-width="1"
       stroke-linecap="butt"
       stroke-miterlimit="4"
       stroke-linejoin="miter"
       fill="none"
       stroke="#f26422"
       d="m 143.23104,90.735 c -2.505,-5.053 -6.166,-10.471 -13.535,-6.818 -2.767,1.372 -3.463,2.387 -4.586,5.488 -0.244,2.833 0.176,5.873 1.322,8.184 1.36,2.742 2.676,4.567 5.376,6.31 1.448,0.956 6.659,0.583 9.744,-0.98 4.665,-2.38 3.251,-9.012 1.679,-12.184 z m -6.371,-6.652 -0.14,-0.132 c -1.543,0.364 -2.809,0.455 -4.313,1.201 -6.677,3.31 -5.845,7.786 -3.3,12.92 1.252,2.526 2.987,4.211 4.722,5.595 l -0.862,0.226 c -2.47,-1.354 -3.747,-2.797 -5.067,-5.156 -2.695,-4.758 -3.793,-11.279 2.093,-14.297 2.951,-1.53 6.22,-1.209 6.867,-0.357 z m 5.576,6.41 c 1.679,3.387 3.287,9.654 -1.615,12.085 -5.986,2.967 -9.221,-0.686 -11.273,-5.127 -2.088,-4.59 -2.269,-9.188 2.544,-11.574 5.865,-2.908 8.119,0.127 10.344,4.616 z m -3.279,-0.718 c -1.492,-3.011 -3.953,-3.365 -7.172,-1.769 -4,1.983 -1.615,6.794 -0.336,9.375 1.186,2.392 3.523,5.821 7.042,4.076 4.783,-2.371 1.972,-8.645 0.466,-11.682 z m -0.515,0.623 c 0.273,0.702 1.928,4.871 2.056,6.113 0.172,1.556 -0.665,3.042 -1.852,4.2 0.925,-2.669 0.104,-5.61 -1.175,-8.191 l -1.103,-2.299 c -0.279,-0.565 -2.548,-2.42 -2.548,-2.42 0,0 3.311,-0.804 4.622,2.597 z m -2.205,0.993 c 0.919,1.855 3.723,8.266 0.896,9.668 -2.226,1.104 -4.272,-2.57 -4.965,-3.968 -1.013,-2.043 -3.562,-6.806 -0.353,-8.497 1.958,-1.038 3.716,1.372 4.422,2.797 z"
       id="path77"
       clip-path="none" />
    <path
       stroke-width="1"
       stroke-linecap="butt"
       stroke-miterlimit="4"
       stroke-linejoin="miter"
       fill="none"
       stroke="#f26422"
       d="m 165.82204,87.623 -2.307,-4.884 -2.496,-5.061 -1.931,-4.296 -2.479,-1.583 -4.273,2.777 1.465,3.749 1.79,3.735 -3.179,1.527 -1.679,-3.488 -1.721,-2.845 -3.733,-1.183 -3.551,2.419 2.251,5.008 1.564,4.46 1.338,4.202 1.993,4.925 3.04,0.376 4.164,-2.036 -1.188,-2.887 -1.341,-3.476 4.439,-2.16 3.073,5.361 3.004,0.295 3.079,-1.747 z m -7.727,-13.992 -2.461,1.403 -1.907,-0.557 2.926,-1.842 z m -2.631,2.006 1.151,3.298 1.256,3.776 -1.693,-0.817 -1.034,-2.792 -1.913,-4.008 z m -7.652,1.894 -2.878,1.458 -1.711,-0.612 2.155,-1.594 z m 10.091,5.988 -4.82,1.806 -0.492,-1.095 3.454,-1.651 z m 8.353,7.034 -2.278,1.32 -1.955,-3.364 -1.543,-3.188 -4.704,1.819 -3.16,1.322 1.17,3.093 1.403,3.612 -3.031,1.363 -2.239,-4.98 -2.222,-5.678 -2.143,-6.24 3.025,-1.624 2.188,4.378 1.686,3.748 6.621,-2.22 -1.164,-3.818 -1.583,-4.749 2.168,-1.073 2.643,5.39 2.46,4.979 z m -3.185,1.267 -1.606,-0.133 -2.809,-5.02 1.451,-0.455 z m -18.387,-12.159 1.367,3.53 1.766,4.666 1.268,3.311 2.24,5.473 -2.127,-0.063 -1.627,-5.091 -1.33,-3.941 -1.828,-4.803 -1.716,-3.57 z"
       id="path78"
       clip-path="none" />
    <path
       stroke-width="1"
       stroke-linecap="butt"
       stroke-miterlimit="4"
       stroke-linejoin="miter"
       fill="none"
       stroke="#f26422"
       d="m 182.76904,83.414 c -2.031,-2.215 -4.275,-4.505 -6.768,-6.338 l 1.167,-2.553 c 0.194,-0.857 0.09,-3.148 0.022,-3.315 -1.308,-3.192 -4.847,-5.633 -8.834,-5.005 -2.258,0.6 -5.235,2.63 -6.767,4.295 l 1.421,3.47 c 0.649,1.583 1.545,3.063 2.204,4.674 1.323,3.315 2.284,6.813 3.679,10.131 l 2.952,0.477 3.549,-1.875 c -0.582,-1.156 -1.334,-2.372 -1.822,-3.565 -0.387,-0.944 -0.692,-1.954 -1.047,-2.911 1.999,1.515 4.142,3.296 5.662,5.235 l 3.253,-0.652 z m -11.194,-16.26 c -0.884,0.232 -2.075,0.428 -2.913,0.771 -1.647,0.675 -3.29,1.445 -4.517,2.79 l -1.293,-0.41 c 0.164,-0.132 2.551,-2.277 2.582,-2.289 l 2.584,-1.221 z m 10.485,16.388 -0.916,1.219 c -1.567,-1.79 -5.17,-4.918 -7.643,-5.461 l -1.961,0.966 c 0.54,1.496 1.049,3.006 1.652,4.477 0.352,0.861 0.872,1.686 1.286,2.521 l -2.48,1.21 c -2.861,-5.571 -4.966,-11.42 -7.591,-17.12 1.246,-1.386 3.034,-2.248 4.742,-2.947 0.839,-0.344 2.222,-0.424 3.159,-0.614 0,0 1.126,0.091 2.723,1.155 1.298,1.575 1.544,2.707 1.815,3.989 -0.228,1.391 -0.841,3.263 -1.864,4.395 2.627,1.809 5.001,3.884 7.078,6.21 z m -1.591,1.43 -2.083,0.496 c -1.462,-1.8 -3.309,-3.474 -5.131,-4.998 l 0.809,-0.331 c 2.289,1.073 4.826,3.016 6.405,4.833 z m -9.272,3.668 -1.72,-0.301 c -1.226,-3.258 -2.339,-6.595 -3.646,-9.788 -1.081,-2.637 -2.223,-5.249 -3.541,-7.757 l 1.41,0.428 c 1.129,2.844 2.63,5.536 3.778,8.34 1.251,3.054 2.281,6.101 3.719,9.078 z m 2.849,-17.311 c -0.193,-0.473 -1.888,-1.334 -2.392,-1.679 l -2.433,0.348 -1.854,1.408 c 1.277,2.233 2.255,4.62 3.377,6.916 l 2.127,-1.714 c 1.575,-1.294 1.824,-3.697 1.175,-5.279 z m -2.134,-0.164 c 0.227,0.556 0.249,1.228 0.29,1.859 0.113,1.251 -0.612,2.228 -1.602,3.088 l -2.216,-4.701 1.468,-1.023 1.671,0.094 c 0.122,0.209 0.286,0.433 0.389,0.683 z m 1.358,0.481 c 0.807,1.972 -0.033,4.261 -2.049,5.54 l -0.383,-0.491 c 1.946,-1.186 2.515,-3.429 1.764,-5.261 -0.091,-0.223 -0.669,-0.926 -0.655,-1.158 0.189,0.019 0.67,0.308 0.843,0.465 l 0.221,0.363 c 0.213,0.432 0.076,0.099 0.259,0.542 z"
       id="path79"
       clip-path="none" />
    <path
       stroke-width="1"
       stroke-linecap="butt"
       stroke-miterlimit="4"
       stroke-linejoin="miter"
       fill="none"
       stroke="#f26422"
       d="m 198.14904,68.047 c -1.966,-5.286 -5.042,-11.056 -12.752,-8.189 -2.894,1.077 -3.692,2.014 -5.132,4.981 -0.537,2.793 -0.435,5.86 0.464,8.278 1.066,2.868 2.187,4.82 4.691,6.834 1.34,1.101 6.561,1.272 9.791,0.039 4.889,-1.882 4.172,-8.625 2.938,-11.943 z m -5.644,-7.279 -0.126,-0.146 c -1.572,0.201 -2.841,0.161 -4.415,0.746 -6.985,2.597 -6.623,7.136 -4.626,12.507 0.984,2.643 2.534,4.499 4.115,6.055 l -0.881,0.136 c -2.316,-1.603 -3.436,-3.171 -4.502,-5.655 -2.187,-5.012 -2.6,-11.613 3.568,-14.002 3.094,-1.215 6.313,-0.555 6.867,0.359 z m 4.879,6.955 c 1.318,3.543 2.265,9.945 -2.864,11.852 -6.262,2.328 -9.099,-1.642 -10.678,-6.272 -1.598,-4.782 -1.3,-9.374 3.734,-11.246 6.136,-2.282 8.062,0.97 9.808,5.666 z m -3.186,-1.055 c -1.171,-3.149 -3.582,-3.757 -6.949,-2.505 -4.185,1.556 -2.314,6.589 -1.31,9.289 0.931,2.502 2.898,6.156 6.58,4.786 5.003,-1.86 2.86,-8.393 1.679,-11.57 z m -0.577,0.567 c 0.198,0.726 1.41,5.044 1.409,6.293 0.009,1.565 -0.979,2.957 -2.279,3.984 1.198,-2.558 0.687,-5.569 -0.317,-8.268 l -0.857,-2.402 c -0.22,-0.59 -2.283,-2.671 -2.283,-2.671 0,0 3.376,-0.456 4.327,3.064 z m -2.297,0.758 c 0.721,1.94 2.843,8.609 -0.115,9.708 -2.329,0.867 -3.981,-3 -4.525,-4.462 -0.795,-2.137 -2.834,-7.14 0.533,-8.488 2.056,-0.829 3.552,1.752 4.107,3.242 z"
       id="path80"
       clip-path="none" />
    <path
       stroke-width="1"
       stroke-linecap="butt"
       stroke-miterlimit="4"
       stroke-linejoin="miter"
       fill="none"
       stroke="#f26422"
       d="m 220.60604,65.25 -1.571,-4.441 -2.26,-5.351 -2.104,-3.698 -3.342,-1.456 -2.648,2.263 -1.331,4.862 -2.415,-1.857 -2.08,-2.126 -2.861,1.829 -2.623,1.907 2.547,7.721 1.738,5.271 1.805,4.617 3.074,0.85 2.63,-0.709 -0.622,-4.565 -0.685,-2.933 3.645,-0.413 0.929,-2.866 1.335,4.046 1.563,3.56 3.101,0.398 3.599,-1.629 z m -7.17,-13.272 -2.376,1.479 -1.706,-0.669 1.989,-1.794 z m -2.758,2.142 -0.841,2.488 -0.804,2.919 -1.097,-1.502 1.256,-4.552 z m -6.54,1.715 -1.522,1.386 -2.129,1.05 c -0.814,0.426 -2.103,-0.696 -2.131,-0.782 -0.028,-0.085 1.314,-1.16 2.148,-1.845 l 2.073,-1.221 z m 16.15,10.594 c 0.019,0.057 0.572,2.054 0.908,3.397 -1.037,0.5 -2.706,1.334 -2.734,1.249 -0.028,-0.086 -1.268,-3.309 -1.721,-4.361 l -1.698,-3.862 -1.292,-2.417 -1.064,-2.366 -0.729,3.147 -1.033,5.016 -2.287,-1.899 -2.395,-2.116 -1.448,-1.387 0.603,2.36 0.846,2.564 1.681,4.563 0.558,4.049 -1.737,0.415 -0.942,-2.532 -1.45,-3.755 -1.467,-3.591 -1.376,-3.527 -0.616,-2.513 3.669,-2.379 c 0.764,0.601 1.979,1.495 1.997,1.553 0.028,0.085 1.95,1.947 2.882,3.377 l 0.511,-2.096 0.832,-3.37 0.462,-1.921 2.964,-1.515 2.189,3.953 2.092,4.522 c 0.705,2.137 1.766,5.357 1.795,5.442 z m -2.499,4.963 -2.041,-0.401 -1.621,-3.414 -1.352,-4.419 0.267,-2.836 1.574,3.271 c 0.61,1.315 1.336,3.193 1.411,3.42 0.084,0.257 1.084,2.644 1.762,4.379 z m -7.632,-4.812 -2.913,0.171 -1.145,-3.792 z m -5.684,3.454 1.284,4.536 -1.885,-0.357 -1.578,-4.25 -1.431,-4.55 -2.357,-6.931 1.922,0.788 0.929,3.674 1.694,3.958 z"
       id="path81"
       clip-path="none" />
    <path
       stroke-width="1"
       stroke-linecap="butt"
       stroke-miterlimit="4"
       stroke-linejoin="miter"
       fill="none"
       stroke="#f26422"
       d="m 242.03204,64.194 c -1.73,-3.684 -3.654,-6.344 -5.964,-9.735 -0.844,-1.224 -1.687,-2.448 -2.499,-3.681 l -1.36,-2.042 c -0.736,-0.849 -1.785,-1.701 -2.609,-2.493 l -3.126,-0.656 c -0.595,2.046 -1.588,5.862 -1.821,7.835 -0.133,1.351 -0.007,2.751 -0.076,4.083 -0.149,3.104 -0.646,6.339 -1.257,9.42 l 3.081,1.951 3.29,0.015 c 0.023,-0.287 0.01,-0.69 0.065,-0.987 0.631,-2.525 1.271,-5.022 1.506,-7.588 l 1.477,-0.334 2.195,5.049 4.084,1.066 z m -1.062,-0.411 -2.059,1.221 c -0.524,-0.723 -1.12,-1.456 -1.588,-2.227 -0.319,-0.5 -0.471,-1.144 -0.791,-1.645 -0.696,-1.078 -0.99,-1.368 -1.721,-2.562 -0.782,0.195 -1.816,0.245 -2.474,0.748 l -1.973,0.79 c 0.295,2.226 -0.778,6.003 -1.251,8.232 l -1.878,-0.206 c 0.379,-2.795 0.782,-5.629 1.024,-8.416 0.176,-1.925 0.029,-3.881 0.343,-5.815 l 0.398,-2.489 0.423,-2.402 0.407,-1.492 c 0.93,0.917 1.878,2.142 2.72,3.116 0.947,1.1 1.776,2.515 2.612,3.71 2.096,3.016 4.258,6.138 5.808,9.437 z m -12.107,-16.827 c -0.415,2.431 -0.877,4.939 -1.113,7.381 -0.087,1.149 -0.069,2.3 -0.163,3.42 -0.237,3.411 -0.634,6.868 -1.226,10.256 l -2.333,-1.542 c 0.539,-2.967 1.077,-5.934 1.302,-8.903 0.09,-1.62 -0.168,-3.356 0.036,-4.945 l 0.562,-2.162 c 0.335,-1.378 0.67,-2.755 0.964,-4.152 z m 9.532,18.197 c -1.004,-0.209 -2.008,-0.418 -3.045,-0.618 -0.238,-0.462 -0.656,-1.059 -0.797,-1.549 -0.334,-1.152 -0.498,-2.198 -1.209,-3.21 l 1.273,-0.431 c 1.077,2.03 2.428,3.919 3.778,5.808 z m -4.6,-9.13 c -0.066,-0.106 -0.788,-1.272 -0.805,-1.329 -0.125,-0.433 -0.17,-0.951 -0.271,-1.421 -0.672,-0.149 -1.617,-0.032 -2.262,0.155 0.045,1.362 0.123,2.838 0.507,4.163 l 1.092,0.153 1.787,-0.83 z m -0.714,0.674 -1.451,0.42 -0.433,-3.185 0.914,0.017 z"
       id="path82"
       clip-path="none" />
    <path
       stroke-width="0.5"
       stroke-linecap="butt"
       stroke-miterlimit="4"
       stroke-linejoin="miter"
       fill="none"
       stroke="#2a3890"
       d="m 147.11604,111.168 c -0.966,-2.039 -2.393,-4.231 -5.365,-2.822 -1.117,0.529 -1.403,0.93 -1.873,2.162 -0.118,1.132 0.029,2.35 0.471,3.283 0.524,1.106 1.038,1.846 2.105,2.561 0.573,0.393 2.66,0.28 3.904,-0.323 1.883,-0.919 1.364,-3.581 0.758,-4.861 z m -2.502,-2.706 -0.055,-0.053 c -0.62,0.134 -1.127,0.162 -1.734,0.45 -2.693,1.277 -2.392,3.073 -1.41,5.144 0.483,1.019 1.165,1.705 1.849,2.27 l -0.346,0.085 c -0.978,-0.559 -1.479,-1.145 -1.99,-2.098 -1.045,-1.922 -1.438,-4.537 0.938,-5.703 1.191,-0.591 2.496,-0.439 2.748,-0.095 z m 2.186,2.603 c 0.648,1.367 1.246,3.885 -0.731,4.823 -2.416,1.144 -3.684,-0.34 -4.473,-2.13 -0.803,-1.851 -0.842,-3.691 1.099,-4.611 2.366,-1.122 3.246,0.107 4.105,1.918 z m -1.307,-0.31 c -0.575,-1.214 -1.558,-1.373 -2.856,-0.757 -1.614,0.764 -0.694,2.705 -0.2,3.746 0.457,0.965 1.367,2.353 2.787,1.68 1.93,-0.915 0.85,-3.444 0.269,-4.669 z m -0.21,0.246 c 0.104,0.282 0.736,1.961 0.778,2.459 0.058,0.624 -0.286,1.212 -0.769,1.667 0.388,-1.061 0.081,-2.243 -0.413,-3.284 l -0.425,-0.927 c -0.107,-0.228 -1.002,-0.987 -1.002,-0.987 0,0 1.33,-0.298 1.831,1.072 z m -0.889,0.382 c 0.355,0.748 1.43,3.332 0.289,3.872 -0.898,0.426 -1.69,-1.058 -1.957,-1.621 -0.39,-0.824 -1.376,-2.748 -0.081,-3.401 0.79,-0.402 1.476,0.575 1.749,1.15 z"
       id="path83"
       clip-path="none" />
    <path
       stroke-width="0.5"
       stroke-linecap="butt"
       stroke-miterlimit="4"
       stroke-linejoin="miter"
       fill="none"
       stroke="#2a3890"
       d="m 156.11804,109.905 -0.932,-1.949 -1.008,-2.02 -0.782,-1.715 -0.994,-0.628 -1.703,1.12 0.593,1.496 0.722,1.49 -1.268,0.618 -0.678,-1.392 -0.694,-1.134 -1.495,-0.467 -1.416,0.975 0.91,1.999 0.635,1.781 0.543,1.678 0.807,1.966 1.217,0.144 1.662,-0.823 -0.481,-1.152 -0.543,-1.387 1.771,-0.873 1.239,2.138 1.203,0.112 1.228,-0.705 z m -3.118,-5.582 -0.981,0.566 -0.765,-0.219 1.167,-0.743 z m -1.049,0.808 0.467,1.316 0.511,1.509 -0.679,-0.324 -0.42,-1.115 -0.772,-1.599 z m -3.057,0.772 -1.148,0.589 -0.685,-0.241 0.858,-0.642 z m 4.049,2.376 -1.924,0.731 -0.2,-0.436 1.379,-0.668 z m 3.355,2.797 -0.909,0.532 -0.788,-1.342 -0.624,-1.272 -1.878,0.737 -1.261,0.535 0.474,1.235 0.569,1.442 -1.21,0.551 -0.906,-1.987 -0.899,-2.268 -0.87,-2.491 1.206,-0.655 0.885,1.747 0.681,1.496 2.644,-0.902 -0.473,-1.525 -0.643,-1.896 0.866,-0.434 1.067,2.151 0.994,1.987 z m -1.272,0.513 -0.641,-0.05 -1.134,-2.002 0.579,-0.185 z m -7.379,-4.828 0.554,1.41 0.716,1.862 0.514,1.323 0.907,2.185 -0.852,-0.022 -0.66,-2.033 -0.54,-1.574 -0.741,-1.917 -0.693,-1.424 z"
       id="path84"
       clip-path="none" />
    <path
       stroke-width="0.5"
       stroke-linecap="butt"
       stroke-miterlimit="4"
       stroke-linejoin="miter"
       fill="none"
       stroke="#2a3890"
       d="m 166.87704,105.662 -1.02,-0.397 -2.652,1.14 c -0.056,-0.198 0.368,-1.216 1.254,-3.1 0.627,-1.328 -1.472,-3.795 -2.807,-3.704 -1.988,0.137 -3.787,2.309 -3.787,2.309 l 0.636,1.411 1.295,0.122 c 0,0 0.486,-1.149 1.138,-1.469 0.84,-0.388 0.869,1.782 0.213,2.978 -0.781,1.447 -0.687,3.431 -0.687,3.431 l 1.416,0.71 2.764,-1.188 2.664,-1.147 z m -4.503,-5.64 c 0,0 -1.579,0.17 -2.28,1.02 -0.358,0.428 -1.02,1.027 -1.02,1.027 l -0.878,-0.171 c 0,0 0.846,-0.887 1.481,-1.316 1.527,-1.036 2.697,-0.56 2.697,-0.56 z m -2.839,3.155 -0.859,-0.061 -0.454,-0.954 0.837,0.109 z m 7.154,2.762 0.249,0.715 -2.918,1.269 -1.914,0.784 c 0,0 -0.304,-1.28 -0.252,-2.112 0.069,-1.166 0.581,-2.353 0.837,-2.947 0.399,-0.943 0.117,-2.141 -0.919,-2.308 -1.016,-0.151 -2.061,1.735 -2.061,1.735 l -0.418,-0.904 c 0,0 1.138,-1.43 2.192,-1.701 1.33,-0.338 2.033,0.001 2.669,1.687 0.408,1.117 -0.515,2.063 -1.013,3.283 -0.341,0.839 -0.271,2.259 -0.271,2.259 z m -4.2,-2.896 c -0.105,1.181 -0.716,1.836 -0.853,3.045 -0.113,1.028 0.092,2.625 0.092,2.625 l -1.021,-0.606 c 0,0 0.201,-1.262 0.334,-2.077 0.172,-1.093 0.643,-0.851 0.777,-2.712 0.116,-1.5 -0.479,-1.623 -0.479,-1.623 0,0 1.303,-0.508 1.15,1.348 z m 4.01,2.729 -3.321,1.52 0.044,-0.542 2.661,-1.222 z"
       id="path85"
       clip-path="none" />
    <path
       stroke-width="0.5"
       stroke-linecap="butt"
       stroke-miterlimit="4"
       stroke-linejoin="miter"
       fill="none"
       stroke="#2a3890"
       d="m 174.50504,99.262 c -0.584,-1.628 -3.316,-3.293 -4.745,-2.705 -2.756,1.136 -4.141,4.159 -3.126,6.622 0.727,1.764 3.504,2.087 5.305,1.346 2.184,-0.901 3.295,-3.214 2.566,-5.263 z m -0.439,-0.221 c 0.864,2.097 0.1,4.086 -2.261,5.266 -1.696,0.854 -3.503,-0.219 -4.115,-1.705 -0.796,-1.931 0.674,-4.25 2.746,-5.18 1.632,-0.725 3.145,0.443 3.63,1.619 z m -2.932,-2.076 c -0.26,0.004 -0.55,0.11 -0.786,0.207 -2.247,0.926 -3.779,3.308 -2.962,5.399 0.313,0.831 0.946,1.415 1.165,1.804 l -1.271,-0.722 c -1.556,-2.721 -0.227,-5.63 2.906,-7.05 z m 1.894,2.555 c -0.47,-1.142 -1.646,-1.385 -2.875,-0.879 -1.216,0.501 -1.722,2.306 -1.306,3.315 0.453,1.099 1.875,1.486 3.093,0.985 1.415,-0.584 1.542,-2.322 1.088,-3.421 z m -0.188,0.389 c 0.273,0.77 0.434,2.391 -1.49,2.976 0.982,-0.755 1.248,-2.188 0.828,-3.209 -0.128,-0.311 -0.281,-0.611 -0.458,-0.901 0.449,0.139 0.86,0.398 1.12,1.134 z m -1.051,-0.436 c 0.365,0.888 0.381,2.828 -0.771,3.276 -0.89,0.341 -1.724,-0.341 -1.912,-1.081 -0.252,-0.999 0.233,-2.289 1.338,-2.744 0.671,-0.277 1.122,0.005 1.345,0.549 z"
       id="path86"
       clip-path="none" />
    <path
       stroke-width="0.5"
       stroke-linecap="butt"
       stroke-miterlimit="4"
       stroke-linejoin="miter"
       fill="none"
       stroke="#2a3890"
       d="m 183.15004,99.08 -1.006,-0.43 -2.685,1.058 c -0.05,-0.199 0.405,-1.204 1.348,-3.059 0.669,-1.308 -1.352,-3.839 -2.689,-3.79 -1.991,0.075 -3.858,2.19 -3.858,2.19 l 0.592,1.43 1.291,0.163 c 0,0 0.521,-1.134 1.182,-1.433 0.853,-0.362 0.813,1.808 0.121,2.983 -0.825,1.422 -0.794,3.408 -0.794,3.408 l 1.394,0.754 2.799,-1.103 2.699,-1.062 z m -4.324,-5.778 c 0,0 -1.583,0.121 -2.311,0.949 -0.37,0.417 -1.052,0.995 -1.052,0.995 l -0.872,-0.199 c 0,0 0.874,-0.86 1.522,-1.269 1.558,-0.988 2.713,-0.476 2.713,-0.476 z m -2.935,3.065 -0.857,-0.088 -0.425,-0.968 0.833,0.137 z m 7.063,2.984 0.227,0.723 -2.957,1.177 -1.937,0.724 c 0,0 -0.263,-1.289 -0.186,-2.119 0.106,-1.164 0.654,-2.334 0.929,-2.92 0.428,-0.929 0.183,-2.136 -0.847,-2.335 -1.011,-0.183 -2.113,1.67 -2.113,1.67 l -0.391,-0.917 c 0,0 1.183,-1.394 2.244,-1.631 1.341,-0.297 2.032,0.064 2.617,1.768 0.372,1.13 -0.58,2.047 -1.116,3.251 -0.367,0.828 -0.341,2.249 -0.341,2.249 z m -4.107,-3.026 c -0.142,1.178 -0.773,1.814 -0.948,3.017 -0.145,1.025 0.011,2.627 0.011,2.627 l -1.002,-0.637 c 0,0 0.241,-1.256 0.398,-2.066 0.207,-1.087 0.669,-0.831 0.862,-2.686 0.162,-1.496 -0.428,-1.637 -0.428,-1.637 0,0 1.317,-0.467 1.107,1.382 z m 3.923,2.853 -3.367,1.417 0.061,-0.541 2.699,-1.14 z"
       id="path87"
       clip-path="none" />
    <path
       stroke-width="0.5"
       stroke-linecap="butt"
       stroke-miterlimit="4"
       stroke-linejoin="miter"
       fill="none"
       stroke="#2a3890"
       d="m 190.01704,93.838 -0.468,-0.439 c 0,0 -0.407,-0.206 -0.697,-0.212 -0.134,-0.013 -0.415,0.003 -0.415,0.003 0,0 0.386,-1.338 -0.626,-2.457 -0.96,-1.062 -2.49,-0.894 -3.993,-0.314 -1.001,0.391 -2.424,1.262 -2.6,1.366 l 0.539,1.695 1.268,0.047 c 0.125,-0.123 1.78,-1.518 2.477,-1.345 0.793,0.2 1.095,1.152 -0.105,2.002 -0.456,0.314 -1.273,0.507 -1.444,0.546 l 0.271,1.025 1.084,0.323 c 0.105,-0.066 0.804,-0.534 1.331,-0.734 0.306,-0.102 0.59,-0.261 0.862,-0.338 0.285,-0.082 0.54,-0.089 0.785,0.101 0.648,0.5 -0.418,1.325 -1.239,1.738 -1.063,0.529 -2.95,0.742 -3.184,0.766 l -0.125,1.266 1.084,0.399 c 0.112,-0.004 1.898,-0.256 2.949,-0.704 1.273,-0.544 2.189,-0.967 2.626,-2.171 0.377,-1.015 -0.329,-2.467 -0.38,-2.563 z m -2.869,-3.227 c 0,0 -1.116,-0.219 -2.619,0.438 -0.851,0.372 -2.177,1.078 -2.177,1.078 l -0.702,-0.338 c 0,0 1.435,-0.837 2.386,-1.208 2.237,-0.883 3.057,0 3.112,0.03 z m 2.804,3.585 c -0.122,-0.056 -0.58,-0.281 -0.899,-0.327 -0.29,-0.045 -0.961,0.08 -1.003,0.083 l 0.246,-0.49 c 0,0 0.427,-0.085 0.624,-0.057 0.198,0.028 0.475,0.155 0.475,0.155 z m -3.989,-2.047 c 0,0 1.664,-0.269 0.632,1.788 -0.311,0.618 -1.501,1.118 -1.501,1.118 l -0.723,-0.24 c 0.038,-0.014 1.303,-0.389 1.675,-0.965 0.862,-1.365 -0.083,-1.701 -0.083,-1.701 z m -3.25,1.201 -0.763,-0.122 -0.441,-1.206 0.751,0.319 z m 6.625,0.782 c 1.312,0.545 1.296,2.975 -0.835,3.907 -2.893,1.273 -3.456,0.921 -3.461,0.909 l 0.064,-0.704 c 0.013,-0.005 1.417,-0.316 2.217,-0.708 1.017,-0.499 2.192,-1.341 1.879,-2.094 -0.292,-0.737 -1.005,-0.801 -1.787,-0.661 -0.766,0.136 -1.987,0.969 -1.987,0.969 l -0.17,-0.526 c 0.013,-0.005 1.441,-0.595 1.664,-1.333 0.074,-0.221 0.154,-0.469 0.224,-0.701 0.054,-0.238 0.099,-0.46 0.052,-0.661 -0.073,-0.382 -0.452,-0.663 -1.492,-0.642 -1.069,0.018 -2.716,1.32 -2.725,1.336 l -0.436,-0.849 c 0,0 1.343,-0.891 2.325,-1.184 0.234,-0.063 0.452,-0.133 0.673,-0.191 0.65,-0.181 1.236,-0.3 1.863,-0.01 1.672,0.779 0.33,3.005 0.159,3.274 0.193,-0.059 1.216,-0.356 1.773,-0.131 z m -4.289,1.145 0.127,0.53 -0.818,-0.192 -0.162,-0.618 z m 3.607,-0.065 c 0.037,0.023 1.063,0.688 -1.196,2.042 -0.833,0.493 -2.354,0.76 -2.354,0.76 l -0.639,-0.246 c 0,0 1.606,-0.196 2.473,-0.638 2.021,-1.033 1.716,-1.918 1.716,-1.918 z m -3.865,2.998 -0.096,0.729 -0.681,-0.244 0.03,-0.87 z"
       id="path88"
       clip-path="none" />
  </g>
</svg>
