<?xml version="1.0" encoding="UTF-8" standalone="no"?>
<svg
   version="1.1"
   width="425.197pt"
   height="425.197pt"
   viewBox="0 0 425.197 425.197"
   id="svg81"
   sodipodi:docname="vybuch_.svg"
   inkscape:version="1.3 (0e150ed6c4, 2023-07-21)"
   xmlns:inkscape="http://www.inkscape.org/namespaces/inkscape"
   xmlns:sodipodi="http://sodipodi.sourceforge.net/DTD/sodipodi-0.dtd"
   xmlns="http://www.w3.org/2000/svg"
   xmlns:svg="http://www.w3.org/2000/svg">
  <sodipodi:namedview
     id="namedview81"
     pagecolor="#505050"
     bordercolor="#ffffff"
     borderopacity="1"
     inkscape:showpageshadow="0"
     inkscape:pageopacity="0"
     inkscape:pagecheckerboard="1"
     inkscape:deskcolor="#505050"
     inkscape:document-units="pt"
     inkscape:zoom="2.2076456"
     inkscape:cx="304.39669"
     inkscape:cy="243.92503"
     inkscape:window-width="1981"
     inkscape:window-height="1691"
     inkscape:window-x="1090"
     inkscape:window-y="0"
     inkscape:window-maximized="0"
     inkscape:current-layer="svg81" />
  <defs
     id="defs1">
    <clipPath
       id="clip_0">
      <path
         transform="matrix(1,0,0,-1,0,425.197)"
         d="M0 425.197H425.197V0H0Z"
         id="path1" />
    </clipPath>
  </defs>
  <path
     transform="matrix(1 0 0 -1 338.599 182.39)"
     d="M0 0C-.271-1.629-.542-3.258-.813-4.888L7.176-2.645C7.176-2.058 7.176-1.471 7.177-.885 5.196 .386 3.215 1.657 1.235 2.928 4.808 6.055 5.217 .764 7.538 .559 7.135-1.03 6.955-2.728 6.25-4.17 5.781-5.127 4.607-6.282 3.669-6.358 1.416-6.54-2.05-6.99-2.924-5.794-4.776-3.261-3.205-.851 0 0"
     fill="#231f20"
     id="path46"
     clip-path="none" />
  <path
     transform="matrix(1 0 0 -1 251.106 188.712)"
     stroke-width="1"
     stroke-linecap="butt"
     stroke-miterlimit="4"
     stroke-linejoin="miter"
     fill="none"
     stroke="#231f20"
     d="M0 0C-2.031 2.215-4.275 4.505-6.768 6.338L-5.601 8.891C-5.407 9.748-5.511 12.039-5.579 12.206-6.887 15.398-10.426 17.839-14.413 17.211-16.671 16.611-19.648 14.581-21.18 12.916L-19.759 9.446C-19.11 7.863-18.214 6.383-17.555 4.772-16.232 1.457-15.271-2.041-13.876-5.359L-10.924-5.836-7.375-3.961C-7.957-2.805-8.709-1.589-9.197-.396-9.584 .548-9.889 1.558-10.244 2.515-8.245 1-6.102-.781-4.582-2.72L-1.329-2.068ZM-11.194 16.26C-12.078 16.028-13.269 15.832-14.107 15.489-15.754 14.814-17.397 14.044-18.624 12.699L-19.917 13.109C-19.753 13.241-17.366 15.386-17.335 15.398L-14.751 16.619ZM-.709-.128-1.625-1.347C-3.192 .443-6.795 3.571-9.268 4.114L-11.229 3.148C-10.689 1.652-10.18 .142-9.577-1.329-9.225-2.19-8.705-3.015-8.291-3.85L-10.771-5.06C-13.632 .511-15.737 6.36-18.362 12.06-17.116 13.446-15.328 14.308-13.62 15.007-12.781 15.351-11.398 15.431-10.461 15.621-10.461 15.621-9.335 15.53-7.738 14.466-6.44 12.891-6.194 11.759-5.923 10.477-6.151 9.086-6.764 7.214-7.787 6.082-5.16 4.273-2.786 2.198-.709-.128ZM-2.3-1.558-4.383-2.054C-5.845-.254-7.692 1.42-9.514 2.944L-8.705 3.275C-6.416 2.202-3.879 .259-2.3-1.558ZM-11.572-5.226-13.292-4.925C-14.518-1.667-15.631 1.67-16.938 4.863-18.019 7.5-19.161 10.112-20.479 12.62L-19.069 12.192C-17.94 9.348-16.439 6.656-15.291 3.852-14.04 .798-13.01-2.249-11.572-5.226ZM-8.723 12.085C-8.916 12.558-10.611 13.419-11.115 13.764L-13.548 13.416-15.402 12.008C-14.125 9.775-13.147 7.388-12.025 5.092L-9.898 6.806C-8.323 8.1-8.074 10.503-8.723 12.085ZM-10.857 12.249C-10.63 11.693-10.608 11.021-10.567 10.39-10.454 9.139-11.179 8.162-12.169 7.302L-14.385 12.003-12.917 13.026-11.246 12.932C-11.124 12.723-10.96 12.499-10.857 12.249ZM-9.499 11.768C-8.692 9.796-9.532 7.507-11.548 6.228L-11.931 6.719C-9.985 7.905-9.416 10.148-10.167 11.98-10.258 12.203-10.836 12.906-10.822 13.138-10.633 13.119-10.152 12.83-9.979 12.673L-9.758 12.31C-9.545 11.878-9.682 12.211-9.499 11.768Z"
     id="path78"
     clip-path="none" />
  <path
     transform="matrix(1 0 0 -1 225.63 143.718)"
     d="M0 0C-2.248-1.917-4.735-5.602-6.688-5.338-9.661-4.936-12.264-1.798-14.938 .116-18.368-6.07-20.092-6.218-26.633 .36-27.68-2.655-28.777-6.419-32.77-4.553-35.461-3.296-37.492-.629-39.995 1.562-39.559-.881-38.815-3.331-38.787-5.789-38.766-7.594-39.171-9.989-40.349-11.036-41.271-11.854-43.78-11.337-45.388-10.814-47.225-10.215-48.846-8.952-50.874-7.8-50.551-11.022-50.032-13.903-50.025-16.785-50.015-21.31-52.957-23.563-57.29-22.234-61.072-21.074-64.696-19.4-69.325-17.586-67.201-20.879-65.317-23.421-63.847-26.183-62.373-28.952-61.058-31.86-60.122-34.847-58.177-41.058-60.097-44.132-66.504-45.647-67.769-45.946-69.054-46.164-70.438-46.442-67.203-49.14-63.452-51.182-61.308-54.321-58.376-58.612-62.067-61.953-65.115-64.967-51.883-69.641-50.828-72.849-58.432-84.489-59.696-86.425-61.141-88.242-62.806-90.531-58.184-88.956-54.069-87.49-49.912-86.158-46.26-84.987-45.064-86.633-45.746-90.132-40.2-89.069-39.149-89.808-39.158-95.355-39.163-98.753-39.618-102.151-39.881-105.676-29.602-92.962-27.923-92.199-22.228-97.833-13.024-90.061-11.505-100.981-6.613-104.607-6.441-101.256-7.293-97.484-5.799-95.366-4.648-93.734-.55-94.179 1.844-93.768 3.133-90.979 3.976-85.547 6.507-84.593 9.656-83.405 14.199-85.917 17.981-86.794 16.596-74.062 17.123-73.48 31.186-73.367 27.03-66.793 31.543-63.681 36.949-61.2 36.118-62.103 35.205-62.945 34.479-63.925 33.533-65.202 32.23-66.513 32.013-67.95 31.785-69.455 32.468-71.21 33.112-72.701 33.746-74.171 34.83-75.446 36.094-77.383 30.546-76.091 24.369-72.052 20.956-77.04 18.671-80.38 20.418-86.478 20.362-91.181 18.8-90.369 16.314-88.84 13.652-87.738 7.085-85.02 4.157-87.311 4.897-94.414 5.03-95.7 5.24-96.977 5.328-97.622 2.155-97.09-.942-96.57-4.039-96.05-4.124-99.403-4.323-102.759-4.247-106.108-4.207-107.894-3.691-109.67-4.047-111.989-5.083-110.536-6.149-109.103-7.149-107.624-8.267-105.97-9.227-104.202-10.425-102.61-15.655-95.659-16.968-95.586-22.836-101.739-26.467-95.517-29.515-95.194-34.152-101.164-37.381-105.321-39.924-110.01-43.119-115.001-42.414-110.245-41.522-106.003-41.242-101.72-41.056-98.872-41.744-95.968-42.041-93.089-44.79-93.686-47.538-94.283-50.195-94.86-49.617-93.356-48.841-91.34-48.015-89.195-53.74-88.567-53.74-88.567-70.781-97.095-69.574-95.773-68.338-94.475-67.166-93.122-65.967-91.739-64.72-90.378-63.691-88.873-61.909-86.265-60.029-83.678-58.637-80.862-55.129-73.763-56.593-70.366-64.017-67.567-65.559-66.986-67.104-66.414-68.631-65.844-68.608-65.386-68.706-64.99-68.566-64.867-60.853-58.137-61.657-52.929-71.216-48.873-74.498-47.48-77.987-46.574-81.26-44.658-78.871-44.658-76.48-44.719-74.093-44.647-63.282-44.321-59.29-37.543-64.949-28.334-68.846-21.995-73.627-16.2-78.962-8.854-76.256-10.525-74.767-11.61-73.14-12.416-68.701-14.616-64.363-17.2-59.684-18.688-54.719-20.266-51.52-17.117-52.397-11.928-52.91-8.891-54.252-5.994-55.299-2.794-52.54-4.356-49.923-6.3-46.988-7.396-42.08-9.228-39.888-7.248-41.098-2.148-42.258 2.74-43.897 7.514-44.689 12.634-42.542 9.54-40.697 6.163-38.151 3.443-36.142 1.296-33.269-.044-30.78-1.741-29.524 .434-28.268 2.61-27.241 4.389-24.986 2.671-22.313 .635-19.639-1.401-17.731 1.716-15.823 4.833-13.893 7.985-13.536 6.965-12.962 5.23-12.324 3.518-9.477-4.123-6.496-4.879-.456 .491-.304 .328-.152 .164 0 0"
     fill="#231f20"
     id="path2"
     clip-path="none" />
  <path
     transform="matrix(1 0 0 -1 286.738 232.101)"
     d="M0 0C4.425-2.558 8.85-5.117 13.275-7.675 13.148-7.977 13.02-8.278 12.892-8.58 6.756-6.383 .658-4.068-5.527-2.018-12.546 .308-19.622 2.47-26.715 4.559-30.359 5.632-32.531 3.564-31.888-.204-30.851-6.279-27.076-10.653-22.702-14.606-20.862-16.269-18.907-17.805-17.382-20.192-18.65-19.57-19.904-18.92-21.186-18.33-27.489-15.431-33.704-12.3-40.165-9.809-42.137-9.049-45.791-9.226-46.865-10.5-48.001-11.848-47.055-15.02-46.859-17.382-46.797-18.132-46.226-18.84-45.488-20.428-48.194-19.116-50.091-17.95-52.147-17.249-56.785-15.668-59.924-17.925-59.242-22.744-58.668-26.8-57.371-30.809-55.954-34.677-53.58-41.159-50.856-47.513-49.033-54.296-54.82-46.444-60.366-38.397-66.504-30.829-69.32-27.356-73.2-24.701-76.776-21.904-80.51-18.984-83.3-19.955-84.437-25.41-85.889-23.017-86.815-21.491-88.459-18.781-91.496-21.598-95.149-23.685-96.863-26.829-101.418-35.186-105.138-43.999-109.726-53.773-109.726-51.321-109.75-49.95-109.722-48.58-109.577-41.6-109.131-34.613-109.335-27.644-109.602-18.557-111.747-17.333-120.015-21.164-119.84-19.27-119.682-17.561-119.389-14.399-123.76-16.344-127.678-17.611-131.1-19.694-144.307-27.73-155.077-38.645-165.703-49.697-166.574-50.603-167.554-51.403-169.381-51.546-165.671-46.193-161.961-40.839-157.442-34.318-157.708-36.739-157.823-37.789-157.905-38.53-150.019-31.906-142.158-25.058-134.006-18.576-130.786-16.016-127.028-14.052-123.319-12.21-118.598-9.865-117.428-10.547-116.055-15.585-108.903-14.606-107.342-15.914-107.26-23.244-107.184-30.053-107.244-36.864-107.244-44.016-104.521-38.083-102.063-32.224-99.161-26.593-97.504-23.379-95.319-20.377-93.013-17.575-91.083-15.23-88.582-13.966-85.678-16.524-85.182-16.961-84.097-17.328-83.607-17.083-78.952-14.749-75.801-17.59-73.164-20.502-67.259-27.023-61.719-33.875-55.349-41.396-57.243-36.244-58.827-31.945-60.4-27.643-60.571-27.176-60.797-26.69-60.806-26.209-60.879-22.415-60.906-18.62-60.947-14.825H-49.444C-49.988-15.651-49.694-15.41-49.684-15.157-49.577-12.511-50.469-8.333-49.229-7.56-47.161-6.273-43.562-6.547-40.922-7.285-36.85-8.424-33.042-10.511-28.397-12.507-30.591-9.419-33.07-7.172-33.902-4.426-34.827-1.375-35.252 2.553-34.079 5.334-32.54 8.982-28.451 8.215-25.228 7.064-17.419 4.275-9.683 1.281-1.91-1.609-1.354-1.815-.733-1.844-.142-1.955-.311-1.539-.48-1.122-.649-.706-.433-.47-.216-.235 0 0"
     fill="#231f20"
     id="path3"
     clip-path="none" />
  <path
     transform="matrix(1 0 0 -1 146.1 176.235)"
     d="M0 0C3.48 4.625 .805 9.358-2.024 12.871-12.659 26.079-23.925 38.78-34.955 51.671-35.947 52.831-36.937 53.993-37.928 55.155-37.549 55.475-37.17 55.796-36.791 56.117-27.595 45.957-18.16 36-9.298 25.557-4.376 19.757 .025 13.399 3.861 6.827 7.584 .449 5.305-4.74-2.115-5.347-11.65-6.129-21.34-5.248-30.951-4.809-35.909-4.582-40.84-3.761-45.853-3.639-35.016-6.861-24.111-9.874-13.377-13.408-9.014-14.844-4.803-17.07-.919-19.555 4.424-22.974 4.835-27.283 .08-31.357-4.426-35.219-9.538-38.372-13.65-41.312-9.027-40.68-3.555-39.448 1.945-39.31 7.858-39.162 10.664-42.792 9.338-48.403 6.931-58.58 .353-66.541-5.873-74.68-5.144-73.304-4.367-71.951-3.693-70.549-.498-63.899 2.945-57.351 5.753-50.541 7.783-45.619 2.744-40.982-3.687-42.316-11.579-43.952-19.295-46.455-27.061-48.676-29.068-49.25-30.976-50.172-33.337-50.144-28.344-47.154-23.262-44.304-18.386-41.135-13.819-38.167-9.338-35.032-5.062-31.662 .633-27.175-.115-23.447-6.371-19.653-18.967-12.014-33.163-9.119-47.066-5.384-55.05-3.239-63.211-1.758-71.195 1.055-65.083 .505-58.972-.043-52.86-.596-39.951-1.763-27.051-3.074-14.125-4.008-10.725-4.254-7.189-3.58-3.82-2.848-2.407-2.542-1.265-.987 0 0"
     fill="#231f20"
     id="path4"
     clip-path="none" />
  <path
     transform="matrix(1 0 0 -1 172.746 113.15)"
     d="M0 0C1.978-2.455 4.106-4.807 5.901-7.39 8.915-11.725 12.412-15.265 18.912-16.096 19.706-12.504 20.568-8.604 21.417-4.762 22.846-7.502 24.09-10.84 26.133-13.583 29.381-17.944 31.569-17.949 33.516-13.041 36.115-6.49 37.551 .523 39.48 7.339 39.686 8.067 39.852 8.806 40.858 9.455 40.858 5.984 40.45 2.452 40.959-.942 41.638-5.471 42.481-10.128 44.265-14.297 46.166-18.738 49.714-21.029 53.488-15.664 58.698-8.259 62.903-.146 67.518 7.675 68.007 8.504 68.363 9.412 69.481 10.052 68.483 6.572 67.485 3.091 66.487-.389L66.569-.298C65.552-6.586 63.807-12.868 63.755-19.164 63.715-23.935 67.539-25.55 71.249-22.328 78.995-15.599 86.109-8.141 93.457-.958 94.674 .233 95.765 1.553 97.813 2.082 94.007-3.66 89.862-9.212 86.498-15.203 83.633-20.304 81.477-25.838 79.417-31.335 78.804-32.972 79.573-35.128 79.755-37.704 75.951-37.328 75.109-34.889 76.179-32.01 77.961-27.218 80.304-22.634 82.426-17.969 82.734-17.292 83.129-16.655 83.483-15.999 83.16-15.727 82.837-15.455 82.514-15.182 78.903-18.966 75.486-22.969 71.588-26.431 69.934-27.9 66.669-29.48 65.218-28.777 63.336-27.865 61.762-24.834 61.435-22.52 60.842-18.319 61.267-13.974 61.267-9.073 59.118-12.293 57.356-15.231 55.302-17.948 50.633-24.128 44.471-23.333 41.666-16.031 40.335-12.567 39.852-8.776 39.046-5.388 37.852-8.969 36.825-13 35.13-16.727 34.268-18.622 32.297-21.098 30.651-21.237 29.073-21.371 27.224-18.873 25.585-17.428 25.004-16.914 24.692-16.095 24.146-15.242 21.749-22.645 18.333-23.824 13.025-18.26 7.912-12.9 3.851-6.537-.672-.615-.448-.41-.224-.205 0 0"
     fill="#231f20"
     id="path5"
     clip-path="none" />
  <path
     transform="matrix(1 0 0 -1 172.074 113.765)"
     d="M0 0C-.395-.316-1.183-.762-1.127-.928 .702-6.43 3.046-11.805 4.339-17.424 5.044-20.489 5.237-25.345 3.459-26.943 .2-29.872-3.608-26.943-6.656-24.467-7.683-23.633-8.716-22.806-10.963-20.996-9.101-24.999-7.63-27.606-6.649-30.385-4.643-36.073-7.869-40.068-13.63-38.4-17.985-37.14-22.296-34.871-25.93-32.129-39.597-21.819-52.978-11.128-66.471-.587-67.209-.01-67.994 .507-69.202 .602-68.304-.636-67.405-1.874-66.507-3.112-66.775-3.36-67.043-3.608-67.311-3.856-72.819 1.908-78.328 7.671-83.836 13.435-83.571 13.752-83.306 14.069-83.042 14.386-80.829 12.79-78.583 11.238-76.41 9.59-59.59-3.167-42.878-16.071-25.892-28.603-22.621-31.016-18.419-32.562-14.412-33.471-10.214-34.422-8.414-31.437-10.224-27.121-11.246-24.685-12.672-22.412-13.985-20.105-15.298-17.798-16.696-15.54-18.484-12.543-11.806-15.579-8.947-24.337-.816-22.725 3.274-16.689 .947-11.136-1.253-5.59-3.745 .692-6.267 6.962-7.949 13.767-5.075 9.383-2.202 4.999 .672 .615 .448 .41 .224 .205 0 0"
     fill="#231f20"
     id="path6"
     clip-path="none" />
  <path
     transform="matrix(1 0 0 -1 79.4634 235.473)"
     d="M0 0C-2.66 6.851-4.452 13.761-3.211 21.279-1.182 33.576 10.185 41.554 22.438 38.698 24.173 43 25.802 47.665 32.279 47.975 27.191 44.44 23.536 40.748 25.313 34.535 24.769 34.314 24.342 34.021 24.231 34.112 15.716 41.11 8.899 36.739 3.484 30.7-5.338 20.859-3.422 4.642 7.208-2.76 12.307-6.311 17.891-5.784 23.512-4.614 25.276-4.247 26.975-3.574 29.367-2.837 27.214-8.676 21.177-14.33 27.999-19.816 34.471-25.021 40.499-20.68 45.486-17.8 47.382-20.432 49.07-22.774 50.959-25.395 48.779-24.372 46.435-23.272 43.557-21.921 38.049-24.297 31.841-25.741 26.079-20.615 21.921-16.916 22.48-12.395 23.963-8.288 18.344-7.546 12.787-6.812 7.23-6.078 4.82-4.052 2.41-2.026 0 0"
     fill="#231f20"
     id="path8"
     clip-path="none" />
  <path
     transform="matrix(1 0 0 -1 212.071 273.84)"
     d="M0 0C4.953-.909 9.512-1.746 15.235-2.796H1.629C1.227-4.334 .808-6.363 .167-8.319-2.28-15.781-9.373-19.619-17.139-18.133-18.86-17.804-20.946-18.467-22.654-19.176-26.613-20.821-30.275-23.58-34.361-24.44-44.306-26.534-54.103-19.453-56.719-9.079-57.989-4.042-59.286 .987-60.506 5.766-67.707 6.353-68.518 7.537-65.699 13.476-65.928 8.798-63.833 7.503-60.625 8.457-59.081 5.726-57.681 3.351-56.391 .916-55.881-.047-55.202-1.185-55.308-2.168-56.21-10.546-53.198-16.81-45.539-20.533-38.113-24.144-31.116-22.253-24.895-17.8-21.992-15.721-20.174-14.562-16.287-16.118-9.773-18.724-2.461-13.102-.795-5.149-.394-3.232-.193-1.274 0 0"
     fill="#231f20"
     id="path11"
     clip-path="none" />
  <path
     transform="matrix(1 0 0 -1 330.18 152.909)"
     d="M0 0C.173-.061 .347-.123 .52-.184 2.477 8.541 4.433 17.267 6.596 26.911 3.704 26.032 2.066 25.535 0 24.907ZM-4.367-3.236C-4.367 3.994-4.52 11.098-4.278 18.189-4.201 20.473-3.539 23.003-2.348 24.927-.031 28.668 3.886 28.699 8.424 28.374 7.983 25.524 7.703 22.956 7.174 20.441 5.942 14.588 4.388 8.797 3.355 2.912 2.578-1.519 .076-3.195-4.367-3.236"
     fill="#231f20"
     id="path12"
     clip-path="none" />
  <path
     transform="matrix(1 0 0 -1 119.364 308.982)"
     d="M0 0C1.335 .489 2.641 1.099 4.014 1.424 4.945 1.645 5.971 1.466 6.955 1.466 7.033 1.981 7.112 2.495 7.19 3.01 5.632 3.659 4.074 4.309 2.517 4.952 2.138 8.421 2.878 13.251-3.292 9.382-3.877 9.016-5.492 10.292-6.49 10.743-5.939 13.611-5.454 16.138-5.107 17.941-7.695 19.066-9.567 20.175-11.587 20.626-12.483 20.826-14.312 19.916-14.587 19.12-15.013 17.886-14.471 16.318-14.298 14.448-18.836 15.931-22.396 14.533-23.151 10.105-23.52 7.943-22.061 4.688-20.343 3.109-16.434-.485-12.766 1.963-9.023 5.16-8.678-.671-5.279-1.771-.449-.417-4.381-3.114-19.188-2.118-22.534 1.069-26.879 5.208-25.952 12.366-20.628 15.509-19.502 16.174-17.315 16.543-17.229 17.245-16.128 26.292-9.813 21.391-6.023 20.908-4.388 20.7-3.278 16.366-1.51 14.418 .55 12.058 2.62 9.707 4.652 7.323 4.836 7.108 4.669 6.481 4.846 6.387 7.134 5.169 9.769 3.189 7.664 .956 6.303-.488 2.634 .243 0 0"
     fill="#231f20"
     id="path13"
     clip-path="none" />
  <path
     transform="matrix(1 0 0 -1 341.126 218.88)"
     d="M0 0C.551 2.209 2.75 6.447-1.778 9.573-5.808 12.357-10.206 13.446-14.859 10.937-19.854 8.243-20.243 3.976-18.679-.035-21.79-1.972-24.448-3.628-27.106-5.283-26.873-5.882-26.64-6.482-26.407-7.081-24.37-7.304-22.334-7.527-20.185-7.762-20.384-8.231-20.61-8.646-20.737-9.089-21.286-10.996-21.805-12.911-22.335-14.824-20.209-15.073-18.072-15.568-15.961-15.475-14.758-15.422-13.65-14.191-12.402-13.886-11.052-13.555-9.386-13.203-8.214-13.701-4.342-15.345 .926-13.02 3.232-7.437 3.823-6.005 1.562-3.396 0 0M-10.087 14.263C-7.02 13.129-3.835 12.235-.92 10.795 2.233 9.238 3.638 6.347 2.794 2.87 2.159 .255 1.888-1.897 4.558-3.601 5.183-3.999 5.396-5.368 5.435-6.305 5.645-11.361-3.346-17.767-8.085-16.233-9.515-15.77-11.471-15.897-12.856-16.504-19.975-19.627-21.285-17.563-25.216-11.115-29.312-4.396-27.833-2.033-21.765 .493-21.197 .73-21.196 2.564-21.103 3.671-20.58 9.832-16.392 13.728-10.087 14.263"
     fill="#231f20"
     id="path14"
     clip-path="none" />
  <path
     transform="matrix(1 0 0 -1 286.089 232.806)"
     d="M0 0C-6.453 4.597-13.108 8.948-19.24 13.94-21.114 15.467-22.779 19.042-22.284 21.15-21.851 22.996-18.255 24.1-16.74 25.087-17.593 27.241-19.201 29.963-19.561 32.842-19.716 34.079-17.279 35.641-15.637 36.676-18.93 28.766-13.731 26.077-1.176 23.677-3.046 23.252-3.801 23-4.572 22.93-5.222 22.871-5.891 23.028-6.553 23.083-11.137 23.462-16.571 23.323-18.125 18.817-19.623 14.475-14.621 11.937-11.375 9.482-7.418 6.489-3.363 3.625 .649 .706 .432 .471 .216 .235 0 0"
     fill="#231f20"
     id="path15"
     clip-path="none" />
  <path
     transform="matrix(1 0 0 -1 273.948 255.244)"
     d="M0 0C2.519-.56 4.887-1.195 7.294-1.599 11.433-2.294 15.428-2.143 17.649 2.201 19.906 6.613 16.513 8.765 13.092 11.173 14.734 11.892 15.867 12.389 16.805 12.8 20.091 7.544 21.307 2.329 17.13-2.965H3.371C.364-9.77-1.466-10.722-9.36-9.638-10.538-9.476-12.442-9.596-12.943-10.321-16.234-15.09-21.126-13.815-25.066-12.842-28.284-12.047-29.716-12.733-31.797-14.738-33.566-16.443-36.061-17.395-38.584-17.936-35.634-15.462-32.684-12.988-29.286-10.139-24.182-11.986-18.537-13.639-13.487-7.976-12.656-7.044-9.515-8.195-7.44-8.347-1.094-8.809 1.018-6.566 0 0"
     fill="#231f20"
     id="path17"
     clip-path="none" />
  <path
     transform="matrix(1 0 0 -1 126.721 146.496)"
     d="M0 0C-.821-.644-.933-.802-1.069-.829-11.947-2.962-12.843-4.062-13.149-14.919-13.191-16.421-13.917-17.903-14.46-19.883-12.798-21.189-10.885-22.692-9.58-23.717-10.852-25.737-12.074-27.677-14.074-30.853-14.538-28.943-14.99-27.603-15.159-26.228-15.298-25.098-14.583-23.422-15.135-22.855-19.481-18.396-18.977-13.659-16.457-8.634-13.684-3.104-9.37 .032-3.065 .136-2.253 .149-1.439 .067 0 0"
     fill="#231f20"
     id="path18"
     clip-path="none" />
  <path
     transform="matrix(1 0 0 -1 87.5272 264.407)"
     d="M0 0C-.258-.402-.455-.863-.782-1.198-4.971-5.499-4.841-6.059 .559-8.208-.13-11.581-.807-14.888-1.643-18.979 .918-18.779 3.072-19.175 4.62-18.385 9.223-16.034 13.588-13.216 18.846-10.108 19.399-8.807 12.737-5.912 18.943-3.975 18.987-4.786 18.893-5.633 19.096-6.402 20.962-13.494 20.959-13.405 13.763-14.951 12.484-15.225 11.388-16.481 10.274-17.367 7.061-19.925 3.707-21.863-.603-20.241-1.065-20.067-1.768-20.052-1.963-19.726-3.096-17.832-5.493-14.86-4.936-14.095-1.808-9.804-9.684-1.69 0 0"
     fill="#231f20"
     id="path19"
     clip-path="none" />
  <path
     transform="matrix(1 0 0 -1 344.567 141.276)"
     d="M0 0C-1.206-4.598-1.407-9.911-8.581-11.378-6.637-3.408-5.345 4.06-2.897 11.128-1.353 15.585 2.296 13.711 5.912 11.506 3.87 7.566 1.879 3.722-.115-.124 1.066 3.685 2.248 7.497 3.5 11.53 .571 10.672-4.807-2.503-4.739-7.82-3.137-5.176-1.568-2.588 0 0"
     fill="#231f20"
     id="path20"
     clip-path="none" />
  <path
     transform="matrix(1 0 0 -1 315.331 125.497)"
     d="M0 0C-18.653-5.293-37.306-10.585-56.167-15.937-52.737-10.849-14.155-1.388 0 0"
     fill="#231f20"
     id="path21"
     clip-path="none" />
  <path
     transform="matrix(1 0 0 -1 316.891 186.183)"
     d="M0 0C4.802-6.978 2.395-13.616-.516-20.399-3.709-27.837-11.396-28.601-17.28-32.256V-38.598C-18.829-36.178-20.179-34.069-21.714-31.671-6.75-26.936 3.465-18.19 0 0"
     fill="#231f20"
     id="path22"
     clip-path="none" />
  <path
     transform="matrix(1 0 0 -1 353.504 143.334)"
     d="M0 0C-1.043-2.34-2.085-4.681-3.175-7.128-5.143-6.576-6.521-6.19-8.834-5.542-6.983-.627-5.521 4.247-3.204 8.673-2.658 9.717 1.014 9.939 2.811 9.304 5.012 8.525 5.859 6.331 3.735 4.13 2.407 2.754 1.162 1.297-.121-.125 .867 2.341 1.855 4.807 2.843 7.274 2.205 7.517 1.568 7.761 .93 8.004-1.199 3.894-3.328-.217-5.457-4.328-5.161-4.494-4.866-4.661-4.57-4.827-3.047-3.218-1.523-1.609 0 0"
     fill="#231f20"
     id="path23"
     clip-path="none" />
  <path
     transform="matrix(1 0 0 -1 290.544 115.262)"
     d="M0 0C-3.864-.548-7.448-.106-9.666-1.639-11.844-3.145-12.635-6.658-14.699-10.54-11.673-9.5-9.709-8.825-7.514-8.07-6.508-8.648-5.166-9.419-3.205-10.545-2.096-6.896-1.172-3.855 0 0M-6.882-12.151C-9.146-12.151-11.507-12.53-13.629-11.981-14.594-11.731-15.917-9.427-15.656-8.426-13.813-1.367-7.481 2.745-.579 1.6 .249 1.462 1.314 .673 1.634-.084 3.252-3.907-2.665-12.527-6.882-12.151"
     fill="#231f20"
     id="path24"
     clip-path="none" />
  <path
     transform="matrix(1 0 0 -1 322.725 164.766)"
     d="M0 0C3.114 2.709 5.258 4.574 7.403 6.44 8.759 4.879 11.156 3.38 11.255 1.743 11.46-1.663 9.879-5.232 5.967-5.396 4.417-5.461 2.745-2.598 0 0"
     fill="#231f20"
     id="path25"
     clip-path="none" />
  <path
     transform="matrix(1 0 0 -1 134.443 111.351)"
     d="M0 0C1.297-2.473 2.39-6.872 3.93-7.034 7.61-7.423 11.501-5.815 15.167-4.347 18.239-4.24 21.669-8.633 24.462-3.51 24.885-2.734 22.326-.333 20.522 2.189 20.482 2.125 21.231 3.303 21.979 4.481 22.423 3.666 22.662 2.484 23.347 2.103 25.722 .781 27.816-.626 26.112-3.663 24.385-6.74 21.712-9.359 18.082-7.689 15.35-6.433 14.01-7.351 12.001-8.689 8.391-11.094 4.614-10.508 1.365-7.899-1.227-5.818-1.993-3.055 0 0"
     fill="#231f20"
     id="path26"
     clip-path="none" />
  <path
     transform="matrix(1 0 0 -1 225.174 143.227)"
     d="M0 0C1.157 1.943 2.314 3.887 4.18 7.02 4.17 1.105 .968-5.31 6.494-7.035 9.925-8.106 14.887-4.274 18.731-2.807 18.468-4.361 18.018-7.019 17.438-10.446 16.609-8.769 16.085-7.708 15.562-6.647 15.41-6.715 15.242-6.76 15.109-6.853 4.708-14.121 3.496-13.625 1.53-1.355 1.476-1.019 .827-.777 .456-.491 .305-.327 .152-.163 0 0"
     fill="#231f20"
     id="path27"
     clip-path="none" />
  <path
     transform="matrix(1 0 0 -1 255.525 111.712)"
     d="M0 0C1.195 .842 3.246 1.928 4.79 3.509 5.719 4.46 5.859 6.183 6.353 7.56 4.804 8.059 3.133 9.184 1.733 8.912-.435 8.492-2.447 7.176-4.462 6.118-5.095 5.786-5.905 5.086-5.939 4.514-5.973 3.925-5.278 3.115-4.69 2.706-3.443 1.837-2.057 1.165 0 0M8.02 6.946C7.972 3.388 .944-3.486-1.071-2.275-3.591-.761-5.728 2.039-6.998 4.765-7.893 6.685-.615 11.386 2.872 11.365 6.392 11.344 7.927 9.384 8.02 6.946"
     fill="#231f20"
     id="path28"
     clip-path="none" />
  <path
     transform="matrix(1 0 0 -1 71.3617 187.555)"
     d="M0 0C-.185-.58-.371-1.161-.556-1.741 .693-3.071 2.826-5.692 3.057-5.534 5.53-3.84 7.703-1.707 11.03 1.261 6.237 .713 3.118 .357 0 0M6.238 2.246C6.896 2.246 7.603 2.401 8.202 2.213 9.467 1.817 10.675 1.24 11.906 .737 11.349-.362 10.969-1.611 10.193-2.522 9.152-3.744 7.97-5.131 6.551-5.68 4.15-6.609 1.515-7.292-1.021-7.288-1.723-7.287-3.412-3.722-2.944-3.121-1.261-.964 1.068 .743 3.342 2.352 3.968 2.795 5.255 2.302 6.238 2.246"
     fill="#231f20"
     id="path29"
     clip-path="none" />
  <path
     transform="matrix(1 0 0 -1 259.818 279.093)"
     d="M0 0C2.302-2.141 3.851-4.278 5.944-5.284 7.355-5.963 9.657-5.357 11.31-4.697 11.998-4.422 12.606-1.714 12.271-1.473 9.867 .258 7.349 2.184 4.572 2.887 3.297 3.21 1.358 .918 0 0M8.638-8.697C4.533-5.988 1.209-3.958-1.803-1.54-2.084-1.314-.772 1.97 .478 2.754 2.043 3.736 4.36 4.034 6.256 3.809 7.724 3.636 9.188 2.369 10.393 1.295 11.917-.062 14.599-2.633 14.307-3.086 12.943-5.202 10.728-6.769 8.638-8.697"
     fill="#231f20"
     id="path30"
     clip-path="none" />
  <path
     transform="matrix(1 0 0 -1 105.559 142.278)"
     d="M0 0C.388-1.32 1.525-3.31 1.042-3.85-1.972-7.215-4.974-10.851-8.724-13.218-11.748-15.128-18.533-11.175-21.227-6.996-21.58-6.449-21.993-5.94-22.378-5.413-22.216-5.244-22.054-5.075-21.892-4.907-19.11-6.904-16.208-8.754-13.58-10.936-10.605-13.406-7.251-12.441-6.07-8.4-5.435-6.225-6.106-2.841-1.961-4.875-1.409-3.36-.857-1.844-.306-.328Z"
     fill="#231f20"
     id="path31"
     clip-path="none" />
  <path
     transform="matrix(1 0 0 -1 373.251 146.253)"
     d="M0 0C.194-1.243 .387-2.487 .568-3.647 5.715-3.14 10.764-2.643 15.814-2.145 15.854-2.411 15.894-2.677 15.934-2.942 4.506-5.303-6.922-7.665-18.35-10.026-18.463-9.639-18.576-9.252-18.689-8.865-12.917-7.369-7.145-5.872-1.156-4.319-1.009-2.953-.852-1.507-.696-.061-.464-.041-.232-.02 0 0"
     fill="#231f20"
     id="path32"
     clip-path="none" />
  <path
     transform="matrix(1 0 0 -1 205.787 303.568)"
     d="M0 0C1.554 .374 3.503 .591 5.219 1.341 6.402 1.859 7.622 2.952 8.136 4.097 8.452 4.801 7.725 6.665 7.011 6.982 5.858 7.493 4.072 7.642 3.012 7.08 .776 5.893-1.163 4.147-2.377 3.254-1.608 2.201-.888 1.216 0 0M-1.818-2.337C-2.442-1.566-4.178-.302-4.596 1.306-5.176 3.532 1.438 9.172 4.368 9.229 7.627 9.294 9.788 7.887 9.939 4.335 10.115 .177 6.685-2.002-1.818-2.337"
     fill="#231f20"
     id="path33"
     clip-path="none" />
  <path
     transform="matrix(1 0 0 -1 194.395 104.377)"
     d="M0 0C4.421-1.855 8.842-3.71 13.262-5.564 13.494-5.162 13.726-4.76 13.958-4.357 11.817-5.413 9.676-6.47 7.073-7.754 .895-.71-7.461 .128-16.567-1.853-11.243 1.756-5.581 1.032 .12-.09Z"
     fill="#231f20"
     id="path34"
     clip-path="none" />
  <path
     transform="matrix(1 0 0 -1 393.251 117.047)"
     d="M0 0C-15.617-.958-31.234-1.916-46.85-2.874-46.876-2.456-46.902-2.038-46.928-1.62-31.311-.664-15.694 .291-.077 1.246Z"
     fill="#231f20"
     id="path35"
     clip-path="none" />
  <path
     transform="matrix(1 0 0 -1 83.1812 147.69)"
     d="M0 0C-.9 1.887-3.023 4.376-2.45 5.537-1.164 8.146 1.46 10.095 3.539 12.313 3.84 12.028 4.14 11.743 4.441 11.458 5.279 13.38 6.116 15.303 6.999 17.33 10.351 14.711 8.986 14.821 7.774 12.081 6.274 8.69 2.839 9.967 1.816 8.061 .667 5.921 .871 3.056 .486 .506 .324 .337 .162 .169 0 0"
     fill="#231f20"
     id="path36"
     clip-path="none" />
  <path
     transform="matrix(1 0 0 -1 132.625 295.417)"
     d="M0 0C.009-.391 .018-.782 .028-1.173 1.4-1.173 3.138-1.695 4.057-1.049 5.402-.105 6.36 1.592 7.017 3.163 7.166 3.521 5.407 4.676 4.526 5.464 3.694 4.487 2.693 3.597 2.111 2.488 1.877 2.04 2.56 1.112 2.861 .306 1.652 .177 .826 .088 0 0M6.1 7.615C7.007 6.128 8.408 4.735 8.71 3.135 9.234 .362 4.914-3.939 1.954-3.394 .558-3.137-1.762-.404-1.513 .062-.022 2.862 2.094 5.33 4.001 7.909 4.701 7.811 5.4 7.713 6.1 7.615"
     fill="#231f20"
     id="path37"
     clip-path="none" />
  <path
     transform="matrix(1 0 0 -1 127.338 109.957)"
     d="M0 0C3.978-4.011 4.292-7.34 1.601-10.539 1.046-11.2-1.718-11.192-2.159-10.569-5.081-6.44-1.135-3.949 0 0"
     fill="#231f20"
     id="path38"
     clip-path="none" />
  <path
     transform="matrix(1 0 0 -1 323.149 179.186)"
     d="M0 0C-9.119-4.36-18.237-8.719-27.356-13.079-27.601-12.573-27.846-12.067-28.09-11.562-18.992-7.243-9.894-2.924-.795 1.396-.53 .93-.265 .465 0 0"
     fill="#231f20"
     id="path39"
     clip-path="none" />
  <path
     transform="matrix(1 0 0 -1 333.846 158.731)"
     d="M0 0C2.156 2.093 3.76 3.651 5.364 5.208 6.301 4.131 8.245 2.558 8 2.062 6.947-.077 5.253-1.9 3.792-3.839 2.79-2.824 1.788-1.81 0 0"
     fill="#231f20"
     id="path41"
     clip-path="none" />
  <path
     transform="matrix(1 0 0 -1 148.321 101.639)"
     d="M0 0C-3.22-2.243-6.439-4.486-9.635-6.712-9.302-6.761-8.573-6.869-7.844-6.977-7.743-7.24-7.643-7.502-7.542-7.765-9.687-8.46-11.832-9.155-13.977-9.849-12.284-7.71-10.957-5.029-8.803-3.57-6.24-1.833-2.966-1.143 0 0"
     fill="#231f20"
     id="path42"
     clip-path="none" />
  <path
     transform="matrix(1 0 0 -1 317.465 247.608)"
     d="M0 0C-2.002-.732-4.004-1.464-6.396-2.338-4.224-4.989-2.679-6.875-.312-9.763 1.565-9.67 4.78-9.511 7.995-9.351 6.217-14.273 .8-12.35-.58-11.474-3.515-9.61-5.928-5.882-6.979-2.437-7.779 .184-3.715 1.55 0 0"
     fill="#231f20"
     id="path43"
     clip-path="none" />
  <path
     transform="matrix(1 0 0 -1 359.362 175.444)"
     d="M0 0C2.301-.19 4.601-.381 6.902-.571 6.617-2.194 6.813-4.839 5.954-5.244 3.638-6.335 .613-7.392-1.651-6.755-4.58-5.932-3.612-2.251 .122 .121 .286-1.797 .451-3.715 .616-5.632 1.08-5.81 1.544-5.987 2.007-6.165 3.363-4.818 4.719-3.471 6.074-2.124 4.379-1.446 2.688-.755 .982-.101 .686 .012 .329-.03 0 0"
     fill="#231f20"
     id="path44"
     clip-path="none" />
  <path
     transform="matrix(1 0 0 -1 79.4634 235.473)"
     d="M0 0C2.41-2.026 4.82-4.052 7.23-6.078 8.218-8.687 6.929-8.017 5.564-7.235-2.666-2.517-6.387 4.751-6.682 13.961-4.457 9.309-2.228 4.655 0 0"
     fill="#231f20"
     id="path45"
     clip-path="none" />
  <path
     transform="matrix(1 0 0 -1 98.4728 159.695)"
     d="M0 0C2.033-2.085 3.499-3.589 4.964-5.092 3.704-5.967 2.002-7.84 1.273-7.517-.45-6.753-1.814-5.024-3.023-3.455-3.169-3.265-1.465-1.651 0 0"
     fill="#231f20"
     id="path47"
     clip-path="none" />
  <path
     transform="matrix(1 0 0 -1 234.215 113.195)"
     d="M0 0C-1.469-.104-3.712-.871-4.284-.205-8.3 4.475-12.948 4.573-18.154 2.503-11.446 9.91-6.108 1.837 0 0"
     fill="#231f20"
     id="path48"
     clip-path="none" />
  <path
     transform="matrix(1 0 0 -1 220.651 289.731)"
     d="M0 0C-1.382 1.546-2.151 2.407-2.921 3.267-1.258 4.602 .319 6.09 2.152 7.123 2.457 7.295 3.877 5.487 4.782 4.594 3.358 3.226 1.934 1.858 0 0"
     fill="#231f20"
     id="path49"
     clip-path="none" />
  <path
     transform="matrix(1 0 0 -1 387.642 127.944)"
     d="M0 0-24.992-4.622C-25.075-4.132-25.157-3.642-25.24-3.152-16.882-1.767-8.524-.381-.166 1.004-.111 .669-.055 .335 0 0"
     fill="#231f20"
     id="path50"
     clip-path="none" />
  <path
     transform="matrix(1 0 0 -1 143.616 136.954)"
     d="M0 0C1.618 5.273 3.708 6.532 10.426 5.175 8.239 3.662 6.805 2.415 5.156 1.605 3.614 .847 1.844 .551 0 0"
     fill="#231f20"
     id="path51"
     clip-path="none" />
  <path
     transform="matrix(1 0 0 -1 105.254 142.605)"
     d="M0 0C-1.429 .412-2.858 .824-4.555 1.313-3.454 5.724-3.179 10.093-8.013 12.945-3.264 12.997-2.477 9.565-1.655 6.005-1.207 4.065-.361 2.217 .306 .328 .306 .328 0 0 0 0"
     fill="#231f20"
     id="path52"
     clip-path="none" />
  <path
     transform="matrix(1 0 0 -1 194.514 104.466)"
     d="M0 0C-7.533 4.189-14.549 1.229-22.195-2.214-16.328 3.998-6.702 4.948 2.474 .434 1.22 .267 .549 .178-.121 .09-.12 .09 0 0 0 0"
     fill="#231f20"
     id="path53"
     clip-path="none" />
  <path
     transform="matrix(1 0 0 -1 344.944 159.311)"
     d="M0 0C-1.403 2.792-1.392 5.229 1.584 6.669 2.146 6.941 4.207 5.73 4.349 4.973 4.934 1.843 3.544-.018 0 0"
     fill="#231f20"
     id="path54"
     clip-path="none" />
  <path
     transform="matrix(1 0 0 -1 262.276 143.454)"
     d="M0 0C6.802 2.073 13.603 4.146 20.404 6.219 20.516 5.869 20.627 5.519 20.738 5.169 13.973 2.983 7.207 .797 .442-1.389Z"
     fill="#231f20"
     id="path55"
     clip-path="none" />
  <path
     transform="matrix(1 0 0 -1 159.929 129.536)"
     d="M0 0 2.911 11.9C3.335 11.809 3.758 11.717 4.181 11.625 2.049 7.822 7.131 2.701 1.712-.502 1.142-.335 .571-.167 0 0"
     fill="#231f20"
     id="path56"
     clip-path="none" />
  <path
     transform="matrix(1 0 0 -1 106.356 268.513)"
     d="M0 0C-.476 5.053-3.071 6.027-7.976 3.084-9.029 2.453-10.313-.265-11.389 3.128-8.163 4.105-4.939 5.844-1.709 5.857 1.957 5.871 2.595 2.947 0 0"
     fill="#231f20"
     id="path57"
     clip-path="none" />
  <path
     transform="matrix(1 0 0 -1 367.094 121.027)"
     d="M0 0C-6.195-.733-12.39-1.466-18.586-2.199L-18.723-.907C-12.525-.335-6.327 .238-.129 .81-.086 .54-.043 .27 0 0"
     fill="#231f20"
     id="path58"
     clip-path="none" />
  <path
     transform="matrix(1 0 0 -1 239.233 113.539)"
     d="M0 0C4.165 .677 6.784-.89 8.47-4.903 9.232-6.717 11.374-7.951 12.996-9.552H6.916C7.854-4.185 5.456-.918 .085 .093 .082 .091 0 0 0 0"
     fill="#231f20"
     id="path59"
     clip-path="none" />
  <path
     transform="matrix(1 0 0 -1 228.87 103.745)"
     d="M0 0 .1-.253-.152-.225Z"
     fill="#231f20"
     id="path60"
     clip-path="none" />
  <path
     transform="matrix(1 0 0 -1 190.565 200.58)"
     stroke-width="1"
     stroke-linecap="butt"
     stroke-miterlimit="4"
     stroke-linejoin="miter"
     fill="none"
     stroke="#231f20"
     d="M0 0C-1.814 3.384-7.384 4.108-11.2 2.062-11.348 1.982-13.195 .312-13.462 .1-11.538-3.702-9.866-7.673-7.853-11.427-6.704-13.569-5.288-15.499-4.274-17.746L-1.105-18.328 1.453-17.059C.161-14.722-1.082-12.12-2.136-9.656 .666-6.213 2.212-4.125 0 0ZM-5.156 2.512C-6.63 1.993-8.268 1.354-9.659 .607-10.073 .386-10.564-.048-10.95-.323L-12.333 .195C-11.616 .919-11.404 1.306-10.604 1.803-9.981 2.205-7.362 2.86-7.114 2.823-6.456 2.733-5.813 2.602-5.156 2.512ZM-1.293 .566C.189-.92 .44-3.236 .321-5.002-.175-6.494-1.749-8.46-3.025-9.418-1.972-11.951-.802-14.489 .577-16.847L-1.121-17.588C-4.124-14.262-6.3-8.995-8.426-5.029-9.164-3.654-9.781-2.147-10.459-.741-9.866-.355-9.227 .158-8.635 .476-7.304 1.189-5.664 1.967-4.182 2.115-4.182 2.115-1.85 1.391-1.293 .566ZM-2.205-17.556-3.941-17.159C-4.867-14.864-6.254-12.987-7.402-10.846-9.26-7.382-10.718-3.739-12.664-.323L-11.139-1.037C-9.394-4.22-7.723-7.478-6.008-10.676-5.554-11.522-5.205-12.458-4.737-13.331-3.971-14.759-3.029-16.16-2.205-17.556ZM-1.72-1.126C-3.097 1.301-7.525-.529-7.525-.529-6.778-2.137-6.104-3.75-5.267-5.309-4.941-5.917-4.229-7.102-4.229-7.102-4.229-7.102 .042-4.199-1.72-1.126ZM-5.193-.402C-5.193-.402-3.922-2.205-3.862-2.956-3.992-3.638-4.656-4.744-4.656-4.744L-6.579-.873ZM-2.012-1.93C-1.363-3.284-2.909-5.373-3.981-6.356L-4.429-5.167C-3.83-4.437-3.027-2.951-3.75-1.603-4.005-1.126-4.319-.682-4.679-.296-3.793-.74-2.902-.058-2.012-1.93Z"
     id="path75"
     clip-path="none" />
  <path
     transform="matrix(1 0 0 -1 211.568 196.033)"
     stroke-width="1"
     stroke-linecap="butt"
     stroke-miterlimit="4"
     stroke-linejoin="miter"
     fill="none"
     stroke="#231f20"
     d="M0 0C-2.505 5.053-6.166 10.471-13.535 6.818-16.302 5.446-16.998 4.431-18.121 1.33-18.365-1.503-17.945-4.543-16.799-6.854-15.439-9.596-14.123-11.421-11.423-13.164-9.975-14.12-4.764-13.747-1.679-12.184 2.986-9.804 1.572-3.172 0 0ZM-6.371 6.652-6.511 6.784C-8.054 6.42-9.32 6.329-10.824 5.583-17.501 2.273-16.669-2.203-14.124-7.337-12.872-9.863-11.137-11.548-9.402-12.932L-10.264-13.158C-12.734-11.804-14.011-10.361-15.331-8.002-18.026-3.244-19.124 3.277-13.238 6.295-10.287 7.825-7.018 7.504-6.371 6.652ZM-.795 .242C.884-3.145 2.492-9.412-2.41-11.843-8.396-14.81-11.631-11.157-13.683-6.716-15.771-2.126-15.952 2.472-11.139 4.858-5.274 7.766-3.02 4.731-.795 .242ZM-4.074 .96C-5.566 3.971-8.027 4.325-11.246 2.729-15.246 .746-12.861-4.065-11.582-6.646-10.396-9.038-8.059-12.467-4.54-10.722 .243-8.351-2.568-2.077-4.074 .96ZM-4.589 .337C-4.316-.365-2.661-4.534-2.533-5.776-2.361-7.332-3.198-8.818-4.385-9.976-3.46-7.307-4.281-4.366-5.56-1.785L-6.663 .514C-6.942 1.079-9.211 2.934-9.211 2.934-9.211 2.934-5.9 3.738-4.589 .337ZM-6.794-.656C-5.875-2.511-3.071-8.922-5.898-10.324-8.124-11.428-10.17-7.754-10.863-6.356-11.876-4.313-14.425 .45-11.216 2.141-9.258 3.179-7.5 .769-6.794-.656Z"
     id="path76"
     clip-path="none" />
  <path
     transform="matrix(1 0 0 -1 234.159 192.921)"
     stroke-width="1"
     stroke-linecap="butt"
     stroke-miterlimit="4"
     stroke-linejoin="miter"
     fill="none"
     stroke="#231f20"
     d="M0 0-2.307 4.884-4.803 9.945-6.734 14.241-9.213 15.824-13.486 13.047-12.021 9.298-10.231 5.563-13.41 4.036-15.089 7.524-16.81 10.369-20.543 11.552-24.094 9.133-21.843 4.125-20.279-.335-18.941-4.537-16.948-9.462-13.908-9.838-9.744-7.802-10.932-4.915-12.273-1.439-7.834 .721-4.761-4.64-1.757-4.935 1.322-3.188ZM-7.727 13.992-10.188 12.589-12.095 13.146-9.169 14.988ZM-10.358 11.986-9.207 8.688-7.951 4.912-9.644 5.729-10.678 8.521-12.591 12.529ZM-18.01 10.092-20.888 8.634-22.599 9.246-20.444 10.84ZM-7.919 4.104-12.739 2.298-13.231 3.393-9.777 5.044ZM.434-2.93-1.844-4.25-3.799-.886-5.342 2.302-10.046 .483-13.206-.839-12.036-3.932-10.633-7.544-13.664-8.907-15.903-3.927-18.125 1.751-20.268 7.991-17.243 9.615-15.055 5.237-13.369 1.489-6.748 3.709-7.912 7.527-9.495 12.276-7.327 13.349-4.684 7.959-2.224 2.98ZM-2.751-4.197-4.357-4.064-7.166 .956-5.715 1.411ZM-21.138 7.962-19.771 4.432-18.005-.234-16.737-3.545-14.497-9.018-16.624-8.955-18.251-3.864-19.581 .077-21.409 4.88-23.125 8.45Z"
     id="path77"
     clip-path="none" />
  <path
     transform="matrix(1 0 0 -1 266.486 173.345)"
     stroke-width="1"
     stroke-linecap="butt"
     stroke-miterlimit="4"
     stroke-linejoin="miter"
     fill="none"
     stroke="#231f20"
     d="M0 0C-1.966 5.286-5.042 11.056-12.752 8.189-15.646 7.112-16.444 6.175-17.884 3.208-18.421 .415-18.319-2.652-17.42-5.07-16.354-7.938-15.233-9.89-12.729-11.904-11.389-13.005-6.168-13.176-2.938-11.943 1.951-10.061 1.234-3.318 0 0ZM-5.644 7.279-5.77 7.425C-7.342 7.224-8.611 7.264-10.185 6.679-17.17 4.082-16.808-.457-14.811-5.828-13.827-8.471-12.277-10.327-10.696-11.883L-11.577-12.019C-13.893-10.416-15.013-8.848-16.079-6.364-18.266-1.352-18.679 5.249-12.511 7.638-9.417 8.853-6.198 8.193-5.644 7.279ZM-.765 .324C.553-3.219 1.5-9.621-3.629-11.528-9.891-13.856-12.728-9.886-14.307-5.256-15.905-.474-15.607 4.118-10.573 5.99-4.437 8.272-2.511 5.02-.765 .324ZM-3.951 1.379C-5.122 4.528-7.533 5.136-10.9 3.884-15.085 2.328-13.214-2.705-12.21-5.405-11.279-7.907-9.312-11.561-5.63-10.191-.627-8.331-2.77-1.798-3.951 1.379ZM-4.528 .812C-4.33 .086-3.118-4.232-3.119-5.481-3.11-7.046-4.098-8.438-5.398-9.465-4.2-6.907-4.711-3.896-5.715-1.197L-6.572 1.205C-6.792 1.795-8.855 3.876-8.855 3.876-8.855 3.876-5.479 4.332-4.528 .812ZM-6.825 .054C-6.104-1.886-3.982-8.555-6.94-9.654-9.269-10.521-10.921-6.654-11.465-5.192-12.26-3.055-14.299 1.948-10.932 3.296-8.876 4.125-7.38 1.544-6.825 .054Z"
     id="path79"
     clip-path="none" />
  <path
     transform="matrix(1 0 0 -1 288.943 170.548)"
     stroke-width="1"
     stroke-linecap="butt"
     stroke-miterlimit="4"
     stroke-linejoin="miter"
     fill="none"
     stroke="#231f20"
     d="M0 0-1.571 4.441-3.831 9.792-5.935 13.49-9.277 14.946-11.925 12.683-13.256 7.821-15.671 9.678-17.751 11.804-20.612 9.975-23.235 8.068-20.688 .347-18.95-4.924-17.145-9.541-14.071-10.391-11.441-9.682-12.063-5.117-12.748-2.184-9.103-1.771-8.174 1.095-6.839-2.951-5.276-6.511-2.175-6.909 1.424-5.28ZM-7.17 13.272-9.546 11.793-11.252 12.462-9.263 14.256ZM-9.928 11.13-10.769 8.642-11.573 5.723-12.67 7.225-11.414 11.777ZM-16.468 9.415-17.99 8.029-20.119 6.979C-20.933 6.553-22.222 7.675-22.25 7.761-22.278 7.846-20.936 8.921-20.102 9.606L-18.029 10.827ZM-.318-1.179C-.299-1.236 .254-3.233 .59-4.576-.447-5.076-2.116-5.91-2.144-5.825-2.172-5.739-3.412-2.516-3.865-1.464L-5.563 2.398-6.855 4.815-7.919 7.181-8.648 4.034-9.681-.982-11.968 .917-14.363 3.033-15.811 4.42-15.208 2.06-14.362-.504-12.681-5.067-12.123-9.116-13.86-9.531-14.802-6.999-16.252-3.244-17.719 .347-19.095 3.874-19.711 6.387-16.042 8.766C-15.278 8.165-14.063 7.271-14.045 7.213-14.017 7.128-12.095 5.266-11.163 3.836L-10.652 5.932-9.82 9.302-9.358 11.223-6.394 12.738-4.205 8.785-2.113 4.263C-1.408 2.126-.347-1.094-.318-1.179ZM-2.817-6.142-4.858-5.741-6.479-2.327-7.831 2.092-7.564 4.928-5.99 1.657C-5.38 .342-4.654-1.536-4.579-1.763-4.495-2.02-3.495-4.407-2.817-6.142ZM-10.449-1.33-13.362-1.501-14.507 2.291ZM-16.133-4.784-14.849-9.32-16.734-8.963-18.312-4.713-19.743-.163-22.1 6.768-20.178 5.98-19.249 2.306-17.555-1.652Z"
     id="path80"
     clip-path="none" />
  <path
     transform="matrix(1 0 0 -1 310.369 169.492)"
     stroke-width="1"
     stroke-linecap="butt"
     stroke-miterlimit="4"
     stroke-linejoin="miter"
     fill="none"
     stroke="#231f20"
     d="M0 0C-1.73 3.684-3.654 6.344-5.964 9.735-6.808 10.959-7.651 12.183-8.463 13.416L-9.823 15.458C-10.559 16.307-11.608 17.159-12.432 17.951L-15.558 18.607C-16.153 16.561-17.146 12.745-17.379 10.772-17.512 9.421-17.386 8.021-17.455 6.689-17.604 3.585-18.101 .35-18.712-2.731L-15.631-4.682-12.341-4.697C-12.318-4.41-12.331-4.007-12.276-3.71-11.645-1.185-11.005 1.312-10.77 3.878L-9.293 4.212-7.098-.837-3.014-1.903ZM-1.062 .411-3.121-.81C-3.645-.087-4.241 .646-4.709 1.417-5.028 1.917-5.18 2.561-5.5 3.062-6.196 4.14-6.49 4.43-7.221 5.624-8.003 5.429-9.037 5.379-9.695 4.876L-11.668 4.086C-11.373 1.86-12.446-1.917-12.919-4.146L-14.797-3.94C-14.418-1.145-14.015 1.689-13.773 4.476-13.597 6.401-13.744 8.357-13.43 10.291L-13.032 12.78-12.609 15.182-12.202 16.674C-11.272 15.757-10.324 14.532-9.482 13.558-8.535 12.458-7.706 11.043-6.87 9.848-4.774 6.832-2.612 3.71-1.062 .411ZM-13.169 17.238C-13.584 14.807-14.046 12.299-14.282 9.857-14.369 8.708-14.351 7.557-14.445 6.437-14.682 3.026-15.079-.431-15.671-3.819L-18.004-2.277C-17.465 .69-16.927 3.657-16.702 6.626-16.612 8.246-16.87 9.982-16.666 11.571L-16.104 13.733C-15.769 15.111-15.434 16.488-15.14 17.885ZM-3.637-.959C-4.641-.75-5.645-.541-6.682-.341-6.92 .121-7.338 .718-7.479 1.208-7.813 2.36-7.977 3.406-8.688 4.418L-7.415 4.849C-6.338 2.819-4.987 .93-3.637-.959ZM-8.237 8.171C-8.303 8.277-9.025 9.443-9.042 9.5-9.167 9.933-9.212 10.451-9.313 10.921-9.985 11.07-10.93 10.953-11.575 10.766-11.53 9.404-11.452 7.928-11.068 6.603L-9.976 6.45-8.189 7.28ZM-8.951 7.497-10.402 7.077-10.835 10.262-9.921 10.245Z"
     id="path81"
     clip-path="none" />
</svg>
