<?xml version="1.0" standalone="no"?>
<!DOCTYPE svg PUBLIC "-//W3C//DTD SVG 20010904//EN"
 "http://www.w3.org/TR/2001/REC-SVG-20010904/DTD/svg10.dtd">
<svg version="1.0" xmlns="http://www.w3.org/2000/svg"
 width="700.000000pt" height="700.000000pt" viewBox="0 0 700.000000 700.000000"
 preserveAspectRatio="xMidYMid meet">
<metadata>
Created by potrace 1.14, written by Peter Selinger 2001-2017
</metadata>
<g transform="translate(0.000000,700.000000) scale(0.100000,-0.100000)"
fill="#000000" stroke="none">
<path d="M5556 6903 c3 -21 15 -78 26 -128 11 -49 21 -97 23 -105 2 -8 13 -53
25 -100 30 -118 48 -227 40 -240 -8 -12 -72 -8 -140 10 -19 5 -51 12 -70 15
-19 3 -66 12 -105 20 -77 16 -162 28 -155 22 64 -53 171 -147 190 -167 14 -14
48 -43 75 -65 68 -54 87 -74 80 -85 -3 -5 -38 -31 -78 -57 -58 -39 -112 -62
-280 -118 -123 -41 -207 -74 -207 -82 0 -8 11 -11 33 -8 17 2 88 6 157 9 127
6 298 15 403 21 31 2 57 2 57 0 0 -2 -19 -36 -43 -77 -24 -40 -63 -108 -86
-152 -51 -92 -50 -92 99 14 118 84 149 100 196 100 48 0 96 -36 136 -102 l31
-50 33 72 c19 39 34 77 34 84 0 17 -76 42 -199 66 -175 33 -209 63 -215 191
-8 170 56 287 196 357 91 47 153 52 220 19 58 -29 151 -114 174 -160 23 -43
25 -85 8 -157 -22 -95 -24 -123 -11 -146 12 -21 12 -21 87 -3 41 10 107 26
145 35 l70 17 -77 76 c-65 64 -78 82 -78 109 0 32 34 80 94 131 15 14 33 29
40 35 6 6 56 44 111 85 55 41 104 78 109 82 5 4 -27 -4 -70 -17 -151 -48 -270
-74 -364 -81 -121 -7 -125 -3 -117 100 3 39 9 83 12 97 4 21 14 80 30 180 4
30 7 86 6 119 -1 24 -2 24 -32 -10 -17 -19 -67 -92 -112 -164 -97 -154 -131
-195 -162 -195 -34 0 -89 67 -221 268 -63 94 -116 172 -119 172 -3 0 -2 -17 1
-37z"/>
<path d="M6015 6025 c1 -11 19 -69 38 -130 157 -489 155 -677 -9 -841 -38 -37
-181 -120 -191 -110 -2 2 -6 55 -8 117 -5 142 -10 172 -40 234 -36 74 -80 100
-170 100 -62 0 -81 -5 -148 -38 -265 -131 -488 -464 -502 -746 -5 -123 14
-170 128 -306 139 -165 135 -238 -18 -384 l-76 -72 -42 35 c-123 100 -248 111
-405 35 l-63 -30 -142 114 c-268 215 -352 259 -494 259 -69 0 -95 -11 -217
-89 -236 -151 -635 -428 -889 -616 -196 -145 -247 -174 -665 -382 -1016 -506
-1195 -596 -1472 -743 -127 -67 -168 -94 -182 -122 -7 -14 -23 -41 -35 -61
-12 -20 -20 -39 -17 -42 2 -2 24 -1 47 3 23 4 65 10 92 14 28 3 74 8 103 12
48 6 52 5 52 -15 0 -12 -3 -20 -7 -19 -22 6 -148 -27 -175 -46 -43 -29 -79
-106 -85 -180 -4 -50 0 -77 27 -156 32 -96 65 -179 101 -259 11 -24 29 -66 40
-93 l20 -50 -29 18 c-117 77 -191 195 -215 346 -18 115 -9 305 20 403 12 43
-45 -26 -73 -88 -39 -86 -39 -200 0 -342 16 -55 37 -131 47 -170 28 -101 27
-160 -4 -221 -95 -188 -77 -380 62 -621 103 -181 247 -263 441 -250 96 7 125
11 158 21 20 7 25 1 47 -49 14 -30 25 -59 25 -64 0 -5 17 -38 37 -75 95 -171
274 -279 446 -270 114 6 205 52 318 161 93 89 267 215 495 358 181 114 378
247 439 298 67 55 410 315 514 390 220 156 350 230 591 335 63 27 144 62 180
78 64 27 381 187 470 236 25 14 140 76 255 138 267 144 275 149 310 200 27 39
30 51 30 124 0 130 8 130 -210 -5 -104 -64 -230 -142 -280 -172 l-90 -55 -40
24 c-38 22 -40 26 -40 71 0 49 10 171 21 253 12 95 52 197 91 232 42 39 117
62 366 113 10 2 27 7 36 10 15 5 25 -18 67 -159 26 -91 50 -163 52 -162 2 2
-2 42 -8 87 -6 46 -13 98 -15 114 -2 17 -6 46 -9 65 -29 214 -29 201 -8 224
108 117 145 322 87 486 -38 107 -12 199 89 320 30 36 71 97 92 135 35 64 38
76 39 150 0 105 -29 165 -130 271 -93 98 -119 148 -118 229 1 64 17 118 64
221 102 219 206 325 371 375 68 20 64 24 72 -71 16 -176 27 -226 61 -285 65
-111 184 -136 264 -56 113 113 234 332 287 521 24 82 33 200 20 260 -21 97
-15 79 -62 174 -36 74 -93 152 -172 236 -39 42 -60 58 -57 45z m-1885 -1917
c94 -44 160 -125 164 -200 5 -87 -49 -202 -112 -242 -57 -35 -140 -59 -219
-62 -65 -3 -79 0 -140 31 -37 19 -84 50 -104 67 -20 18 -61 55 -93 82 -31 28
-55 53 -54 58 2 4 35 48 73 98 116 152 206 202 350 197 61 -2 93 -9 135 -29z
m-595 -350 c272 -138 498 -372 692 -716 34 -63 63 -115 63 -117 0 -3 11 -28
24 -58 65 -141 117 -324 134 -472 15 -126 4 -427 -15 -446 -4 -4 -20 -10 -34
-14 -23 -6 -32 1 -80 66 l-54 73 -7 -49 c-4 -28 -9 -66 -12 -85 -2 -19 -7 -53
-10 -75 -4 -22 -8 -51 -10 -65 -3 -23 -7 -25 -60 -26 -31 0 -59 2 -61 6 -2 3
-5 53 -6 111 -4 215 -39 388 -121 593 -104 261 -233 464 -403 629 -82 80 -375
299 -450 337 -21 10 -131 83 -147 97 -13 12 -14 20 -6 44 5 16 15 29 22 29 6
0 105 -38 219 -84 114 -47 207 -82 207 -78 0 4 -45 50 -100 102 -55 52 -100
99 -100 105 1 38 18 36 146 -16 71 -28 132 -53 137 -56 23 -14 -4 17 -89 102
-96 93 -96 95 -81 119 l16 24 53 -19 c29 -11 89 -38 133 -61z m1414 25 c126
-95 183 -210 182 -367 0 -84 -27 -145 -101 -228 -58 -66 -173 -154 -245 -188
-27 -14 -117 -50 -200 -81 l-150 -56 -64 96 c-214 319 -234 365 -196 445 82
173 404 346 633 341 34 -1 62 1 62 5 0 4 -7 24 -15 43 -8 20 -15 39 -15 42 0
10 73 -25 109 -52z m-1909 -360 c66 -39 165 -137 222 -221 27 -39 51 -78 54
-85 7 -18 -41 -47 -715 -432 -123 -71 -206 -71 -344 -4 -125 61 -163 109 -154
191 4 27 11 56 18 64 28 34 518 375 680 474 81 49 86 51 139 45 32 -3 73 -17
100 -32z m-1222 -661 c94 -49 172 -85 172 -80 0 4 -13 35 -29 68 -16 33 -27
60 -24 60 3 0 50 -32 104 -70 296 -212 529 -447 669 -675 38 -63 210 -397 210
-409 0 -3 15 -36 34 -74 30 -63 34 -80 40 -194 3 -69 8 -134 11 -146 2 -12 1
-22 -3 -23 -4 0 -15 -2 -25 -4 -15 -3 -35 30 -102 168 -46 95 -84 167 -85 161
0 -6 4 -35 9 -65 5 -30 12 -78 16 -108 3 -29 10 -85 16 -125 5 -39 13 -91 16
-116 3 -25 9 -65 13 -90 10 -52 6 -58 -39 -62 -31 -3 -34 0 -51 43 -10 26 -26
64 -35 85 l-16 38 -126 -190 c-69 -104 -128 -192 -132 -196 -3 -4 -6 54 -7
130 0 127 -11 329 -18 342 -2 3 -7 29 -10 59 -4 29 -8 56 -10 60 -2 3 -7 22
-10 41 -11 70 -48 197 -83 285 -137 350 -381 619 -738 817 -68 37 -248 117
-319 142 -28 10 -13 18 56 31 79 15 190 11 254 -8 136 -40 207 -91 473 -335
42 -39 146 -112 159 -112 5 0 17 9 27 20 22 24 34 9 -120 140 -55 46 -102 86
-105 90 -3 3 -48 41 -100 85 -52 44 -97 82 -100 85 -7 8 -182 154 -192 161 -9
6 10 59 21 59 3 -1 84 -40 179 -88z m-403 -287 c69 -17 166 -63 209 -98 l29
-24 -17 -44 c-55 -138 -168 -202 -284 -162 -24 8 -45 13 -46 11 -2 -3 -145
-188 -152 -197 -3 -3 -195 159 -235 198 -8 9 -34 31 -57 50 l-41 35 25 35 c66
90 178 166 290 195 72 19 209 20 279 1z m2550 -260 c29 -83 43 -164 40 -225
-7 -130 -80 -210 -275 -302 -128 -61 -184 -96 -325 -201 -177 -132 -265 -140
-362 -34 -56 61 -60 80 -28 151 84 189 239 342 465 457 58 29 463 207 466 205
1 -1 10 -23 19 -51z m-1983 -155 c51 -26 73 -50 132 -147 70 -113 126 -242
126 -291 0 -29 -69 -162 -85 -162 -5 0 -34 11 -62 25 -29 13 -53 20 -53 15 0
-5 -21 -70 -46 -145 l-47 -136 -38 3 c-36 2 -39 4 -45 37 -48 279 -175 476
-382 594 l-53 30 78 48 c130 80 206 122 253 141 61 24 163 19 222 -12z m-1332
-108 c197 -95 235 -138 269 -302 20 -97 16 -117 -31 -167 -20 -21 -20 -21 -83
-4 -34 10 -85 29 -111 43 -44 22 -54 34 -92 109 -38 76 -132 328 -132 355 0
11 40 34 50 29 3 -1 61 -29 130 -63z m700 -114 c164 -49 327 -215 391 -398 31
-88 36 -242 10 -318 -31 -89 -87 -132 -173 -132 l-42 0 54 34 c90 56 123 118
121 228 -1 73 -39 203 -81 275 -74 128 -215 241 -314 250 -61 6 -94 -8 -149
-60 -61 -60 -87 -115 -93 -203 -17 -218 109 -381 379 -491 l82 -33 -50 0
c-199 0 -399 153 -466 357 -37 112 -26 253 29 359 67 131 164 173 302 132z m6
-318 c141 -69 254 -204 254 -303 0 -141 -170 -168 -302 -48 -85 77 -135 191
-139 311 -3 103 -6 98 54 89 28 -5 89 -26 133 -49z m-887 -201 c-85 -272 2
-541 208 -644 17 -8 60 -17 96 -19 93 -5 138 18 171 87 35 73 30 163 -18 322
-53 172 -52 165 -14 123 44 -49 94 -132 119 -199 30 -78 30 -214 0 -292 -37
-94 -98 -139 -194 -143 -99 -4 -181 32 -265 117 -127 126 -201 309 -197 481 3
99 27 162 76 201 19 15 35 27 35 27 1 0 -7 -28 -17 -61z m1857 -98 c64 -39 84
-157 49 -290 -33 -127 -83 -201 -167 -246 -29 -15 -101 -57 -161 -92 -59 -34
-112 -63 -117 -63 -5 0 -21 39 -35 87 -15 49 -35 115 -46 148 -37 117 -36 126
18 178 26 25 70 63 98 84 79 61 308 213 320 213 5 0 24 -9 41 -19z m-1714 -85
c87 -12 155 -51 194 -112 22 -32 42 -119 38 -164 -5 -61 -14 -134 -18 -138
-11 -10 -102 14 -157 42 -103 51 -143 129 -153 296 -6 95 -11 91 96 76z m634
-243 c-3 -16 -8 -44 -11 -63 -3 -19 -7 -46 -10 -60 -2 -14 -7 -45 -10 -70 -3
-25 -8 -54 -12 -65 l-5 -20 16 20 c8 11 16 23 16 27 0 4 11 32 25 62 25 54 25
55 63 50 20 -3 69 -21 109 -40 90 -43 143 -102 211 -233 54 -106 55 -127 8
-186 -21 -26 -28 -28 -102 -30 -147 -4 -194 37 -308 263 -14 28 -29 52 -32 52
-3 0 -2 -5 2 -11 9 -16 84 -322 80 -327 -9 -8 -88 73 -113 115 -63 108 -85
222 -63 329 15 73 40 123 87 174 42 47 57 51 49 13z m429 -54 c136 -112 193
-244 181 -418 -9 -146 -69 -231 -185 -265 -59 -17 -59 -15 -1 43 100 102 135
216 103 341 -15 58 -80 199 -132 288 -17 28 -28 52 -24 52 5 0 31 -18 58 -41z"/>
</g>
</svg>
